<svg id="Capa_1" enable-background="new 0 0 511.382 511.382" height="512" viewBox="0 0 511.382 511.382" width="512" xmlns="http://www.w3.org/2000/svg"><g><g><path d="m35.954 304.779v81.104c0 10.993 8.912 19.905 19.905 19.905h17.575 81.16v-101.009z" fill="#fedba6"/><g id="XMLID_195_"><g><path d="m475.431 302.777v83.11c0 10.99-8.91 19.9-19.91 19.9h-17.57-77.96v-104.8z" fill="#fedba6"/></g></g><path d="m359.991 335.779h115.44v-33.002l-115.44-1.79z" fill="#fece85"/><path d="m437.947 315.779h46.749c2.51 0 4.545-2.035 4.545-4.545v-47.688c0-12.29-9.963-22.253-22.253-22.253h-62.424-67.019v74.486z" fill="#f9f7f8"/><path d="m35.954 304.779h118.64v31h-118.64z" fill="#fece85"/><path d="m73.435 315.779h-46.749c-2.51 0-4.545-2.035-4.545-4.545v-47.688c0-12.29 9.963-22.253 22.253-22.253h62.424 88.924v74.486z" fill="#f9f7f8"/><g fill="#efedef"><path d="m102.146 300.987h-14.457c-20.345 0-36.838-16.493-36.838-36.838v-15.395c0-2.618.456-5.128 1.286-7.461h-7.744c-12.29 0-22.253 9.963-22.253 22.253v47.688c0 2.51 2.035 4.545 4.545 4.545h46.749 122.307v-14.791h-93.595z"/><path d="m81.821 241.293v74.486h113.92v-74.486h-88.924z"/><path d="m462.613 291.112h-5.875c-15.01 0-27.177-12.168-27.177-27.177v-22.642h-24.996-18.019v74.486h32.746 10.27 8.386 46.749c2.51 0 4.545-2.035 4.545-4.545v-20.121h-26.629z"/></g><g><g><g><path d="m311.508 63.203v-19.579c0-19.951-16.173-36.124-36.124-36.124h-39.386c-19.951 0-36.124 16.173-36.124 36.124v19.579 43.809h30v-43.809-19.578c0-3.377 2.747-6.125 6.124-6.125h39.387c3.377 0 6.124 2.748 6.124 6.125v19.578 43.809h30v-43.809z" fill="#efedef"/></g></g></g><g id="XMLID_193_"><g><path d="m404.561 147.367v157.93h-297.74v-157.93c0-46.48 37.68-84.16 84.16-84.16h129.42c46.48 0 84.16 37.68 84.16 84.16z" fill="#fece85"/></g></g><path d="m415.491 330.267v-43.21h-318.327v43.21h-22.733v101.478c3.265.08 5.704.162 5.704.162v42.718l30.284 20.798h103.988 198.851l19.707-24.446v-39.069h4.986v-101.64h-22.46z" fill="#fece85"/><path d="m404.561 258.009c-2.904-.464-5.878-.712-8.91-.712h-216.875c-8.912 0-16.137-7.225-16.137-16.137v-93.793c0-46.48 37.68-84.16 84.16-84.16h-55.817c-46.48 0-84.16 37.68-84.16 84.16v157.93h55.817v-26.761h241.923v-20.527z" fill="#fec165"/><g id="XMLID_194_"><g><g><path d="m359.991 167.247v56.66c0 9.6-7.34 17.39-16.4 17.39h-175.8c-9.06 0-16.4-7.79-16.4-17.39v-56.66-31.83h208.6z" fill="#efedef"/></g></g></g><path d="m151.391 135.417v31.83 22h52.197c4.498 0 8.145 3.647 8.145 8.145v2.532c0 8.947 5.626 16.928 14.053 19.935l26.349 9.402c2.3.821 4.812.821 7.112 0l26.349-9.402c8.405-3 14.052-11.011 14.052-19.935v-2.532c0-4.498 3.647-8.145 8.145-8.145h52.197v-22-31.83z" fill="#e5e1e5"/><path d="m320.401 93.207h-129.42c-29.91 0-54.16 24.25-54.16 54.16v10.814h46.288v.13h2.899v8.936h25.883 157.23c3.01 0 5.44-2.44 5.44-5.44v-14.44c0-29.91-24.25-54.16-54.16-54.16z" fill="#f9f7f8"/><path d="m240.171 93.207h-49.19c-29.91 0-54.16 24.25-54.16 54.16v14.44c0 3 2.43 5.44 5.44 5.44h43.75v-19.88c0-29.912 24.249-54.16 54.16-54.16z" fill="#efedef"/><g><g id="XMLID_198_"><g><path d="m151.391 313.587c0-4.276.642-8.401 1.825-12.29h-57.083v28.97h-21.702v101.64h23.693v58.656h64.771c-7.128-7.569-11.504-17.758-11.504-28.976z" fill="#fec165"/><path d="m416.151 431.907c-4.53 0-8.2 3.68-8.2 8.21v21.47c0 6.79-5.51 12.29-12.3 12.29h-278.92c-6.79 0-12.3-5.5-12.3-12.29v-21.47c0-4.53-3.67-8.21-8.2-8.21h-21.8l5.311 5.07-1.315 30.915 11.181 21.37 29.267 10.852v3.763h276.777c23.36 0 42.3-18.93 42.3-42.29v-29.68z" fill="#f9f7f8"/><path d="m437.951 313.587v16.68h-19.03c-6.06 0-10.97-4.92-10.97-10.98v-5.69c0-6.8-5.51-12.3-12.3-12.3h-278.92c-6.79 0-12.3 5.5-12.3 12.3v5.69c0 6.06-4.91 10.98-10.97 10.98h-19.03v-16.68c0-23.36 18.94-42.29 42.3-42.29h278.92c23.36 0 42.3 18.93 42.3 42.29z" fill="#f9f7f8"/><path d="m104.431 319.287v-5.69c0-6.8 5.51-12.3 12.3-12.3h36.48c5.267-17.363 21.395-30 40.48-30h-76.96c-23.36 0-42.3 18.93-42.3 42.29v16.68h19.03c6.06 0 10.97-4.92 10.97-10.98z" fill="#efedef"/></g></g></g><path d="m340.06 389.306v37.237c0 8.745-7.089 15.834-15.834 15.834h-137.069c-8.745 0-15.834-7.089-15.834-15.834v-37.237-32.376h168.737z" fill="#efedef"/><path d="m171.322 389.306v16.181l84.369 12.754 84.369-12.754v-16.181-32.376h-168.738z" fill="#e5e1e5"/><path d="m328.706 335.031h-108.788l-4.319.362-19.858 5.826v1.599h-5.451l-3.286.964s.005-.365.013-.964h-19.35v45.935l88.024 13.307 90.146-13.627c3.792-.573 6.595-3.832 6.595-7.667v-22.007c.001-13.105-10.622-23.728-23.726-23.728z" fill="#f9f7f8"/><path d="m199.874 387.435v-28.677c0-13.104 10.623-23.727 23.727-23.727h-40.924c-13.104 0-23.727 10.623-23.727 23.727v22.007c0 3.835 2.803 7.094 6.595 7.667l34.329 5.189z" fill="#efedef"/><path d="m284.648 166.984h-57.915v32.939c0 2.606 1.639 4.931 4.094 5.807l24.864 8.872 24.864-8.872c2.455-.876 4.094-3.201 4.094-5.807v-32.939z" fill="#fedba6"/><g id="XMLID_196_"><g><path d="m299.491 136.827v35.25c0 4.37-3.53 7.91-7.9 7.91h-71.8c-4.37 0-7.9-3.54-7.9-7.91v-35.25c0-4.36 3.53-7.9 7.9-7.9h71.8c4.37 0 7.9 3.54 7.9 7.9z" fill="#fec165"/></g></g><path d="m153.211 473.877h-36.48c-6.79 0-12.3-5.5-12.3-12.29v-21.47c0-4.53-3.67-8.21-8.2-8.21h-21.8v29.68c0 23.36 18.94 42.29 42.3 42.29h76.96c-19.085 0-35.213-12.637-40.48-30z" fill="#efedef"/></g><g><path d="m142.261 174.748h1.629v49.163c0 13.72 10.72 24.882 23.896 24.882h175.809c13.176 0 23.896-11.162 23.896-24.882v-49.163h1.629c7.138 0 12.944-5.807 12.944-12.944v-14.437c0-34.001-27.662-61.664-61.664-61.664h-12.272c-4.142 0-7.5 3.358-7.5 7.5s3.358 7.5 7.5 7.5h12.272c25.73 0 46.664 20.933 46.664 46.664v12.381h-60.07v-22.916c0-8.493-6.91-15.403-15.402-15.403h-71.804c-8.493 0-15.402 6.91-15.402 15.403v22.916h-60.07v-12.381c0-25.73 20.933-46.664 46.664-46.664h85.187c4.142 0 7.5-3.358 7.5-7.5s-3.358-7.5-7.5-7.5h-85.187c-34.001 0-61.664 27.662-61.664 61.664v14.437c.001 7.137 5.808 12.944 12.945 12.944zm210.23 49.163c0 5.449-3.991 9.882-8.896 9.882h-175.808c-4.905 0-8.896-4.433-8.896-9.882v-49.163h45.743c1.237 7.045 7.268 12.445 14.6 12.708v12.468c0 5.762 3.646 10.935 9.073 12.872l24.864 8.872c.815.291 1.668.436 2.521.436s1.706-.146 2.521-.436l24.864-8.872c5.427-1.937 9.073-7.109 9.073-12.871v-12.468c7.331-.263 13.363-5.663 14.6-12.708h45.743v49.162zm-118.258-36.427h42.915v11.5l-21.458 7.656-21.458-7.656v-11.5zm-14.846-50.652c0-.222.181-.403.402-.403h71.804c.222 0 .402.181.402.403v35.25c0 .222-.181.402-.402.402h-6.944-57.915-6.944c-.222 0-.402-.181-.402-.402v-35.25z"/><path d="m163.822 395.729v30.813c0 12.867 10.468 23.335 23.334 23.335h78.37c4.142 0 7.5-3.358 7.5-7.5s-3.358-7.5-7.5-7.5h-78.37c-4.596 0-8.334-3.739-8.334-8.335v-28.518l75.748 11.451c.372.056.747.084 1.121.084s.75-.028 1.121-.084l75.748-11.451v28.518c0 4.596-3.739 8.335-8.334 8.335h-26.736c-4.142 0-7.5 3.358-7.5 7.5s3.358 7.5 7.5 7.5h26.735c12.867 0 23.334-10.468 23.334-23.335v-30.813c7.202-1.378 12.373-7.567 12.373-14.964v-22.007c0-17.219-14.008-31.227-31.227-31.227h-146.029c-17.219 0-31.227 14.008-31.227 31.227v22.007c0 7.397 5.171 13.587 12.373 14.964zm2.627-36.971c0-8.948 7.279-16.227 16.227-16.227h146.029c8.948 0 16.227 7.279 16.227 16.227v22.007c0 .127-.091.233-.216.252l-89.025 13.458-89.025-13.458c-.125-.019-.216-.125-.216-.252v-22.007z"/><circle cx="256.191" cy="368.545" r="10"/><path d="m242.756 161.957h26.795c4.142 0 7.5-3.358 7.5-7.5s-3.358-7.5-7.5-7.5h-26.795c-4.142 0-7.5 3.358-7.5 7.5s3.358 7.5 7.5 7.5z"/><path d="m466.989 233.793h-54.924v-86.426c0-50.543-41.12-91.664-91.664-91.664h-1.393v-12.078c0-24.055-19.57-43.625-43.624-43.625h-39.387c-24.054 0-43.624 19.57-43.624 43.625v12.079h-1.393c-50.543 0-91.664 41.12-91.664 91.664v86.426h-54.923c-16.406 0-29.752 13.347-29.752 29.752v47.688c0 6.642 5.403 12.045 12.045 12.045h1.769v62.604c0 15.111 12.294 27.405 27.405 27.405h11.075v48.294c0 27.459 22.34 49.799 49.799 49.799h278.914c27.459 0 49.799-22.34 49.799-49.799v-48.294h10.075c15.111 0 27.405-12.294 27.405-27.405v-62.604h1.768c6.642 0 12.045-5.403 12.045-12.045v-47.688c.001-16.406-13.345-29.753-29.751-29.753zm0 15c8.135 0 14.752 6.618 14.752 14.753v44.733h-36.581c-2.065-19.374-15.286-35.454-33.096-41.692v-17.793h54.925zm-370.76 175.617h-14.294v-86.646h11.523c10.188 0 18.477-8.289 18.477-18.477v-5.695c0-2.646 2.153-4.799 4.799-4.799h278.914c2.646 0 4.799 2.153 4.799 4.799v5.695c0 10.188 8.289 18.477 18.477 18.477h11.523v86.646h-14.295c-8.66 0-15.705 7.045-15.705 15.705v21.467c0 2.646-2.153 4.799-4.799 4.799h-278.914c-2.646 0-4.799-2.153-4.799-4.799v-21.467c0-8.659-7.046-15.705-15.706-15.705zm111.145-380.785c0-15.784 12.841-28.625 28.624-28.625h39.387c15.783 0 28.624 12.841 28.624 28.625v12.079h-15v-12.079c0-7.513-6.112-13.625-13.624-13.625h-39.387c-7.512 0-13.624 6.112-13.624 13.625v12.079h-15zm30 12.078v-10.703h36.635v10.703zm-123.057 91.664c0-42.272 34.391-76.664 76.664-76.664h129.421c42.272 0 76.664 34.391 76.664 76.664v116.462c-.472-.013-.942-.036-1.417-.036h-195.775c-4.142 0-7.5 3.358-7.5 7.5s3.358 7.5 7.5 7.5h195.774c19.188 0 34.799 15.611 34.799 34.799v9.172h-11.523c-1.917 0-3.477-1.56-3.477-3.477v-5.695c0-10.917-8.882-19.799-19.799-19.799h-278.914c-10.917 0-19.799 8.882-19.799 19.799v5.695c0 1.917-1.56 3.477-3.477 3.477h-11.523v-9.172c0-19.188 15.611-34.799 34.799-34.799h51.177c4.142 0 7.5-3.358 7.5-7.5s-3.358-7.5-7.5-7.5h-51.177c-.811 0-1.616.023-2.417.061zm-84.676 116.178c0-8.134 6.618-14.752 14.752-14.752h54.924v18.15c-17.304 6.482-30.07 22.326-32.096 41.336h-37.58zm26.218 134.743c-6.84 0-12.405-5.565-12.405-12.405v-62.604h23.48v75.009zm339.789 98.094h-278.914c-19.188 0-34.799-15.611-34.799-34.799v-22.173h14.295c.389 0 .705.316.705.705v21.467c0 10.917 8.882 19.799 19.799 19.799h278.914c10.917 0 19.799-8.882 19.799-19.799v-21.467c0-.389.316-.705.705-.705h14.295v22.172c0 19.189-15.611 34.8-34.799 34.8zm72.28-110.499c0 6.84-5.565 12.405-12.405 12.405h-10.075v-75.009h22.48z"/></g></g></svg>