<svg id="Capa_1" enable-background="new 0 0 506.688 506.688" height="512" viewBox="0 0 506.688 506.688" width="512" xmlns="http://www.w3.org/2000/svg"><g><g><g id="XMLID_275_"><g><path d="m433.684 178.195v117.84c0 4.8-2.97 9.09-7.45 10.81-115.26 44.11-230.52 44.11-345.78 0-4.48-1.72-7.45-6.01-7.45-10.81v-117.84l43.57-40.82h289.69z" fill="#baafb9"/></g></g><g id="XMLID_280_"><g><path d="m406.264 137.375h-289.69l-43.57 40.82v.015 26.159 91.666c0 4.8 2.97 9.09 7.45 10.81 17.531 6.709 35.055 12.396 52.585 17.064l.007-69.567c0-15.59 15.099-26.723 29.992-22.115l81.035 25.074c3.005.928 6.124 1.399 9.271 1.399s6.266-.471 9.279-1.402l171.061-52.929v-26.174z" fill="#aa9ea9"/><path d="m494.684 147.095c6.01 1.86 6.01 10.37 0 12.23l-239.45 74.09c-1.23.38-2.55.38-3.78 0l-239.45-74.09c-6.01-1.86-6.01-10.37 0-12.23l239.45-74.09c1.23-.38 2.55-.38 3.78 0z" fill="#c9bfc8"/><path d="m171.3 142.122 152.113-48.022-68.179-21.096c-1.23-.38-2.55-.38-3.78 0l-239.45 74.09c-6.01 1.86-6.01 10.37 0 12.23l239.45 74.09c1.23.38 2.55.38 3.78 0l59.31-18.352-143.054-43.164c-14.676-4.428-14.809-25.161-.19-29.776z" fill="#baafb9"/></g></g><path d="m119.217 382.37h-5.283c-10.931 0-19.793 8.862-19.793 19.793v24.624c0 3.969 3.218 7.187 7.187 7.187h30.496c3.969 0 7.187-3.218 7.187-7.187v-24.624c-.001-10.932-8.862-19.793-19.794-19.793z" fill="#e5e1e5"/></g><g><path d="m496.898 139.933-239.445-74.095c-2.69-.832-5.532-.832-8.217 0l-105.997 32.8c-3.957 1.224-6.173 5.425-4.948 9.382s5.425 6.168 9.382 4.948l105.671-32.7 235.717 72.942-57.57 17.815c-.025.008-.05.015-.075.023l-69.478 21.5c-3.957 1.224-6.173 5.425-4.948 9.382.996 3.218 3.961 5.285 7.163 5.285.734 0 1.48-.109 2.219-.337l59.811-18.508v107.663c0 1.676-1.057 3.206-2.63 3.808-68.026 26.032-136.988 36.534-204.964 31.218-4.127-.323-7.739 2.763-8.063 6.892-.322 4.129 2.763 7.739 6.893 8.062 11.841.926 23.702 1.389 35.588 1.389 58.591 0 117.61-11.242 175.907-33.552 7.338-2.809 12.269-9.969 12.269-17.817v-112.306l55.717-17.241c5.855-1.812 9.789-7.147 9.789-13.276s-3.935-11.465-9.791-13.277z"/><path d="m187.146 327.486c-20.919-3.117-42.014-7.771-63.069-13.886v-111.748l125.158 38.73c1.345.416 2.728.625 4.109.624 1.383 0 2.765-.208 4.107-.624l78.383-24.255c3.957-1.225 6.173-5.425 4.948-9.382s-5.425-6.173-9.382-4.947l-78.057 24.154-111.397-34.472 93.736-29.006c4.611 4.364 10.827 7.049 17.661 7.049 14.182 0 25.72-11.538 25.72-25.72s-11.538-25.72-25.72-25.72-25.72 11.538-25.72 25.72c0 1.814.191 3.584.55 5.292l-111.599 34.533-41.303-12.781c-.025-.008-.05-.015-.075-.023l-57.569-17.814 90.506-28.007c3.957-1.224 6.173-5.425 4.948-9.382s-5.425-6.17-9.382-4.948l-93.91 29.061c-5.855 1.811-9.789 7.146-9.789 13.276s3.934 11.464 9.789 13.276l55.717 17.241v112.304c0 7.848 4.931 15.008 12.269 17.817 10.396 3.978 20.839 7.602 31.302 10.886v50.576c-12.739 2.299-22.435 13.461-22.435 26.851v24.625c0 8.098 6.588 14.687 14.687 14.687h30.495c8.099 0 14.687-6.588 14.687-14.687v-24.625c0-13.39-9.695-24.551-22.434-26.851v-46.105c20.314 5.716 40.661 10.106 60.858 13.115.375.056.747.083 1.115.083 3.652 0 6.854-2.674 7.408-6.396.61-4.095-2.216-7.911-6.312-8.521zm66.198-194.203c5.911 0 10.72 4.809 10.72 10.72s-4.809 10.72-10.72 10.72-10.72-4.809-10.72-10.72 4.809-10.72 10.72-10.72zm-121.834 268.88v24.311h-29.868v-24.311c0-6.778 5.515-12.293 12.293-12.293h5.282c6.778 0 12.293 5.514 12.293 12.293zm-48.374-102.323c-1.573-.602-2.63-2.132-2.63-3.808v-107.663l28.57 8.841v111.792c-8.667-2.808-17.319-5.863-25.94-9.162z"/></g></g></svg>