<svg id="Capa_1" enable-background="new 0 0 512 512" height="512" viewBox="0 0 512 512" width="512" xmlns="http://www.w3.org/2000/svg"><g><g><path d="m380.847 189.92c50.279-142.458-62.019-147.428-62.019-147.428s-12.643-34.492-69.537-34.492c-56.893 0-92.008 18.237-142.58 8.303 0 0-14.907 117.615 30.974 165.865z" fill="#26457d"/><path d="m158.22 156.55c-12.045 0-22.508 6.759-27.813 16.689 2.24 3.177 4.655 6.172 7.278 8.93l23.794.758v-26.21c-1.071-.11-2.159-.167-3.259-.167z" fill="#21386b"/><path d="m380.847 189.92c1.214-3.439 2.331-6.797 3.359-10.078-3.618-13.417-15.866-23.293-30.426-23.293-1.1 0-2.188.057-3.259.167v32.236z" fill="#21386b"/><path d="m407.012 504h-302.024v-80.421c0-64.319 52.141-116.459 116.459-116.459h69.106c64.319 0 116.459 52.141 116.459 116.459z" fill="#f6e080"/><path d="m104.988 486h302.025v18h-302.025z" fill="#eccd61"/><path d="m350.521 149.695v62.905c0 52.202-42.318 94.52-94.521 94.52-52.202 0-94.521-42.318-94.521-94.52v-116.731s48.72 41.027 148.491 5.904c0 0 8.603 32.268 40.551 47.922z" fill="#f0c69e"/><path d="m256 289.12c-52.202 0-94.521-42.318-94.521-94.52v18c0 52.202 42.318 94.52 94.521 94.52 52.202 0 94.521-42.318 94.521-94.52v-18c0 52.201-42.319 94.52-94.521 94.52z" fill="#e6ba94"/><path d="m161.479 212.599v-37.882c-1.071-.11-2.159-.167-3.259-.167-17.406 0-31.517 14.111-31.517 31.517s14.11 31.517 31.517 31.517c2.202 0 4.351-.228 6.426-.658-2.062-7.763-3.167-15.915-3.167-24.327z" fill="#e2ae84"/><path d="m353.78 174.549c-1.1 0-2.188.057-3.259.167v37.882c0 8.411-1.105 16.564-3.167 24.327 2.075.43 4.224.658 6.426.658 17.406 0 31.517-14.111 31.517-31.517s-14.111-31.517-31.517-31.517z" fill="#e2ae84"/><path d="m158.22 219.584c-14.278 0-26.332-9.497-30.206-22.517-.849 2.853-1.311 5.872-1.311 9 0 17.406 14.11 31.517 31.517 31.517 2.202 0 4.351-.228 6.426-.658-1.502-5.656-2.49-11.522-2.919-17.542-1.152.128-2.321.2-3.507.2z" fill="#d7a379"/><path d="m353.78 219.584c-1.186 0-2.355-.071-3.507-.199-.429 6.02-1.416 11.885-2.918 17.542 2.075.43 4.223.658 6.426.658 17.406 0 31.517-14.111 31.517-31.517 0-3.128-.462-6.147-1.311-9-3.875 13.018-15.929 22.516-30.207 22.516z" fill="#d7a379"/><path d="m255.997 362.382-38.78-55.262h77.559z" fill="#e2ae84"/><g fill="#fcf5f5"><path d="m181.742 314.068 31.132 75.722 43.123-27.407-38.722-55.18c-12.439.437-24.383 2.821-35.533 6.865z"/><path d="m294.719 307.202-38.722 55.18 43.123 27.407 31.133-75.724c-11.151-4.042-23.095-6.426-35.534-6.863z"/></g></g><g><path d="m407.603 460.877c-4.151 0-7.515 3.365-7.515 7.515v28.579h-44.746v-58.638c0-4.15-3.364-7.515-7.515-7.515s-7.515 3.365-7.515 7.515v58.638h-168.035v-58.638c0-4.15-3.365-7.515-7.515-7.515s-7.515 3.365-7.515 7.515v58.638h-44.745v-73.064c0-16.549 3.606-32.441 10.718-47.235 1.798-3.741.223-8.23-3.517-10.029-3.74-1.798-8.231-.223-10.029 3.517-8.096 16.842-12.201 34.926-12.201 53.747v80.578c0 4.15 3.365 7.515 7.515 7.515h302.616c4.151 0 7.515-3.365 7.515-7.515v-36.094c-.001-4.15-3.365-7.514-7.516-7.514z"/><path d="m307.692 300.842c21.201-12.384 37.568-32.178 45.518-55.807.352.009.704.027 1.057.027 21.556 0 39.093-17.537 39.093-39.093 0-6.017-1.369-11.719-3.808-16.816 17.173-50.316 16.426-89.852-2.253-117.531-19.217-28.478-51.278-35.115-63.162-36.625-5.856-10.392-24.959-34.997-74.564-34.997-24.222 0-44.177 3.152-63.475 6.2-26.602 4.202-49.575 7.831-77.935 2.26-4.131-.905-8.461 2.224-8.903 6.429-.103.813-2.521 20.209-2.37 46.701.023 4.136 3.383 7.472 7.514 7.472h.044c4.15-.024 7.496-3.408 7.472-7.557-.09-15.705.78-28.994 1.465-36.909 27.365 3.983 50.595.314 75.06-3.55 18.726-2.958 38.089-6.016 61.131-6.016 50.517 0 62.171 28.485 62.617 29.631 1.044 2.846 3.695 4.787 6.723 4.921.365.016 36.692 1.943 55.928 30.447 14.832 21.978 15.973 53.945 3.445 95.13-5.581-4.361-12.366-7.244-19.771-8.048v-17.624c0-2.868-1.633-5.486-4.208-6.748-28.382-13.907-36.602-42.934-36.675-43.203-1.008-4.137-5.772-6.652-9.756-5.152-49.345 17.371-85.221 15.165-106.628 10.253-23.052-5.288-34.732-14.759-34.818-14.829-4.607-4.146-12.56-.447-12.355 5.748v71.555c-5.428.59-10.523 2.299-15.057 4.886-13.7-17.461-22.569-45.301-25.76-81.103-.368-4.135-4.03-7.196-8.152-6.818-4.134.368-7.186 4.018-6.818 8.152 3.529 39.599 13.388 69.684 29.328 89.591-5.245 6.654-8.387 15.04-8.387 24.151 0 21.556 17.537 39.093 39.093 39.093.352 0 .704-.018 1.056-.027 7.95 23.628 24.315 43.421 45.515 55.805-30.013 4.081-57.666 19.021-77.64 42.373-2.698 3.154-2.328 7.897.826 10.595s7.897 2.329 10.595-.826c10.833-12.664 24.236-22.506 39.107-29.037l28.353 68.962c1.628 4.239 7.199 6.013 10.981 3.484l31.662-20.123v47.982c0 4.15 3.365 7.515 7.515 7.515s7.514-3.365 7.514-7.515v-47.981l31.663 20.123c3.782 2.529 9.353.754 10.98-3.484l28.35-68.955c38.407 16.928 65.289 55.358 65.289 99.953v14.426c0 4.15 3.364 7.515 7.515 7.515s7.515-3.365 7.515-7.515v-14.426c-.003-62.796-46.85-114.848-107.429-123.065zm-51.4 48.666-24.402-34.774h48.804zm122.038-143.539c0 12.332-9.326 22.522-21.296 23.9.969-5.643 1.48-11.44 1.48-17.354v-30.226c11.25 2.012 19.816 11.861 19.816 23.68zm-244.07 0c0-11.818 8.566-21.667 19.815-23.681v30.226c0 5.915.511 11.712 1.48 17.354-11.969-1.378-21.295-11.567-21.295-23.899zm34.844 6.545v-103.43c20.285 10.424 65.544 25 136.696 1.868 4.504 10.75 15.346 30.496 37.686 43.07v58.492c0 48.077-39.113 87.191-87.191 87.191s-87.191-39.114-87.191-87.191zm47.52 166.383-24.684-60.038c7.069-2 14.368-3.289 21.797-3.828l31.885 45.437zm79.337.001-28.999-18.43 31.89-45.443c7.498.541 14.79 1.84 21.797 3.826z"/><path d="m210.404 175.893c-4.15 0-7.515 3.364-7.515 7.515v21.232c0 4.15 3.364 7.515 7.515 7.515 4.15 0 7.515-3.365 7.515-7.515v-21.232c0-4.151-3.365-7.515-7.515-7.515z"/><path d="m302.186 212.154c4.151 0 7.515-3.365 7.515-7.515v-21.232c0-4.15-3.364-7.515-7.515-7.515s-7.515 3.364-7.515 7.515v21.232c0 4.151 3.364 7.515 7.515 7.515z"/><path d="m283.941 245.447c1.579-3.838-.251-8.23-4.088-9.81-3.84-1.58-8.23.251-9.81 4.088-.025.063-2.914 6.341-13.748 6.341s-13.722-6.278-13.747-6.341c-1.58-3.837-5.971-5.668-9.81-4.088-3.838 1.58-5.667 5.972-4.088 9.81 2.393 5.812 10.909 15.649 27.646 15.649s25.252-9.837 27.645-15.649z"/></g></g></svg>