<svg id="Capa_1" enable-background="new 0 0 511.2 511.2" height="512" viewBox="0 0 511.2 511.2" width="512" xmlns="http://www.w3.org/2000/svg"><g><g><path d="m373.936 274.869-17.096-74.8-31.7-32.908h-139.08l-31.7 32.908-18.4 93.687-1.259 159.91 19.659 15.665h202.48l20.873-33.713z" fill="#c9bfc8"/><g><g id="XMLID_282_"><g fill="#d7d0d6"><path d="m445.54 428.761v36.82c0 2.07-1.68 3.75-3.76 3.75h-84.94v-158.33-110.66l.14-.13 26.45 27.46c6.15 6.39 9.59 14.92 9.59 23.79v77.08z"/><path d="m154.36 311.001v158.33h-84.94c-2.08 0-3.76-1.68-3.76-3.75v-36.82l52.52-100.22v-77.08c0-8.87 3.44-17.4 9.59-23.79l26.45-27.46.14.13z"/></g></g></g><g id="XMLID_283_"><g><path d="m313.249 406.646h-106.614l-20.575 22.116v18.15c0 31.36 25.42 56.79 56.79 56.79h24.5c31.37 0 56.79-25.43 56.79-56.79v-18.15z" fill="#fae2c0"/><path d="m261.1 11.161c-2.51-4.88-9.49-4.88-12 0l-16.15 31.31 6.801 23.398h31.041l6.458-23.398z" fill="#c9bfc8"/><path d="m264.517 42.471 6.366-12.343-9.783-18.967c-2.51-4.88-9.49-4.88-12 0l-16.15 31.31 6.801 23.398h31.041l.256-.928z" fill="#baafb9"/><path d="m277.26 42.471h-.01-44.3-.01l-45.62 88.43 21.47 43.473h95.602l18.488-43.473z" fill="#fae2c0"/><path d="m264.517 42.471h-31.567-.01l-45.62 88.43 21.47 43.473h31.577l-21.471-43.473z" fill="#fddeb0"/><path d="m323.3 131.711-.42-.81h-45.618v6.21h-44.324v-6.21h-45.618l-.42.81c-.55 1.07-.84 2.25-.84 3.45v258.89l35.418 25.239h81.622l21.04-25.239v-258.89c0-1.2-.29-2.38-.84-3.45z" fill="#eb5569"/><path d="m217.635 135.163c0-1.2.29-2.38.84-3.45l.42-.81h.003v-.002h-31.578l-.42.81c-.55 1.07-.84 2.25-.84 3.45v258.89l35.418 25.239h31.573l-35.416-25.237z" fill="#e53950"/><path d="m298.927 482.26h-24.5c-31.37 0-56.79-25.43-56.79-56.79v-18.824h-11.001l-20.575 22.116v18.15c0 31.36 25.42 56.79 56.79 56.79h24.5c18.814 0 35.48-9.154 45.814-23.242-4.551 1.174-9.321 1.8-14.238 1.8z" fill="#fddeb0"/><path d="m186.06 394.051h138.08v34.71h-138.08z" fill="#fccd7f"/></g></g><path d="m232.938 130.901h44.324v263.15h-44.324z" fill="#efedef"/><g id="XMLID_281_"><g><path d="m399.198 465.286h-30.601l-8.607 10.176v25.21c0 1.67 1.36 3.03 3.03 3.03h37.03c1.67 0 3.02-1.36 3.02-3.03v-25.21z" fill="#fdb441"/><path d="m145.949 462.629h-28.857l-8.963 12.832v25.21c0 1.67 1.35 3.03 3.02 3.03h37.03c1.67 0 3.03-1.36 3.03-3.03v-25.21z" fill="#fdb441"/><path d="m383.711 500.671v-25.21l8.607-10.176h-23.721l-8.607 10.176v25.21c0 1.67 1.36 3.03 3.03 3.03h23.721c-1.67 0-3.03-1.36-3.03-3.03z" fill="#fea613"/><path d="m403.07 430.081v45.38h-43.08v-45.38c0-5.94 2.41-11.33 6.31-15.23s9.28-6.31 15.23-6.31c11.9 0 21.54 9.65 21.54 21.54z" fill="#ee6161"/><path d="m131.851 500.671v-25.21l8.963-12.832h-23.721l-8.963 12.832v25.21c0 1.67 1.35 3.03 3.02 3.03h23.721c-1.67 0-3.02-1.36-3.02-3.03z" fill="#fea613"/><path d="m151.21 430.081v45.38h-43.08v-45.38c0-11.89 9.64-21.54 21.54-21.54 5.95 0 11.33 2.41 15.23 6.31s6.31 9.29 6.31 15.23z" fill="#ee6161"/></g></g><g id="XMLID_284_"><g fill="#e94444"><path d="m390.021 414.851c1.025-1.025 2.157-1.939 3.37-2.741-3.402-2.25-7.476-3.569-11.861-3.569-5.95 0-11.33 2.41-15.23 6.31s-6.31 9.29-6.31 15.23v45.38h23.721v-45.38c0-5.94 2.41-11.33 6.31-15.23z"/><path d="m141.53 412.11c-3.402-2.251-7.474-3.569-11.86-3.569-11.9 0-21.54 9.65-21.54 21.54v45.38h23.721v-45.38c0-7.508 3.849-14.115 9.679-17.971z"/></g></g><path d="m217.637 425.47v-31.419h-31.577v34.71h31.679c-.063-1.089-.102-2.185-.102-3.291z" fill="#fbc56d"/></g><g><path d="m154.363 332.742c-4.143 0-7.5 3.358-7.5 7.5v6.105c0 4.142 3.357 7.5 7.5 7.5s7.5-3.358 7.5-7.5v-6.105c0-4.142-3.358-7.5-7.5-7.5z"/><path d="m452.179 425.284-24.299-46.373c-1.924-3.67-6.458-5.084-10.125-3.162-3.669 1.922-5.084 6.455-3.162 10.124l23.442 44.737v31.222h-27.464v-31.747c0-16.013-13.027-29.04-29.04-29.04s-29.04 13.027-29.04 29.04v31.747h-22.617c1.143-4.791 1.766-9.783 1.766-14.919v-262.193l17.696 18.373v107.909c0 4.142 3.357 7.5 7.5 7.5s7.5-3.358 7.5-7.5v-92.336l13.688 14.211c4.833 5.018 7.495 11.619 7.495 18.585v77.082c0 1.212.294 2.407.856 3.481l13.13 25.058c1.341 2.558 3.949 4.021 6.649 4.021 1.174 0 2.364-.276 3.476-.858 3.669-1.922 5.084-6.455 3.162-10.124l-12.273-23.422v-75.236c0-10.868-4.152-21.164-11.692-28.992l-57.187-59.372v-27.938c0-2.387-.579-4.771-1.673-6.89l-46.103-89.354c-.004-.008-.008-.016-.012-.023l-16.083-31.175c-2.456-4.762-7.311-7.72-12.669-7.72s-10.213 2.958-12.669 7.72l-16.085 31.175c-.003.006-.006.012-.01.018l-46.104 89.357c-1.095 2.121-1.674 4.504-1.674 6.891v28.976l-56.187 58.334c-7.54 7.827-11.692 18.123-11.692 28.992v75.236l-51.659 98.585c-.563 1.074-.856 2.269-.856 3.481v36.816c0 6.204 5.047 11.251 11.251 11.251h31.213v23.843c0 5.803 4.722 10.525 10.525 10.525h37.029c5.804 0 10.525-4.722 10.525-10.525v-23.843h27.263c10.783 20.415 32.225 34.368 56.875 34.368h24.508c24.65 0 46.092-13.952 56.875-34.368h28.263v23.843c0 5.803 4.722 10.525 10.525 10.525h37.029c5.804 0 10.525-4.722 10.525-10.525v-23.843h31.213c6.204 0 11.251-5.047 11.251-11.251v-36.816c.001-1.213-.293-2.408-.855-3.481zm-211.741-38.733v-178.403c0-4.142-3.357-7.5-7.5-7.5s-7.5 3.358-7.5 7.5v178.403h-31.878l.002-247.341h31.876v36.975c0 4.142 3.357 7.5 7.5 7.5s7.5-3.358 7.5-7.5v-36.975h29.324v247.341zm-2.93-336.576h35.183l38.3 74.235h-111.785zm47.254 89.235h31.879v247.341h-31.879zm-29.662-123.331 9.852 19.096h-19.705zm-111.392 452.085h-28.08v-37.879c0-7.742 6.298-14.04 14.04-14.04s14.04 6.298 14.04 14.04zm-28.08 28.236v-13.236h28.08v13.236zm43.08-34.368v-31.747c0-16.013-13.027-29.04-29.04-29.04s-29.04 13.027-29.04 29.04v31.747h-27.464v-31.221l51.659-98.586c.563-1.074.856-2.269.856-3.481v-77.082c0-6.967 2.662-13.568 7.495-18.585l13.688-14.211v92.336c0 4.142 3.357 7.5 7.5 7.5s7.5-3.358 7.5-7.5v-107.909l16.696-17.334v261.154c0 5.137.623 10.128 1.766 14.919zm108.646 34.368h-24.508c-27.177 0-49.287-22.11-49.287-49.287v-10.648h61.541c4.143 0 7.5-3.358 7.5-7.5s-3.357-7.5-7.5-7.5h-61.541v-19.713h123.082v19.713h-29.578c-4.143 0-7.5 3.358-7.5 7.5s3.357 7.5 7.5 7.5h29.578v10.648c0 27.176-22.11 49.287-49.287 49.287zm114.177-80.155c7.742 0 14.04 6.298 14.04 14.04v37.879h-28.08v-37.879c0-7.742 6.298-14.04 14.04-14.04zm-14.04 80.155v-13.236h28.08v13.236z"/><path d="m356.837 332.742c-4.143 0-7.5 3.358-7.5 7.5v6.105c0 4.142 3.357 7.5 7.5 7.5s7.5-3.358 7.5-7.5v-6.105c0-4.142-3.357-7.5-7.5-7.5z"/></g></g></svg>