<svg id="Capa_1" enable-background="new 0 0 511.26 511.26" height="512" viewBox="0 0 511.26 511.26" width="512" xmlns="http://www.w3.org/2000/svg"><g><g><path d="m271.856 168.08h14.008v28.66h-14.008z" fill="#fece85"/><path d="m195.656 418.471h119.948v66.654h-119.948z" fill="#d7d0d6"/><path d="m195.656 418.471h45.618v66.654h-45.618z" fill="#c9bfc8"/><path d="m7.5 357.593v32.496c0 22.3 18.08 40.38 40.38 40.38h415.5c22.3 0 40.38-18.08 40.38-40.38v-32.496z" fill="#e5e1e5"/><g><path d="m503.76 102.02v269.51h-496.26v-269.51c0-26.36 21.37-47.73 47.73-47.73h12.83 375.14 12.83c26.36 0 47.73 21.37 47.73 47.73z" fill="#a6e7f0"/></g><path d="m73.06 390.09v-32.496h-65.56v32.496c0 22.3 18.08 40.38 40.38 40.38h65.56c-22.3 0-40.38-18.08-40.38-40.38z" fill="#d7d0d6"/><path d="m120.79 54.29h-52.73-12.83c-26.36 0-47.73 21.37-47.73 47.73v269.51h65.56v-269.51c0-26.36 21.37-47.73 47.73-47.73z" fill="#a6e7f0"/><g id="XMLID_285_"><g><path d="m473.76 102.02v221.78c0 9.78-7.95 17.73-17.73 17.73h-400.8c-9.78 0-17.73-7.95-17.73-17.73v-221.78c0-9.78 7.95-17.73 17.73-17.73h12.83 375.14 12.83c9.78 0 17.73 7.95 17.73 17.73z" fill="#9cf8d2"/></g></g><path d="m73.06 102.02c0-6.268 1.22-12.247 3.416-17.73h-8.416-12.83c-9.78 0-17.73 7.95-17.73 17.73v221.78c0 9.78 7.95 17.73 17.73 17.73h17.83z" fill="#6cf5c2"/><path d="m341.621 503.708h-171.982v-16.738c0-9.304 7.542-16.846 16.846-16.846h138.29c9.304 0 16.846 7.542 16.846 16.846z" fill="#e5e1e5"/><path d="m242.995 470.125h-56.511c-9.304 0-16.846 7.542-16.846 16.846v16.738h56.511v-16.738c.001-9.304 7.543-16.846 16.846-16.846z" fill="#d7d0d6"/><g><path d="m362.785 511.208h-214.084c-4.142 0-7.5-3.358-7.5-7.5s3.358-7.5 7.5-7.5h214.084c4.142 0 7.5 3.358 7.5 7.5s-3.358 7.5-7.5 7.5z" fill="#d7d0d6"/></g><g><g id="XMLID_286_"><g><path d="m411.65 72.59-1.5 1.5h-57.21c-3.52 0-6.38-2.86-6.38-6.38v-58.21l1-1z" fill="#f9f7f8"/><path d="m346.56 9.5v58.21c0 3.52 2.86 6.38 6.38 6.38h57.21l1.5-1.5 1.55 1.55v267.39h-315.14v-326.6c0-4.08 3.31-7.38 7.38-7.38h241.17l.95.95z" fill="#f9f7f8"/><g><path d="m411.65 72.59-1.5 1.5h3z" fill="#fae2c0"/><path d="m151.911 7.55h-46.471c-4.07 0-7.38 3.3-7.38 7.38v326.6h46.471v-326.6c0-4.08 3.31-7.38 7.38-7.38z" fill="#efedef"/></g></g></g></g><g id="XMLID_287_"><g><path d="m234.4 50.25v291.28h-79.87v-291.28c0-3.29 2.67-5.95 5.95-5.95h67.97c3.29 0 5.95 2.66 5.95 5.95z" fill="#fee45a"/></g></g><g id="XMLID_288_"><g><path d="m349.407 188.319c-.184-.122-30.907 0-30.907 0l-2.9 8.421v144.79h39.5v-144.79s-5.509-8.299-5.693-8.421z" fill="#fece85"/><path d="m313.943 186.933h-30.476l-7.357 9.807v144.79h39.49v-144.79z" fill="#fec165"/><path d="m317.44 107.04c-.84-1.37-2.83-1.37-3.68 0l-37.65 61.04 14.282 14.33h51.221l13.486-14.33z" fill="#fae2c0"/><path d="m355.1 168.08v28.66h-39.5-39.49v-28.66z" fill="#efedef"/></g></g><path d="m410.15 74.09h-57.21c-3.52 0-6.38-2.86-6.38-6.38v-58.21l1-1-.95-.95h-13.05v60.16c0 10.687 8.694 19.38 19.38 19.38h60.26v-12.95l-1.55-1.55z" fill="#efedef"/></g><g><path d="m456.031 46.791h-12.833c-4.142 0-7.5 3.358-7.5 7.5s3.358 7.5 7.5 7.5h12.833c22.182 0 40.229 18.047 40.229 40.229v262.008h-481.26v-262.008c0-22.182 18.047-40.229 40.229-40.229h12.833c4.142 0 7.5-3.358 7.5-7.5s-3.358-7.5-7.5-7.5h-12.833c-30.454 0-55.229 24.775-55.229 55.229v288.072c0 26.401 21.479 47.879 47.88 47.879h140.276v24.654h-1.671c-13.424 0-24.346 10.921-24.346 24.346v9.238h-13.438c-4.142 0-7.5 3.358-7.5 7.5s3.358 7.5 7.5 7.5h214.084c4.142 0 7.5-3.358 7.5-7.5s-3.358-7.5-7.5-7.5h-13.664v-9.238c0-13.424-10.921-24.346-24.346-24.346h-1.671v-24.654h140.276c26.401 0 47.88-21.479 47.88-47.879v-288.072c0-30.454-24.776-55.229-55.229-55.229zm-121.91 440.18v9.238h-156.982v-9.238c0-5.153 4.192-9.346 9.346-9.346h138.29c5.153 0 9.346 4.192 9.346 9.346zm-26.017-24.346h-104.948v-24.654h104.948zm155.276-39.654h-415.5c-18.13 0-32.88-14.75-32.88-32.879v-11.064h481.26v11.064c0 18.13-14.75 32.879-32.88 32.879z"/><path d="m98.063 243.434c-4.142 0-7.5 3.358-7.5 7.5v83.094h-35.334c-5.64 0-10.229-4.589-10.229-10.229v-221.779c0-5.64 4.589-10.229 10.229-10.229h12.833c4.142 0 7.5-3.358 7.5-7.5s-3.358-7.5-7.5-7.5h-12.833c-13.911 0-25.229 11.317-25.229 25.229v221.779c0 13.911 11.318 25.229 25.229 25.229h400.802c13.911 0 25.229-11.318 25.229-25.229v-221.779c0-13.911-11.318-25.229-25.229-25.229h-12.833c-4.142 0-7.5 3.358-7.5 7.5s3.358 7.5 7.5 7.5h12.833c5.64 0 10.229 4.589 10.229 10.229v221.779c0 5.64-4.589 10.229-10.229 10.229h-35.333v-259.888c0-1.989-.79-3.897-2.197-5.303l-66.59-66.589c-1.406-1.407-3.314-2.197-5.303-2.197h-241.169c-8.203 0-14.876 6.673-14.876 14.876v204.044c0 4.142 3.358 7.5 7.5 7.5s7.5-3.358 7.5-7.5v-203.92h233.497v52.658c0 7.655 6.228 13.883 13.883 13.883h52.754v252.436h-43.096v-42.691c0-4.142-3.358-7.5-7.5-7.5s-7.5 3.358-7.5 7.5v42.691h-24.498v-129.793h24.498v55.139c0 4.142 3.358 7.5 7.5 7.5s7.5-3.358 7.5-7.5v-91.298c0-1.391-.387-2.754-1.117-3.938l-37.659-61.033c-1.773-2.873-4.847-4.588-8.223-4.587-3.375 0-6.449 1.716-8.221 4.588l-37.659 61.033c-.73 1.184-1.117 2.547-1.117 3.938v165.952h-26.705v-197.503c0-4.142-3.358-7.5-7.5-7.5s-7.5 3.358-7.5 7.5v197.502h-64.867v-24.711h9.228c4.142 0 7.5-3.358 7.5-7.5s-3.358-7.5-7.5-7.5h-9.228v-21.254h9.228c4.142 0 7.5-3.358 7.5-7.5s-3.358-7.5-7.5-7.5h-9.228v-21.254h9.228c4.142 0 7.5-3.358 7.5-7.5s-3.358-7.5-7.5-7.5h-9.228v-21.254h9.228c4.142 0 7.5-3.358 7.5-7.5s-3.358-7.5-7.5-7.5h-9.228v-21.254h9.228c4.142 0 7.5-3.358 7.5-7.5s-3.358-7.5-7.5-7.5h-9.228v-21.254h9.228c4.142 0 7.5-3.358 7.5-7.5s-3.358-7.5-7.5-7.5h-9.228v-21.256h9.228c4.142 0 7.5-3.358 7.5-7.5s-3.358-7.5-7.5-7.5h-9.228v-24.995h64.867v52.767c0 4.142 3.358 7.5 7.5 7.5s7.5-3.358 7.5-7.5v-54.317c0-7.416-6.033-13.449-13.449-13.449h-67.969c-7.416 0-13.449 6.033-13.449 13.449v283.782h-41.471v-83.094c.001-4.142-3.357-7.5-7.499-7.5zm255.997-217.825 40.983 40.983h-40.983zm-70.454 163.626v-13.66h63.996v13.66zm31.998-70.89 26.057 42.231h-52.115zm-31.998 85.89h24.498v129.792h-24.498z"/><circle cx="255.743" cy="400.242" r="10"/></g></g></svg>