<svg id="Capa_1" enable-background="new 0 0 512.105 512.105" height="512" viewBox="0 0 512.105 512.105" width="512" xmlns="http://www.w3.org/2000/svg"><g><g><path d="m256.053 504.605c-40.453 0-73.246-32.793-73.246-73.246v-158.798h146.493v158.798c-.001 40.453-32.795 73.246-73.247 73.246z" fill="#d4f2f6"/><path d="m247.23 323.561h82.069v-32.081h-146.493v138.921c0 40.269 32.101 73.719 72.367 74.198 8.564.102 16.815-1.276 24.475-3.878-28.887-9.814-49.711-37.158-49.711-69.363v-90.505c0-9.55 7.742-17.292 17.293-17.292z" fill="#a6e7f0"/><path d="m293.813 336.56h-75.196v115.927c7.61 13.325 21.886 22.389 38.16 22.111 23.501-.402 42.495-19.644 42.495-43.24v-89.338c0-3.015-2.444-5.46-5.459-5.46z" fill="#fece85"/><path d="m230.476 336.561h-12.21c-3.015 0-5.459 2.444-5.459 5.459v88.572c0 19.187 12.473 35.883 29.691 41.765-7.915-11.693-12.56-25.812-12.56-40.998v-90.505c-.001-1.485.186-2.918.538-4.293z" fill="#fec165"/><path d="m337.667 245.556h-162.229c-8.926 0-16.162 7.236-16.162 16.162v28.681c0 4.936 2.219 9.349 5.707 12.313.588-1.474 1.06-2.661 1.06-2.661l46.117 1.886 14.142 4.085 6.792.54h104.574c8.926 0 16.162-7.236 16.162-16.162v-28.681c0-8.927-7.236-16.163-16.163-16.163z" fill="#d4f2f6"/><path d="m216.931 290.399v-28.681c0-8.926 7.236-16.162 16.162-16.162h-57.655c-8.926 0-16.162 7.236-16.162 16.162v28.681c0 8.926 7.236 16.162 16.162 16.162h57.655c-8.926 0-16.162-7.236-16.162-16.162z" fill="#a6e7f0"/><path d="m256.052 212.926h-52.67c-27.773 0-50.287-22.514-50.287-50.287v-46.067c0-3.647 2.956-6.603 6.603-6.603h46.067c27.773 0 50.287 22.514 50.287 50.287z" fill="#57be92"/><path d="m190.528 162.639v-46.067c0-3.647 2.956-6.603 6.603-6.603h-37.432c-3.647 0-6.603 2.956-6.603 6.603v46.067c0 27.773 22.515 50.287 50.287 50.287h37.432c-27.773 0-50.287-22.514-50.287-50.287z" fill="#22b27f"/><path d="m256.052 110.457h52.67c27.773 0 50.287-22.514 50.287-50.287v-46.067c0-3.647-2.956-6.603-6.603-6.603h-46.066c-27.773 0-50.287 22.514-50.287 50.287v52.67z" fill="#57be92"/><path d="m256.052 85.634h-26.021c-17.082 0-30.93-13.848-30.93-30.93v-22.586c0-2.801 2.271-5.072 5.072-5.072h20.949c17.082 0 30.93 13.848 30.93 30.93z" fill="#57be92"/><path d="m220.077 54.704v-22.586c0-2.8 2.268-5.069 5.067-5.072-.007 0-.014-.001-.021-.001h-20.949c-2.802 0-5.073 2.271-5.073 5.072v22.587c0 17.082 13.848 30.93 30.93 30.93h20.975c-17.081 0-30.929-13.848-30.929-30.93z" fill="#22b27f"/><path d="m256.052 199.123h26.021c17.082 0 30.93-13.848 30.93-30.93v-22.587c0-2.801-2.271-5.072-5.072-5.072h-20.949c-17.082 0-30.93 13.848-30.93 30.93z" fill="#57be92"/></g><g><path d="m359.01 29.773c4.143 0 7.5-3.358 7.5-7.5v-8.17c0-7.776-6.327-14.103-14.103-14.103h-46.067c-22.954 0-42.823 13.454-52.14 32.89-7.052-8.163-17.467-13.344-29.076-13.344h-20.949c-6.933 0-12.572 5.64-12.572 12.572v22.586c0 21.19 17.239 38.43 38.429 38.43h18.521v17.324 10.999c-10.58-11.656-25.843-18.987-42.788-18.987h-46.067c-7.776 0-14.103 6.327-14.103 14.103v46.067c0 31.864 25.923 57.787 57.787 57.787h45.17v17.629h-73.115c-13.047 0-23.662 10.615-23.662 23.662v28.681c0 13.003 10.544 23.588 23.531 23.659v117.301c0 44.523 36.223 80.746 80.746 80.746s80.746-36.223 80.746-80.746v-117.298h.869c13.047 0 23.662-10.615 23.662-23.663v-28.681c0-13.047-10.615-23.662-23.662-23.662h-30.629c-4.143 0-7.5 3.358-7.5 7.5s3.357 7.5 7.5 7.5h30.629c4.776 0 8.662 3.886 8.662 8.662v28.681c0 4.776-3.886 8.663-8.662 8.663h-8.369-65.746v-46.005h11.523c4.143 0 7.5-3.358 7.5-7.5s-3.357-7.5-7.5-7.5h-11.523v-25.129-6.303h18.521c21.19 0 38.43-17.239 38.43-38.43v-22.587c0-6.932-5.64-12.572-12.572-12.572h-20.949c-8.814 0-16.939 2.99-23.43 7.999v-23.076h45.17c31.864 0 57.787-25.923 57.787-57.788v-5.934c0-4.142-3.357-7.5-7.5-7.5s-7.5 3.358-7.5 7.5v5.934c0 23.593-19.194 42.788-42.787 42.788h-45.17v-17.324-27.659-.187c0-23.594 19.195-42.788 42.788-42.788h45.17v7.273c0 4.142 3.357 7.5 7.5 7.5zm-37.211 284.288v117.298c0 36.252-29.493 65.746-65.746 65.746-36.252 0-65.746-29.494-65.746-65.746v-117.298h58.246v15h-35.746c-4.142 0-7.5 3.358-7.5 7.5v23.845c0 4.142 3.358 7.5 7.5 7.5s7.5-3.358 7.5-7.5v-16.345h28.246v37.011c0 4.142 3.358 7.5 7.5 7.5 4.143 0 7.5-3.358 7.5-7.5v-37.011h28.246v87.298c0 19.71-16.035 35.746-35.746 35.746-19.71 0-35.746-16.036-35.746-35.746v-38.991c0-4.142-3.358-7.5-7.5-7.5s-7.5 3.358-7.5 7.5v38.991c0 27.981 22.765 50.746 50.746 50.746s50.746-22.765 50.746-50.746v-94.798c0-4.142-3.357-7.5-7.5-7.5h-35.746v-15zm-73.247-15h-65.746-7.369c-4.776 0-8.662-3.886-8.662-8.663v-28.681c0-4.776 3.886-8.662 8.662-8.662h73.115zm-18.521-220.927c-12.919 0-23.429-10.511-23.429-23.43v-20.159h18.521c12.919 0 23.43 10.51 23.43 23.429v20.159h-18.522zm-26.648 127.292c-23.593 0-42.787-19.194-42.787-42.787v-45.17h45.169c23.593 0 42.788 19.194 42.788 42.788v11.208 27.659 6.303h-45.17zm83.599-57.391h18.521v20.159c0 12.919-10.511 23.43-23.43 23.43h-18.521v-20.159c0-12.92 10.511-23.43 23.43-23.43z"/><path d="m256.052 436.49c4.143 0 7.5-3.358 7.5-7.5v-16.078c0-4.142-3.357-7.5-7.5-7.5-4.142 0-7.5 3.358-7.5 7.5v16.078c0 4.142 3.358 7.5 7.5 7.5z"/></g></g></svg>