<svg id="Capa_1" enable-background="new 0 0 512 512" height="512" viewBox="0 0 512 512" width="512" xmlns="http://www.w3.org/2000/svg"><g><g><circle cx="146.296" cy="456.764" fill="#909ba5" r="47.236"/><circle cx="286.279" cy="456.764" fill="#909ba5" r="47.236"/><path d="m146.296 486c-23.009 0-42.166-16.454-46.369-38.236-.562 2.915-.867 5.921-.867 9 0 26.088 21.148 47.236 47.236 47.236s47.236-21.148 47.236-47.236c0-3.079-.304-6.085-.867-9-4.204 21.782-23.36 38.236-46.369 38.236z" fill="#808b95"/><path d="m286.279 486c-23.009 0-42.166-16.454-46.369-38.236-.562 2.915-.867 5.921-.867 9 0 26.088 21.148 47.236 47.236 47.236s47.236-21.148 47.236-47.236c0-3.079-.304-6.085-.867-9-4.204 21.782-23.36 38.236-46.369 38.236z" fill="#808b95"/><path d="m246.596 303.615h-60.617c-73.187 0-132.517-59.33-132.517-132.517h325.65c0 73.187-59.329 132.517-132.516 132.517z" fill="#dc4955"/><path d="m119.268 285.615c19.594 11.439 42.385 18 66.71 18h60.617c24.326 0 47.116-6.561 66.71-18z" fill="#d82f3c"/><path d="m216.56 8c-90.077 0-163.098 73.021-163.098 163.098h163.098z" fill="#ecb85e"/><path d="m53.462 171.098h163.098v-18h-162.105c-.649 5.911-.993 11.915-.993 18z" fill="#eaa949"/><ellipse cx="146.296" cy="456.764" fill="#f6e080" rx="15.307" ry="15.307" transform="matrix(.731 -.682 .682 .731 -272.341 222.715)"/><ellipse cx="286.279" cy="456.764" fill="#f6e080" rx="15.307" ry="15.307" transform="matrix(.2 -.98 .98 .2 -218.571 645.751)"/><g fill="#eccd61"><path d="m146.296 454.072c-5.086 0-9.579-2.49-12.363-6.307-1.844 2.528-2.944 5.632-2.944 9 0 8.454 6.853 15.307 15.307 15.307s15.307-6.854 15.307-15.307c0-3.368-1.101-6.472-2.944-9-2.784 3.816-7.278 6.307-12.363 6.307z"/><path d="m286.279 454.072c-5.086 0-9.579-2.49-12.363-6.307-1.844 2.528-2.944 5.632-2.944 9 0 8.454 6.853 15.307 15.307 15.307s15.307-6.854 15.307-15.307c0-3.368-1.101-6.472-2.944-9-2.784 3.816-7.278 6.307-12.363 6.307z"/></g></g><g><path d="m146.081 434.305c-12.6 0-22.852 10.251-22.852 22.852 0 12.6 10.251 22.852 22.852 22.852s22.852-10.251 22.852-22.852c0-12.6-10.251-22.852-22.852-22.852zm0 30.674c-4.313 0-7.822-3.509-7.822-7.822s3.509-7.822 7.822-7.822c4.314 0 7.823 3.509 7.823 7.822s-3.51 7.822-7.823 7.822z"/><path d="m263.486 457.157c0 12.6 10.251 22.852 22.852 22.852 12.6 0 22.852-10.251 22.852-22.852 0-12.6-10.251-22.852-22.852-22.852s-22.852 10.252-22.852 22.852zm30.674 0c0 4.313-3.509 7.822-7.822 7.822-4.314 0-7.823-3.509-7.823-7.822s3.509-7.822 7.823-7.822c4.313 0 7.822 3.509 7.822 7.822z"/><path d="m458.934 112.169h-42.344c-2.406 0-4.665 1.152-6.079 3.097l-34.987 48.15h-151.527v-155.901c0-4.15-3.365-7.515-7.515-7.515-94.252 0-170.931 76.679-170.931 170.932 0 25.776 7.053 50.98 20.397 72.886 2.158 3.544 6.78 4.668 10.327 2.508 3.544-2.159 4.667-6.783 2.508-10.327-10.609-17.416-16.762-37.173-17.979-57.552h310.812c-3.897 65.587-58.49 117.747-125.039 117.747h-60.736c-7.949 0-15.775-.741-23.41-2.173-.132-.028-.264-.054-.397-.075-24.905-4.755-47.725-16.962-65.855-35.542-2.899-2.972-7.656-3.029-10.627-.131-2.971 2.899-3.029 7.656-.131 10.627 19.741 20.231 44.447 33.716 71.438 39.344l49.482 58.167-35.563 41.804c-7.429-3.764-15.817-5.9-24.7-5.9-30.241 0-54.843 24.602-54.843 54.843s24.602 54.843 54.843 54.843 54.843-24.602 54.843-54.843c0-15.939-6.84-30.307-17.733-40.336l33.018-38.813 33.018 38.813c-10.893 10.029-17.733 24.397-17.733 40.336 0 30.241 24.603 54.843 54.844 54.843s54.843-24.602 54.843-54.843c0-4.15-3.365-7.515-7.515-7.515s-7.515 3.364-7.515 7.515c0 21.954-17.86 39.814-39.814 39.814s-39.814-17.86-39.814-39.814 17.86-39.814 39.814-39.814c12.598 0 24.186 5.774 31.792 15.842 2.501 3.311 7.214 3.967 10.526 1.466 3.311-2.501 3.968-7.214 1.466-10.526-10.472-13.862-26.431-21.812-43.784-21.812-8.883 0-17.271 2.136-24.7 5.9l-35.563-41.804 49.523-58.214c62.695-13.24 110.079-68.472 111.238-134.779l33.583-46.218h38.515c4.15 0 7.515-3.365 7.515-7.515.004-4.15-3.36-7.515-7.511-7.515zm-333.875-67.443 22.459 34.378c5.755 8.155 17.73.265 12.582-8.22l-22.473-34.4c21.12-12.435 45.409-20.04 71.34-21.276v130.48l-32.429-49.641c-5.73-8.141-17.735-.291-12.582 8.22l30.754 47.077-113.381-58.044c11.016-19.105 25.962-35.667 43.73-48.574zm-64.297 118.691c.961-20.147 5.771-39.301 13.698-56.75l110.854 56.75zm125.132 293.74c0 21.954-17.86 39.814-39.814 39.814s-39.814-17.86-39.814-39.814 17.86-39.814 39.814-39.814 39.814 17.86 39.814 39.814zm30.316-102.344-37.224-43.756c2.275.108 4.561.166 6.856.166h60.736c2.3 0 4.586-.06 6.859-.169z"/></g></g></svg>