<svg id="Capa_1" enable-background="new 0 0 512.017 512.017" height="512" viewBox="0 0 512.017 512.017" width="512" xmlns="http://www.w3.org/2000/svg"><g><g><g id="XMLID_950_"><g><path d="m199.916 461.495v33.976c0 4.995-4.049 9.044-9.044 9.044h-118.022c-4.995 0-9.044-4.049-9.044-9.044v-37.456l-14.51-61.39 2.52-110.3v-87.29c0-6.35 2.57-12.09 6.73-16.24 4.15-4.16 9.9-6.73 16.24-6.73 12.68 0 22.96 10.28 22.96 22.97v-23.22c0-6.34 2.57-12.08 6.72-16.23 4.16-4.16 9.9-6.73 16.24-6.73 12.69 0 22.97 10.28 22.97 22.96v32.74c0-6.34 2.57-12.08 6.73-16.23 4.23-4.24 10.111-6.828 16.596-6.727 12.629.196 22.605 10.856 22.604 23.486v9.591c0-12.69 10.28-22.97 22.96-22.97 6.34 0 12.08 2.57 16.24 6.73 4.15 4.15 6.72 9.89 6.72 16.24v67.65 139.56c0 17.75-14.39 32.13-32.13 32.13-1.921 0-3.48 1.558-3.48 3.48z" fill="#fed2a4"/></g><path d="m74.714 350.325.839-151.29c0-6.35 2.57-12.09 6.73-16.24 1.169-1.172 2.476-2.216 3.876-3.114-3.57-2.288-7.818-3.616-12.373-3.616-6.34 0-12.09 2.57-16.24 6.73-4.16 4.15-6.73 9.89-6.73 16.24v74.982 12.308l-2.52 110.3 14.51 61.39v11 26.456c0 4.995 4.049 9.044 9.044 9.044h24.736c-4.995 0-9.044-4.049-9.044-9.044v-46.75c.001-4.984-12.854-94.502-12.828-98.396z" fill="#ffbd86"/><g><path d="m103.344 293.488c10.143 0 18.385-8.187 18.453-18.33l.681-101.569c0-6.35 2.57-12.09 6.73-16.24.672-.674 1.398-1.291 2.151-1.875-3.184-1.669-6.806-2.618-10.652-2.618-6.34 0-12.08 2.57-16.24 6.73-4.15 4.15-6.72 9.89-6.72 16.23v23.22c0-.066-.004-.13-.005-.196l-.745 94.648z" fill="#ffbd86"/><path d="m68.217 342.285h19.02c16.966 0 30.72 13.754 30.72 30.72v30.55 23.29c0 17.215-13.955 31.17-31.17 31.17h-15.34-7.64c-28.68 0-51.93-23.25-51.93-51.93v-110.55c0-7.39 5.99-13.38 13.38-13.38h12.04c15.116 0 27.37 12.254 27.37 27.37v29.21c-.001 1.961 1.589 3.55 3.55 3.55z" fill="#fed2a4"/><path d="m214.353 200.012c0-1.436.138-2.839.39-4.202-.717-.068-1.442-.106-2.176-.106-12.542 0-22.728 10.058-22.95 22.557l-.141 75.226h10.801c7.443 0 13.491-6.007 13.541-13.45z" fill="#ffbd86"/></g><path d="m43.918 406.085v-110.55c0-4.352 2.087-8.207 5.304-10.65-3.605-1.748-7.651-2.73-11.925-2.73h-12.04c-7.39 0-13.38 5.99-13.38 13.38v110.55c0 28.68 23.25 51.93 51.93 51.93l7.64 5h12.15c1.331 0 2.64-4.849 3.927-5.011-26.27-2.578-43.606-24.972-43.606-51.919z" fill="#ffbd86"/></g><g id="XMLID_949_"><g><path d="m334.077 312.413v68.976c0 4.995-4.049 9.044-9.044 9.044h-118.023c-4.995 0-9.044-4.049-9.044-9.044v-72.456l-14.51-61.39 2.52-110.3v-87.29c0-6.35 2.57-12.09 6.73-16.24 4.15-4.16 9.9-6.73 16.24-6.73 12.68 0 22.96 10.28 22.96 22.97v-23.22c0-6.34 2.57-12.08 6.72-16.23 4.16-4.16 9.9-6.73 16.24-6.73 12.69 0 22.97 10.28 22.97 22.96v32.74c0-6.34 2.57-12.08 6.73-16.23 4.23-4.24 10.111-6.828 16.596-6.727 12.629.196 22.604 10.856 22.604 23.486v9.591c0-12.69 10.28-22.97 22.96-22.97 6.34 0 12.08 2.57 16.24 6.73 4.15 4.15 6.72 9.89 6.72 16.24v67.65 139.56c0 17.75-14.39 32.13-32.13 32.13-1.921 0-3.479 1.558-3.479 3.48z" fill="#fed2a4"/></g><g><path d="m237.504 144.405c10.143 0 18.385-8.187 18.453-18.33l.681-101.569c0-6.35 2.57-12.09 6.73-16.24.672-.674 1.398-1.291 2.151-1.875-3.184-1.669-6.806-2.618-10.652-2.618-6.34 0-12.08 2.57-16.24 6.73-4.15 4.15-6.72 9.89-6.72 16.23v23.22c0-.066-.004-.13-.005-.196l-.745 94.648z" fill="#ffbd86"/><path d="m206.874 202.909.839-152.956c0-6.35 2.57-12.09 6.73-16.24 1.169-1.172 2.476-2.216 3.876-3.114-3.57-2.288-7.818-3.616-12.373-3.616-6.34 0-12.09 2.57-16.24 6.73-4.16 4.15-6.73 9.89-6.73 16.24v74.982 12.308l-2.52 110.3 14.51 61.39v11 61.456c0 4.995 4.049 9.044 9.044 9.044h24.736c-4.995 0-9.044-4.049-9.044-9.044v-80.545c.001-4.984-12.854-94.04-12.828-97.935z" fill="#ffbd86"/><path d="m202.377 193.203h19.02c16.966 0 30.72 13.754 30.72 30.72v30.55 23.29c0 17.215-13.955 31.17-31.17 31.17h-15.34-7.64c-28.68 0-51.93-23.25-51.93-51.93v-110.55c0-7.39 5.99-13.38 13.38-13.38h12.04c15.116 0 27.37 12.254 27.37 27.37v29.21c0 1.96 1.589 3.55 3.55 3.55z" fill="#fed2a4"/><g fill="#ffbd86"><path d="m301.942 129.102.62-92.517c-.463-.036-.929-.063-1.399-.07-6.485-.101-12.366 2.487-16.596 6.727-3.971 3.961-6.487 9.374-6.708 15.372l-.582 85.791h9.259c8.468 0 15.349-6.835 15.406-15.303z"/><path d="m348.514 50.93c0-1.436.138-2.839.39-4.202-.717-.068-1.442-.106-2.176-.106-12.542 0-22.728 10.058-22.95 22.557l-.141 75.226h10.801c7.443 0 13.491-6.007 13.541-13.45z"/></g></g><path d="m178.078 257.003v-110.55c0-4.352 2.087-8.207 5.304-10.65-3.605-1.748-7.651-2.73-11.925-2.73h-12.04c-7.39 0-13.38 5.99-13.38 13.38v110.55c0 28.68 23.25 51.93 51.93 51.93l7.64 5h10.204c1.331 0 2.602-4.836 3.889-4.998-26.269-2.579-41.622-24.985-41.622-51.932z" fill="#ffbd86"/></g><path d="m195.174 414.605v83.744c0 3.407 2.762 6.168 6.168 6.168h119.295c3.407 0 6.168-2.762 6.168-6.168v-111.466h-131.631z" fill="#f07281"/><g fill="#eb5569"><path d="m244.208 414.605h-49.033c-7.077 0-12.815-5.737-12.815-12.815v-29.814c0-7.077 5.737-12.815 12.815-12.815h48.59 89.334c7.562 0 13.692 6.13 13.692 13.692v28.06c0 7.562-6.13 13.692-13.692 13.692z"/><path d="m326.806 431.604v-24.288h-90.059v-20.433h-41.572v27.722 83.744c0 3.407 2.762 6.168 6.168 6.168h41.572c-3.407 0-6.168-2.762-6.168-6.168v-46.936c0-10.94 8.868-19.808 19.808-19.808h70.251z"/></g><path d="m280.718 400.351h-20.658c-22.749 0-41.19-18.442-41.19-41.19h-23.696c-7.077 0-12.815 5.737-12.815 12.815v29.814c0 7.077 5.737 12.815 12.815 12.815h49.033 88.891c7.562 0 13.692-6.13 13.692-13.692v-.561z" fill="#e53950"/><g id="XMLID_948_"><g><path d="m461.806 461.495v33.976c0 4.995-4.049 9.044-9.044 9.044h-118.023c-4.995 0-9.044-4.049-9.044-9.044v-37.456l-14.51-61.39 2.52-110.3v-87.29c0-6.35 2.57-12.09 6.73-16.24 4.15-4.16 9.9-6.73 16.24-6.73 12.68 0 22.96 10.28 22.96 22.97v-23.22c0-6.34 2.57-12.08 6.72-16.23 4.16-4.16 9.9-6.73 16.24-6.73 12.69 0 22.97 10.28 22.97 22.96v32.74c0-6.34 2.57-12.08 6.73-16.23 4.23-4.24 10.111-6.828 16.596-6.727 12.629.196 22.604 10.856 22.604 23.486v9.591c0-12.69 10.28-22.97 22.96-22.97 6.34 0 12.08 2.57 16.24 6.73 4.15 4.15 6.72 9.89 6.72 16.24v67.65 139.56c0 17.75-14.39 32.13-32.13 32.13-1.921 0-3.479 1.558-3.479 3.48z" fill="#fed2a4"/></g><g><path d="m365.233 293.488c10.143 0 18.385-8.187 18.453-18.33l.681-101.569c0-6.35 2.57-12.09 6.73-16.24.672-.674 1.398-1.291 2.151-1.875-3.184-1.669-6.806-2.618-10.652-2.618-6.34 0-12.08 2.57-16.24 6.73-4.15 4.15-6.72 9.89-6.72 16.23v23.22c0-.066-.004-.13-.005-.196l-.745 94.648z" fill="#ffbd86"/><path d="m333.603 352.893.839-153.858c0-6.35 2.57-12.09 6.73-16.24 1.169-1.172 2.476-2.216 3.876-3.114-3.57-2.288-7.818-3.616-12.373-3.616-6.34 0-12.09 2.57-16.24 6.73-4.16 4.15-6.73 9.89-6.73 16.24v74.982 12.308l-2.52 110.3 14.51 61.39v11 26.456c0 4.995 4.049 9.044 9.044 9.044h24.736c-4.995 0-9.044-4.049-9.044-9.044v-49.578c.001-4.984-12.854-89.105-12.828-93z" fill="#ffbd86"/><path d="m330.106 342.285h19.02c16.966 0 30.72 13.754 30.72 30.72v30.55 23.29c0 17.215-13.955 31.17-31.17 31.17h-15.34-7.64c-28.68 0-51.93-23.25-51.93-51.93v-110.55c0-7.39 5.99-13.38 13.38-13.38h12.04c15.116 0 27.37 12.254 27.37 27.37v29.21c0 1.961 1.589 3.55 3.55 3.55z" fill="#fed2a4"/><g fill="#ffbd86"><path d="m429.67 278.184.62-92.517c-.463-.036-.929-.063-1.399-.07-6.485-.101-12.366 2.487-16.596 6.727-3.971 3.961-6.487 9.374-6.708 15.372l-.582 85.791h9.259c8.469.001 15.35-6.834 15.406-15.303z"/><path d="m476.242 200.012c0-1.436.138-2.839.39-4.202-.717-.068-1.442-.106-2.176-.106-12.542 0-22.728 10.058-22.95 22.557l-.141 75.226h10.801c7.443 0 13.491-6.007 13.541-13.45z"/></g></g><path d="m305.807 406.085v-110.55c0-4.352 2.087-8.207 5.304-10.65-3.605-1.748-7.651-2.73-11.925-2.73h-12.04c-7.39 0-13.38 5.99-13.38 13.38v110.55c0 28.68 23.25 51.93 51.93 51.93l7.64 5h9.206c1.331 0 2.602-4.838 3.889-4.999-26.27-2.579-40.624-24.984-40.624-51.931z" fill="#ffbd86"/></g></g><g><path d="m349.123 334.789h-15.07v-25.265c0-10.88-5.012-20.61-12.845-27.009v-24.902c0-4.142-3.357-7.5-7.5-7.5s-7.5 3.358-7.5 7.5v17.753c-2.27-.466-4.619-.711-7.024-.711h-12.038c-11.514 0-20.881 9.367-20.881 20.881v110.553c0 30.228 22.69 55.24 51.931 58.941v39.488c0 4.142 3.357 7.5 7.5 7.5s7.5-3.358 7.5-7.5v-38.998h.136c4.143 0 7.5-3.358 7.5-7.5s-3.357-7.5-7.5-7.5h-7.636c-24.499 0-44.431-19.932-44.431-44.431v-110.553c0-3.243 2.638-5.881 5.881-5.881h12.038c10.956 0 19.869 8.913 19.869 19.869v66.236c0 4.142 3.357 7.5 7.5 7.5s7.5-3.358 7.5-7.5v-25.971h15.07c12.808 0 23.228 10.42 23.228 23.228v30.542c0 4.142 3.357 7.5 7.5 7.5s7.5-3.358 7.5-7.5v-30.542c-.001-21.079-17.149-38.228-38.228-38.228z"/><path d="m497.419 367.642c-4.143 0-7.5 3.358-7.5 7.5v50.739c0 13.585-11.053 24.638-24.638 24.638h-23.756c-4.143 0-7.5 3.358-7.5 7.5s3.357 7.5 7.5 7.5h12.785v38.998c0 4.142 3.357 7.5 7.5 7.5s7.5-3.358 7.5-7.5v-39.201c19.971-2.025 35.608-18.938 35.608-39.434v-50.739c.001-4.143-3.357-7.501-7.499-7.501z"/><path d="m474.455 188.207c-7.09 0-13.617 2.442-18.799 6.519-5.049-9.862-15.31-16.632-27.129-16.632-5.642 0-10.927 1.547-15.464 4.232v-6.506c0-16.797-13.666-30.463-30.464-30.463-15.807 0-28.837 12.103-30.32 27.527-4.568-2.737-9.906-4.315-15.608-4.315-16.798 0-30.464 13.666-30.464 30.464v26.618c0 4.142 3.357 7.5 7.5 7.5s7.5-3.358 7.5-7.5v-26.618c0-8.527 6.938-15.464 15.464-15.464s15.464 6.937 15.464 15.464v54.595 32.703c0 4.142 3.357 7.5 7.5 7.5s7.5-3.358 7.5-7.5v-32.703-54.595-23.213c0-8.526 6.938-15.463 15.464-15.463s15.464 6.937 15.464 15.463v32.738 34.318 43.455c0 4.142 3.357 7.5 7.5 7.5s7.5-3.358 7.5-7.5v-43.455-34.318c0-8.527 6.938-15.464 15.464-15.464s15.464 6.937 15.464 15.464v10.113 33.375 34.284c0 4.142 3.357 7.5 7.5 7.5s7.5-3.358 7.5-7.5v-34.284-33.376c0-8.527 6.938-15.464 15.464-15.464s15.464 6.937 15.464 15.464v124.51c0 4.142 3.357 7.5 7.5 7.5s7.5-3.358 7.5-7.5v-124.51c0-16.797-13.666-30.463-30.464-30.463z"/><path d="m89.957 334.789h-15.07v-25.265c0-10.88-5.011-20.609-12.844-27.009v-83.482c0-8.527 6.937-15.464 15.464-15.464s15.464 6.937 15.464 15.464v54.595 32.703c0 4.142 3.358 7.5 7.5 7.5s7.5-3.358 7.5-7.5v-32.703-54.595-23.213c0-6.774 4.527-12.865 11.01-14.81 3.967-1.191 6.218-5.373 5.027-9.34-1.191-3.966-5.369-6.215-9.34-5.027-11.832 3.552-20.344 14.109-21.539 26.249-4.571-2.742-9.915-4.323-15.623-4.323-16.798 0-30.464 13.666-30.464 30.464v76.333c-2.27-.466-4.619-.711-7.025-.711h-12.037c-11.514 0-20.881 9.367-20.881 20.881v110.553c0 30.228 22.691 55.24 51.931 58.941v39.488c0 4.142 3.358 7.5 7.5 7.5s7.5-3.358 7.5-7.5v-38.998h.136c4.142 0 7.5-3.358 7.5-7.5s-3.358-7.5-7.5-7.5h-7.636c-24.499 0-44.431-19.932-44.431-44.431v-110.553c0-3.243 2.638-5.881 5.881-5.881h12.038c10.956 0 19.869 8.913 19.869 19.869v66.236c0 4.142 3.358 7.5 7.5 7.5s7.5-3.358 7.5-7.5v-25.971h15.07c12.808 0 23.228 10.42 23.228 23.228v30.542c0 4.142 3.358 7.5 7.5 7.5s7.5-3.358 7.5-7.5v-30.542c-.001-21.079-17.15-38.228-38.228-38.228z"/><path d="m222.182 189.433h-15.07v-25.265c0-10.88-5.011-20.61-12.845-27.009v-83.483c0-8.527 6.937-15.464 15.464-15.464s15.464 6.937 15.464 15.464v54.595 32.703c0 4.142 3.358 7.5 7.5 7.5s7.5-3.358 7.5-7.5v-32.703-54.595-23.212c0-8.527 6.937-15.464 15.464-15.464 8.526 0 15.464 6.937 15.464 15.464v32.738 34.318 43.455c0 4.142 3.357 7.5 7.5 7.5s7.5-3.358 7.5-7.5v-43.455-34.318c0-8.527 6.938-15.464 15.464-15.464s15.464 6.937 15.464 15.464v10.113 33.375 34.284c0 4.142 3.357 7.5 7.5 7.5s7.5-3.358 7.5-7.5v-34.284-33.376c0-8.527 6.938-15.464 15.464-15.464s15.464 6.937 15.464 15.464v50.958c0 4.142 3.357 7.5 7.5 7.5s7.5-3.358 7.5-7.5v-50.958c0-16.798-13.666-30.464-30.464-30.464-7.09 0-13.617 2.442-18.799 6.519-5.049-9.862-15.31-16.632-27.129-16.632-5.642 0-10.927 1.547-15.464 4.232v-6.506c0-16.797-13.666-30.463-30.464-30.463-15.807 0-28.837 12.103-30.32 27.527-4.568-2.737-9.906-4.315-15.608-4.315-16.798 0-30.464 13.666-30.464 30.464v76.333c-2.27-.466-4.619-.711-7.025-.711h-12.037c-11.514 0-20.882 9.368-20.882 20.882v110.552c0 30.228 22.691 55.24 51.931 58.941v32.376c-9.331 1.833-16.395 10.067-16.395 19.927v29.814c0 8.551 5.318 15.87 12.814 18.862v29.108c0 4.142 3.358 7.5 7.5 7.5s7.5-3.358 7.5-7.5v-27.656h41.534c4.142 0 7.5-3.358 7.5-7.5s-3.358-7.5-7.5-7.5h-49.034c-2.93 0-5.314-2.384-5.314-5.314v-29.814c0-2.931 2.384-5.315 5.314-5.315h48.59c4.142 0 7.5-3.358 7.5-7.5s-3.358-7.5-7.5-7.5h-37.51v-31.498h.137c4.142 0 7.5-3.358 7.5-7.5s-3.358-7.5-7.5-7.5h-7.637c-24.499 0-44.431-19.932-44.431-44.431v-110.552c0-3.243 2.639-5.882 5.882-5.882h12.037c10.956 0 19.87 8.913 19.87 19.869v66.236c0 4.142 3.358 7.5 7.5 7.5s7.5-3.358 7.5-7.5v-25.971h15.07c12.808 0 23.228 10.42 23.228 23.228v30.542c0 4.142 3.358 7.5 7.5 7.5s7.5-3.358 7.5-7.5v-30.542c.001-21.078-17.148-38.227-38.227-38.227z"/><path d="m195.174 474.223c-4.142 0-7.5 3.358-7.5 7.5v22.794c0 4.142 3.358 7.5 7.5 7.5s7.5-3.358 7.5-7.5v-22.794c0-4.142-3.358-7.5-7.5-7.5z"/></g></g></svg>