<svg id="Capa_1" enable-background="new 0 0 512 512" height="512" viewBox="0 0 512 512" width="512" xmlns="http://www.w3.org/2000/svg"><g><g><path d="m493.035 345.505v-123.903c0-133.009-47.039-172.823-113.038-172.823s-113.038 39.815-113.038 172.823v123.903" fill="#f6e080"/><path d="m415.186 276.283h-70.372c-31.497 0-59.579 14.607-77.855 37.412v31.81h226.075v-31.817c-18.275-22.801-46.354-37.405-77.848-37.405z" fill="#eccd61"/><path d="m503.944 483.057h-247.888v-93.19c0-52.79 42.795-95.584 95.585-95.584h56.719c52.79 0 95.585 42.794 95.585 95.584v93.19z" fill="#dc4955"/><path d="m256.056 465.057h247.888v18h-247.888z" fill="#d82f3c"/><path d="m380 114.943c27.012 47.967 77.578 70.689 77.578 70.689v31.072c0 42.845-34.733 77.578-77.578 77.578-42.845 0-77.578-34.733-77.578-77.578v-31.072s50.566-22.722 77.578-70.689z" fill="#f0c69e"/><path d="m380 276.283c-42.845 0-77.579-34.733-77.579-77.578v18c0 42.845 34.733 77.578 77.578 77.578 42.845 0 77.578-34.733 77.578-77.578v-18c.002 42.845-34.732 77.578-77.577 77.578z" fill="#e6ba94"/><path d="m256.056 483.057h-248v-93.036c0-52.814 42.814-95.628 95.628-95.628h56.745c52.814 0 95.628 42.814 95.628 95.628v93.036z" fill="#9ec8fc"/><path d="m8.056 465.057h248v18h-248z" fill="#80b6fc"/><path d="m123.397 333.555c3.875 6.528 13.324 6.528 17.199 0l23.203-39.094c-1.138-.04-2.279-.068-3.427-.068h-56.745c-1.15 0-2.293.028-3.433.068z" fill="#e2ae84"/><path d="m29.541 198.158c-38.744-63.652 10.916-154.295 67.584-166.866 49.288-10.933 67.616 19.845 67.616 19.845s9.413-7.432 36.167 2.105c47.949 17.092 68.959 81.471 31.974 137.132l-2.038 2.95z" fill="#26457d"/><path d="m152.933 111.098c-42.501 52.993-98.491 60.575-98.491 60.575v45.107c0 42.865 34.749 77.613 77.613 77.613 42.865 0 77.613-34.748 77.613-77.613v-45.094c-40.004-16.316-56.735-60.588-56.735-60.588z" fill="#f0c69e"/><path d="m132.056 276.394c-42.865 0-77.613-34.748-77.613-77.613v18c0 42.865 34.749 77.613 77.613 77.613 42.865 0 77.613-34.748 77.613-77.613v-18c0 42.864-34.748 77.613-77.613 77.613z" fill="#e6ba94"/><path d="m379.997 332.253c32.625 0 31.873-36.449 31.831-37.901-1.152-.041-2.307-.069-3.468-.069h-56.72c-1.163 0-2.32.028-3.473.069-.043 1.456-.793 37.901 31.83 37.901z" fill="#e2ae84"/><path d="m304.987 421.077h150.027v31.007h-150.027z" fill="#f6e080"/><g fill="#e2ae84"><path d="m54.442 216.78v-31.106c-.88-.09-1.772-.137-2.676-.137-14.293 0-25.879 11.587-25.879 25.88s11.587 25.879 25.879 25.879c1.808 0 3.573-.187 5.276-.54-1.693-6.374-2.6-13.069-2.6-19.976z"/><path d="m54.442 216.78v-31.106c-.88-.09-1.772-.137-2.676-.137-14.293 0-25.879 11.587-25.879 25.88s11.587 25.879 25.879 25.879c1.808 0 3.573-.187 5.276-.54-1.693-6.374-2.6-13.069-2.6-19.976z"/><path d="m212.345 185.537c-.904 0-1.796.047-2.676.137v31.106c0 6.907-.907 13.601-2.6 19.975 1.704.353 3.468.54 5.276.54 14.293 0 25.879-11.587 25.879-25.879.001-14.293-11.586-25.879-25.879-25.879z"/></g><path d="m51.766 219.296c-11.128 0-20.613-7.024-24.269-16.879-1.04 2.803-1.61 5.835-1.61 9 0 14.293 11.586 25.879 25.879 25.879 1.808 0 3.573-.187 5.276-.54-1.498-5.641-2.378-11.534-2.561-17.602-.892.093-1.798.142-2.715.142z" fill="#d7a379"/><path d="m212.345 219.296c-.917 0-1.823-.049-2.715-.143-.183 6.068-1.063 11.961-2.561 17.603 1.704.353 3.468.54 5.276.54 14.293 0 25.879-11.587 25.879-25.879 0-3.165-.57-6.197-1.61-9-3.656 9.855-13.141 16.879-24.269 16.879z" fill="#d7a379"/></g><g><path d="m501.067 343.958v-122.415c0-24.8-1.645-47.247-4.889-66.718-.682-4.095-4.556-6.86-8.65-6.179-4.095.682-6.862 4.555-6.179 8.649 3.109 18.657 4.685 40.273 4.685 64.248v100.223c-15.251-17.223-36.148-29.333-59.765-33.399 23.592-15.182 39.263-41.654 39.263-71.733v-31.14c0-2.954-1.737-5.637-4.428-6.853-.486-.219-48.81-22.44-74.285-67.679-1.332-2.365-3.835-3.828-6.549-3.828s-5.217 1.463-6.549 3.828c-25.475 45.239-73.8 67.459-74.279 67.675-2.699 1.213-4.436 3.897-4.436 6.856v31.14c0 30.08 15.671 56.551 39.264 71.733-23.619 4.066-44.518 16.178-59.77 33.404v-100.227c0-60.901 10.204-105.335 30.327-132.066 17.029-22.621 41.706-33.617 75.44-33.617 48.94 0 78.876 22.863 94.21 71.951 1.238 3.962 5.454 6.174 9.416 4.933 3.963-1.238 6.171-5.453 4.934-9.416-9.048-28.964-23.49-50.544-42.924-64.14-17.661-12.355-39.131-18.362-65.635-18.362-38.781 0-67.386 12.956-87.45 39.609-22.441 29.809-33.35 75.966-33.35 141.107v122.425c-1.246 2.481-2.395 5.018-3.441 7.607-13.236-32.605-42.65-56.976-78.229-63.097 15.892-10.224 28.18-25.567 34.518-43.693 18.416-.035 33.387-15.026 33.387-33.45 0-6.834-2.064-13.194-5.596-18.496 18.985-29.473 24.16-63.463 14.16-93.546-8.483-25.517-27.055-45.038-50.954-53.557-18.15-6.47-29.678-5.914-36.32-4.159-8.354-9.448-30.318-27.305-71.84-18.097-20.274 4.497-40.316 18.125-56.436 38.374-2.585 3.248-2.048 7.977 1.2 10.562 3.246 2.586 7.975 2.049 10.562-1.199 13.983-17.565 31.005-29.307 47.929-33.061 43.063-9.549 59.05 15.382 59.677 16.396 1.187 1.992 2.898 3.617 5.199 3.904 2.224.278 4.148-.18 5.754-1.693 1.316-.63 9.59-3.868 29.227 3.132 19.511 6.955 34.723 23.043 41.736 44.14 8.296 24.951 4.239 53.266-11.064 78.325-3.587-2.074-7.588-3.503-11.852-4.123v-6.718c0-3.055-1.849-5.806-4.678-6.96-36.432-14.859-52.484-55.939-52.671-56.427-.955-2.52-3.188-4.335-5.85-4.757-2.664-.423-5.352.615-7.041 2.721-40.062 49.952-93.33 57.889-93.85 57.961-3.727.504-6.507 3.687-6.507 7.448v6.731c-5.903.859-11.307 3.267-15.795 6.794-11.818-26.305-10.279-59.075 4.651-89.75 1.817-3.733.263-8.231-3.469-10.048-3.73-1.817-8.231-.264-10.048 3.469-18.242 37.48-18.642 78.094-1.307 109.59-1.705 4.01-2.649 8.419-2.649 13.043 0 18.424 14.972 33.415 33.387 33.45 6.338 18.125 18.625 33.468 34.518 43.693-48.646 8.372-85.776 50.854-85.776 101.852v93.238c0 4.151 3.365 7.516 7.516 7.516h496.967c4.152 0 7.516-3.365 7.516-7.516v-93.392c.001-16.604-3.942-32.301-10.932-46.216zm-96.989-42.06c-.817 5.199-2.776 12.117-7.463 16.945-3.968 4.087-9.316 6.075-16.348 6.075-7.031 0-12.378-1.987-16.346-6.074-4.688-4.828-6.647-11.747-7.464-16.946zm-94.039-85.264v-26.454c12.181-6.277 46.448-26.117 70.231-61.261 23.782 35.144 58.05 54.984 70.23 61.261v26.454c0 38.725-31.505 70.23-70.23 70.23s-70.231-31.505-70.231-70.23zm-159.602 85.375-16.556 27.894c-.634 1.068-1.622 1.227-2.155 1.227s-1.521-.16-2.155-1.227l-16.556-27.894zm80.233-90.674c0 8.82-6.234 16.203-14.525 17.996.614-4.12.94-8.333.94-12.621v-23.13c7.815 2.132 13.585 9.273 13.585 17.755zm-197.767 0c0-8.481 5.77-15.622 13.585-17.754v23.129c0 4.288.326 8.501.94 12.621-8.291-1.793-14.525-9.177-14.525-17.996zm28.617 5.375v-38.996c15.396-3.475 55.027-15.614 89.324-53.183 7.582 14.313 23.849 38.861 51.208 51.881v40.297c0 38.745-31.521 70.266-70.266 70.266s-70.266-31.52-70.266-70.265zm-46.487 173.618c0-46.132 35.555-84.11 80.7-87.987l20.913 35.234c3.192 5.377 8.83 8.587 15.082 8.587s11.89-3.21 15.082-8.587l20.919-35.244c45.199 3.823 80.813 41.826 80.813 87.997v85.722h-34.06v-73.874c0-4.151-3.365-7.516-7.516-7.516-4.152 0-7.516 3.365-7.516 7.516v73.874h-135.323v-73.874c0-4.151-3.365-7.516-7.516-7.516-4.152 0-7.516 3.365-7.516 7.516v73.874h-34.062zm297.611 69.714h69.584c4.152 0 7.516-3.365 7.516-7.516s-3.365-7.516-7.516-7.516h-69.584v-16.042h135.252v16.042h-35.603c-4.152 0-7.516 3.365-7.516 7.516s3.365 7.516 7.516 7.516h35.603v16.008h-135.252zm184.323 16.007h-34.039v-74.033c0-4.151-3.365-7.516-7.516-7.516-4.152 0-7.516 3.365-7.516 7.516v11.919h-135.252v-11.919c0-4.151-3.365-7.516-7.517-7.516-4.151 0-7.516 3.365-7.516 7.516v74.033h-34.039v-85.722-.154c0-45.124 34.034-82.442 77.779-87.649.98 7.529 3.8 18.568 11.784 26.791 6.852 7.057 15.98 10.635 27.132 10.635 11.153 0 20.282-3.579 27.134-10.636 7.984-8.224 10.803-19.262 11.783-26.79 43.748 5.205 77.784 42.525 77.784 87.65v85.875z"/><path d="m342.596 185.224c-4.152 0-7.516 3.365-7.516 7.516v17.43c0 4.151 3.365 7.516 7.516 7.516 4.152 0 7.516-3.365 7.516-7.516v-17.43c0-4.151-3.364-7.516-7.516-7.516z"/><path d="m417.943 217.686c4.152 0 7.516-3.365 7.516-7.516v-17.43c0-4.151-3.365-7.516-7.516-7.516-4.152 0-7.516 3.365-7.516 7.516v17.43c0 4.151 3.365 7.516 7.516 7.516z"/><path d="m94.096 185.289c-4.152 0-7.516 3.365-7.516 7.516v17.437c0 4.151 3.365 7.516 7.516 7.516s7.516-3.365 7.516-7.516v-17.437c0-4.151-3.365-7.516-7.516-7.516z"/><path d="m169.476 217.759c4.152 0 7.516-3.365 7.516-7.516v-17.437c0-4.151-3.365-7.516-7.516-7.516-4.152 0-7.516 3.365-7.516 7.516v17.437c0 4.151 3.365 7.516 7.516 7.516z"/><path d="m156.038 244.292c1.584-3.845-.25-8.246-4.095-9.83-3.843-1.583-8.245.251-9.828 4.095-.019.044-2.159 4.379-10.059 4.379s-10.04-4.336-10.059-4.379c-1.583-3.844-5.985-5.678-9.828-4.095-3.845 1.584-5.68 5.984-4.095 9.83 2.096 5.09 9.506 13.704 23.982 13.704 14.476-.001 21.886-8.615 23.982-13.704z"/><path d="m403.98 244.292c1.585-3.845-.25-8.246-4.095-9.83-3.843-1.583-8.245.251-9.828 4.095-.019.044-2.159 4.379-10.059 4.379s-10.04-4.336-10.059-4.379c-1.583-3.844-5.985-5.678-9.828-4.095-3.845 1.584-5.679 5.984-4.095 9.83 2.096 5.09 9.506 13.704 23.982 13.704 14.476-.001 21.886-8.615 23.982-13.704z"/></g></g></svg>