<svg id="Capa_1" enable-background="new 0 0 511.246 511.246" height="512" viewBox="0 0 511.246 511.246" width="512" xmlns="http://www.w3.org/2000/svg"><g><g><g><path d="m239.111 351.562v88.39h-63.98l1.03-83.95v-72.14c0-5.33-2.13-10.44-5.91-14.19l-58.92-58.42c-9.04-8.97-14.13-21.18-14.13-33.92v-50.42-64.6h141.91z" fill="#ffe5c2"/></g><path d="m66.911 39.442-56.82 38.83c-3.46 2.36-3.46 7.45 0 9.81l56.82 38.83 30.29-24.311v-48.122z" fill="#c9bfc8"/><path d="m144.368 155.2v-32.438-60.45h-47.167v64.6 28.288z" fill="#fed2a4"/><g id="XMLID_993_"><g><path d="m202.601 39.442v87.47h-135.69v-3-81.47-3z" fill="#d4f2f6"/></g></g><path d="m141.602 39.442h61v87.47h-61z" fill="#a6e7f0"/><path d="m467.711 39.442h-28.15l-26.286 24.008v45.507l26.286 17.956h28.15c19.9 0 36.04-16.13 36.04-36.03v-15.41c0-19.901-16.14-36.031-36.04-36.031z" fill="#efedef"/><path d="m439.561 125.662v1.25h-73.5v-87.47h73.5v4.75z" fill="#d4f2f6"/><g><g id="XMLID_992_"><g><path d="m366.061 39.442h58v87.47h-58z" fill="#a6e7f0"/></g></g></g><path d="m340.941 37.072c0-16.04 13.01-29.05 29.06-29.05 8.03 0 15.29 3.25 20.55 8.51s8.51 12.52 8.51 20.54v13.64 164.11c0 3.93-.98 7.79-2.84 11.25l-26.22 48.66v81.27 83.95h-145.28v-125.86l-77.89-131.35 19.77-19.78v-125.89c0-8.02 3.25-15.28 8.51-20.54s12.52-8.51 20.55-8.51c16.05 0 29.06 13.01 29.06 29.05 0-16.04 13-29.05 29.05-29.05 8.02 0 15.29 3.25 20.55 8.51s8.51 12.52 8.51 20.54c0-16.04 13.01-29.05 29.06-29.05 8.02 0 15.29 3.25 20.54 8.51 5.26 5.26 8.51 12.52 8.51 20.54z" fill="#ffe5c2"/><path d="m222.298 435.802 1.03-83.95v-72.14c0-5.33-2.13-10.44-5.91-14.19l-58.92-58.42c-9.04-8.97-14.13-21.18-14.13-33.92v-17.982h-47.167v22.132c0 12.74 5.09 24.95 14.13 33.92l58.92 58.42c3.78 3.75 5.91 8.86 5.91 14.19v72.14l-1.03 83.95h63.98v-4.15z" fill="#fed2a4"/><g id="XMLID_994_"><g><path d="m391.361 378.872v110.637c0 7.579-6.144 13.723-13.723 13.723h-209.124c-7.579 0-13.723-6.144-13.723-13.723v-110.637c0-12.631 10.239-22.87 22.87-22.87h190.83c12.631 0 22.87 10.239 22.87 22.87z" fill="#fec165"/></g></g><path d="m286.735 400.175h104.626v-21.303c0-12.631-10.239-22.87-22.87-22.87h-190.83c-12.631 0-22.87 10.239-22.87 22.87v110.637c0 7.579 6.144 13.723 13.723 13.723h53.429v-38.266c0-35.783 29.009-64.791 64.792-64.791z" fill="#fdb441"/></g><g><path d="m154.796 438.098c-4.143 0-7.5 3.358-7.5 7.5v57.63c0 4.142 3.357 7.5 7.5 7.5s7.5-3.358 7.5-7.5v-57.63c0-4.142-3.358-7.5-7.5-7.5z"/><path d="m467.715 31.94h-61.522c-2.505-17.734-17.775-31.422-36.19-31.422-11.836 0-22.371 5.659-29.057 14.408-6.686-8.75-17.221-14.408-29.058-14.408s-22.372 5.659-29.058 14.408c-6.686-8.75-17.221-14.408-29.058-14.408-11.836 0-22.371 5.659-29.057 14.408-6.686-8.75-17.221-14.408-29.058-14.408-18.415 0-33.685 13.688-36.19 31.422h-24.434c-4.143 0-7.5 3.358-7.5 7.5s3.357 7.5 7.5 7.5h24.066v72.474h-84.683v-72.474h28.656c4.143 0 7.5-3.358 7.5-7.5s-3.357-7.5-7.5-7.5h-36.156c-1.51 0-2.984.456-4.231 1.308l-56.828 38.831c-3.668 2.506-5.857 6.655-5.857 11.097 0 4.443 2.188 8.592 5.857 11.1l56.827 38.831c1.247.852 2.722 1.308 4.231 1.308h22.785v42.919c0 14.635 5.96 28.938 16.352 39.243l58.913 58.419c2.347 2.329 3.693 5.56 3.693 8.865v66.007c-12.362 3.844-21.363 15.39-21.363 29v34.769c0 4.142 3.357 7.5 7.5 7.5s7.5-3.358 7.5-7.5v-34.769c0-8.47 6.891-15.361 15.361-15.361h190.849c8.47 0 15.36 6.891 15.36 15.361v124.361c0 4.142 3.357 7.5 7.5 7.5s7.5-3.358 7.5-7.5v-124.362c0-13.61-9.001-25.156-21.363-29v-73.246l25.321-46.989c2.444-4.534 3.736-9.653 3.736-14.806v-30.528c0-4.142-3.357-7.5-7.5-7.5s-7.5 3.358-7.5 7.5v30.528c0 2.676-.671 5.334-1.94 7.688l-26.22 48.656c-.589 1.094-.897 2.316-.897 3.558v73.777h-178.843v-64.645c0-7.276-2.964-14.389-8.131-19.515l-58.913-58.42c-7.571-7.508-11.914-17.929-11.914-28.592v-42.919h54.4v25.445l-17.575 17.574c-2.929 2.929-2.929 7.677 0 10.606 1.465 1.465 3.384 2.197 5.304 2.197 1.919 0 3.839-.732 5.304-2.197l19.771-19.771c1.406-1.406 2.196-3.314 2.196-5.303v-125.89c0-11.887 9.671-21.557 21.558-21.557s21.558 9.67 21.558 21.557v12.991c0 4.142 3.357 7.5 7.5 7.5s7.5-3.358 7.5-7.5v-12.991c0-11.887 9.67-21.557 21.557-21.557s21.558 9.67 21.558 21.557v13.633c0 4.142 3.357 7.5 7.5 7.5s7.5-3.358 7.5-7.5v-13.633c0-11.887 9.671-21.557 21.558-21.557s21.558 9.67 21.558 21.557v13.633c0 4.142 3.357 7.5 7.5 7.5s7.5-3.358 7.5-7.5v-13.633c0-11.887 9.67-21.557 21.557-21.557s21.558 9.67 21.558 21.557v89.839 25.421c0 4.142 3.357 7.5 7.5 7.5s7.5-3.358 7.5-7.5v-17.921h61.154c24.003 0 43.531-19.528 43.531-43.531v-15.412c-.002-24.003-19.53-43.531-43.533-43.531zm-408.299 21.708v59.057l-43.214-29.528zm347.145-6.708h25.497v72.474h-25.497zm89.685 43.943c0 15.732-12.799 28.531-28.531 28.531h-20.657v-72.474h20.657c15.732 0 28.531 12.799 28.531 28.531z"/></g></g></svg>