<svg id="Capa_1" enable-background="new 0 0 511.766 511.766" height="512" viewBox="0 0 511.766 511.766" width="512" xmlns="http://www.w3.org/2000/svg"><g><g><g id="XMLID_995_"><g><path d="m481.583 157.095v320.72h-451.4v-320.72c0-15.89 12.89-28.78 28.79-28.78h36.81s320.2-1.6 320.2 0h36.81c15.9 0 28.79 12.89 28.79 28.78z" fill="#e5e1e5"/></g></g><path d="m132.135 128.315h36.81s106.511-.532 196.673-.676c-90.166-.222-269.835.676-269.835.676h-36.81c-15.9 0-28.79 12.89-28.79 28.78v320.72h73.162v-320.72c0-15.89 12.89-28.78 28.79-28.78z" fill="#d7d0d6"/><path d="m112.963 275.825h285.84c23.258 0 42.18-18.927 42.18-42.19v-105.32h-25c0-1.6-320.2 0-320.2 0h-25v105.32c0 23.263 18.922 42.19 42.18 42.19z" fill="#d7d0d6"/><path d="m441.079 158.315h-366.348v259.5h366.347c5.801 0 10.504-4.703 10.504-10.504v-238.492c.001-5.802-4.702-10.504-10.503-10.504z" fill="#d4f2f6"/><path d="m103.345 158.315h-32.562-.096c-5.801 0-10.504 4.703-10.504 10.504v238.491c0 5.801 4.703 10.504 10.504 10.504h32.658v-132.66c0-5.227 4.291-9.343 9.518-9.33h.099 285.84c23.295 0 42.18-18.884 42.18-42.18v-75.33h-337.637z" fill="#a6e7f0"/><path d="m494.869 447.815h-477.973c-5.19 0-9.397 4.207-9.397 9.397v24.312c0 12.239 9.922 22.161 22.161 22.161h452.444c12.239 0 22.161-9.922 22.161-22.161v-24.312c.001-5.19-4.206-9.397-9.396-9.397z" fill="#c9bfc8"/><path d="m92.434 481.524v-24.312c0-5.19 4.207-9.397 9.397-9.397h-84.935c-5.19 0-9.397 4.207-9.397 9.397v24.312c0 12.239 9.922 22.161 22.161 22.161h84.935c-12.239 0-22.161-9.922-22.161-22.161z" fill="#baafb9"/><g id="XMLID_997_"><g><path d="m393.573 30.955h-256.867l-28.1 15.704v203.587c1.394.365 2.848.579 4.357.579h285.84c9.49 0 17.18-7.7 17.18-17.19v-179.81z" fill="#f9f7f8"/><path d="m146.607 233.635v-179.81l40.923-22.87h-50.824l-40.923 22.87v179.81c0 9.49 7.69 17.19 17.18 17.19h50.824c-9.49 0-17.18-7.7-17.18-17.19z" fill="#efedef"/></g></g><path d="m398.803 8.085h-244.24v1.492h-48.588c-1.404.627-2.713 1.429-3.889 2.392v41.856h313.897v-28.56c0-9.49-7.69-17.18-17.18-17.18z" fill="#f47c7c"/><g id="XMLID_998_"><g><path d="m163.787 8.085h-50.824c-9.49 0-17.18 7.69-17.18 17.18v28.56h50.824v-28.56c0-9.49 7.69-17.18 17.18-17.18z" fill="#ee6161"/></g></g><path d="m221.865 186.213v-72.038c0-7.816 8.704-12.485 15.216-8.162l54.252 36.019c5.837 3.876 5.837 12.448 0 16.324l-54.252 36.019c-6.513 4.323-15.216-.346-15.216-8.162z" fill="#ee6161"/><circle cx="256.383" cy="341.251" fill="#ee6161" r="46.672"/><path d="m256.383 357.923c-9.193 0-16.672-7.479-16.672-16.672s7.479-16.672 16.672-16.672 16.672 7.479 16.672 16.672-7.479 16.672-16.672 16.672z" fill="#e94444"/></g><g><path d="m504.266 440.315h-15.188v-283.216c0-20.007-16.276-36.283-36.282-36.283h-29.312v-95.548c0-13.612-11.074-24.687-24.687-24.687h-285.83c-13.612 0-24.687 11.075-24.687 24.687v95.548h-29.31c-20.006 0-36.282 16.276-36.282 36.283v283.216h-15.188c-4.143 0-7.5 3.358-7.5 7.5v33.708c0 16.355 13.306 29.661 29.66 29.661h452.445c16.354 0 29.66-13.306 29.66-29.661v-33.708c.001-4.142-3.357-7.5-7.499-7.5zm-391.298-424.734h285.83c5.341 0 9.687 4.346 9.687 9.687v21.052h-305.204v-21.052c0-5.342 4.346-9.687 9.687-9.687zm383.798 465.943c0 8.084-6.576 14.661-14.66 14.661h-452.446c-8.084 0-14.66-6.577-14.66-14.661v-26.208h345.762c4.143 0 7.5-3.358 7.5-7.5s-3.357-7.5-7.5-7.5h-323.074v-283.217c0-11.736 9.547-21.283 21.282-21.283h29.312v15h-28.095c-4.143 0-7.5 3.358-7.5 7.5v259.5c0 4.142 3.357 7.5 7.5 7.5h38.401c4.143 0 7.5-3.358 7.5-7.5s-3.357-7.5-7.5-7.5h-30.901v-244.5h20.595v67.817c0 13.612 11.074 24.687 24.687 24.687h231.07c4.143 0 7.5-3.358 7.5-7.5s-3.357-7.5-7.5-7.5h-231.07c-5.341 0-9.687-4.345-9.687-9.687v-172.313h305.203v172.313c0 5.341-4.346 9.687-9.687 9.687h-22.797c-4.143 0-7.5 3.358-7.5 7.5s3.357 7.5 7.5 7.5h22.797c13.612 0 24.687-11.074 24.687-24.687v-67.817h20.595v244.5h-313.53c-4.143 0-7.5 3.358-7.5 7.5s3.357 7.5 7.5 7.5h321.029c4.143 0 7.5-3.358 7.5-7.5v-259.5c0-4.142-3.357-7.5-7.5-7.5h-28.095v-15h29.312c11.735 0 21.282 9.547 21.282 21.283v283.216h-81.354c-4.143 0-7.5 3.358-7.5 7.5s3.357 7.5 7.5 7.5h104.042z"/><path d="m295.48 135.783-54.252-36.019c-5.32-3.532-12.119-3.851-17.743-.833-5.626 3.018-9.121 8.858-9.121 15.243v72.038c0 6.384 3.495 12.225 9.121 15.243 2.565 1.376 5.375 2.059 8.178 2.059 3.342 0 6.673-.97 9.565-2.891l54.252-36.019c4.84-3.213 7.73-8.601 7.73-14.411.001-5.809-2.89-11.196-7.73-14.41zm-8.296 16.324-54.252 36.019c-.995.662-1.903.354-2.356.11-.452-.243-1.211-.829-1.211-2.024v-72.038c0-1.196.759-1.782 1.211-2.024.25-.134.638-.288 1.104-.288.378 0 .807.102 1.253.398l54.252 36.02c.894.593 1.027 1.453 1.027 1.913-.001.461-.135 1.321-1.028 1.914z"/><path d="m183.707 105.473h-4.933c-4.143 0-7.5 3.358-7.5 7.5s3.357 7.5 7.5 7.5h4.933c4.143 0 7.5-3.358 7.5-7.5s-3.357-7.5-7.5-7.5z"/><path d="m131.09 120.473h17.853c4.143 0 7.5-3.358 7.5-7.5s-3.357-7.5-7.5-7.5h-17.853c-4.143 0-7.5 3.358-7.5 7.5s3.357 7.5 7.5 7.5z"/><path d="m183.707 142.694h-52.617c-4.143 0-7.5 3.358-7.5 7.5s3.357 7.5 7.5 7.5h52.617c4.143 0 7.5-3.358 7.5-7.5s-3.357-7.5-7.5-7.5z"/><path d="m136.022 179.915h-4.933c-4.143 0-7.5 3.358-7.5 7.5s3.357 7.5 7.5 7.5h4.933c4.143 0 7.5-3.358 7.5-7.5s-3.357-7.5-7.5-7.5z"/><path d="m183.707 179.915h-17.853c-4.143 0-7.5 3.358-7.5 7.5s3.357 7.5 7.5 7.5h17.853c4.143 0 7.5-3.358 7.5-7.5s-3.357-7.5-7.5-7.5z"/><path d="m329.059 120.473h4.933c4.143 0 7.5-3.358 7.5-7.5s-3.357-7.5-7.5-7.5h-4.933c-4.143 0-7.5 3.358-7.5 7.5s3.357 7.5 7.5 7.5z"/><path d="m363.823 120.473h17.853c4.143 0 7.5-3.358 7.5-7.5s-3.357-7.5-7.5-7.5h-17.853c-4.143 0-7.5 3.358-7.5 7.5s3.358 7.5 7.5 7.5z"/><path d="m329.059 157.694h52.617c4.143 0 7.5-3.358 7.5-7.5s-3.357-7.5-7.5-7.5h-52.617c-4.143 0-7.5 3.358-7.5 7.5s3.357 7.5 7.5 7.5z"/><path d="m381.676 179.915h-4.933c-4.143 0-7.5 3.358-7.5 7.5s3.357 7.5 7.5 7.5h4.933c4.143 0 7.5-3.358 7.5-7.5s-3.358-7.5-7.5-7.5z"/><path d="m354.411 187.415c0-4.142-3.357-7.5-7.5-7.5h-17.853c-4.143 0-7.5 3.358-7.5 7.5s3.357 7.5 7.5 7.5h17.853c4.143 0 7.5-3.358 7.5-7.5z"/><path d="m256.383 395.423c27.324 0 49.976-20.34 53.641-46.672h106.961c4.143 0 7.5-3.358 7.5-7.5s-3.357-7.5-7.5-7.5h-106.962c-3.665-26.332-26.316-46.672-53.641-46.672s-49.976 20.34-53.641 46.672h-106.96c-4.143 0-7.5 3.358-7.5 7.5s3.357 7.5 7.5 7.5h106.961c3.665 26.332 26.316 46.672 53.641 46.672zm0-93.344c21.6 0 39.172 17.573 39.172 39.172s-17.572 39.172-39.172 39.172-39.172-17.572-39.172-39.172 17.572-39.172 39.172-39.172z"/><path d="m256.383 365.423c13.328 0 24.172-10.843 24.172-24.172s-10.844-24.172-24.172-24.172-24.172 10.844-24.172 24.172 10.844 24.172 24.172 24.172zm0-33.344c5.058 0 9.172 4.115 9.172 9.172s-4.114 9.172-9.172 9.172-9.172-4.114-9.172-9.172 4.114-9.172 9.172-9.172z"/></g></g></svg>