<svg id="Capa_1" enable-background="new 0 0 511.09 511.09" height="512" viewBox="0 0 511.09 511.09" width="512" xmlns="http://www.w3.org/2000/svg"><g><g><g><g id="XMLID_1000_"><g><path d="m263.677 121.613 16.17 34.95-129.02 49.8-13.47-41.77-24.45-62.99-8.02-20.34s124.14-48.87 125.6-48.87c1.47 0 6.7 20.98 6.7 20.98z" fill="#baafb9"/></g></g></g><path d="m179.893 177.298-13.47-41.77-5.546-14.288c-3.929-10.123 1.092-21.515 11.216-25.444l70.884-27.509-5.789-14.913s-1.463-5.867-3.058-11.396l-125.525 48.714 4.302 10.911 24.45 62.99 13.47 41.77 129.02-49.8-7.006-15.143z" fill="#aa9ea9"/><g><g id="XMLID_999_"><g><path d="m328.867 438.403c-14.07 32.68-33.55 55.51-55.59 62.74-4.98.39-10.01.59-15.08.59v-76.85c24.97 0 48.81 4.79 70.67 13.52z" fill="#6bd9e7"/><path d="m328.867 438.403c15.91 6.33 30.77 14.76 44.24 24.92-28.22 21.28-62.52 34.91-99.83 37.82 22.04-7.23 41.52-30.06 55.59-62.74z" fill="#a6e7f0"/><path d="m258.197 312.563h93.94c0 48.2-8.78 92.23-23.27 125.84-21.86-8.73-45.7-13.52-70.67-13.52z" fill="#a6e7f0"/><path d="m352.137 312.563h97.07c-.58 61.61-30.33 116.24-76.1 150.76-13.47-10.16-28.33-18.59-44.24-24.92 14.49-33.61 23.27-77.64 23.27-125.84z" fill="#d4f2f6"/><path d="m352.137 312.563h-93.94v-112.33c24.97 0 48.81-4.79 70.67-13.51 14.49 33.61 23.27 77.63 23.27 125.84z" fill="#d4f2f6"/><path d="m449.227 310.703c0 .62 0 1.24-.02 1.86h-97.07c0-48.21-8.78-92.23-23.27-125.84 16.39-6.52 31.66-15.26 45.45-25.84l.01-1.87c45.54 34.91 74.9 89.87 74.9 151.69z" fill="#dcf5f8"/><path d="m258.197 424.883v76.85c-5.07 0-10.1-.2-15.08-.59-22.04-7.23-41.52-30.06-55.59-62.74 21.86-8.73 45.7-13.52 70.67-13.52z" fill="#2ed1e2"/><path d="m187.527 438.403c14.07 32.68 33.55 55.51 55.59 62.74-37.31-2.91-71.61-16.54-99.83-37.82 13.47-10.16 28.33-18.59 44.24-24.92z" fill="#02c7dd"/><path d="m164.257 312.563c0 48.2 8.78 92.23 23.27 125.84-15.91 6.33-30.77 14.76-44.24 24.92-45.77-34.52-75.52-89.15-76.1-150.76z" fill="#2ed1e2"/><path d="m258.197 312.563v112.32c-24.97 0-48.81 4.79-70.67 13.52-14.49-33.61-23.27-77.64-23.27-125.84z" fill="#6bd9e7"/><path d="m187.527 186.723c-14.49 33.61-23.27 77.63-23.27 125.84h-97.07c-.02-.62-.02-1.24-.02-1.86 0-61 28.59-115.31 73.09-150.29l1.82.47c13.79 10.58 29.06 19.32 45.45 25.84z" fill="#6bd9e7"/><path d="m258.197 200.233v112.33h-93.94c0-48.21 8.78-92.23 23.27-125.84 21.86 8.72 45.7 13.51 70.67 13.51z" fill="#a6e7f0"/><path d="m258.197 121.533c-28.18 0-53.46 25.23-70.67 65.19-16.39-6.52-31.66-15.26-45.45-25.84l-1.82-.47c32.48-25.52 73.43-40.74 117.94-40.74h.02z" fill="#a6e7f0"/><path d="m258.197 121.533v78.7c-24.97 0-48.81-4.79-70.67-13.51 17.21-39.96 42.49-65.19 70.67-65.19z" fill="#d4f2f6"/><path d="m258.197 121.533c28.18 0 53.46 25.23 70.67 65.19-21.86 8.72-45.7 13.51-70.67 13.51z" fill="#dcf5f8"/><path d="m374.327 159.013-.01 1.87c-13.79 10.58-29.06 19.32-45.45 25.84-17.21-39.96-42.49-65.19-70.67-65.19l.02-1.86c43.68 0 83.93 14.67 116.11 39.34z" fill="#eaf9fa"/></g></g></g><path d="m257.573 8.079-190.26 73.838c-4.391 1.704-6.569 6.645-4.865 11.035l6.437 16.587c1.704 4.391 6.645 6.569 11.035 4.865l190.26-73.838c4.391-1.704 6.569-6.645 4.865-11.035l-6.437-16.587c-1.704-4.391-6.645-6.569-11.035-4.865z" fill="#baafb9"/><path d="m106.335 229.171h-7.529c-9.153 0-16.572 7.42-16.572 16.572v18.97c0 2.872 2.328 5.199 5.199 5.199h30.275c2.872 0 5.199-2.328 5.199-5.199v-18.97c.001-9.153-7.419-16.572-16.572-16.572z" fill="#d7d0d6"/></g><path d="m456.727 312.559c0-63.722-30.184-120.521-76.998-156.871-.535-.558-1.141-1.017-1.792-1.375-30.651-23.25-68.229-37.816-109.046-39.993l-21.995-56.672 25.999-10.09c8.238-3.197 12.34-12.501 9.143-20.741l-6.438-16.587c-3.198-8.239-12.504-12.342-20.74-9.143l-190.261 73.839c-3.991 1.549-7.14 4.56-8.867 8.477s-1.825 8.273-.275 12.264l6.437 16.587c2.46 6.339 8.536 10.229 14.96 10.229 1.925 0 3.881-.349 5.78-1.086l12.437-4.827v105.393c-11.506 1.8-20.337 11.778-20.337 23.781v18.97c0 7.002 5.697 12.699 12.699 12.699h30.275c7.002 0 12.7-5.697 12.7-12.699v-18.97c0-12.003-8.831-21.981-20.337-23.781v-106.952l18.36 47.308c-2.071 1.792-4.117 3.621-6.123 5.505-3.019 2.836-3.168 7.582-.332 10.602s7.582 3.167 10.602.332c3.125-2.935 6.339-5.746 9.633-8.437 11.226 8.106 23.115 14.944 35.526 20.465-12.832 32.646-20.127 72.331-20.905 114.274h-81.996c.059-1.479.118-2.96.212-4.427.265-4.134-2.872-7.699-7.005-7.964-4.14-.256-7.699 2.872-7.964 7.005-.273 4.267-.412 8.602-.412 12.886 0 63.723 30.185 120.522 77 156.873.534.557 1.139 1.015 1.789 1.372 33.311 25.268 74.803 40.285 119.742 40.285 44.959 0 86.468-15.031 119.786-40.319.631-.353 1.222-.794 1.742-1.336 46.815-36.352 77.001-93.152 77.001-156.876zm-15.165-7.5h-81.997c-.358-19.183-2.084-38.029-5.156-56.121-.693-4.084-4.562-6.833-8.649-6.139-4.084.693-6.832 4.566-6.139 8.649 2.932 17.27 4.589 35.27 4.944 53.61h-78.868v-97.468c20.392-.748 40.222-4.547 59.038-11.24 2.911 7.457 5.575 15.432 7.945 23.9 1.116 3.988 5.252 6.318 9.244 5.202 3.989-1.116 6.318-5.255 5.202-9.244-2.495-8.918-5.34-17.407-8.484-25.417 12.389-5.51 24.258-12.332 35.466-20.418 39.43 32.207 65.262 80.451 67.454 134.686zm-190.865 190.309c-19.346-3.67-37.652-21.46-52.198-51.04-.286-.581-.564-1.174-.845-1.761 16.931-5.914 34.739-9.307 53.043-10.034zm15 0v-62.834c18.304.726 36.112 4.12 53.043 10.034-.281.587-.559 1.18-.845 1.761-14.546 29.579-32.852 47.369-52.198 51.039zm0-77.841v-26.206c0-4.142-3.358-7.5-7.5-7.5s-7.5 3.358-7.5 7.5v26.206c-20.392.748-40.222 4.547-59.038 11.24-12.142-30.89-19.059-68.64-19.827-108.708h78.865v39.299c0 4.142 3.358 7.5 7.5 7.5s7.5-3.358 7.5-7.5v-39.299h78.865c-.768 40.067-7.685 77.817-19.827 108.708-18.816-6.693-38.646-10.492-59.038-11.24zm0-287.756c19.96 3.829 38.764 22.767 53.079 52.769-16.942 5.922-34.762 9.32-53.079 10.046zm46.201 13.672c-2.583-3.122-5.237-6.001-7.951-8.64 20.828 5.364 40.231 14.307 57.524 26.122-9.168 6.267-18.788 11.639-28.774 16.091-6.123-12.952-13.112-24.283-20.799-33.573zm-61.201-13.692v62.834c-18.304-.726-36.112-4.12-53.043-10.034.281-.587.559-1.18.845-1.761 14.546-29.579 32.852-47.369 52.198-51.039zm-135.289 115.992v16.669h-25.674v-16.669c0-5.002 4.07-9.072 9.072-9.072h7.529c5.003 0 9.073 4.069 9.073 9.072zm7.208-139.864 11.297-4.385c3.862-1.499 5.777-5.844 4.278-9.705-1.498-3.861-5.843-5.778-9.705-4.278l-51.28 19.901c-.527.203-1.124-.059-1.33-.586l-6.437-16.587c-.205-.528.058-1.125.586-1.33l190.26-73.838c.327-.126.608-.061.786.018.178.078.417.24.544.569l6.437 16.585c.205.529-.058 1.126-.586 1.331l-32.989 12.803h-.001s-.001 0-.001 0l-76.163 29.558c-3.862 1.499-5.777 5.844-4.278 9.705s5.842 5.778 9.705 4.278l69.172-26.845 19.807 51.037c-40.671 1.106-79.554 14.514-112.009 38.394zm32.236 54.997c17.583-12.009 37.034-20.807 57.552-26.073-10.104 9.853-19.347 23.064-27.365 39.368-.46.936-.911 1.884-1.361 2.835-10.005-4.461-19.643-9.847-28.826-16.13zm36.807 35.476c18.816 6.692 38.646 10.492 59.037 11.24v97.468h-78.865c.77-40.068 7.686-77.818 19.828-108.708zm-116.827 123.707h81.998c.778 41.943 8.072 81.629 20.905 114.274-12.382 5.509-24.245 12.328-35.449 20.41-39.431-32.204-65.262-80.449-67.454-134.684zm80.09 144.136c9.162-6.263 18.776-11.632 28.755-16.082.45.951.901 1.899 1.361 2.835 8.014 16.297 17.252 29.503 27.352 39.355-20.806-5.365-40.19-14.304-57.468-26.108zm176.433-13.247c.46-.936.911-1.884 1.361-2.835 9.979 4.449 19.593 9.819 28.755 16.082-17.278 11.805-36.662 20.743-57.468 26.108 10.1-9.852 19.338-23.058 27.352-39.355zm42.753 3.796c-11.204-8.082-23.066-14.901-35.449-20.41 12.833-32.646 20.127-72.332 20.905-114.274h81.998c-2.192 54.234-28.023 102.479-67.454 134.684z"/></g></svg>