<svg id="Capa_1" enable-background="new 0 0 512.123 512.123" height="512" viewBox="0 0 512.123 512.123" width="512" xmlns="http://www.w3.org/2000/svg"><g><g><path d="m483.838 385.007h-8.081-23.05v40.988l23.05.583h8.081c11.479 0 20.785-9.306 20.785-20.785 0-11.48-9.306-20.786-20.785-20.786z" fill="#6cf5c2"/><path d="m437.567 445.451h19.712c10.205 0 18.478-8.273 18.478-18.478v-42.361c0-10.205-8.273-18.478-18.478-18.478h-19.712-38.525v79.317z" fill="#9cf8d2"/><path d="m36.366 385.007h-8.081c-11.479 0-20.785 9.306-20.785 20.785 0 11.479 9.306 20.785 20.785 20.785h8.081l20.056-1.9v-39.671h-20.056z" fill="#6cf5c2"/><g id="XMLID_1002_"><g><path d="m102.58 366.136v79.31h-28.02-19.72c-10.2 0-18.47-8.27-18.47-18.47v-42.36c0-10.21 8.27-18.48 18.47-18.48h19.72z" fill="#9cf8d2"/></g></g><path d="m140.95 350.856v109.87c0 2.92-2.37 5.29-5.29 5.29h-35.25c-13.32 0-24.12-10.8-24.12-24.12v-72.21c0-13.32 10.8-24.12 24.12-24.12h35.25c2.92 0 5.29 2.37 5.29 5.29z" fill="#baafb9"/><path d="m229.401 426.97-1.964 11.754v10.302c0 15.646 12.683 28.329 28.329 28.329s28.329-12.683 28.329-28.329v-10.302l1.827-11.754z" fill="#c9bfc8"/><path d="m254.56 175.306c-56.29.82-102.14 46.83-102.78 103.13-.4 35.44 16.86 66.86 43.54 86.02 7.7 5.53 13.63 13.18 17.19 21.96l9.23 22.8 5.698 14.754h57.684l5.379-14.754 9.23-22.79c3.62-8.94 9.77-16.59 17.57-22.24 26.16-18.97 43.17-49.77 43.17-84.54-.001-58.15-47.561-105.19-105.911-104.34z" fill="#fee45a"/><path d="m257.852 413.773-9.23-22.8c-3.56-8.78-9.49-16.43-17.19-21.96-26.68-19.16-43.94-50.58-43.54-86.02.626-55.108 44.57-100.349 99.22-103.01-10.263-3.188-21.202-4.842-32.552-4.677-56.29.82-102.14 46.83-102.78 103.13-.4 35.44 16.86 66.86 43.54 86.02 7.7 5.53 13.63 13.18 17.19 21.96l9.23 22.8 5.698 14.754h34.352z" fill="#fedf30"/><path d="m287.125 409.214h-62.01c-8.149 0-14.756 6.606-14.756 14.756 0 8.149 6.606 14.756 14.756 14.756h62.01c8.149 0 14.756-6.606 14.756-14.756-.001-8.15-6.607-14.756-14.756-14.756z" fill="#d7d0d6"/><g id="XMLID_1001_"><g><path d="m435.84 369.686v72.21c0 13.32-10.8 24.12-24.13 24.12h-35.25c-2.92 0-5.29-2.37-5.29-5.29v-109.87c0-2.92 2.37-5.29 5.29-5.29h35.25c13.33 0 24.13 10.8 24.13 24.12z" fill="#baafb9"/></g></g><g id="XMLID_1003_"><g><path d="m433.52 247.516h35v52.43c0 6.17-5 11.17-11.17 11.17h-12.67c-6.16 0-11.16-5-11.16-11.17v-50.89c0-.51 0-1.03-.01-1.54z" fill="#efedef"/><path d="m78.02 249.356v50.59c0 6.17-5 11.17-11.17 11.17h-12.67c-6.16 0-11.16-5-11.16-11.17v-50.59z" fill="#efedef"/><path d="m468.52 247.516h-35-.01c-.83-97.03-80.45-177.7-177.65-177.75-98.06-.05-177.84 79.71-177.84 177.75v1.84h-35c0-116.96 95.68-214.53 212.64-214.59 117.36-.06 212.86 95.41 212.86 212.75z" fill="#9cf8d2"/></g></g></g><g><path d="m334.625 199.976c-21.497-21.185-49.953-32.62-80.173-32.168-50.545.737-94.475 35.57-106.828 84.708-1.01 4.017 1.428 8.092 5.445 9.103 4.018 1.013 8.093-1.428 9.102-5.445 10.7-42.559 48.737-72.729 92.5-73.367 26.143-.365 50.813 9.511 69.426 27.854 18.618 18.348 28.871 42.847 28.871 68.984 0 30.943-14.979 60.276-40.067 78.466-9.067 6.573-16.025 15.39-20.12 25.497l-7.336 18.107h-4.833v-67.415h9.024c12.437 0 22.556-10.119 22.556-22.556s-10.119-22.555-22.556-22.555h-1.469c-12.437 0-22.555 10.118-22.555 22.555v7.556h-17.982v-7.556c0-12.437-10.118-22.555-22.555-22.555h-1.469c-12.437 0-22.556 10.119-22.556 22.556s10.119 22.555 22.556 22.555h9.024v67.414h-5.833l-7.338-18.112c-4.128-10.189-10.962-18.916-19.764-25.237-23.726-17.039-38.384-43.475-40.215-72.53-.26-4.134-3.812-7.264-7.958-7.013-4.134.261-7.273 3.823-7.013 7.958 2.117 33.563 19.042 64.096 46.436 83.77 6.496 4.666 11.549 11.127 14.611 18.686l6.716 16.576c-5.689 4.036-9.412 10.668-9.412 18.158 0 10.615 7.473 19.513 17.432 21.723v3.334c0 19.756 16.073 35.829 35.829 35.829s35.829-16.073 35.829-35.829v-3.334c9.96-2.21 17.432-11.108 17.432-21.723 0-7.49-3.723-14.123-9.412-18.158l6.714-16.572c3.039-7.499 8.233-14.064 15.022-18.985 28.968-21.002 46.263-54.875 46.263-90.61-.001-30.187-11.843-58.479-33.344-79.669zm-54.014 111.768c0-4.166 3.389-7.555 7.555-7.555h1.469c4.166 0 7.556 3.39 7.556 7.556s-3.39 7.555-7.556 7.555h-9.024zm-57.007 7.556c-4.166 0-7.556-3.39-7.556-7.556s3.39-7.555 7.556-7.555h1.469c4.166 0 7.555 3.389 7.555 7.555v7.556zm24.024 15h17.982v67.414h-17.982zm29.32 114.726c0 11.485-9.344 20.829-20.829 20.829s-20.829-9.344-20.829-20.829v-2.801h41.657v2.801zm10.177-17.801h-2.677-56.657-2.677c-4 0-7.255-3.255-7.255-7.256 0-4 3.255-7.255 7.255-7.255h62.011c4 0 7.255 3.255 7.255 7.255 0 4.001-3.255 7.256-7.255 7.256z"/><path d="m483.838 377.507h-1.577c-2.991-10.5-12.428-18.308-23.745-18.842v-40.113c9.749-.608 17.5-8.71 17.5-18.609v-52.426c0-58.759-22.948-114.056-64.616-155.706-41.645-41.625-96.911-64.544-155.634-64.544-.036 0-.074 0-.11 0-58.475.028-113.704 23.356-155.514 65.686-41.675 42.193-64.626 97.738-64.626 156.404v50.586c0 9.899 7.751 18.001 17.5 18.609v40.153c-11.052.773-20.216 8.486-23.154 18.802h-1.577c-15.597 0-28.285 12.689-28.285 28.285s12.688 28.285 28.285 28.285h1.577c3.099 10.88 13.121 18.873 24.982 18.873h15.941c4.493 12 16.075 20.568 29.625 20.568h35.25c7.054 0 12.793-5.739 12.793-12.793v-109.866c0-7.054-5.739-12.793-12.793-12.793h-35.25c-13.549 0-25.132 8.568-29.625 20.568h-2.77v-40.082c9.749-.608 17.5-8.71 17.5-18.609v-52.426c0-45.415 17.74-88.157 49.953-120.354 32.193-32.179 74.911-49.896 120.297-49.896h.086c49.94.025 97.322 22.499 129.997 61.659 2.653 3.18 7.383 3.606 10.564.954 3.18-2.654 3.607-7.383.954-10.564-35.531-42.583-87.108-67.021-141.506-67.048-.033 0-.062 0-.095 0-49.388 0-95.876 19.278-130.901 54.287-33.705 33.69-52.838 77.999-54.254 125.303h-19.944c1.865-51.915 23.047-100.8 60.148-138.363 38.972-39.456 90.414-61.201 144.85-61.227h.102c54.714 0 106.221 21.362 145.03 60.153 37.055 37.038 58.209 85.654 60.07 137.597h-20.097c-1.437-29.184-9.78-57.839-24.394-83.385-2.058-3.595-6.641-4.843-10.234-2.786-3.595 2.057-4.843 6.639-2.786 10.234 14.825 25.916 22.662 55.299 22.662 84.975v50.888c0 9.899 7.751 18.001 17.5 18.609v40.082h-2.179c-4.493-12-16.075-20.568-29.625-20.568h-35.25c-7.054 0-12.793 5.739-12.793 12.793v109.867c0 7.054 5.739 12.793 12.793 12.793h35.25c13.549 0 25.132-8.568 29.625-20.568h15.941c11.861 0 21.883-7.993 24.982-18.873h1.577c15.597 0 28.285-12.689 28.285-28.286s-12.688-28.286-28.285-28.286zm-468.838 28.285c0-7.326 5.959-13.285 13.285-13.285h.581v26.571h-.581c-7.326 0-13.285-5.96-13.285-13.286zm28.866 21.181v-.396-41.571-.396c0-6.053 4.924-10.978 10.978-10.978h13.943v64.317h-13.943c-6.053.002-10.978-4.923-10.978-10.976zm39.921-57.285c0-9.166 7.457-16.623 16.623-16.623h2.169v56.934c0 4.142 3.358 7.5 7.5 7.5s7.5-3.358 7.5-7.5v-56.934h15.874v105.454h-15.874v-17.853c0-4.142-3.358-7.5-7.5-7.5s-7.5 3.358-7.5 7.5v17.853h-2.169c-9.166 0-16.623-7.457-16.623-16.623zm-16.939-66.077h-12.664c-2.022 0-3.668-1.646-3.668-3.668v-43.086h20v43.086c0 2.023-1.646 3.668-3.668 3.668zm374.169-3.668v-44.926h20v44.926c0 2.022-1.646 3.668-3.668 3.668h-12.664c-2.023 0-3.668-1.645-3.668-3.668zm-12.681 141.953c0 9.166-7.457 16.623-16.623 16.623h-2.169v-17.853c0-4.142-3.358-7.5-7.5-7.5s-7.5 3.358-7.5 7.5v17.853h-15.874v-105.454h15.874v56.934c0 4.142 3.358 7.5 7.5 7.5s7.5-3.358 7.5-7.5v-56.934h2.169c9.166 0 16.623 7.457 16.623 16.623zm39.921-14.923c0 6.053-4.925 10.978-10.978 10.978h-13.943v-64.317h13.943c6.053 0 10.978 4.924 10.978 10.978v.396 41.571zm15.581-7.895h-.581v-26.571h.581c7.326 0 13.285 5.96 13.285 13.286s-5.959 13.285-13.285 13.285z"/><path d="m263.266 125.251v-18.758c0-4.142-3.358-7.5-7.5-7.5s-7.5 3.358-7.5 7.5v18.758c0 4.142 3.358 7.5 7.5 7.5s7.5-3.357 7.5-7.5z"/><path d="m191.012 154.074c1.51 0 3.035-.455 4.356-1.4 3.369-2.41 4.147-7.094 1.738-10.463l-10.912-15.258c-2.409-3.369-7.093-4.147-10.463-1.738-3.369 2.41-4.147 7.094-1.738 10.463l10.912 15.258c1.465 2.047 3.768 3.138 6.107 3.138z"/><path d="m320.52 154.074c2.338 0 4.643-1.09 6.107-3.138l10.912-15.258c2.409-3.369 1.631-8.054-1.738-10.463-3.37-2.409-8.055-1.632-10.463 1.738l-10.912 15.258c-2.409 3.369-1.631 8.054 1.738 10.463 1.322.945 2.846 1.4 4.356 1.4z"/></g></g></svg>