<svg id="Capa_1" enable-background="new 0 0 512 512" height="512" viewBox="0 0 512 512" width="512" xmlns="http://www.w3.org/2000/svg"><g><g><path d="m89.578 503.554h-17.395c-5.523 0-10-4.477-10-10v-39.433h37.395v39.433c0 5.523-4.477 10-10 10z" fill="#808b95"/><path d="m439.817 503.554h-17.395c-5.523 0-10-4.477-10-10v-39.433h37.395v39.433c0 5.523-4.477 10-10 10z" fill="#808b95"/><path d="m480.238 355.75h-448.476v88.371c0 5.523 4.477 10 10 10h428.476c5.523 0 10-4.477 10-10z" fill="#ecb85e"/><path d="m412.422 454.122h37.395v18h-37.395z" fill="#5e6b75"/><path d="m62.183 454.122h37.395v18h-37.395z" fill="#5e6b75"/><path d="m31.762 355.75h448.476v18h-448.476z" fill="#eaa949"/><path d="m494 355.75h-476c-5.523 0-10-4.477-10-10v-20.721c0-5.523 4.477-10 10-10h476c5.523 0 10 4.477 10 10v20.721c0 5.523-4.477 10-10 10z" fill="#cf8151"/><path d="m494 337.75h-476c-5.523 0-10-4.477-10-10v18c0 5.523 4.477 10 10 10h476c5.523 0 10-4.477 10-10v-18c0 5.523-4.477 10-10 10z" fill="#bd6e45"/><path d="m455.027 276.382h-398.055c-5.523 0-10-4.477-10-10v-248.042c0-5.523 4.477-10 10-10h398.055c5.523 0 10 4.477 10 10v248.041c0 5.524-4.477 10.001-10 10.001z" fill="#909ba5"/><path d="m455.028 258.382h-398.056c-5.523 0-10-4.477-10-10v18c0 5.523 4.477 10 10 10h398.055c5.523 0 10-4.477 10-10v-18c.001 5.522-4.477 10-9.999 10z" fill="#808b95"/><path d="m80.88 41.608h350.239v201.506h-350.239z" fill="#9ec8fc"/><path d="m80.88 225.114h350.239v18h-350.239z" fill="#80b6fc"/></g><g><path d="m494.466 307.762h-60.487l-27.089-23.73h48.527c9.668 0 17.534-7.878 17.534-17.561v-248.91c0-9.683-7.866-17.561-17.534-17.561h-398.834c-9.668 0-17.534 7.878-17.534 17.561v248.909c0 9.683 7.866 17.561 17.534 17.561h48.527l-27.089 23.73h-60.487c-9.668.001-17.534 7.879-17.534 17.562v20.794c0 9.683 7.866 17.561 17.534 17.561h6.274v81.154c0 9.683 7.866 17.561 17.534 17.561h12.946v32.044c0 9.683 7.866 17.561 17.534 17.561h17.429c9.668 0 17.534-7.878 17.534-17.561v-32.044h223.708c4.151 0 7.515-3.369 7.515-7.526s-3.364-7.526-7.515-7.526h-289.15c-1.381 0-2.505-1.125-2.505-2.509v-81.154h93.282c4.15 0 7.515-3.369 7.515-7.526s-3.365-7.526-7.515-7.526h-114.586c-1.381 0-2.505-1.125-2.505-2.509v-20.794c0-1.384 1.124-2.509 2.505-2.509h476.932c1.382 0 2.505 1.125 2.505 2.509v20.794c0 1.384-1.123 2.509-2.505 2.509h-332.287c-4.15 0-7.515 3.369-7.515 7.526s3.365 7.526 7.515 7.526h310.983v81.154c0 1.384-1.123 2.509-2.505 2.509h-110.104c-4.151 0-7.515 3.369-7.515 7.526s3.364 7.526 7.515 7.526h44.66v32.044c0 9.683 7.866 17.561 17.534 17.561h17.43c9.668 0 17.534-7.878 17.534-17.561v-32.044h12.946c9.668 0 17.534-7.878 17.534-17.561v-81.154h6.274c9.668 0 17.534-7.878 17.534-17.561v-20.794c.001-9.683-7.865-17.561-17.533-17.561zm-402.709 186.677c0 1.384-1.124 2.509-2.505 2.509h-17.429c-1.381 0-2.505-1.125-2.505-2.509v-32.044h22.438v32.044zm-37.679-227.968v-248.91c0-1.384 1.124-2.509 2.505-2.509h398.834c1.382 0 2.505 1.125 2.505 2.509v248.909c0 1.384-1.123 2.509-2.505 2.509h-398.834c-1.381 0-2.505-1.125-2.505-2.508zm73.861 17.561h256.122l27.089 23.73h-310.301zm314.743 210.407c0 1.384-1.123 2.509-2.505 2.509h-17.43c-1.382 0-2.505-1.125-2.505-2.509v-32.044h22.439v32.044z"/><path d="m431.462 33.384h-70.909c-4.151 0-7.515 3.369-7.515 7.526s3.364 7.526 7.515 7.526h63.394v187.159h-335.895v-187.158h242.442c4.151 0 7.515-3.369 7.515-7.526s-3.364-7.526-7.515-7.526h-249.956c-4.15 0-7.515 3.369-7.515 7.526v202.211c0 4.157 3.364 7.526 7.515 7.526h350.924c4.151 0 7.515-3.369 7.515-7.526v-202.212c0-4.157-3.365-7.526-7.515-7.526z"/></g></g></svg>