<svg id="Capa_1" enable-background="new 0 0 512 512" height="512" viewBox="0 0 512 512" width="512" xmlns="http://www.w3.org/2000/svg"><g><g><path d="m484 472.025h-456c-11.046 0-20-8.954-20-20v-312.048c0-11.046 8.954-20 20-20h456c11.046 0 20 8.954 20 20v312.047c0 11.046-8.954 20.001-20 20.001z" fill="#cf8151"/><path d="m484 454.025h-456c-11.046 0-20-8.954-20-20v18c0 11.046 8.954 20 20 20h456c11.046 0 20-8.954 20-20v-18c0 11.045-8.954 20-20 20z" fill="#bd6e45"/><path d="m43.18 155.158h425.639v281.687h-425.639z" fill="#b3e59f"/><path d="m43.18 418.844h425.639v18h-425.639z" fill="#95d6a4"/><ellipse cx="256" cy="61.831" fill="#f6e080" rx="21.855" ry="21.855" transform="matrix(.986 -.165 .165 .986 -6.685 42.977)"/><path d="m256 65.686c-8.861 0-16.484-5.276-19.915-12.855-1.243 2.745-1.94 5.79-1.94 9 0 12.07 9.785 21.855 21.855 21.855s21.855-9.785 21.855-21.855c0-3.21-.697-6.255-1.94-9-3.431 7.579-11.054 12.855-19.915 12.855z" fill="#eccd61"/><path d="m263.095 403.728c11.353-23.604 35.492-39.897 63.437-39.897h41.748c27.944 0 52.083 16.293 63.437 39.897 6.917-134.195-2.986-220.598-84.311-220.598-81.325.001-91.228 86.404-84.311 220.598z" fill="#cf8151"/><path d="m371.018 345.832h-47.224c-25.073 0-47.43 10.257-62.017 26.276.31 10.215.758 20.759 1.318 31.62h.001c11.353-23.604 35.492-39.897 63.437-39.897h41.748c27.945 0 52.084 16.293 63.437 39.897.56-10.862 1.007-21.405 1.318-31.62-14.588-16.019-36.944-26.276-62.018-26.276z" fill="#bd6e45"/><path d="m241.416 289.98c30.374-86.06-38.512-86.012-38.512-86.012s-7.638-20.837-42.008-20.837-55.583 11.017-86.134 5.016c0 0-10.855 68.977 16.863 98.125z" fill="#26457d"/><path d="m222.051 268.73v38.001c0 31.536-25.565 57.101-57.101 57.101-31.536 0-57.101-25.565-57.101-57.101v-70.518s29.432 24.785 89.705 3.567c0 0 5.197 19.494 24.497 28.95z" fill="#f0c69e"/><path d="m164.95 345.832c-31.536 0-57.101-25.565-57.101-57.101v18c0 31.536 25.565 57.101 57.101 57.101 31.536 0 57.101-25.565 57.101-57.101v-18c0 31.536-25.565 57.101-57.101 57.101z" fill="#e6ba94"/><path d="m185.824 363.832h-41.748c-38.855 0-70.354 31.499-70.354 70.354v2.658h182.456v-2.658c0-38.855-31.499-70.354-70.354-70.354z" fill="#f6e080"/><path d="m75.42 418.844c-1.099 4.941-1.698 10.07-1.698 15.342v2.658h182.456v-2.658c0-5.272-.598-10.401-1.698-15.342z" fill="#eccd61"/><path d="m107.849 306.731v-26.768c-.153-.003-.305-.012-.459-.012-12.611 0-22.834 10.223-22.834 22.834s10.223 22.833 22.834 22.833c1.217 0 2.411-.097 3.576-.281-2.01-5.834-3.117-12.089-3.117-18.606z" fill="#e2ae84"/><path d="m222.051 306.731v-26.768c.153-.003.305-.012.459-.012 12.611 0 22.833 10.223 22.833 22.834s-10.223 22.833-22.833 22.833c-1.217 0-2.411-.097-3.576-.281 2.01-5.834 3.117-12.089 3.117-18.606z" fill="#e2ae84"/><path d="m107.39 307.618c-9.414 0-17.496-5.699-20.989-13.833-1.186 2.762-1.845 5.804-1.845 9 0 12.611 10.223 22.833 22.834 22.833 1.217 0 2.411-.097 3.576-.281-1.921-5.574-3.005-11.535-3.099-17.738-.159.004-.316.019-.477.019z" fill="#d7a379"/><path d="m222.509 307.618c-.16 0-.317-.016-.477-.019-.094 6.203-1.178 12.164-3.099 17.738 1.165.184 2.359.281 3.576.281 12.611 0 22.833-10.223 22.833-22.833 0-3.196-.659-6.238-1.845-9-3.492 8.135-11.573 13.833-20.988 13.833z" fill="#d7a379"/><path d="m319.737 244.235s-7.975 24.634-29.432 32.997v29.499c0 31.536 25.565 57.101 57.101 57.101 31.536 0 57.101-25.565 57.101-57.101v-34.985c-.003 0-60.374 5.007-84.77-27.511z" fill="#f0c69e"/><path d="m347.406 345.832c-31.536 0-57.101-25.565-57.101-57.101v18c0 31.536 25.565 57.101 57.101 57.101s57.101-25.565 57.101-57.101v-18c0 31.536-25.565 57.101-57.101 57.101z" fill="#e6ba94"/><path d="m368.28 363.832h-41.748c-38.855 0-70.354 31.499-70.354 70.354v2.658h182.456v-2.658c0-38.855-31.499-70.354-70.354-70.354z" fill="#dc4955"/><path d="m257.876 418.844c-1.099 4.941-1.698 10.07-1.698 15.342v2.658h182.456v-2.658c0-5.272-.598-10.401-1.698-15.342z" fill="#d82f3c"/><path d="m320.002 403.539c1.842 6.112 7.472 10.296 13.856 10.296h13.546 13.546c6.384 0 12.014-4.183 13.856-10.296l11.281-37.431c-5.688-1.484-11.655-2.276-17.807-2.276h-41.748c-6.154 0-12.122.792-17.811 2.277z" fill="#e2ae84"/><path d="m347.404 395.834h-29.724l2.322 7.704c1.842 6.112 7.472 10.296 13.856 10.296h13.546 13.546c6.384 0 12.014-4.183 13.856-10.296l2.322-7.704z" fill="#d7a379"/><path d="m164.95 401.802c30.337 0 31.814-31.523 31.837-37.115-3.573-.559-7.233-.855-10.963-.855h-41.747c-3.73 0-7.39.296-10.963.855.022 5.592 1.499 37.115 31.836 37.115z" fill="#e2ae84"/></g><g><path d="m484.446 112.197h-94.028l-105.222-47.234c.138-1.153.217-2.323.217-3.512 0-16.218-13.195-29.413-29.413-29.413s-29.413 13.194-29.413 29.413c0 1.189.079 2.36.217 3.512l-105.223 47.234h-94.027c-15.194 0-27.554 12.36-27.554 27.554v312.657c0 15.193 12.36 27.554 27.554 27.554h80.608c4.151 0 7.515-3.365 7.515-7.515s-3.364-7.515-7.515-7.515h-80.608c-6.906 0-12.525-5.618-12.525-12.525v-312.656c0-6.906 5.618-12.525 12.525-12.525h456.892c6.906 0 12.524 5.618 12.524 12.525v312.657c0 6.906-5.618 12.525-12.524 12.525h-346.226c-4.151 0-7.515 3.365-7.515 7.515s3.364 7.515 7.515 7.515h346.226c15.194 0 27.554-12.361 27.554-27.554v-312.658c0-15.194-12.36-27.554-27.554-27.554zm-228.446-65.129c7.931 0 14.384 6.452 14.384 14.383s-6.453 14.383-14.384 14.383c-7.932 0-14.383-6.453-14.383-14.384s6.451-14.382 14.383-14.382zm-23.632 31.871c5.364 7.229 13.959 11.924 23.632 11.924s18.268-4.695 23.632-11.924l74.087 33.257h-195.438z"/><path d="m373.78 162.475c4.151 0 7.515-3.364 7.515-7.515 0-4.15-3.364-7.515-7.515-7.515h-331.016c-4.151 0-7.515 3.365-7.515 7.515v282.238c0 4.15 3.364 7.515 7.515 7.515h426.472c4.151 0 7.515-3.365 7.515-7.515v-282.238c0-4.15-3.364-7.515-7.515-7.515h-65.397c-4.151 0-7.515 3.365-7.515 7.515s3.364 7.515 7.515 7.515h57.883v267.208h-15.382c-.592-9.588-2.927-18.707-6.686-27.056 4.899-96.805 1.163-168.526-32.461-203.927-14.638-15.412-34.693-23.227-59.608-23.227s-44.971 7.814-59.609 23.227c-33.263 35.022-37.274 105.595-32.612 200.827-10.255-20.327-29.134-35.573-51.808-40.91 8.745-6.566 15.764-15.298 20.29-25.384 16.109-.736 28.99-14.069 28.99-30.357 0-4.896-1.171-9.522-3.236-13.622 10.152-30.511 9.347-54.385-2.413-70.994-11.789-16.649-30.955-20.648-39.75-21.607-4.757-7.442-17.497-21.179-46.726-21.179-3.835 0-7.613.127-11.552.389-4.141.275-7.275 3.855-7 7.996.276 4.141 3.856 7.275 7.996 7 3.604-.239 7.057-.356 10.556-.356 27.63 0 34.52 14.753 35.052 16.001 1.023 3.033 3.808 4.854 7.016 4.876.213.001 21.436.322 32.21 15.66 7.859 11.187 8.761 27.846 2.749 49.587-2.537-1.484-5.305-2.609-8.239-3.309v-4.564c0-2.868-1.633-5.486-4.208-6.748-15.864-7.773-20.555-24.068-20.59-24.194-1.009-4.136-5.771-6.652-9.756-5.152-55.037 19.375-81.496-1.383-82.545-2.234-4.608-4.146-12.559-.447-12.355 5.748v37.144c-2.588.618-5.05 1.561-7.335 2.795-15.457-22.46-13.414-62.848-11.768-79.477 14.189 1.654 26.654.068 40.043-2.023 4.1-.64 6.905-4.483 6.265-8.584-.641-4.1-4.47-6.91-8.584-6.266-14.921 2.33-27.547 3.873-42.808.876-4.049-.881-8.312 2.099-8.872 6.206-.444 2.82-10.042 66.145 14.601 99.546-3.081 4.753-4.879 10.411-4.879 16.485 0 16.288 12.88 29.621 28.99 30.357 4.526 10.086 11.546 18.819 20.29 25.384-32.903 7.745-57.829 36.363-59.971 71.066h-15.738v-267.208zm-135.973 140.402c0 6.237-3.742 11.607-9.094 14.012.514-3.279.785-6.637.785-10.057v-17.587c4.93 2.559 8.309 7.704 8.309 13.632zm26.091 126.807c1.883-24.57 17.915-45.228 39.951-53.828l9.083 30.14c2.823 9.368 11.293 15.662 21.077 15.662h27.146c9.785 0 18.254-6.294 21.077-15.662l9.085-30.142c22.037 8.6 38.071 29.259 39.954 53.829h-167.373zm83.687-73.156c-27.404 0-49.699-22.295-49.699-49.698v-24.731c11.971-6.255 19.659-16.635 24.116-24.58 22.793 20.119 58.813 22.265 75.281 22.063v27.249c0 27.403-22.295 49.697-49.698 49.697zm20.915 15.03c2.797 0 5.546.202 8.248.557l-8.904 29.544c-.896 2.972-3.583 4.969-6.688 4.969h-27.146c-3.105 0-5.792-1.997-6.688-4.969l-8.903-29.543c2.703-.355 5.453-.558 8.252-.558zm-69.626-162.508c11.854-12.48 27.788-18.548 48.711-18.548 20.924 0 36.857 6.067 48.71 18.548 29 30.533 32.087 99.178 29.269 172.378-10.358-11.122-23.915-19.214-39.195-22.81 15.741-11.818 25.942-30.633 25.942-51.787v-35.054c.098-4.275-3.901-7.933-8.14-7.489-.937.075-56.738 4.153-78.3-24.586-3.387-4.834-11.524-3.481-13.16 2.195-.069.213-7.101 21.371-25.07 28.375-2.885 1.125-4.786 3.905-4.786 7.001v29.557c0 21.154 10.202 39.969 25.943 51.787-15.28 3.597-28.837 11.688-39.196 22.811-2.815-73.198.271-141.843 29.272-172.378zm-155.017 162.508h41.83c.969 0 1.931.03 2.89.073-.509 3.201-1.458 7.04-3.227 10.683-4.004 8.249-10.735 12.259-20.578 12.259s-16.575-4.01-20.579-12.259c-1.768-3.643-2.717-7.482-3.226-10.683.959-.043 1.921-.073 2.89-.073zm-52.121-68.681c0-5.925 3.377-11.068 8.308-13.63v17.584c0 3.421.272 6.778.785 10.057-5.351-2.405-9.093-7.775-9.093-14.011zm23.337 3.954v-57.84c14.02 5.984 39.963 11.862 77.988.117 3.275 6.855 9.742 16.999 21.408 24.091v33.631c0 27.404-22.294 49.698-49.698 49.698-27.403 0-49.698-22.294-49.698-49.697zm11.073 67.28c.71 4.401 2.039 9.64 4.526 14.765 6.581 13.56 18.373 20.727 34.1 20.727s27.518-7.167 34.1-20.727c2.488-5.125 3.817-10.364 4.526-14.765 24.633 7.233 43.035 29.141 45.06 55.573h-167.373c2.025-26.433 20.427-48.34 45.061-55.573z"/><path d="m137.049 309.588c4.151 0 7.515-3.365 7.515-7.515v-12.826c0-4.15-3.364-7.515-7.515-7.515s-7.515 3.365-7.515 7.515v12.826c0 4.151 3.364 7.515 7.515 7.515z"/><path d="m192.495 309.588c4.151 0 7.515-3.365 7.515-7.515v-12.826c0-4.15-3.364-7.515-7.515-7.515s-7.515 3.365-7.515 7.515v12.826c0 4.151 3.364 7.515 7.515 7.515z"/><path d="m319.862 281.732c-4.151 0-7.515 3.365-7.515 7.515v12.826c0 4.15 3.364 7.515 7.515 7.515s7.515-3.365 7.515-7.515v-12.826c0-4.15-3.364-7.515-7.515-7.515z"/><path d="m375.308 281.732c-4.151 0-7.515 3.365-7.515 7.515v12.826c0 4.15 3.364 7.515 7.515 7.515s7.515-3.365 7.515-7.515v-12.826c0-4.15-3.364-7.515-7.515-7.515z"/><path d="m170.3 321.951c-.211.385-1.476 2.307-5.707 2.307s-5.496-1.921-5.707-2.307c-4.17-9.412-17.9-3.48-13.783 6.048 1.731 4.203 7.784 11.318 19.49 11.318s17.759-7.114 19.49-11.318c4.117-9.528-9.612-15.46-13.783-6.048z"/><path d="m353.471 321.951c-.211.385-1.476 2.307-5.707 2.307s-5.496-1.921-5.707-2.307c-4.17-9.412-17.9-3.48-13.783 6.048 1.731 4.203 7.784 11.318 19.49 11.318s17.759-7.114 19.49-11.318c4.117-9.528-9.613-15.46-13.783-6.048z"/></g></g></svg>