<svg id="Capa_1" enable-background="new 0 0 512.002 512.002" height="512" viewBox="0 0 512.002 512.002" width="512" xmlns="http://www.w3.org/2000/svg"><g><g><g><g id="XMLID_1018_"><g><path d="m430.931 364.918c.34.53.51 1.14.51 1.74 0 .8-.3 1.59-.88 2.21-25.67 27.11-61.36 42.47-98.69 42.47h-22.87-106-22.87c-18.67 0-36.92-3.84-53.72-11.07-16.79-7.23-32.13-17.84-44.97-31.4-1.02-1.08-1.17-2.71-.37-3.95l31.26-48.54c6.09-9.44 9.32-20.43 9.32-31.66l19.83-174.66c0-47.95 36.65-87.33 83.46-91.68l62.12-.07c23.58 2 44.64 12.89 59.79 29.3s24.41 38.35 24.41 62.45l19.09 147.01v27.65c0 11.23 3.23 22.22 9.32 31.66z" fill="#c9bfc8"/></g></g></g><path d="m112.172 391.043 31.26-48.54c6.09-9.44 9.32-20.43 9.32-31.66l19.83-174.66c0-47.95 36.65-87.33 83.46-91.68l62.12-.07c12.294 1.043 23.892 4.521 34.335 9.919-1.778-2.336-3.658-4.591-5.646-6.744-15.15-16.41-36.21-27.3-59.79-29.3l-62.12.07c-46.81 4.35-83.46 43.73-83.46 91.68l-19.83 174.66c0 11.23-3.23 22.22-9.32 31.66l-31.26 48.54c-.8 1.24-.65 2.87.37 3.95 8.974 9.477 19.172 17.508 30.23 23.956-.008-.615.149-1.236.501-1.781z" fill="#aa9ea9"/><path d="m410.175 497.656v-17.279c0-18.712-11.33-35.562-28.66-42.62l-64.871-26.423-28.547-10.678h-63.335l-29.401 10.678-64.871 26.423c-17.33 7.059-28.66 23.908-28.66 42.62v17.279c0 3.781 3.065 6.847 6.847 6.847h294.654c3.778-.001 6.844-3.066 6.844-6.847z" fill="#a6e7f0"/><path d="m272.242 400.655h-47.481l-29.402 10.678-64.871 26.423c-17.33 7.059-28.66 23.908-28.66 42.62v17.279c0 3.781 3.065 6.847 6.847 6.847h52.668c2.588-15.587 13.071-28.98 27.992-35.05l65.919-25.173 17.957-5.882z" fill="#6bd9e7"/><path d="m65.657 217.325h-1.872c-17.245 0-31.225-13.98-31.225-31.225 0-17.245 13.98-31.225 31.225-31.225h1.872 27.983v62.45z" fill="#6cf5c2"/><path d="m107.074 240.005h-28.107c-7.351 0-13.31-5.959-13.31-13.309v-81.192c0-7.351 5.959-13.31 13.31-13.31h30.62 57.982v107.811h-57.504" fill="#9cf8d2"/><path d="m446.345 154.875h1.872c17.245 0 31.225 13.98 31.225 31.225 0 17.245-13.98 31.225-31.225 31.225h-1.872-30.704v-62.929z" fill="#6cf5c2"/><path d="m404.928 240.005h28.107c7.351 0 13.31-5.959 13.31-13.309v-81.192c0-7.351-5.959-13.31-13.31-13.31h-30.62-70.362v107.811z" fill="#9cf8d2"/><path d="m305.393 371.908v32.72c0 24.743-20.059 44.802-44.802 44.802h-8.433c-24.744 0-44.802-20.059-44.802-44.802v-32.315-33.084h98.038v32.679z" fill="#ffe5c2"/><g id="XMLID_1006_"><g><path d="m358.851 269.238v10.44c0 56.8-46.05 102.85-102.85 102.85-28.4 0-54.11-11.51-72.72-30.12-18.62-18.62-30.13-44.33-30.13-72.73v-10.44c-.07-2 0-108.37 0-108.37h205.7z" fill="#ffe5c2"/></g></g><g id="XMLID_1019_"><g><path d="m234.525 339.229h-27.17v33.084 32.315c0 21.892 15.692 40.114 36.447 44.025-1.41-4.354-2.168-9.004-2.168-13.827v-21.248c0-7.827 6.394-14.059 14.222-14.049h.145c17.599 0 34.323-3.814 49.391-10.657v-16.963-2.482-30.197h-70.867z" fill="#fed2a4"/><path d="m358.851 269.238v10.44c0 56.8-46.05 102.85-102.85 102.85-28.4 0-54.11-11.51-72.72-30.12-18.62-18.62-30.13-44.33-30.13-72.73v-10.44c-.07-2 0-108.37 0-108.37h205.7z" fill="#ffe5c2"/></g></g><path d="m287.097 89.921h-62.192v-70.898c0-6.364 5.159-11.523 11.523-11.523h39.146c6.364 0 11.523 5.159 11.523 11.523z" fill="#6cf5c2"/><path d="m302.297 124.059h-92.592v-39.615c0-6.364 5.159-11.523 11.523-11.523h69.546c6.364 0 11.523 5.159 11.523 11.523z" fill="#9cf8d2"/><g id="XMLID_1016_"><g><path d="m181.375 236.589v24.929h-28.247c.005 4.57.012 7.41.023 7.721v10.44c0 28.4 11.51 54.11 30.13 72.73 18.61 18.61 44.32 30.12 72.72 30.12 6.074 0 12.024-.531 17.809-1.541-21.262-3.712-40.28-13.95-54.909-28.579-14.353-14.353-24.477-32.919-28.363-53.683-1.412-7.543 4.48-14.487 12.154-14.487h12.671c9.476 0 18.81-3.215 26.279-9.049l10.392-8.111c1.445-1.128 2.956-1.365 3.969-1.365s2.523.237 3.97 1.366l10.387 8.107c7.474 5.837 16.808 9.052 26.283 9.052h62.104c.066-1.512.106-3.031.106-4.56v-10.44-32.65z" fill="#fed2a4"/><path d="m406.271 154.128v69.04c0 24.34-19.73 44.07-44.07 44.07h-65.56c-5.73 0-11.3-1.92-15.82-5.45l-10.39-8.11c-8.48-6.62-20.38-6.62-28.86 0l-10.39 8.11c-4.52 3.53-10.09 5.45-15.82 5.45h-65.56c-24.34 0-44.07-19.73-44.07-44.07v-69.04c0-24.34 19.73-44.07 44.07-44.07h212.4c24.34 0 44.07 19.73 44.07 44.07z" fill="#c9bfc8"/><g><path d="m159.491 223.168v-69.04c0-24.34 19.73-44.07 44.07-44.07h-53.76c-24.34 0-44.07 19.73-44.07 44.07v69.04c0 24.34 19.73 44.07 44.07 44.07h53.76c-24.34 0-44.07-19.73-44.07-44.07z" fill="#baafb9"/></g></g></g><path d="m326.015 140.059h-140.027c-10.172 0-18.418 8.246-18.418 18.418 0 10.172 8.246 18.418 18.418 18.418h140.027c10.172 0 18.418-8.246 18.418-18.418 0-10.172-8.246-18.418-18.418-18.418z" fill="#d7d0d6"/><g id="XMLID_1017_"><g><path d="m287.101 229.148v34.23l-.71 1.73c-1.98-.87-3.85-1.98-5.57-3.32l-10.39-8.11c-8.48-6.62-20.38-6.62-28.86 0l-10.39 8.11c-1.7 1.32-3.54 2.42-5.48 3.28l-.8-1.69v-34.23c0-6.83 5.54-12.36 12.37-12.36h37.46c6.83 0 12.37 5.53 12.37 12.36z" fill="#aa9ea9"/></g></g></g><g><path d="m135.764 137.344c-4.841 0-8.766 3.925-8.766 8.766s3.924 8.765 8.766 8.765c4.841 0 8.765-3.925 8.765-8.765 0-4.842-3.924-8.766-8.765-8.766z"/><path d="m135.764 222.475c-4.841 0-8.766 3.924-8.766 8.765s3.924 8.765 8.766 8.765c4.841 0 8.765-3.924 8.765-8.765s-3.924-8.765-8.765-8.765z"/><path d="m376.239 137.344c-4.841 0-8.765 3.925-8.765 8.766s3.925 8.765 8.765 8.765c4.841 0 8.766-3.925 8.766-8.765-.001-4.842-3.925-8.766-8.766-8.766z"/><path d="m376.239 222.475c-4.841 0-8.765 3.924-8.765 8.765s3.925 8.765 8.765 8.765c4.841 0 8.766-3.924 8.766-8.765s-3.925-8.765-8.766-8.765z"/><path d="m453.845 147.789v-2.285c0-11.475-9.335-20.81-20.81-20.81h-28.529c-6.261-8.973-15.297-15.864-25.857-19.429-1.114-23.359-10.347-45.483-26.288-62.745-15.708-17.011-36.62-27.912-59.349-31.075-2.934-6.727-9.641-11.445-17.438-11.445h-39.146c-7.842 0-14.587 4.771-17.494 11.561-22.549 3.325-43.27 14.285-58.807 31.241-15.718 17.153-24.845 39.077-26.009 62.204-10.889 3.486-20.208 10.499-26.621 19.688h-28.53c-11.475 0-20.81 9.335-20.81 20.81v2.285c-18.694 2.735-33.097 18.87-33.097 38.312s14.402 35.577 33.097 38.312v2.285c0 11.474 9.335 20.809 20.81 20.809h25.388c2.578 4.795 5.898 9.129 9.797 12.867v24.344c0 9.811-2.809 19.355-8.122 27.604l-31.261 48.533c-2.68 4.159-2.176 9.574 1.227 13.169 7.71 8.142 16.395 15.384 25.812 21.524 1.265.824 2.686 1.218 4.09 1.218 2.45 0 4.852-1.199 6.289-3.405 2.263-3.47 1.284-8.116-2.186-10.379-7.497-4.887-14.473-10.553-20.776-16.87l29.416-45.669c6.877-10.675 10.512-23.029 10.512-35.727v-14.311c5.122 2.248 10.676 3.682 16.5 4.148v5.125c0 40.358 21.782 75.718 54.203 94.96v29.195h-4.365c-.031 0-.062 0-.094 0h-15.261c-14.612 0-29.021-2.478-42.828-7.363-3.904-1.384-8.19.663-9.572 4.568s.663 8.19 4.568 9.572c9.165 3.243 18.57 5.528 28.118 6.855l-32.763 13.344c-20.248 8.247-33.332 27.703-33.332 49.566v24.125c0 4.142 3.357 7.5 7.5 7.5s7.5-3.358 7.5-7.5v-24.125c0-15.736 9.417-29.739 23.99-35.675l63.51-25.868h5.004c6.207 21.956 26.41 38.096 50.326 38.096h8.433c23.916 0 44.119-16.141 50.326-38.096h4.259l63.51 25.868c14.573 5.936 23.99 19.939 23.99 35.675v24.125c0 4.142 3.357 7.5 7.5 7.5s7.5-3.358 7.5-7.5v-24.125c0-21.863-13.084-41.319-33.332-49.566l-32.8-13.36c32.025-4.479 62.045-19.751 84.461-43.428 3.404-3.593 3.91-9.009 1.229-13.17l-31.262-48.533c-5.313-8.249-8.121-17.794-8.121-27.604v-24.344c3.899-3.738 7.219-8.072 9.797-12.867h25.388c11.475 0 20.81-9.335 20.81-20.809v-2.285c18.695-2.735 33.097-18.87 33.097-38.311s-14.402-35.575-33.097-38.309zm-395.688 61.356c-10.373-2.534-18.097-11.902-18.097-23.045s7.723-20.511 18.097-23.045zm236.44-182.259c17.878 3.293 34.247 12.276 46.744 25.81 12.762 13.82 20.455 31.313 22.088 49.894-.41-.01-.818-.031-1.23-.031h-52.401v-18.115c0-9.18-6.537-16.863-15.2-18.637v-38.921zm-62.191-7.863c0-2.218 1.805-4.023 4.022-4.023h39.146c2.218 0 4.022 1.805 4.022 4.023v46.398h-47.191v-46.398zm-11.178 61.398h3.678 62.191 3.678c2.218 0 4.022 1.805 4.022 4.023v18.115h-77.592v-18.115c0-2.218 1.805-4.023 4.023-4.023zm-50.043-27.484c12.341-13.467 28.524-22.481 46.221-25.906v38.778c-8.664 1.774-15.2 9.456-15.2 18.637v18.115h-52.401c-.163 0-.322.011-.484.012 1.627-18.462 9.242-35.861 21.864-49.636zm-57.949 170.23v-10.346c0-4.142-3.357-7.5-7.5-7.5s-7.5 3.358-7.5 7.5v10.346c0 3.189.306 6.307.863 9.338h-20.132c-3.203 0-5.81-2.606-5.81-5.809v-81.192c0-3.204 2.606-5.81 5.81-5.81h21.339c-1.339 4.583-2.07 9.423-2.07 14.433v26.731c0 4.142 3.357 7.5 7.5 7.5s7.5-3.358 7.5-7.5v-26.731c0-20.164 16.404-36.568 36.568-36.568h98.697v15h-62.514c-14.291 0-25.918 11.627-25.918 25.918s11.627 25.918 25.918 25.918h62.514v24.888h-11.231c-10.953 0-19.864 8.911-19.864 19.865v30.456c-.678.078-1.36.131-2.045.131h-65.557c-20.164 0-36.568-16.404-36.568-36.568zm161.497 1.117c2.683 0 4.864 2.182 4.864 4.865v22.171l-4.555-3.556c-11.211-8.751-26.871-8.751-38.082 0l-4.555 3.556v-22.171c0-2.683 2.182-4.865 4.864-4.865zm23.16 180.344c0 20.568-16.734 37.302-37.303 37.302h-8.433c-20.568 0-37.303-16.734-37.303-37.302v-22.564c12.722 5.131 26.609 7.963 41.146 7.963 14.822 0 28.967-2.945 41.892-8.268v22.869zm-41.892-29.601c-52.576 0-95.35-42.773-95.35-95.349v-4.943h54.709c7.367 0 14.623-2.497 20.433-7.031l10.397-8.117c5.777-4.509 13.846-4.509 19.621 0l10.398 8.117c5.809 4.534 13.064 7.031 20.432 7.031h54.709v4.943c.001 52.575-42.773 95.349-95.349 95.349zm166.778-8.916c-23.973 24.013-56.914 37.723-90.912 37.723h-15.289c-.017 0-.034 0-.051 0h-3.634v-29.636c32.01-19.339 53.458-54.47 53.458-94.519v-5.125c5.824-.467 11.378-1.9 16.5-4.148v14.311c0 12.697 3.635 25.051 10.511 35.727zm-24.012-142.944c0 20.164-16.404 36.568-36.568 36.568h-65.557c-.685 0-1.367-.054-2.045-.131v-30.456c0-10.954-8.911-19.865-19.864-19.865h-11.231v-24.888h13.369c4.143 0 7.5-3.358 7.5-7.5s-3.357-7.5-7.5-7.5h-90.883c-6.021 0-10.918-4.898-10.918-10.918s4.897-10.918 10.918-10.918h140.027c6.021 0 10.918 4.898 10.918 10.918s-4.897 10.918-10.918 10.918h-17.183c-4.143 0-7.5 3.358-7.5 7.5s3.357 7.5 7.5 7.5h17.183c14.291 0 25.918-11.627 25.918-25.918s-11.627-25.918-25.918-25.918h-62.514v-15h98.697c20.164 0 36.568 16.404 36.568 36.568v69.04zm40.078 3.529c0 3.203-2.606 5.809-5.81 5.809h-20.132c.557-3.031.863-6.148.863-9.338v-69.041c0-5.01-.732-9.849-2.07-14.433h21.339c3.203 0 5.81 2.606 5.81 5.81zm15-17.551v-46.089c10.373 2.534 18.097 11.902 18.097 23.045s-7.724 20.51-18.097 23.044z"/><path d="m289.119 325.618c-22.84 13.099-43.707 13.166-63.787.205-3.48-2.247-8.123-1.246-10.369 2.234s-1.246 8.123 2.234 10.369c12.502 8.069 25.457 12.103 38.779 12.103 13.207 0 26.775-3.967 40.605-11.898 3.593-2.061 4.835-6.644 2.774-10.237-2.058-3.595-6.642-4.836-10.236-2.776z"/><path d="m256.001 308.949c11.842 0 21.477-9.634 21.477-21.477 0-4.142-3.357-7.5-7.5-7.5s-7.5 3.358-7.5 7.5c0 3.571-2.905 6.477-6.477 6.477s-6.477-2.905-6.477-6.477c0-4.142-3.357-7.5-7.5-7.5s-7.5 3.358-7.5 7.5c.001 11.843 9.635 21.477 21.477 21.477z"/></g></g></svg>