<svg id="Capa_1" enable-background="new 0 0 512 512" height="512" viewBox="0 0 512 512" width="512" xmlns="http://www.w3.org/2000/svg"><g><g><g><path d="m234.508 198.628c23.716-116.557-44.973-149.379-102.512-149.379s-126.228 32.822-102.512 149.379z" fill="#cf8151"/><path d="m54.385 217.251v-31.106c-.88-.09-1.772-.137-2.676-.137-14.293 0-25.879 11.586-25.879 25.88 0 14.293 11.586 25.879 25.879 25.879 1.808 0 3.573-.187 5.276-.54-1.693-6.375-2.6-13.069-2.6-19.976z" fill="#e2ae84"/><path d="m212.288 186.007c-.904 0-1.796.047-2.676.137v31.106c0 6.907-.907 13.601-2.6 19.975 1.704.353 3.468.54 5.276.54 14.293 0 25.879-11.587 25.879-25.879.001-14.292-11.586-25.879-25.879-25.879z" fill="#e2ae84"/><path d="m51.709 219.766c-11.128 0-20.613-7.024-24.269-16.879-1.04 2.803-1.61 5.835-1.61 9 0 14.293 11.586 25.879 25.879 25.879 1.808 0 3.573-.187 5.276-.54-1.498-5.641-2.378-11.534-2.561-17.602-.892.093-1.798.142-2.715.142z" fill="#d7a379"/><path d="m212.288 219.766c-.917 0-1.823-.049-2.715-.142-.183 6.068-1.063 11.961-2.561 17.602 1.704.353 3.468.54 5.276.54 14.293 0 25.879-11.587 25.879-25.879 0-3.165-.57-6.197-1.611-9-3.655 9.855-13.14 16.879-24.268 16.879z" fill="#d7a379"/><path d="m255.999 483.527h-248v-93.036c0-52.814 42.814-95.628 95.628-95.628h56.745c52.814 0 95.628 42.814 95.628 95.628v93.036z" fill="#b3e59f"/><path d="m7.999 465.527h248v18h-248z" fill="#95d6a4"/><path d="m123.397 334.025c3.875 6.528 13.324 6.528 17.199 0l23.203-39.094c-1.138-.04-2.279-.068-3.427-.068h-56.745c-1.15 0-2.293.028-3.433.068z" fill="#e2ae84"/><path d="m209.607 186.145s-21.279-21.221-27.073-50.183c0 0-23.753 12.688-50.538 12.688s-50.538-12.688-50.538-12.688c-5.793 28.96-27.07 50.18-27.072 50.183v31.106c0 42.865 34.749 77.613 77.613 77.613 42.865 0 77.613-34.748 77.613-77.613v-31.106z" fill="#f0c69e"/><path d="m131.999 276.864c-42.865 0-77.613-34.748-77.613-77.613v18c0 42.865 34.749 77.613 77.613 77.613 42.865 0 77.613-34.748 77.613-77.613v-18c0 42.864-34.749 77.613-77.613 77.613z" fill="#e6ba94"/><path d="m56.985 435.681h150.026v47.847h-150.026z" fill="#f6e080"/><path d="m56.985 465.527h150.026v18h-150.026z" fill="#eccd61"/></g><g><path d="m482.511 198.628c23.716-116.557-44.974-149.379-102.512-149.379s-126.229 32.822-102.513 149.379z" fill="#cf8151"/><path d="m302.388 217.251v-31.106c-.88-.09-1.772-.137-2.676-.137-14.293 0-25.879 11.586-25.879 25.88 0 14.293 11.586 25.879 25.879 25.879 1.808 0 3.573-.187 5.276-.54-1.693-6.375-2.6-13.069-2.6-19.976z" fill="#e2ae84"/><path d="m460.291 186.007c-.904 0-1.796.047-2.676.137v31.106c0 6.907-.907 13.601-2.6 19.975 1.704.353 3.468.54 5.276.54 14.293 0 25.879-11.587 25.879-25.879s-11.586-25.879-25.879-25.879z" fill="#e2ae84"/><path d="m299.712 219.766c-11.128 0-20.613-7.024-24.269-16.879-1.04 2.803-1.61 5.835-1.61 9 0 14.293 11.586 25.879 25.879 25.879 1.808 0 3.573-.187 5.276-.54-1.498-5.641-2.378-11.534-2.561-17.602-.893.093-1.798.142-2.715.142z" fill="#d7a379"/><path d="m460.291 219.766c-.917 0-1.823-.049-2.715-.142-.183 6.068-1.063 11.961-2.561 17.602 1.704.353 3.468.54 5.276.54 14.293 0 25.879-11.587 25.879-25.879 0-3.165-.571-6.197-1.611-9-3.656 9.855-13.141 16.879-24.268 16.879z" fill="#d7a379"/><path d="m457.615 158.351v58.9c0 42.865-34.749 77.613-77.613 77.613-42.865 0-77.613-34.748-77.613-77.613v-58.9z" fill="#f0c69e"/><path d="m380.001 276.864c-42.865 0-77.613-34.748-77.613-77.613v18c0 42.865 34.749 77.613 77.613 77.613 42.865 0 77.613-34.748 77.613-77.613v-18c.001 42.864-34.748 77.613-77.613 77.613z" fill="#e6ba94"/><path d="m504.001 483.527h-248v-93.036c0-52.814 42.814-95.628 95.628-95.628h56.745c52.814 0 95.628 42.814 95.628 95.628v93.036z" fill="#9ec8fc"/><path d="m256.001 465.527h248v18h-248z" fill="#80b6fc"/><path d="m379.999 393.346c-4.2-13.402-30.844-15.576-33.853 6.426-3.423 25.025 33.853 43.148 33.853 43.148s37.277-18.123 33.853-43.148c-3.01-22.001-29.654-19.828-33.853-6.426z" fill="#dc4955"/><path d="m412.37 394.1c-5.592 14.95-23.407 25.923-29.94 29.537-1.515.838-3.348.838-4.863 0-6.533-3.613-24.348-14.587-29.94-29.537-.683 1.677-1.193 3.562-1.482 5.673-3.423 25.025 33.853 43.148 33.853 43.148s37.277-18.123 33.853-43.148c-.288-2.112-.798-3.996-1.481-5.673z" fill="#d82f3c"/><path d="m411.841 294.864s1.46 37.987-31.843 37.987-31.843-37.987-31.843-37.987z" fill="#e2ae84"/></g></g><g><path d="m504.485 427.208c4.15 0 7.515-3.365 7.515-7.515v-28.939c0-50.986-37.122-93.459-85.756-101.827 15.889-10.222 28.174-25.562 34.51-43.683 18.411-.035 33.38-15.023 33.38-33.443 0-5.18-1.184-10.088-3.295-14.469 9.818-50.677 3.424-90.308-19.042-117.805-27.152-33.233-69.018-38.195-91.557-38.195-15.478 0-30.161 2.198-43.643 6.533-3.951 1.271-6.124 5.503-4.854 9.454 1.271 3.951 5.505 6.123 9.454 4.854 11.993-3.857 25.128-5.812 39.042-5.812 46.308 0 69.948 20.472 79.918 32.675 17.89 21.897 23.874 53.536 17.861 94.17-3.748-2.28-7.978-3.838-12.496-4.496v-20.549c0-.003-.001-.006-.001-.01v-19.432c0-4.15-3.365-7.515-7.515-7.515s-7.515 3.364-7.515 7.515v11.927h-39.708v-13.968c0-4.15-3.364-7.515-7.515-7.515-4.15 0-7.515 3.364-7.515 7.515v13.968h-31.03v-13.968c0-4.15-3.365-7.515-7.515-7.515s-7.515 3.364-7.515 7.515v13.968h-39.704v-11.927c0-4.15-3.364-7.515-7.515-7.515-4.15 0-7.515 3.364-7.515 7.515v19.442 20.549c-4.515.657-8.742 2.213-12.487 4.49-3.752-25.491-2.788-47.628 2.926-65.928 5.666-18.145 16.014-32.572 30.755-42.88 3.401-2.379 4.23-7.064 1.852-10.465-2.379-3.402-7.065-4.229-10.465-1.852-46.422 32.462-46.48 90.925-37.907 135.278-2.104 4.376-3.285 9.276-3.285 14.447 0 18.419 14.968 33.407 33.379 33.443 6.336 18.121 18.621 33.461 34.51 43.683-35.599 6.125-65.024 30.524-78.242 63.16-13.218-32.636-42.643-57.035-78.242-63.16 15.889-10.222 28.174-25.562 34.51-43.683 18.411-.035 33.379-15.023 33.379-33.443 0-5.179-1.184-10.087-3.295-14.468 9.819-50.677 3.425-90.308-19.042-117.806-22.062-27.002-53.837-35.341-77.066-37.518l7.085-9.482c2.484-3.324 1.803-8.033-1.521-10.517-3.323-2.485-8.033-1.804-10.518 1.521l-9.537 12.762-9.537-12.762c-2.484-3.325-7.194-4.007-10.518-1.521-3.325 2.484-4.006 7.193-1.521 10.517l7.085 9.482c-23.229 2.177-55.005 10.516-77.066 37.518-22.467 27.499-28.861 67.132-19.04 117.814-2.108 4.379-3.291 9.284-3.291 14.461 0 18.419 14.968 33.408 33.38 33.443 6.336 18.121 18.621 33.461 34.51 43.683-48.628 8.368-85.75 50.841-85.75 101.827v93.217c0 4.15 3.364 7.515 7.515 7.515h496.971c4.15 0 7.515-3.365 7.515-7.515v-34.22c0-4.15-3.365-7.515-7.515-7.515s-7.515 3.365-7.515 7.515v26.705h-34.053v-73.858c0-4.15-3.365-7.515-7.515-7.515s-7.515 3.364-7.515 7.515v73.858h-135.29v-73.858c0-4.15-3.365-7.515-7.515-7.515s-7.515 3.364-7.515 7.515v73.858h-34.053v-85.703c0-45.142 34.052-82.475 77.818-87.675.985 7.5 3.79 18.502 11.669 26.69 6.862 7.131 16.026 10.747 27.237 10.747s20.375-3.616 27.237-10.747c7.879-8.189 10.684-19.19 11.669-26.691 43.768 5.198 77.824 42.532 77.824 87.676v28.939c.002 4.151 3.366 7.516 7.516 7.516zm-354.025-124.753-16.552 27.888c-.633 1.067-1.621 1.227-2.154 1.227s-1.521-.16-2.154-1.227l-16.552-27.888zm65.637-72.662c.614-4.119.939-8.33.939-12.617v-23.125c7.813 2.131 13.582 9.271 13.582 17.75 0 8.817-6.232 16.199-14.521 17.992zm-164.261-140.757c9.97-12.203 33.61-32.675 79.918-32.675s69.948 20.472 79.918 32.675c17.89 21.897 23.874 53.536 17.861 94.17-4.924-2.995-10.681-4.746-16.832-4.837-5.252-5.99-18.715-22.988-22.941-44.115-.833-4.811-6.652-7.56-10.901-5.159-.223.118-22.572 11.831-47.105 11.831s-46.882-11.712-47.096-11.826c-4.249-2.419-10.078.338-10.909 5.154-4.227 21.134-17.696 38.133-22.941 44.115-6.152.091-11.909 1.843-16.832 4.84-6.015-40.636-.031-72.275 17.86-94.173zm-18.941 122.765c0-8.479 5.769-15.619 13.582-17.75v23.125c0 4.287.326 8.499.939 12.618-8.288-1.793-14.521-9.176-14.521-17.993zm28.611 5.375v-28.202c5.194-5.783 18.122-21.64 24.658-42.685 9.811 4.021 26.911 9.666 45.59 9.666s35.779-5.645 45.589-9.666c6.539 21.061 19.472 36.915 24.664 42.692v28.195c0 38.736-31.514 70.25-70.251 70.25s-70.25-31.515-70.25-70.25zm186.978 259.281h-34.053v-73.858c0-4.15-3.365-7.515-7.515-7.515s-7.515 3.364-7.515 7.515v25.918h-77.167c-4.15 0-7.515 3.365-7.515 7.515s3.364 7.515 7.515 7.515h77.167v32.911h-135.289v-32.911h28.064c4.15 0 7.515-3.364 7.515-7.515 0-4.15-3.364-7.515-7.515-7.515h-28.064v-25.918c0-4.15-3.365-7.515-7.515-7.515s-7.515 3.364-7.515 7.515v73.858h-34.053v-85.703c0-46.14 35.575-84.122 80.736-87.972l20.911 35.232c3.191 5.375 8.827 8.585 15.079 8.585 6.251 0 11.887-3.209 15.078-8.585l20.911-35.232c45.163 3.848 80.74 41.831 80.74 87.973zm230.621-264.656c0 8.817-6.233 16.199-14.522 17.992.614-4.119.94-8.331.94-12.618v-23.125c7.813 2.132 13.582 9.272 13.582 17.751zm-197.723 0c0-8.479 5.768-15.619 13.582-17.75v23.125c0 4.287.326 8.499.939 12.617-8.289-1.793-14.521-9.175-14.521-17.992zm28.611 5.375v-51.5h140.501v51.5c0 38.736-31.514 70.25-70.251 70.25s-70.25-31.515-70.25-70.25zm70.247 108.311c-7.039 0-12.391-1.992-16.361-6.091-4.694-4.845-6.651-11.751-7.464-16.941h47.651c-.814 5.194-2.771 12.097-7.464 16.941-3.971 4.099-9.322 6.091-16.362 6.091z"/><path d="m342.562 185.761c-4.15 0-7.515 3.365-7.515 7.515v17.434c0 4.15 3.365 7.515 7.515 7.515s7.515-3.364 7.515-7.515v-17.434c-.001-4.15-3.365-7.515-7.515-7.515z"/><path d="m417.925 218.224c4.15 0 7.515-3.364 7.515-7.515v-17.434c0-4.15-3.364-7.515-7.515-7.515-4.15 0-7.515 3.365-7.515 7.515v17.434c.001 4.151 3.365 7.515 7.515 7.515z"/><path d="m94.075 185.761c-4.15 0-7.515 3.365-7.515 7.515v17.434c0 4.15 3.364 7.515 7.515 7.515 4.15 0 7.515-3.364 7.515-7.515v-17.434c-.001-4.15-3.365-7.515-7.515-7.515z"/><path d="m169.438 218.224c4.15 0 7.515-3.364 7.515-7.515v-17.434c0-4.15-3.365-7.515-7.515-7.515s-7.515 3.365-7.515 7.515v17.434c.001 4.151 3.365 7.515 7.515 7.515z"/><path d="m398.543 376.064c-6.896-.585-13.452 1.428-18.302 5.196-4.851-3.769-11.412-5.774-18.302-5.196-9.742.819-20.917 7.283-23.062 22.97-4.121 30.123 36.353 50.171 38.079 51.009 2.074 1.009 4.497 1.009 6.571 0 1.725-.839 42.2-20.886 38.079-51.009-2.147-15.687-13.321-22.151-23.063-22.97zm-18.302 58.717c-10.314-5.856-28.439-19.35-26.474-33.709 1.112-8.132 6.386-9.775 9.431-10.031.343-.029.685-.043 1.025-.043 4.122 0 7.968 2.06 8.847 4.864.982 3.134 3.886 5.268 7.171 5.268 3.284 0 6.188-2.133 7.171-5.267.952-3.036 5.384-5.199 9.873-4.821 3.045.256 8.319 1.899 9.431 10.031 1.963 14.36-16.168 27.857-26.475 33.708z"/><path d="m404.184 244.723c1.587-3.853-.251-8.262-4.103-9.848-3.854-1.588-8.262.25-9.848 4.103-3.137 5.859-17.072 5.823-20.17 0-1.586-3.853-5.993-5.691-9.848-4.103-3.853 1.586-5.69 5.995-4.104 9.848 2.101 5.101 9.527 13.735 24.036 13.735 14.51 0 21.936-8.634 24.037-13.735z"/><path d="m155.698 244.723c1.586-3.853-.251-8.262-4.104-9.848-3.855-1.588-8.262.25-9.848 4.103-3.136 5.859-17.072 5.823-20.17 0-1.586-3.853-5.993-5.691-9.848-4.103-3.853 1.586-5.69 5.995-4.104 9.848 2.101 5.101 9.527 13.735 24.036 13.735 14.511 0 21.937-8.634 24.038-13.735z"/></g></g></svg>