<svg id="Capa_1" enable-background="new 0 0 511.422 511.422" height="512" viewBox="0 0 511.422 511.422" width="512" xmlns="http://www.w3.org/2000/svg"><g><g><g id="XMLID_1023_"><g><path d="m343.477 7.5h46.77s-65.71 65.31-65.44 65.44l-39.94 37.01-36.41-8.97 29.58-28.04c0-.01.08-.11.25-.29 4.11-4.44 65.19-65.15 65.19-65.15z" fill="#e5e1e5"/><path d="m297.887 7.5h45.59s-61.08 60.71-65.19 65.15c-.17.18-.25.28-.25.29l-29.58 28.04-40.08-9.88 47.47-41.73c18.78-18.75 42.04-41.87 42.04-41.87z" fill="#f47c7c"/></g></g><g><path d="m232.937 72.94 38.51 38.67-28.03 17.34-57.25-56.01c.27-.13-65.44-65.44-65.44-65.44h46.77s65.71 65.31 65.44 65.44z" fill="#f47c7c"/><path d="m278.287 72.65c-4.12-4.44-65.2-65.15-65.2-65.15h-45.59s65.71 65.31 65.44 65.44l38.51 38.67 28.54-17.66z" fill="#e5e1e5"/></g><path d="m304.41 86.892h-96.033l-19.153 17.612-.947 1.446v6.05l31.64 28.71 19.32 16.8h29.36l22.91-16.8 31.63-28.71v-6.05l-.543-1.212z" fill="#ee6161"/><circle cx="255.711" cy="320.566" fill="#fee97d" r="183.356"/><path d="m145.355 320.566c0-88.766 63.079-162.794 146.856-179.717-11.796-2.383-24.001-3.638-36.5-3.638-101.265 0-183.356 82.091-183.356 183.356s82.091 183.356 183.356 183.356c12.499 0 24.704-1.256 36.5-3.638-83.777-16.925-146.856-90.953-146.856-179.719z" fill="#fee45a"/><circle cx="255.711" cy="320.566" fill="#fed402" r="144.383"/><path d="m204.749 185.468c-54.538 20.644-93.422 73.417-93.422 135.097 0 61.682 38.871 114.45 93.41 135.094-36.505-33.514-59.382-81.63-59.382-135.093s22.89-101.584 59.394-135.098z" fill="#fac600"/><path d="m327.08 287.223-38.647-5.265c-3.056-.416-5.711-2.31-7.101-5.063l-17.572-34.821c-3.499-6.934-13.43-6.846-16.806.15l-16.95 35.128c-1.34 2.778-3.962 4.718-7.01 5.189l-38.547 5.952c-7.676 1.185-10.661 10.658-5.051 16.029l28.171 26.975c2.228 2.133 3.263 5.226 2.769 8.27l-6.251 38.499c-1.245 7.667 6.842 13.432 13.684 9.757l34.361-18.456c2.717-1.459 5.978-1.488 8.721-.078l34.683 17.842c6.907 3.553 14.889-2.356 13.508-9.999l-6.935-38.382c-.548-3.035.432-6.146 2.621-8.318l27.687-27.472c5.514-5.471 2.361-14.889-5.335-15.937z" fill="#fee97d"/><g id="XMLID_1034_"><g><g><path d="m323.137 76.96v28.99h-134.86v-28.99c0-1.86 1.51-3.38 3.38-3.38h128.11c1.86 0 3.37 1.52 3.37 3.38z" fill="#f9f7f8"/></g></g></g></g><g><path d="m394.465 189.53c-2.845-3.01-7.592-3.145-10.603-.302-3.011 2.845-3.146 7.592-.302 10.603 30.957 32.77 48.006 75.646 48.006 120.734 0 96.968-78.889 175.856-175.855 175.856-96.967 0-175.855-78.889-175.855-175.856s78.888-175.855 175.855-175.855c11.54 0 22.908 1.107 34 3.269.258.063.517.113.78.149 25.283 5.049 49.103 15.629 70.165 31.318 3.322 2.473 8.021 1.787 10.495-1.534 2.475-3.322 1.787-8.021-1.534-10.495-19.034-14.179-40.143-24.507-62.513-30.734l21.079-19.125c1.566-1.422 2.46-3.439 2.46-5.555v-34.376c.079-.098.172-.189.246-.291 4.445-4.73 38.546-38.645 62.447-62.336h10.313c4.143 0 7.5-3.357 7.5-7.5s-3.357-7.5-7.5-7.5h-126.951c-4.143 0-7.5 3.357-7.5 7.5s3.357 7.5 7.5 7.5h3.014c-6.95 6.916-15.803 15.731-24.225 24.132-1.448-1.445-2.904-2.896-4.364-4.352-7.058-7.036-14.114-14.061-19.861-19.78h3.014c4.142 0 7.5-3.357 7.5-7.5s-3.358-7.5-7.5-7.5h-126.949c-4.142 0-7.5 3.357-7.5 7.5s3.358 7.5 7.5 7.5h10.294c22.182 22.178 60.533 60.522 63.134 63.133.008.009.017.017.025.026v33.845c0 2.115.894 4.133 2.46 5.555l21.132 19.173c-80.382 22.476-139.517 96.375-139.517 183.833 0 105.238 85.617 190.856 190.855 190.856s190.855-85.618 190.855-190.856c.001-48.933-18.502-95.469-52.1-131.035zm-42.358-154.725c-9.534 9.489-17.121 17.064-22.551 22.516-3.084 3.095-5.646 5.682-7.431 7.504-.485.495-.911.933-1.28 1.314-.356-.035-.716-.055-1.08-.055h-24.439c13.079-13.102 34.6-34.536 51.245-51.084h25.465c-5.769 5.726-12.85 12.76-19.929 19.805zm-26.805-19.805c-5.748 5.719-12.804 12.744-19.861 19.78-8.188 8.164-16.376 16.339-22.513 22.494-1.729 1.734-3.287 3.3-4.646 4.669-1.359-1.369-2.917-2.935-4.646-4.669-2.266-2.272-4.813-4.823-7.535-7.544 14.113-14.078 29.323-29.206 34.88-34.731h24.321zm-64.064 51.084h-24.463c-.4-.415-.83-.852-1.292-1.32-1.793-1.82-4.357-4.401-7.437-7.49-6.136-6.154-14.323-14.329-22.513-22.493-7.058-7.036-14.113-14.061-19.861-19.78h24.321c16.646 16.547 38.167 37.981 51.245 51.083zm-122.404-51.084h25.57c16.646 16.548 38.167 37.982 51.245 51.084h-23.992c-.546 0-1.079.054-1.604.132zm62.205 98.453h54.807c4.143 0 7.5-3.357 7.5-7.5s-3.357-7.5-7.5-7.5h-60.066v-17.369h119.861v17.369h-27.831c-4.143 0-7.5 3.357-7.5 7.5s3.357 7.5 7.5 7.5h22.573l-21.139 19.179c-10.968-1.934-22.174-2.922-33.533-2.922-11.428 0-22.625 1.012-33.506 2.947z"/><path d="m149.169 418.185c-2.905 2.953-2.866 7.701.087 10.606 28.618 28.153 66.424 43.658 106.455 43.658 83.749 0 151.884-68.135 151.884-151.884 0-83.748-68.135-151.883-151.884-151.883s-151.884 68.135-151.884 151.883c0 29.197 8.347 57.579 24.138 82.076 2.244 3.481 6.887 4.485 10.367 2.24 3.481-2.244 4.484-6.886 2.24-10.367-14.226-22.069-21.745-47.641-21.745-73.949 0-75.478 61.406-136.883 136.884-136.883s136.884 61.405 136.884 136.883-61.406 136.884-136.884 136.884c-36.07 0-70.141-13.976-95.935-39.352-2.954-2.903-7.701-2.866-10.607.088z"/><path d="m337.697 308.484c4.592-4.557 6.169-11.197 4.116-17.332-2.054-6.134-7.311-10.487-13.721-11.361l-38.647-5.265c-.61-.083-1.14-.461-1.418-1.011l-17.572-34.821c-2.891-5.729-8.649-9.271-15.057-9.271-.051 0-.103.001-.155.001-6.468.058-12.233 3.713-15.044 9.539l-16.949 35.128c-.268.555-.791.942-1.4 1.036l-38.546 5.952c-6.393.986-11.572 5.432-13.517 11.602s-.25 12.782 4.422 17.257l28.171 26.976c.445.426.651 1.043.553 1.65l-6.251 38.5c-1.037 6.386 1.591 12.686 6.858 16.44 2.935 2.093 6.347 3.152 9.78 3.152 2.73 0 5.473-.671 7.997-2.026l34.361-18.457c.54-.291 1.191-.297 1.74-.016l34.684 17.844c5.754 2.958 12.556 2.405 17.756-1.443 5.199-3.849 7.714-10.193 6.564-16.56l-6.936-38.381c-.109-.607.086-1.229.522-1.662zm-42.97 31.8 6.936 38.382c.171.946-.301 1.521-.728 1.837-.427.314-1.113.6-1.97.16l-34.685-17.844c-4.938-2.54-10.809-2.485-15.699.141l-34.361 18.456c-.845.458-1.539.184-1.971-.124-.432-.309-.915-.875-.761-1.823l6.251-38.5c.89-5.482-.973-11.048-4.984-14.889l-28.171-26.976c-.694-.665-.65-1.407-.49-1.914.16-.506.549-1.14 1.499-1.286l38.547-5.952c5.489-.848 10.206-4.34 12.62-9.342l16.95-35.128c.417-.866 1.138-1.054 1.668-1.058.007 0 .014-.001.021-.001.528 0 1.239.182 1.667 1.028l17.571 34.821c2.503 4.959 7.283 8.367 12.785 9.116l38.646 5.265c.952.13 1.354.757 1.521 1.26s.226 1.245-.456 1.922l-27.688 27.473c-3.941 3.912-5.705 9.509-4.718 14.976z"/></g></g></svg>