<svg id="Capa_1" enable-background="new 0 0 511.389 511.389" height="512" viewBox="0 0 511.389 511.389" width="512" xmlns="http://www.w3.org/2000/svg"><g><g><g id="XMLID_1092_"><g><path d="m331.419 33.828v397.92l-299.76-1.26v-136.58-192.36-69.94c0-13.31 10.79-24.11 24.11-24.11h251.54c13.31 0 24.11 10.8 24.11 24.11z" fill="#f47c7c"/></g></g><path d="m92.515 430.488v-136.58-192.36-69.94c0-13.31 10.79-24.11 24.11-24.11h-60.856c-13.32 0-24.11 10.8-24.11 24.11v69.94 192.36 136.58l299.76 1.26v-.256z" fill="#ee6161"/><path d="m275.309 462.588h-210.921c-17.998 0-33.069-14.729-32.725-32.723.333-17.438 14.573-31.471 32.091-31.471h211.555 53.774v64.194z" fill="#fdd79b"/><path d="m64.251 429.865c.333-17.438 14.573-31.471 32.091-31.471h-32.588c-17.518 0-31.758 14.033-32.091 31.471-.344 17.994 14.728 32.723 32.725 32.723h32.588c-17.998 0-33.07-14.729-32.725-32.723z" fill="#fccd7f"/><path d="m168.059 501.932-22.889-11.415-22.889 11.415c-1.804.9-3.924-.412-3.924-2.428v-67.754h53.625v67.754c.001 2.016-2.12 3.327-3.923 2.428z" fill="#f47c7c"/><path d="m240.44 365.443h-156.289c-4.611 0-8.349-3.738-8.349-8.349v-28.184c0-4.611 3.738-8.349 8.349-8.349h105.803 53.004 32.351v37.812c0 4.017-3.27 7.266-7.286 7.241z" fill="#f9f7f8"/><path d="m84.151 365.443h8.365v-44.881h-8.365c-4.611 0-8.349 3.738-8.349 8.349v28.184c0 4.61 3.738 8.348 8.349 8.348z" fill="#efedef"/><g id="XMLID_1093_"><g><g><path d="m275.309 80.288v120.06h-121.81-70.2c-4.14 0-7.5-3.36-7.5-7.5v-105.06c0-4.15 3.36-7.5 7.5-7.5h128.2z" fill="#f9f7f8"/></g></g></g><path d="m83.299 200.348h9.216v-98.8-21.26h-9.216c-4.14 0-7.5 3.35-7.5 7.5v105.06c0 4.14 3.36 7.5 7.5 7.5z" fill="#efedef"/><path d="m357.529 451.765v-93.597-78.89h-52.22v78.89 93.597z" fill="#d7d0d6"/><path d="m332.61 279.278h-27.301v78.89 93.597h27.301v-93.597z" fill="#c9bfc8"/><circle cx="331.417" cy="212.142" fill="#efedef" r="148.314"/><path d="m263.84 212.142c0-67.918 45.653-125.171 107.946-142.751-12.835-3.623-26.375-5.563-40.369-5.563-81.912 0-148.314 66.402-148.314 148.314s66.403 148.314 148.314 148.314c13.994 0 27.534-1.94 40.369-5.563-62.293-17.58-107.946-74.833-107.946-142.751z" fill="#e5e1e5"/><circle cx="331.417" cy="212.142" fill="#d4f2f6" r="114.605"/><path d="m316.914 98.447c-56.447 7.129-100.102 55.313-100.102 113.695s43.655 106.567 100.102 113.695c-32.445-27.206-53.074-68.041-53.074-113.695s20.629-86.489 53.074-113.695z" fill="#a6e7f0"/><g id="XMLID_1095_"><g><path d="m357.529 440.128v25.87c0 10.16-8.24 18.39-18.39 18.39h-15.44c-10.16 0-18.39-8.23-18.39-18.39v-25.87z" fill="#c9bfc8"/></g></g><path d="m332.61 465.999v-25.87h-27.301v25.87c0 10.16 8.23 18.39 18.39 18.39h15.44c2.077 0 4.092-.351 5.954-.986-7.243-2.469-12.483-9.323-12.483-17.404z" fill="#baafb9"/><g fill="#fed402"><path d="m340.573 285.465h-20.867c-4.409 0-8.076-3.392-8.419-7.788l-5.319-68.231c-.383-4.908 3.496-9.101 8.419-9.101h31.505c4.922 0 8.802 4.193 8.419 9.101l-5.319 68.231c-.342 4.396-4.01 7.788-8.419 7.788z"/><path d="m345.157 169.845h-32.149c-4.252 0-7.699-3.447-7.699-7.699v-18.033c0-4.252 3.447-7.699 7.699-7.699h32.149c4.252 0 7.699 3.447 7.699 7.699v18.033c.001 4.252-3.446 7.699-7.699 7.699z"/></g></g><g><path d="m275.309 455.088h-73.327c-4.142 0-7.5 3.357-7.5 7.5s3.358 7.5 7.5 7.5h73.327c4.143 0 7.5-3.357 7.5-7.5s-3.357-7.5-7.5-7.5z"/><path d="m275.309 390.894h-211.555c-9.251 0-17.814 3.254-24.597 8.669v-367.951c0-9.16 7.452-16.612 16.612-16.612h251.536c9.16 0 16.612 7.452 16.612 16.612v2.216c0 4.143 3.357 7.5 7.5 7.5s7.5-3.357 7.5-7.5v-2.216c0-17.43-14.181-31.612-31.612-31.612h-251.536c-17.431 0-31.612 14.182-31.612 31.612v398.878c0 .089.01.176.013.265.072 10.154 4.06 19.766 11.316 27.162 7.588 7.734 18.123 12.171 28.902 12.171h23.97c4.142 0 7.5-3.357 7.5-7.5s-3.358-7.5-7.5-7.5h-23.97c-6.777 0-13.409-2.798-18.194-7.676-4.659-4.748-7.156-10.93-7.032-17.404.254-13.297 11.287-24.114 24.593-24.114h211.555c4.143 0 7.5-3.357 7.5-7.5s-3.358-7.5-7.501-7.5z"/><path d="m184.445 424.25h-12.462-53.625-13.218c-4.142 0-7.5 3.357-7.5 7.5s3.358 7.5 7.5 7.5h5.718v64.639c0 2.598 1.344 5.011 3.554 6.378 2.209 1.365 4.968 1.492 7.293.334l23.465-11.702 23.465 11.702c1.057.526 2.203.788 3.347.788 1.373 0 2.742-.377 3.947-1.122 2.209-1.367 3.554-3.78 3.554-6.378v-64.639h4.962c4.142 0 7.5-3.357 7.5-7.5s-3.358-7.5-7.5-7.5zm-19.963 67.518-15.965-7.962c-1.054-.525-2.201-.788-3.347-.788s-2.293.263-3.347.788l-15.965 7.962v-52.518h38.625v52.518z"/><path d="m84.151 328.062h105.803c4.142 0 7.5-3.357 7.5-7.5s-3.358-7.5-7.5-7.5h-105.803c-8.739 0-15.849 7.11-15.849 15.85v28.184c0 8.739 7.11 15.849 15.849 15.849h156.29c4.142 0 7.5-3.357 7.5-7.5s-3.358-7.5-7.5-7.5h-156.29c-.468 0-.849-.381-.849-.849v-28.184c0-.47.381-.85.849-.85z"/><path d="m219 80.285c0-4.143-3.358-7.5-7.5-7.5h-128.2c-8.27 0-14.998 6.729-14.998 14.998v105.063c0 8.27 6.728 14.998 14.998 14.998h70.203c4.142 0 7.5-3.357 7.5-7.5s-3.358-7.5-7.5-7.5l-70.201.002-.002-105.061h128.2c4.142 0 7.5-3.357 7.5-7.5z"/><path d="m487.232 212.143c0-85.916-69.898-155.814-155.814-155.814-85.917 0-155.814 69.898-155.814 155.814 0 74.38 52.391 136.743 122.206 152.153v23.737c0 4.143 3.357 7.5 7.5 7.5s7.5-3.357 7.5-7.5v-21.191c6.104.73 12.312 1.115 18.608 1.115s12.505-.386 18.608-1.115v65.787h-37.217v-12.635c0-4.143-3.357-7.5-7.5-7.5s-7.5 3.357-7.5 7.5v46.007c0 14.275 11.613 25.889 25.888 25.889h15.44c14.275 0 25.889-11.613 25.889-25.889v-101.705c69.814-15.41 122.206-77.774 122.206-152.153zm-148.095 264.747h-15.44c-6.004 0-10.888-4.885-10.888-10.889v-18.372h37.217v18.372c0 6.004-4.885 10.889-10.889 10.889zm-7.72-123.933c-77.646 0-140.814-63.169-140.814-140.814s63.169-140.815 140.814-140.815 140.814 63.169 140.814 140.814-63.168 140.815-140.814 140.815z"/><path d="m331.417 90.037c-67.329 0-122.105 54.776-122.105 122.105 0 25.969 8.052 50.771 23.287 71.726 2.436 3.35 7.127 4.092 10.477 1.656 3.351-2.436 4.092-7.126 1.656-10.477-13.358-18.374-20.419-40.127-20.419-62.905 0-59.059 48.047-107.105 107.105-107.105s107.105 48.047 107.105 107.105-48.047 107.105-107.105 107.105c-24.116 0-46.889-7.827-65.854-22.636-3.266-2.549-7.979-1.97-10.528 1.296-2.549 3.265-1.969 7.978 1.295 10.526 21.628 16.888 47.593 25.813 75.086 25.813 67.329 0 122.105-54.776 122.105-122.105s-54.775-122.104-122.105-122.104z"/><path d="m106.521 125.505h6.823c4.142 0 7.5-3.357 7.5-7.5s-3.358-7.5-7.5-7.5h-6.823c-4.142 0-7.5 3.357-7.5 7.5s3.358 7.5 7.5 7.5z"/><path d="m180.137 118.005c0-4.143-3.358-7.5-7.5-7.5h-27.293c-4.142 0-7.5 3.357-7.5 7.5s3.358 7.5 7.5 7.5h27.293c4.142 0 7.5-3.358 7.5-7.5z"/><path d="m106.521 164.563h47.763c4.142 0 7.5-3.357 7.5-7.5s-3.358-7.5-7.5-7.5h-47.763c-4.142 0-7.5 3.357-7.5 7.5s3.358 7.5 7.5 7.5z"/><path d="m352.984 226.473c4.137.326 7.738-2.766 8.061-6.895l.744-9.549c.345-4.417-1.184-8.815-4.191-12.067-3.009-3.252-7.274-5.117-11.705-5.117h-31.505c-4.431 0-8.696 1.865-11.705 5.117-3.008 3.252-4.536 7.65-4.191 12.067l5.318 68.232c.645 8.244 7.628 14.703 15.897 14.703h20.867c8.272 0 15.254-6.46 15.896-14.705l2.084-26.719c.322-4.129-2.765-7.738-6.895-8.061-4.141-.327-7.738 2.765-8.061 6.895l-2.084 26.721c-.038.487-.451.869-.94.869h-20.867c-.49 0-.904-.384-.942-.871l-5.318-68.23c-.021-.273.062-.515.248-.716s.419-.303.693-.303h31.505c.274 0 .508.102.693.303.187.201.27.442.248.716l-.744 9.549c-.322 4.13 2.765 7.738 6.894 8.061z"/><path d="m345.158 128.913h-32.149c-8.381 0-15.199 6.818-15.199 15.199v18.033c0 8.381 6.818 15.199 15.199 15.199h32.149c8.381 0 15.199-6.818 15.199-15.199v-18.033c0-8.381-6.818-15.199-15.199-15.199zm.199 33.233c0 .109-.09.199-.199.199h-32.149c-.109 0-.199-.09-.199-.199v-18.033c0-.109.09-.199.199-.199h32.149c.109 0 .199.09.199.199z"/></g></g></svg>