<svg id="Capa_1" enable-background="new 0 0 512 512" height="512" viewBox="0 0 512 512" width="512" xmlns="http://www.w3.org/2000/svg"><g><g><path d="m360.296 319.142s49.092 46.888 59.741 139.18l-12.41 31.608c-3.333 8.488-11.522 14.07-20.641 14.07h-130.986-130.986c-9.119 0-17.308-5.582-20.641-14.071l-12.41-31.608c10.65-92.292 59.742-139.18 59.742-139.18h208.591z" fill="#c6d0da"/><path d="m256 370.691c43.313 0 83.227-14.531 115.154-38.97-6.454-8.369-10.858-12.578-10.858-12.578h-208.592s-4.404 4.209-10.858 12.578c31.927 24.438 71.841 38.97 115.154 38.97z" fill="#a0aab7"/><circle cx="256" cy="181.051" fill="#e7ecf1" r="173.051"/><path d="m256 336.101c-92.555 0-168.137-72.661-172.82-164.051-.153 2.981-.231 5.981-.231 9 0 95.573 77.477 173.051 173.051 173.051 95.573 0 173.051-77.478 173.051-173.051 0-3.019-.078-6.019-.231-9-4.683 91.391-80.266 164.051-172.82 164.051z" fill="#c6d0da"/><circle cx="256" cy="181.051" fill="#909ba5" r="81.252"/><path d="m256 244.303c-41.831 0-76.265-31.615-80.745-72.252-.326 2.957-.507 5.956-.507 9 0 44.874 36.378 81.252 81.252 81.252s81.252-36.378 81.252-81.252c0-3.044-.181-6.043-.508-9-4.48 40.637-38.913 72.252-80.744 72.252z" fill="#808b95"/><circle cx="256" cy="181.051" fill="#f6e080" r="27.256"/><path d="m256 190.306c-11.898 0-22.009-7.627-25.728-18.256-.986 2.818-1.528 5.845-1.528 9 0 15.053 12.203 27.256 27.256 27.256s27.256-12.203 27.256-27.256c0-3.155-.542-6.182-1.528-9-3.719 10.63-13.83 18.256-25.728 18.256z" fill="#eccd61"/><path d="m125.014 504h130.986 130.986c9.119 0 17.308-5.582 20.641-14.071l12.41-31.608h-328.075l12.41 31.608c3.334 8.489 11.523 14.071 20.642 14.071z" fill="#909ba5"/><path d="m256 486h-153.17l1.543 3.929c3.333 8.488 11.522 14.071 20.641 14.071h130.986 130.986c9.119 0 17.308-5.582 20.641-14.071l1.543-3.929z" fill="#808b95"/></g><g><path d="m187.119 207.725c-1.507-3.867-5.863-5.78-9.73-4.273s-5.78 5.864-4.273 9.73c6.432 16.504 17.543 30.596 32.134 40.753 14.938 10.399 32.488 15.896 50.751 15.896 49.034 0 88.926-39.892 88.926-88.926s-39.891-88.926-88.926-88.926c-49.034 0-88.926 39.892-88.926 88.926 0 4.15 3.364 7.515 7.515 7.515 4.15 0 7.515-3.364 7.515-7.515 0-40.747 33.15-73.896 73.896-73.896s73.896 33.15 73.896 73.896-33.15 73.895-73.897 73.895c-30.7 0-57.737-18.478-68.881-47.075z"/><path d="m290.824 180.904c0-19.202-15.622-34.824-34.824-34.824s-34.824 15.622-34.824 34.824 15.622 34.824 34.824 34.824 34.824-15.622 34.824-34.824zm-54.619 0c0-10.915 8.88-19.794 19.795-19.794s19.794 8.88 19.794 19.794-8.88 19.794-19.794 19.794c-10.915.001-19.795-8.879-19.795-19.794z"/><path d="m263.515 62.462v-11.063c0-4.15-3.364-7.515-7.515-7.515-4.15 0-7.515 3.365-7.515 7.515v11.063c0 4.15 3.365 7.515 7.515 7.515 4.151 0 7.515-3.365 7.515-7.515z"/><path d="m371.48 320.045c39.946-33.21 65.424-83.254 65.424-139.141 0-53.043-23.165-103.227-63.556-137.684-3.158-2.694-7.9-2.318-10.594.84s-2.317 7.901.84 10.594c37.037 31.597 58.28 77.614 58.28 126.25 0 91.464-74.411 165.875-165.875 165.875s-165.874-74.411-165.874-165.875 74.411-165.875 165.875-165.875c29.731 0 58.892 7.955 84.334 23.006 3.57 2.112 8.18.931 10.293-2.641 2.114-3.572.931-8.18-2.642-10.294-27.755-16.421-59.563-25.1-91.985-25.1-99.751 0-180.904 81.153-180.904 180.904 0 55.895 25.485 105.945 65.44 139.155-6.789 7.869-18.538 23.169-29.776 45.935-1.837 3.722-.31 8.228 3.412 10.065 3.641 1.82 8.221.347 10.065-3.412 10.869-22.018 22.318-36.6 28.285-43.443 29.342 20.535 65.024 32.604 103.477 32.604 38.454 0 74.137-12.069 103.48-32.606 4.605 5.276 12.466 15.146 20.784 29.46 11.21 19.29 25.418 50.602 31.529 92.541h-311.582c2.601-17.894 6.85-35.242 12.685-51.672 1.389-3.911-.655-8.207-4.566-9.596-3.91-1.39-8.208.655-9.596 4.566-7.122 20.052-12.02 41.368-14.557 63.356-.141 1.223.021 2.462.471 3.608l12.434 31.67c4.5 11.461 15.363 18.866 27.676 18.866h262.485c12.312 0 23.175-7.406 27.676-18.866l12.435-31.67c.45-1.146.612-2.385.47-3.608-8.776-76.064-42.599-121.961-56.343-137.812zm29.449 167.595c-2.225 5.668-7.598 9.33-13.686 9.33h-262.486c-6.089 0-11.461-3.662-13.686-9.33l-8.406-21.409h306.67z"/></g></g></svg>