<svg id="Capa_1" enable-background="new 0 0 512.135 512.135" height="512" viewBox="0 0 512.135 512.135" width="512" xmlns="http://www.w3.org/2000/svg"><g><g><g fill="#e94444"><path d="m308.732 245.446h-.001z"/><path d="m308.731 245.445v.001z"/></g><path d="m356.093 245.444v-180.937c0-31.484-25.523-57.008-57.008-57.008h-147.48c-63.852.001-115.614 51.763-115.614 115.615 0 52.55 35.065 96.899 83.07 110.956l-.128-.005c10.474 3.073 21.449 4.663 32.671 4.663h67.34.017 76.712c3.69 0 7.245 1.384 9.964 3.879l3.092 2.837z" fill="#f47c7c"/><path d="m232.843 238.728h-1.187c-11.222 0-22.197-1.589-32.671-4.663l.128.005c-48.005-14.057-83.07-58.406-83.07-110.956-.002-63.852 51.761-115.614 115.612-115.614h-80.051c-63.851 0-115.613 51.762-115.613 115.614 0 52.55 35.065 96.899 83.07 110.956l-.128-.005c10.474 3.073 21.449 4.663 32.671 4.663h67.34.017z" fill="#ee6161"/><path d="m151.604 198.728c-41.942 0-76.018-34.326-75.61-76.36.404-41.627 34.946-74.868 76.575-74.868h146.517c9.393 0 17.007 7.614 17.007 17.007v126.255c0 4.399-3.566 7.966-7.966 7.966z" fill="#f9f7f8"/><path d="m116.041 123.114c0-28.666 10.446-54.911 27.722-75.114-37.579 4.3-67.394 35.72-67.769 74.368-.382 39.416 29.557 72.053 67.871 75.966-17.342-20.218-27.824-46.493-27.824-75.22z" fill="#efedef"/><path d="m396.609 279.172.163.009c-3.446-1.135-6.957-2.086-10.512-2.891-.056-.013-.111-.029-.167-.042l-.023-.001c-8.288-1.863-16.836-2.84-25.54-2.84h-68.022-2.171-72.926c-4.273 0-8.362-1.738-11.328-4.814l-38.622-40.058c-4.147-4.301-11.42-1.365-11.42 4.609v214.483c0 31.484 25.523 57.007 57.007 57.007h146.212c63.74 0 116.438-51.054 116.881-114.793.359-51.606-33.106-95.429-79.532-110.669z" fill="#a6e7f0"/><path d="m228.595 447.627v-174.22h-11.183c-4.273 0-8.362-1.738-11.328-4.814l-38.622-40.058c-4.147-4.301-11.42-1.365-11.42 4.609v214.483c0 31.484 25.523 57.007 57.007 57.007h72.553c-31.484.001-57.007-25.522-57.007-57.007z" fill="#6bd9e7"/><path d="m360.53 313.407c41.942 0 76.018 34.326 75.61 76.36-.404 41.627-34.946 74.868-76.575 74.868h-146.517c-9.393 0-17.007-7.614-17.007-17.007v-126.255c0-4.399 3.566-7.966 7.966-7.966z" fill="#f9f7f8"/><path d="m228.595 447.627v-134.22h-24.587c-4.399 0-7.966 3.566-7.966 7.966v126.255c0 9.393 7.614 17.007 17.007 17.007h18.128c-1.678-5.372-2.582-11.084-2.582-17.008z" fill="#efedef"/><path d="m308.731 245.445 38.423 35.255c3.42 3.138 8.939.712 8.939-3.93v-31.326h-47.362z" fill="#f47c7c"/></g><g><path d="m128.503 228.747c-23.725-5.163-45.295-18.435-60.735-37.369-15.656-19.197-24.277-43.44-24.277-68.264 0-59.614 48.499-108.114 108.113-108.114h147.481c27.298 0 49.507 22.209 49.507 49.507v204.5c0 .223 0 .813-.745 1.141-.746.327-1.181-.071-1.345-.223l-40.023-36.724c-1.384-1.27-3.193-1.974-5.071-1.974h-82.449c-4.142 0-7.5 3.357-7.5 7.5s3.358 7.5 7.5 7.5h79.529l37.872 34.75c3.09 2.835 6.958 4.31 10.914 4.31 2.215 0 4.459-.463 6.609-1.408 5.988-2.632 9.708-8.331 9.708-14.872v-204.5c.002-35.569-28.936-64.507-64.506-64.507h-147.481c-67.885 0-123.113 55.229-123.113 123.114 0 28.267 9.82 55.877 27.652 77.744 17.577 21.554 42.143 36.663 69.171 42.545 4.048.879 8.042-1.687 8.923-5.733.881-4.048-1.686-8.042-5.734-8.923z"/><path d="m247.962 47.5c0-4.143-3.358-7.5-7.5-7.5h-87.893c-45.918 0-83.634 36.918-84.075 82.295-.217 22.328 8.334 43.379 24.078 59.275 15.747 15.9 36.711 24.657 59.032 24.657h156.522c8.528 0 15.466-6.938 15.466-15.466v-126.254c0-13.513-10.994-24.507-24.507-24.507h-26.661c-4.142 0-7.5 3.357-7.5 7.5s3.358 7.5 7.5 7.5h26.661c5.242 0 9.507 4.265 9.507 9.507v126.255c0 .257-.209.466-.466.466h-156.522c-18.287 0-35.466-7.178-48.375-20.212-12.904-13.03-19.914-30.281-19.736-48.574.362-37.188 31.349-67.442 69.076-67.442h87.893c4.142 0 7.5-3.357 7.5-7.5z"/><path d="m456.28 311.63c-17.386-21.482-41.726-36.646-68.536-42.698-4.043-.907-8.055 1.625-8.967 5.665s1.624 8.056 5.665 8.968c23.534 5.312 44.906 18.63 60.178 37.502 15.493 19.143 24.024 43.275 24.024 67.954 0 59.614-48.5 108.114-108.114 108.114h-18.596c-4.142 0-7.5 3.357-7.5 7.5s3.358 7.5 7.5 7.5h18.596c67.885 0 123.114-55.229 123.114-123.114 0-28.103-9.718-55.587-27.364-77.391z"/><path d="m309.972 497.135h-96.923c-27.298 0-49.507-22.209-49.507-49.507v-203.109c0-2.271 1.632-3.176 2.334-3.459.702-.282 2.505-.766 4.081.87l35.368 36.684c1.414 1.466 3.363 2.294 5.399 2.294h79.613c4.142 0 7.5-3.357 7.5-7.5s-3.358-7.5-7.5-7.5h-76.426l-33.156-34.39c-5.33-5.527-13.374-7.241-20.493-4.368-7.12 2.874-11.721 9.691-11.721 17.369v203.109c0 35.569 28.938 64.507 64.507 64.507h96.923c4.142 0 7.5-3.357 7.5-7.5s-3.357-7.5-7.499-7.5z"/><path d="m204.007 320.907h34.225c4.142 0 7.5-3.357 7.5-7.5s-3.358-7.5-7.5-7.5h-34.225c-8.528 0-15.466 6.938-15.466 15.466v126.255c0 13.513 10.994 24.507 24.507 24.507h146.517c45.918 0 83.634-36.918 84.074-82.295.217-22.328-8.334-43.379-24.078-59.275-15.747-15.9-36.711-24.657-59.032-24.657h-90.334c-4.142 0-7.5 3.357-7.5 7.5s3.358 7.5 7.5 7.5h90.334c18.287 0 35.466 7.178 48.375 20.212 12.904 13.03 19.914 30.281 19.736 48.575-.361 37.187-31.348 67.44-69.075 67.44h-146.517c-5.242 0-9.507-4.265-9.507-9.507v-126.255c.001-.257.209-.466.466-.466z"/><path d="m233.382 118.372c0-21.996-17.895-39.891-39.891-39.891s-39.891 17.895-39.891 39.891v9.483c0 21.996 17.895 39.891 39.891 39.891 7.998 0 15.447-2.375 21.697-6.443l3.675 4.01c1.479 1.614 3.501 2.433 5.531 2.433 1.81 0 3.625-.651 5.065-1.971 3.054-2.798 3.261-7.542.462-10.597l-3.909-4.266c4.633-6.516 7.369-14.471 7.369-23.057v-9.483zm-23.564 14.867c-2.798-3.054-7.543-3.262-10.596-.462-3.054 2.798-3.261 7.542-.462 10.597l6.073 6.627c-3.404 1.75-7.257 2.745-11.34 2.745-13.725 0-24.891-11.166-24.891-24.891v-9.483c0-13.725 11.166-24.891 24.891-24.891s24.891 11.166 24.891 24.891v9.483c0 4.185-1.043 8.128-2.875 11.593z"/><path d="m282.685 423.99 7.595-25.118h35.626l7.595 25.118c.98 3.241 3.957 5.331 7.176 5.331.719 0 1.45-.104 2.174-.323 3.965-1.198 6.207-5.385 5.008-9.35l-9.211-30.463c-.008-.025-.015-.05-.023-.075l-9.249-30.588c-2.857-9.45-11.411-15.8-21.283-15.8s-18.426 6.35-21.284 15.8l-9.251 30.596c-.006.019-.011.038-.017.057l-9.214 30.474c-1.199 3.965 1.043 8.151 5.008 9.35 3.965 1.196 8.15-1.044 9.35-5.009zm25.408-66.267c3.212 0 5.996 2.066 6.925 5.142l6.352 21.008h-26.555l6.352-21.008c.93-3.076 3.713-5.142 6.926-5.142z"/></g></g></svg>