<svg id="Capa_1" enable-background="new 0 0 511.907 511.907" height="512" viewBox="0 0 511.907 511.907" width="512" xmlns="http://www.w3.org/2000/svg"><g><g><path d="m196.363 411.17h119.948v75.654h-119.948z" fill="#d7d0d6" transform="matrix(1 -.002 .002 1 -.91 .521)"/><path d="m503.765 102.215c-.053-26.36-21.467-47.687-47.827-47.633l-12.83.026-82.465.167v10.573h-334.556c-1.239.958-2.433 1.97-3.571 3.043v310.399l53.737 22.514 389.41-.79 38.649-28.791z" fill="#a6e7f0"/><path d="m369.922 54.757-216.472.439-12.069.024-73.412.149-12.83.026c-26.36.053-47.687 21.466-47.633 47.827l.546 269.51 68.2 28.574 98.311-.199-68.2-28.574-.546-269.51c-.028-13.728 5.746-26.11 15.009-34.833 5.732-5.397 15.036.069 12.975 7.667-3.268 12.044-4.795 24.795-4.283 37.969 2.578 66.315 56.755 119.701 123.101 121.316 71.214 1.734 129.626-55.765 129.482-126.558-.039-19.25-4.412-37.497-12.179-53.827z" fill="#6bd9e7"/><path d="m68.032 85.37-12.833.026c-9.776.02-17.713 7.989-17.693 17.765l.45 221.779c.02 9.776 7.989 17.713 17.765 17.693l400.801-.813c9.776-.02 17.713-7.989 17.693-17.765l-.45-221.779c-.02-9.776-7.989-17.713-17.765-17.693l-12.833.026z" fill="#9cf8d2"/><g><path d="m129.517 113.826c2.578 66.315 56.755 119.7 123.101 121.316 71.214 1.735 129.626-55.765 129.482-126.558-.017-8.153-.818-16.123-2.318-23.847l-248.141.503c-1.753 9.218-2.505 18.784-2.124 28.586z" fill="#6cf5c2"/></g><path d="m109.197 85.286-41.165.084-12.833.026c-9.776.02-17.713 7.989-17.693 17.765l.45 221.779c.02 9.776 7.989 17.713 17.765 17.693l50.582-.103-.486-239.508c-.013-6.267 1.195-12.248 3.38-17.736z" fill="#6cf5c2"/><g id="XMLID_1104_"><g><path d="m504.311 371.725.038 18.56c.045 22.3-17.998 40.417-40.298 40.462l-415.499.842c-22.3.045-40.417-17.998-40.462-40.298l-.038-18.56z" fill="#e5e1e5"/></g></g><path d="m106.401 391.092-.038-18.56-98.311.199.038 18.56c.045 22.3 18.162 40.343 40.462 40.298l98.311-.199c-22.301.045-40.417-17.998-40.462-40.298z" fill="#d7d0d6"/><path d="m342.44 504.232-171.981.349-.034-16.738c-.019-9.304 7.508-16.861 16.811-16.88l138.29-.28c9.304-.019 16.861 7.508 16.88 16.811z" fill="#e5e1e5"/><path d="m320.977 235.049-130.137.264c-6.525 6.6-10.552 15.672-10.532 25.664l.009 4.365c.022 11.001 8.958 19.901 19.959 19.879l111.47-.226c11.001-.022 19.902-8.959 19.879-19.96l-.009-4.364c-.019-9.994-4.087-19.049-10.639-25.622z" fill="#6cf5c2"/><path d="m412.187 143.291-22.507.046-267.913.543-22.507.046c-8.956.018-16.201 7.293-16.183 16.248l.152 74.819c.018 8.956 7.293 16.201 16.248 16.182l60.964-.124 190.998-.387 60.964-.124c8.956-.018 16.201-7.293 16.183-16.248l-.152-74.819c-.016-8.954-7.291-16.2-16.247-16.182z" fill="#a6e7f0"/><path d="m192.51 218.124c5.383 3.132 6.038 10.623 1.214 14.563-5.715 4.668-9.983 11.037-12.043 18.322l148.524-.301c-2.077-7.234-6.334-13.553-12.017-18.191-4.819-3.932-4.182-11.412 1.185-14.553 27.845-16.295 48.924-42.937 57.931-74.602l-242.937.493c9.139 31.556 30.313 58.075 58.143 74.269z" fill="#6bd9e7"/><path d="m105.899 143.912-6.638.013c-8.956.018-16.201 7.293-16.183 16.248l.152 74.819c.018 8.956 7.293 16.201 16.248 16.182l6.638-.013z" fill="#6bd9e7"/><g><path d="m279.738 237.458-.057-28.23-.075-36.649-47.646.097.074 36.597.057 28.282.035 17.247 47.647-.097z" fill="#efedef"/></g><path d="m252.765 172.634-4.802.01-16.003.032.074 36.597.057 28.282.035 17.247 20.806-.042-.035-17.247-.023-11.268c-.003-1.702 1.384-3.061 3.086-3.064h.031c8.13-.016 16.061-.892 23.712-2.529l-.023-11.424-.074-36.649z" fill="#e5e1e5"/><circle cx="255.76" cy="108.841" fill="#f9f7f8" r="101.34"/><path d="m189.243 104.139c-.091-45.075 29.263-83.329 69.928-96.575-1.201-.04-2.405-.066-3.616-.064-55.969.114-101.248 45.577-101.135 101.546s45.577 101.248 101.546 101.135c10.894-.022 21.39-1.765 31.218-4.966-54.297-1.795-97.83-46.318-97.941-101.076z" fill="#efedef"/><circle cx="255.731" cy="94.552" fill="#e5e1e5" r="57.779"/><circle cx="255.731" cy="94.552" fill="#d7d0d6" r="26.336"/><path d="m295.149 239.32-78.462.159c-11.832.024-21.404 9.635-21.38 21.467l.009 4.365c.006 2.717 2.212 4.915 4.929 4.909l111.471-.226c2.717-.006 4.915-2.212 4.909-4.929l-.009-4.365c-.024-11.832-9.635-21.404-21.467-21.38z" fill="#d7d0d6"/><path d="m232.147 265.237-.009-4.365c-.024-11.832 9.548-21.443 21.38-21.467l-36.831.075c-11.832.024-21.404 9.635-21.38 21.467l.009 4.365c.006 2.717 2.212 4.915 4.929 4.909l36.831-.075c-2.716.005-4.923-2.192-4.929-4.909z" fill="#c9bfc8"/><circle cx="129.759" cy="305.122" fill="#6bd9e7" r="17.67"/></g><g><path d="m456.354 47.489h-77.181c-4.143 0-7.5 3.357-7.5 7.5s3.357 7.5 7.5 7.5h77.181c22.183 0 40.229 18.047 40.229 40.229v262.009h-355.642c-4.143 0-7.5 3.357-7.5 7.5s3.357 7.5 7.5 7.5h355.643v11.063c0 18.13-14.75 32.88-32.88 32.88h-147.777-119.947-147.776c-18.13 0-32.88-14.75-32.88-32.88v-11.063h93.654c4.143 0 7.5-3.357 7.5-7.5s-3.357-7.5-7.5-7.5h-93.654v-262.009c0-22.182 18.047-40.229 40.229-40.229h77.405c4.143 0 7.5-3.357 7.5-7.5s-3.357-7.5-7.5-7.5h-77.405c-30.453 0-55.229 24.775-55.229 55.229v288.072c0 26.401 21.479 47.88 47.88 47.88h140.276v24.654h-1.672c-13.424 0-24.346 10.921-24.346 24.345v9.238h-13.438c-4.143 0-7.5 3.357-7.5 7.5s3.357 7.5 7.5 7.5h20.938 171.982 21.163c4.143 0 7.5-3.357 7.5-7.5s-3.357-7.5-7.5-7.5h-13.663v-9.238c0-13.424-10.922-24.345-24.346-24.345h-1.672v-24.654h140.276c26.401 0 47.88-21.479 47.88-47.88v-288.072c.001-30.453-24.775-55.229-55.228-55.229zm-121.909 440.18v9.238h-156.983v-9.238c0-5.152 4.192-9.345 9.346-9.345h9.172 119.947 9.172c5.153 0 9.346 4.193 9.346 9.345zm-26.018-24.345h-104.947v-24.654h104.947z"/><path d="m122.376 77.489h-66.823c-13.911 0-25.229 11.317-25.229 25.229v221.779c0 13.911 11.318 25.229 25.229 25.229h400.801c13.911 0 25.229-11.318 25.229-25.229v-221.779c0-13.911-11.318-25.229-25.229-25.229h-66.599c-4.143 0-7.5 3.357-7.5 7.5s3.357 7.5 7.5 7.5h66.599c5.641 0 10.229 4.589 10.229 10.229v221.779c0 5.641-4.589 10.229-10.229 10.229h-400.801c-5.641 0-10.229-4.589-10.229-10.229v-221.779c0-5.64 4.589-10.229 10.229-10.229h66.823c4.143 0 7.5-3.357 7.5-7.5s-3.357-7.5-7.5-7.5z"/><path d="m266.066 400.94c0-5.522-4.477-10-10-10s-10 4.477-10 10 4.477 10 10 10c5.523.001 10-4.477 10-10z"/><path d="m224.636 213.048v18.852h-7.907c-15.948 0-28.924 12.976-28.924 28.924v9.284c0 4.143 3.357 7.5 7.5 7.5h70.102c4.143 0 7.5-3.357 7.5-7.5s-3.357-7.5-7.5-7.5h-62.602v-1.784c0-7.678 6.246-13.924 13.924-13.924h78.462c7.677 0 13.923 6.246 13.923 13.924v1.784h-11.744c-4.143 0-7.5 3.357-7.5 7.5s3.357 7.5 7.5 7.5h19.244c4.143 0 7.5-3.357 7.5-7.5v-9.284c0-15.948-12.975-28.924-28.923-28.924h-7.908v-18.788c44.848-13.451 77.624-55.102 77.624-104.27 0-60.016-48.826-108.842-108.841-108.842s-108.84 48.826-108.84 108.841c0 49.091 32.671 90.688 77.41 104.207zm47.647 18.851h-32.646v-15.458c5.36.815 10.846 1.239 16.43 1.239 5.51 0 10.925-.415 16.217-1.209v15.428zm-16.217-216.899c51.744 0 93.841 42.097 93.841 93.841 0 51.743-42.097 93.84-93.841 93.84-51.743 0-93.84-42.097-93.84-93.84 0-51.744 42.097-93.841 93.84-93.841z"/><path d="m208.62 128.361c3.653-1.952 5.032-6.497 3.079-10.149-3.867-7.235-5.911-15.417-5.911-23.66 0-27.724 22.556-50.279 50.279-50.279s50.278 22.556 50.278 50.279-22.555 50.278-50.278 50.278c-8.757 0-17.392-2.299-24.971-6.646-3.59-2.061-8.176-.82-10.237 2.772s-.82 8.177 2.772 10.237c9.847 5.65 21.063 8.637 32.436 8.637 35.994 0 65.278-29.284 65.278-65.278 0-35.995-29.284-65.279-65.278-65.279-35.995 0-65.279 29.284-65.279 65.279 0 10.701 2.656 21.328 7.683 30.73 1.951 3.655 6.496 5.032 10.149 3.079z"/><path d="m256.066 128.388c18.658 0 33.837-15.179 33.837-33.836s-15.179-33.836-33.837-33.836c-18.657 0-33.836 15.179-33.836 33.836s15.179 33.836 33.836 33.836zm0-52.672c10.387 0 18.837 8.45 18.837 18.836s-8.45 18.836-18.837 18.836c-10.386 0-18.836-8.45-18.836-18.836s8.45-18.836 18.836-18.836z"/><path d="m255.96 171.946c-5.523 0-10 4.477-10 10s4.477 10 10 10 10-4.477 10-10-4.478-10-10-10z"/><path d="m129.667 287.196c-7.073 0-13.159 4.167-15.982 10.17h-37.719c-4.143 0-7.5 3.357-7.5 7.5s3.357 7.5 7.5 7.5h37.719c2.823 6.004 8.908 10.17 15.982 10.17 7.073 0 13.159-4.166 15.982-10.17h290.292c4.143 0 7.5-3.357 7.5-7.5s-3.357-7.5-7.5-7.5h-290.293c-2.823-6.003-8.908-10.17-15.981-10.17z"/><path d="m160.46 243.358h-60.963c-4.806 0-8.716-3.909-8.716-8.715v-74.82c0-4.806 3.91-8.715 8.716-8.715h22.506c4.143 0 7.5-3.357 7.5-7.5s-3.357-7.5-7.5-7.5h-22.506c-13.077 0-23.716 10.639-23.716 23.715v74.82c0 13.076 10.639 23.715 23.716 23.715h60.964c4.143 0 7.5-3.357 7.5-7.5s-3.358-7.5-7.501-7.5z"/><path d="m412.423 243.358h-60.965c-4.143 0-7.5 3.357-7.5 7.5s3.357 7.5 7.5 7.5h60.965c13.076 0 23.715-10.639 23.715-23.715v-74.819c0-13.077-10.639-23.716-23.715-23.716h-22.507c-4.143 0-7.5 3.357-7.5 7.5s3.357 7.5 7.5 7.5h22.507c4.806 0 8.715 3.91 8.715 8.716v74.819c0 4.806-3.909 8.715-8.715 8.715z"/></g></g></svg>