<svg id="Capa_1" enable-background="new 0 0 511.043 511.043" height="512" viewBox="0 0 511.043 511.043" width="512" xmlns="http://www.w3.org/2000/svg"><g><g><g><path d="m472.782 150.991c9.262 0 16.77 7.508 16.77 16.769v319.013c0 9.262-7.508 16.77-16.77 16.77h-434.521c-9.262 0-16.769-7.508-16.769-16.77v-319.013c0-9.262 7.508-16.769 16.769-16.769z" fill="#f47c7c"/><g id="XMLID_1106_"><path d="m473.682 151.036c-.3-.016-.596-.045-.899-.045h-242.262v347.211h50c0-5.256 4.275-9.532 9.531-9.532h151.437c17.751 0 32.192-14.441 32.192-32.191v-305.443z" fill="#ee6161"/><g><path d="m279.507 150.991h-241.246c-.304 0-.6.03-.899.045v305.443c0 17.75 14.441 32.191 32.191 32.191h151.438c5.255 0 9.53 4.275 9.53 9.53v5.342h50v-5.342-161.08z" fill="#ee6161"/><path d="m255.521 337.121v161.08c0-19.07-15.46-34.53-34.53-34.53h-151.438c-3.972 0-7.191-3.22-7.191-7.191v-325.038c0-3.972 3.22-7.191 7.191-7.191h28.289 156.52z" fill="#fdd79b"/></g><path d="m220.991 463.671c19.07 0 34.53 15.46 34.53 34.53v-34.53z" fill="#fccd7f"/><path d="m254.362 124.251h-11.414l1.16 212.87v135.433c7.008 6.32 11.414 15.468 11.414 25.647v-161.08z" fill="#fbc56d"/><g><path d="m448.681 131.446v325.033c0 3.972-3.22 7.191-7.191 7.191h-151.437c-19.071 0-34.531 15.46-34.531 34.532v-161.082-212.865h185.968c3.971 0 7.191 3.22 7.191 7.191z" fill="#fdd79b"/></g><path d="m265.74 337.12v-212.865h-10.219v212.865 161.082c0-9.588 3.91-18.26 10.219-24.518z" fill="#fccd7f"/></g><path d="m254.362 124.251h-156.52-18.534-1.766-7.989c-3.972 0-7.191 3.22-7.191 7.191v325.037c0 3.972 3.22 7.191 7.191 7.191h51.64c-3.972 0-7.191-3.22-7.191-7.191v-134.393c0-9.451 11.11-14.43 18.233-8.218 33.011 28.791 76.147 46.252 123.287 46.252v-23z" fill="#fccd7f"/><path d="m254.362 124.251h-11.414l1.16 212.87v22.643c3.777.228 7.581.357 11.414.357v-23z" fill="#e9b665"/><path d="m223.477 373.996v55.543c0 1.175-.953 2.127-2.128 2.125-15.401-.024-109.472-.037-124.824-.039-1.174 0-2.118-.952-2.118-2.125v-137.711-125.456h129.07z" fill="#fdf6ec"/><path d="m223.477 166.333h-129.07v125.456 137.711c0 1.174.944 2.125 2.118 2.126 3.08 0 9.332.001 17.477.002v-109.542c0-9.451 11.11-14.43 18.233-8.218 25.362 22.12 56.704 37.541 91.242 43.505z" fill="#fef1da"/><path d="m443.331 172.311c0-16.606-2.177-32.711-6.241-48.056h-181.569v212.865 23.001c103.559 0 187.81-84.251 187.81-187.81z" fill="#fccd7f"/><path d="m265.74 337.12v-212.865h-10.219v212.865 23.001c3.429 0 6.835-.099 10.219-.281z" fill="#fbc56d"/><g id="XMLID_1105_"><g><path d="m326.711 272.921c-16.21 38.53-41.52 63.52-70.03 64.19-.38.01-.77.01-1.16.01v-80.33c25.5 0 49.64 5.79 71.19 16.13z" fill="#6bd9e7"/><path d="m326.711 272.921c13.3 6.37 25.61 14.48 36.64 24.03-28.64 24.79-65.89 39.88-106.67 40.16 28.51-.67 53.82-25.66 70.03-64.19z" fill="#a6e7f0"/><path d="m255.521 172.311h89.88c0 37.88-6.97 72.77-18.69 100.61-21.55-10.34-45.69-16.13-71.19-16.13z" fill="#a6e7f0"/><path d="m345.401 172.311h74.93c0 49.79-22.08 94.43-56.98 124.64-11.03-9.55-23.34-17.66-36.64-24.03 11.72-27.84 18.69-62.73 18.69-100.61z" fill="#d4f2f6"/><path d="m345.401 172.311h-89.88v-91.54c24.48 0 47.72-5.34 68.61-14.93 13.27 28.72 21.27 65.88 21.27 106.47z" fill="#d4f2f6"/><path d="m420.331 172.311h-74.93c0-40.59-8-77.75-21.27-106.47 12.6-5.77 24.33-13.09 34.98-21.71l.01-.01c37.34 30.22 61.21 76.42 61.21 128.19z" fill="#dcf5f8"/><path d="m184.331 272.921c16.21 38.53 41.52 63.52 70.03 64.19-40.78-.28-78.03-15.37-106.67-40.16 11.03-9.55 23.34-17.66 36.64-24.03z" fill="#02c7dd"/><path d="m255.521 256.791v80.33c-.39 0-.78 0-1.16-.01-28.51-.67-53.82-25.66-70.03-64.19 21.55-10.34 45.69-16.13 71.19-16.13z" fill="#2ed1e2"/><path d="m165.641 172.311c0 37.88 6.97 72.77 18.69 100.61-13.3 6.37-25.61 14.48-36.64 24.03-34.9-30.21-56.98-74.85-56.98-124.64z" fill="#2ed1e2"/><path d="m255.521 172.311v84.48c-25.5 0-49.64 5.79-71.19 16.13-11.72-27.84-18.69-62.73-18.69-100.61z" fill="#6bd9e7"/><path d="m186.911 65.841c-13.27 28.72-21.27 65.88-21.27 106.47h-74.93c0-51.77 23.87-97.97 61.21-128.19l.01.01c10.65 8.62 22.38 15.94 34.98 21.71z" fill="#6bd9e7"/><path d="m255.521 80.771v91.54h-89.88c0-40.59 8-77.75 21.27-106.47 20.89 9.59 44.13 14.93 68.61 14.93z" fill="#a6e7f0"/><path d="m254.361 7.511c-27.04.63-51.2 23.15-67.45 58.33-12.6-5.77-24.33-13.09-34.98-21.71l-.01-.01c28.03-22.67 63.64-36.35 102.44-36.61z" fill="#a6e7f0"/><path d="m255.521 7.501v73.27c-24.48 0-47.72-5.34-68.61-14.93 16.25-35.18 40.41-57.7 67.45-58.33.38-.01.77-.01 1.16-.01z" fill="#d4f2f6"/><path d="m256.681 7.511c27.04.63 51.2 23.15 67.45 58.33-20.89 9.59-44.13 14.93-68.61 14.93v-73.27c.39 0 .78 0 1.16.01z" fill="#dcf5f8"/><path d="m359.121 44.121-.01.01c-10.65 8.62-22.38 15.94-34.98 21.71-16.25-35.18-40.41-57.7-67.45-58.33 38.8.26 74.41 13.94 102.44 36.61z" fill="#eaf9fa"/></g></g></g></g><g><path d="m223.477 439.172c-.095 0-.189-.002-.284-.005-.73-.028-1.466-.042-2.202-.042h-126.585c-4.143 0-7.5-3.357-7.5-7.5v-139.837c0-4.143 3.357-7.5 7.5-7.5s7.5 3.357 7.5 7.5v132.337h114.07v-50.129c0-4.143 3.357-7.5 7.5-7.5s7.5 3.357 7.5 7.5v57.676c0 2.038-.83 3.989-2.298 5.403-1.4 1.348-3.265 2.097-5.201 2.097z"/><path d="m298.661 383.023h-11.095c-4.143 0-7.5-3.357-7.5-7.5s3.357-7.5 7.5-7.5h11.095c4.143 0 7.5 3.357 7.5 7.5s-3.357 7.5-7.5 7.5z"/><path d="m416.636 383.023h-88.359c-4.143 0-7.5-3.357-7.5-7.5s3.357-7.5 7.5-7.5h88.359c4.143 0 7.5 3.357 7.5 7.5s-3.358 7.5-7.5 7.5z"/><path d="m416.636 417.034h-11.094c-4.143 0-7.5-3.357-7.5-7.5s3.357-7.5 7.5-7.5h11.094c4.143 0 7.5 3.357 7.5 7.5s-3.358 7.5-7.5 7.5z"/><path d="m375.927 417.034h-88.36c-4.143 0-7.5-3.357-7.5-7.5s3.357-7.5 7.5-7.5h88.36c4.143 0 7.5 3.357 7.5 7.5s-3.358 7.5-7.5 7.5z"/><path d="m472.782 143.491h-16.601v-19.236c0-4.143-3.357-7.5-7.5-7.5h-30.041c-23.167-67.837-87.536-116.755-163.119-116.755s-139.951 48.918-163.118 116.755h-30.042c-4.143 0-7.5 3.357-7.5 7.5v19.236h-16.6c-13.382 0-24.27 10.888-24.27 24.27v319.013c0 13.382 10.888 24.27 24.27 24.27h434.521c13.382 0 24.27-10.888 24.27-24.27v-319.013c0-13.382-10.888-24.27-24.27-24.27zm-314.538 36.319c.276 11.499 1.176 22.912 2.707 34.022.518 3.757 3.732 6.478 7.42 6.478.341 0 .687-.023 1.033-.071 4.104-.565 6.972-4.35 6.406-8.453-1.438-10.437-2.289-21.163-2.562-31.976h74.773v69.647c-20.631.898-40.803 5.489-59.593 13.428-2.43-6.484-4.627-13.34-6.54-20.558-1.061-4.004-5.168-6.387-9.171-5.329-4.004 1.062-6.39 5.167-5.329 9.171 2.184 8.241 4.704 15.948 7.506 23.146-9.465 5.01-18.485 10.92-26.933 17.674-28.897-27.12-47.578-65-49.568-107.179zm104.777-164.122c19.262 3.454 37.289 20.069 50.9 46.31-16.164 6.458-33.384 10.239-50.9 11.083zm44.338 10.282c-1.026-1.132-2.064-2.208-3.112-3.235 15.297 4.995 29.574 12.268 42.418 21.429-6.101 4.337-12.498 8.215-19.125 11.623-5.916-11.494-12.698-21.558-20.181-29.817zm-123.876 29.807c-6.621-3.406-13.01-7.281-19.106-11.613 13.329-9.508 28.197-16.989 44.152-21.993-8.475 7.481-16.27 17.404-23.145 30.01-.645 1.183-1.277 2.385-1.901 3.596zm15.07 3.585c13.744-25.203 31.084-40.424 49.469-43.691v57.409c-17.508-.843-34.72-4.621-50.876-11.073.463-.889.931-1.772 1.407-2.645zm49.468 28.739v76.708h-74.782c.811-32.704 6.923-63.555 17.57-89.188 18.14 7.347 37.51 11.614 57.212 12.48zm0 240.814c-20.619-3.752-39.914-22.778-53.775-52.205 16.962-7.17 35.159-11.349 53.775-12.236zm15 .034v-64.475c18.625.888 36.83 5.07 53.799 12.246-1.381 2.927-2.824 5.776-4.33 8.538-13.744 25.203-31.084 40.424-49.469 43.691zm0-79.492v-69.647h74.782c-.748 30.149-6 58.725-15.158 83.088-18.798-7.948-38.981-12.543-59.624-13.441zm-82.097 33.644c8.487 17.304 18.896 30.799 30.61 40.252-19.039-5.554-36.594-14.617-51.918-26.441 6.746-5.193 13.873-9.808 21.308-13.811zm144.735 9.338c1.628-2.985 3.187-6.061 4.678-9.219 7.355 3.976 14.41 8.55 21.09 13.692-14.679 11.325-31.401 20.123-49.517 25.725 8.708-7.359 16.712-17.294 23.749-30.198zm37.423-5.45c-8.423-6.734-17.415-12.63-26.849-17.63 10.058-26.312 15.804-57.142 16.573-89.549h59.844c-1.991 42.179-20.671 80.059-49.568 107.179zm49.567-122.179h-59.849c-.338-14.111-1.621-28.048-3.844-41.526-.675-4.087-4.532-6.845-8.621-6.18-4.087.675-6.854 4.534-6.18 8.621 2.093 12.678 3.305 25.795 3.639 39.085h-74.772v-76.709c19.698-.866 39.064-5.132 57.202-12.475 2.474 5.998 4.748 12.36 6.781 19.085 1.199 3.966 5.382 6.201 9.35 5.01 3.965-1.199 6.208-5.385 5.01-9.35-2.215-7.329-4.732-14.326-7.505-20.969 8.743-4.456 17.118-9.666 25.014-15.587 31.285 27.322 51.69 66.8 53.775 110.995zm-260.479-110.995c7.89 5.917 16.257 11.122 24.992 15.576-11.511 27.544-18.097 60.568-18.925 95.418h-59.843c2.085-44.194 22.49-83.672 53.776-110.994zm-82.309 77.94h18.183c-3.151 13.011-4.833 26.589-4.833 40.555 0 92.499 73.265 168.196 164.811 172.137v121.592c-7.313-6.156-16.746-9.869-27.031-9.869h-151.13zm-40.87 355.018v-319.012c0-5.111 4.158-9.27 9.27-9.27h16.601v305.179c0 4.143 3.357 7.5 7.5 7.5h158.628c14.178 0 25.833 10.975 26.937 24.873h-209.666c-5.112 0-9.27-4.158-9.27-9.27zm453.061 0c0 5.111-4.158 9.27-9.27 9.27h-209.667c1.105-13.898 12.76-24.873 26.937-24.873h53.369c4.143 0 7.5-3.357 7.5-7.5s-3.357-7.5-7.5-7.5h-53.369c-10.285 0-19.719 3.713-27.031 9.869v-121.592c91.546-3.941 164.811-79.638 164.811-172.137 0-13.966-1.682-27.544-4.833-40.555h18.183v324.415h-65.798c-4.143 0-7.5 3.357-7.5 7.5s3.357 7.5 7.5 7.5h73.298c4.143 0 7.5-3.357 7.5-7.5v-305.179h16.601c5.111 0 9.27 4.158 9.27 9.27v319.012z"/></g></g></svg>