<svg id="Capa_1" enable-background="new 0 0 512 512" height="512" viewBox="0 0 512 512" width="512" xmlns="http://www.w3.org/2000/svg"><g><g><path d="m303.608 270.567h-73.579v-17.682c0-8.284 6.716-15 15-15h43.579c8.284 0 15 6.716 15 15z" fill="#f6e080"/><path d="m230.045 252.567c-.002.107-.016.211-.016.318v17.682h73.579v-17.682c0-.108-.014-.211-.016-.318z" fill="#eccd61"/><path d="m110.345 226.226c10.695-10.259 22.698-20.414 36.148-30.199l-14.626-16.877c-4.352-5.021-11.95-5.564-16.971-1.213l-17.406 15.086c-5.021 4.352-5.564 11.95-1.212 16.971z" fill="#f6e080"/><path d="m395.885 401.338h-369.77c-10.005 0-18.115-8.11-18.115-18.114 0-10.004 8.11-18.115 18.115-18.115h369.771c10.004 0 18.115 8.11 18.115 18.115-.001 10.004-8.111 18.114-18.116 18.114z" fill="#e7ecf1"/><path d="m395.885 383.338h-369.77c-6.725 0-12.581-3.673-15.706-9.115-1.524 2.653-2.408 5.721-2.408 9 0 10.004 8.11 18.115 18.115 18.115h369.771c10.004 0 18.115-8.11 18.115-18.115 0-3.279-.884-6.347-2.408-9-3.127 5.442-8.983 9.115-15.709 9.115z" fill="#c6d0da"/><path d="m456.878 110.662h47.122v32.475h-47.122z" fill="#909ba5"/><path d="m456.878 125.137h47.122v18h-47.122z" fill="#808b95"/><path d="m26.115 365.109h343.845c11.891-40.406 42.507-53.749 56.515-57.826 4.266-1.242 7.19-5.152 7.19-9.595v-110.93l23.214-28.989v-47.107c-380.609 0-430.764 254.447-430.764 254.447zm351.615-149.891c0 30.568-24.781 55.349-55.349 55.349h-163.547s70.078-97.224 218.896-97.224z" fill="#dc4955"/><path d="m110.345 226.226c10.695-10.259 22.698-20.414 36.148-30.199l-13.025-15.03c-13.321 9.979-25.17 20.31-35.7 30.716z" fill="#eccd61"/><path d="m31.301 347.109c-3.857 11.268-5.186 18-5.186 18h343.845c1.98-6.728 4.487-12.69 7.343-18z" fill="#d82f3c"/></g><g><path d="m504.485 102.863h-47.214c-27.641 0-54.585 1.352-80.084 4.02-4.127.431-7.124 4.127-6.692 8.255s4.133 7.132 8.255 6.692c22.668-2.371 46.52-3.681 71.006-3.903v37.013l-21.611 26.986c-1.068 1.334-1.649 2.99-1.649 4.698v111.146c0 1.123-.719 2.088-1.79 2.399-13.608 3.96-45.792 17.38-59.975 57.639h-229.837c-4.151 0-7.515 3.364-7.515 7.515s3.364 7.515 7.515 7.515h261.265c5.864 0 10.635 4.771 10.635 10.635 0 5.865-4.771 10.636-10.635 10.636h-370.495c-5.864 0-10.635-4.771-10.635-10.636 0-5.864 4.771-10.635 10.635-10.635h79.171c4.151 0 7.515-3.364 7.515-7.515s-3.364-7.515-7.515-7.515h-69.447c1.644-5.551 4.263-13.421 8.209-22.904 7.343-17.648 20.914-44.65 43.866-73.065 25.772-31.91 57.907-59.096 95.512-80.803 47.138-27.21 103.088-45.864 166.295-55.442 4.103-.621 6.926-4.452 6.303-8.556-.621-4.104-4.459-6.925-8.556-6.303-65.3 9.895-123.195 29.27-172.076 57.586-9.493 5.499-18.644 11.343-27.456 17.506l-10.181-11.748c-6.727-8.093-19.788-9.021-27.605-1.972l-17.439 15.114c-8.094 6.724-9.026 19.797-1.974 27.605l9.479 10.937c-8.696 8.694-16.895 17.793-24.541 27.31-23.982 29.853-38.144 58.23-45.801 76.778-5.338 12.931-8.347 22.969-9.857 28.696-11.217 2.744-19.566 12.875-19.566 24.925 0 14.152 11.513 25.665 25.664 25.665h370.495c14.152 0 25.664-11.514 25.664-25.665 0-14.152-11.513-25.664-25.664-25.664h-15.348c12.057-28.691 34.801-39.339 48.097-43.208 7.43-2.163 12.618-9.084 12.618-16.83v-108.509l21.611-26.987c1.068-1.333 1.649-2.989 1.649-4.697v-7.146h39.7c4.151 0 7.515-3.364 7.515-7.515v-32.539c-.001-4.15-3.365-7.514-7.516-7.514zm-402.383 95.716 17.44-15.115c1.813-1.632 4.843-1.421 6.403.458l9.365 10.807c-8.593 6.55-16.821 13.431-24.675 20.629l-8.992-10.375c-1.636-1.812-1.419-4.844.459-6.404zm394.869-63.177h-32.185v-17.51h32.185z"/><path d="m233.693 217.522c3.607-2.054 4.867-6.642 2.814-10.249-2.055-3.608-6.643-4.866-10.249-2.814-48.964 27.87-72.723 60.372-73.71 61.742-3.613 4.773.112 12.049 6.096 11.909h163.867c34.723 0 62.973-28.249 62.973-62.972v-41.957c0-4.151-3.364-7.515-7.515-7.515-44.22 0-85.977 8.409-124.114 24.993-3.805 1.656-5.549 6.082-3.894 9.888 1.655 3.805 6.077 5.55 9.888 3.894 34.073-14.817 71.247-22.766 110.606-23.661v34.357c0 26.435-21.507 47.942-47.943 47.942h-11.296v-10.201c0-12.431-10.113-22.544-22.544-22.544h-43.664c-12.431 0-22.544 10.113-22.544 22.544v10.201h-47.49c10.826-11.46 30.307-29.386 58.719-45.557zm3.799 35.357c0-4.144 3.371-7.515 7.515-7.515h43.664c4.144 0 7.515 3.371 7.515 7.515v10.201h-58.694z"/></g></g></svg>