<svg id="Capa_1" enable-background="new 0 0 512 512" height="512" viewBox="0 0 512 512" width="512" xmlns="http://www.w3.org/2000/svg"><g><g><path d="m457.188 427.65h-366.481c-11.909 0-21.564-9.654-21.564-21.564v-163.765h409.608v163.766c.001 11.909-9.653 21.563-21.563 21.563z" fill="#f6e080"/><path d="m457.188 409.65h-366.481c-11.909 0-21.564-9.654-21.564-21.564v18c0 11.909 9.654 21.564 21.564 21.564h366.481c11.909 0 21.564-9.654 21.564-21.564v-18c0 11.91-9.654 21.564-21.564 21.564z" fill="#eccd61"/><path d="m493.218 186.309h-438.54c-5.955 0-10.782 4.827-10.782 10.782v34.448c0 5.955 4.827 10.782 10.782 10.782h438.54c5.955 0 10.782-4.827 10.782-10.782v-34.448c0-5.955-4.827-10.782-10.782-10.782z" fill="#f6e080"/><path d="m493.218 224.321h-438.54c-5.955 0-10.782-4.827-10.782-10.782v18c0 5.955 4.827 10.782 10.782 10.782h438.54c5.955 0 10.782-4.827 10.782-10.782v-18c0 5.954-4.827 10.782-10.782 10.782z" fill="#eccd61"/><path d="m245.645 242.321h56.607v185.329h-56.607z" fill="#dc4955"/><path d="m245.645 409.65h56.607v18h-56.607z" fill="#d82f3c"/><path d="m236.097 186.309h75.701v56.012h-75.701z" fill="#dc4955"/><path d="m236.097 224.321h75.701v18h-75.701z" fill="#d82f3c"/><path d="m250.975 143.384h45.946v42.925h-45.946z" fill="#c42d41"/><path d="m250.975 143.384s-77.974-90.564-108.844-47.35c-26.799 37.515-8.642 90.275-8.642 90.275h117.487v-42.925z" fill="#dc4955"/><path d="m296.921 143.384s77.974-90.564 108.845-47.35c26.799 37.515 8.642 90.275 8.642 90.275h-117.487z" fill="#dc4955"/><path d="m250.975 168.309h45.946v18h-45.946z" fill="#b72d47"/><path d="m133.488 186.309h117.487v-18h-121.709c1.772 10.872 4.222 18 4.222 18z" fill="#d82f3c"/><path d="m296.921 168.309v18h117.487s2.45-7.128 4.222-18z" fill="#d82f3c"/><path d="m25.909 302.618h86.471v86.471h-86.471z" fill="#e7ecf1" transform="matrix(.707 .707 -.707 .707 264.807 52.406)"/><path d="m49.73 360.129h86.471v19.092h-86.471z" fill="#c6d0da" transform="matrix(.707 -.707 .707 .707 -234.171 174.013)"/></g><g><g><path d="m493.682 178.678h-69.112c4.165-18.009 9.403-56.788-12.397-87.305-6.573-9.202-15.762-14.324-26.571-14.814-16.887-.772-38.017 9.577-62.831 30.737-13.68 11.665-24.579 23.309-29.149 28.373h-39.277c-5.582-6.189-20.59-22.179-38.524-35.984-3.29-2.532-8.006-1.918-10.539 1.371-2.531 3.289-1.917 8.007 1.371 10.539 17.105 13.167 31.8 28.903 36.797 34.443v32.64h-104.557c-3.484-13.464-10.589-50.965 9.13-78.569 4.541-6.356 13.067-13.652 34.587-3.666 3.762 1.746 8.232.111 9.979-3.654s.111-8.232-3.654-9.979c-29.191-13.546-45.011-2.819-53.142 8.564-21.8 30.517-16.561 69.296-12.397 87.305h-69.112c-10.1 0-18.318 8.217-18.318 18.318v34.516c0 10.1 8.217 18.317 18.318 18.317h6.98v31.844l-59.063 59.061c-2.935 2.935-2.935 7.693 0 10.627l59.421 59.421c2.112 14.105 14.175 24.737 28.762 24.737h52.514c4.15 0 7.515-3.364 7.515-7.515s-3.365-7.515-7.515-7.515h-52.514c-6.552 0-12.046-4.443-13.61-10.547l58.581-58.582c2.935-2.934 2.935-7.693 0-10.627l-23.222-23.222c32.166-21.657 54.201-46.754 68.666-67.684h57.311v170.662h-65.153c-4.15 0-7.515 3.365-7.515 7.515s3.364 7.515 7.515 7.515h284.626c16.057 0 29.12-13.063 29.12-29.12v-156.572h6.98c10.1 0 18.318-8.217 18.318-18.317v-34.516c-.001-10.1-8.218-18.317-18.319-18.317zm-108.759-87.105c6.292.285 11.065 2.998 15.022 8.537 19.646 27.501 12.579 65.085 9.117 78.568h-104.546v-32.668c15.418-17.34 54.925-55.567 80.407-54.437zm-141.35 143.226v-41.092h60.82v41.092zm-15.029-41.092v41.092h-38.141c10.752-18.267 16.468-33.321 19.024-41.092zm29.935-43.009h31.007v27.979h-31.007zm-207.483 80.813v-34.516c0-1.813 1.475-3.288 3.288-3.288h139.208c-2.92 7.923-8.157 20.252-16.685 34.56-1.25 2.098-2.599 4.28-4.046 6.532h-118.477c-1.813 0-3.288-1.475-3.288-3.288zm17.782 165.174-50.636-50.637 50.636-50.637 50.636 50.637zm32.51-90.017-24.995-24.995v-31.844h85.954c-13.859 18.274-33.621 38.895-60.959 56.839zm151.851-56.84h41.688v170.662h-41.688zm243.832-18.317c0 1.813-1.475 3.288-3.288 3.288h-65.245c-4.15 0-7.515 3.364-7.515 7.515 0 4.15 3.365 7.515 7.515 7.515h43.235v156.571c0 7.77-6.321 14.091-14.091 14.091h-147.725v-170.663h88.522c4.15 0 7.515-3.365 7.515-7.515s-3.364-7.515-7.515-7.515h-78.957v-41.092h174.26c1.813 0 3.288 1.475 3.288 3.288v34.517z"/><path d="m61.782 320.808c-2.935 2.935-2.935 7.693 0 10.627l21.609 21.609c1.467 1.467 3.39 2.201 5.314 2.201 1.923 0 3.846-.734 5.314-2.201 2.935-2.934 2.935-7.693 0-10.627l-21.609-21.609c-2.935-2.934-7.693-2.934-10.628 0z"/><path d="m54.165 339.053c-2.934-2.934-7.693-2.934-10.627 0-2.935 2.935-2.935 7.693 0 10.627l21.609 21.609c1.467 1.467 3.39 2.201 5.314 2.201 1.923 0 3.846-.734 5.314-2.201 2.935-2.934 2.935-7.693 0-10.627z"/></g></g></g></svg>