<svg id="Capa_1" enable-background="new 0 0 510.634 510.634" height="512" viewBox="0 0 510.634 510.634" width="512" xmlns="http://www.w3.org/2000/svg"><g><g><path d="m458.016 17.568c-.72-1.44-2.77-1.44-3.49 0l-17.5 35.22 9.623 17.257h22.183l6.685-17.257z" fill="#efedef"/><path d="m450.121 58.145 3.387-6.888 10.624-21.381-6.115-12.308c-.72-1.44-2.77-1.44-3.49 0l-17.5 35.22 2.987 5.357z" fill="#e5e1e5"/><path d="m481.216 66.778v395.05c0 13.77-11.17 24.94-24.95 24.94-13.77 0-24.94-11.17-24.94-24.94v-395.05c0-1.67.39-3.32 1.14-4.82l4.56-9.17h1.98 34.53 1.98l4.56 9.17c.75 1.5 1.14 3.15 1.14 4.82z" fill="#f9f7f8"/><path d="m447.808 460.297v-395.05c0-1.67.39-3.32 1.14-4.82l3.799-7.639h-13.74-1.98l-4.56 9.17c-.75 1.5-1.14 3.15-1.14 4.82v395.05c0 13.77 11.17 24.94 24.94 24.94 3.719 0 7.245-.819 10.415-2.278-10.84-2.712-18.874-12.516-18.874-24.193z" fill="#efedef"/><path d="m358.174 503.133h-291.918c-20.343 0-36.834-16.491-36.834-36.834v-421.965c0-20.343 16.491-36.834 36.834-36.834h291.918c20.343 0 36.834 16.491 36.834 36.834v421.965c0 20.343-16.492 36.834-36.834 36.834z" fill="#baafb9"/><path d="m121.702 466.299v-421.965c0-20.343 16.491-36.834 36.834-36.834h-92.28c-20.343 0-36.834 16.491-36.834 36.834v421.965c0 20.343 16.491 36.834 36.834 36.834h92.28c-20.343 0-36.834-16.491-36.834-36.834z" fill="#aa9ea9"/><path d="m358.174 37.5h-110.051c-5.777 0-11.002 3.136-14.037 8.051-4.525 7.327-12.626 12.21-21.871 12.21s-17.346-4.883-21.871-12.21c-3.035-4.915-8.26-8.051-14.037-8.051h-110.051c-3.774 0-6.834 3.06-6.834 6.834v362.696c0 3.774 3.06 6.834 6.834 6.834h291.917c3.774 0 6.834-3.06 6.834-6.834v-362.696c.001-3.774-3.059-6.834-6.833-6.834z" fill="#d4f2f6"/><path d="m122.345 37.5h-56.089c-3.774 0-6.834 3.06-6.834 6.834v362.696c0 3.774 3.06 6.834 6.834 6.834h55.446v-369.53c0-2.336.228-4.618.643-6.834z" fill="#a6e7f0"/><path d="m307.157 366.313h-189.884c-6.145 0-11.127-4.982-11.127-11.127v-29.555c0-6.145 4.982-11.127 11.127-11.127h189.884c6.145 0 11.127 4.982 11.127 11.127v29.555c-.001 6.145-4.982 11.127-11.127 11.127z" fill="#9cf8d2"/><path d="m121.702 314.504h-4.429c-6.145 0-11.127 4.981-11.127 11.126v29.555c0 6.145 4.982 11.126 11.127 11.126h4.429z" fill="#6cf5c2"/><path d="m431.331 380.564h49.88v49.88h-49.88z" fill="#efedef"/><path d="m431.331 380.564h16.477v49.88h-16.477z" fill="#e5e1e5"/></g><g><path d="m358.174 0h-291.918c-24.446 0-44.334 19.888-44.334 44.334v421.966c0 24.446 19.888 44.334 44.334 44.334h291.917c24.446 0 44.334-19.888 44.334-44.334v-421.966c.001-24.446-19.888-44.334-44.333-44.334zm29.334 466.3c0 16.175-13.159 29.334-29.334 29.334h-291.918c-16.175 0-29.334-13.159-29.334-29.334v-421.966c0-16.175 13.159-29.334 29.334-29.334h291.917c16.175 0 29.334 13.159 29.334 29.334v421.966z"/><path d="m358.174 30h-39.89c-4.142 0-7.5 3.357-7.5 7.5s3.358 7.5 7.5 7.5h39.224v361.364h-290.586v-361.364h109.385c3.057 0 5.918 1.68 7.656 4.491 6.098 9.875 16.659 15.771 28.252 15.771s22.155-5.896 28.252-15.77c1.738-2.813 4.6-4.492 7.656-4.492h38.198c4.142 0 7.5-3.357 7.5-7.5s-3.358-7.5-7.5-7.5h-38.198c-8.294 0-15.927 4.34-20.418 11.61-3.345 5.417-9.136 8.651-15.49 8.651s-12.144-3.234-15.49-8.652c-4.491-7.269-12.124-11.609-20.418-11.609h-110.051c-7.904 0-14.334 6.43-14.334 14.334v362.696c0 7.903 6.43 14.334 14.334 14.334h291.917c7.904 0 14.334-6.431 14.334-14.334v-362.696c.001-7.904-6.43-14.334-14.333-14.334z"/><path d="m212.215 445.958c-5.523 0-10 4.477-10 10s4.477 10 10 10 10-4.477 10-10-4.477-10-10-10z"/><path d="m117.273 373.813h189.884c10.271 0 18.626-8.356 18.626-18.627v-29.555c0-10.271-8.356-18.627-18.626-18.627h-120.091c-4.142 0-7.5 3.357-7.5 7.5s3.358 7.5 7.5 7.5h120.091c2 0 3.626 1.627 3.626 3.627v29.555c0 2-1.627 3.627-3.626 3.627h-189.884c-2 0-3.626-1.627-3.626-3.627v-29.555c0-2 1.627-3.627 3.626-3.627h37.831c4.142 0 7.5-3.357 7.5-7.5s-3.358-7.5-7.5-7.5h-37.831c-10.271 0-18.626 8.356-18.626 18.627v29.555c-.001 10.27 8.355 18.627 18.626 18.627z"/><path d="m318.283 263.255h-212.137c-4.142 0-7.5 3.357-7.5 7.5s3.358 7.5 7.5 7.5h212.137c4.142 0 7.5-3.357 7.5-7.5s-3.357-7.5-7.5-7.5z"/><path d="m318.283 218.182h-138.47c-4.142 0-7.5 3.357-7.5 7.5s3.358 7.5 7.5 7.5h138.47c4.142 0 7.5-3.357 7.5-7.5s-3.357-7.5-7.5-7.5z"/><path d="m106.146 218.182c-4.142 0-7.5 3.357-7.5 7.5s3.358 7.5 7.5 7.5h37.945c4.142 0 7.5-3.357 7.5-7.5s-3.358-7.5-7.5-7.5z"/><path d="m318.283 173.109h-106.068c-4.142 0-7.5 3.357-7.5 7.5s3.358 7.5 7.5 7.5h106.069c4.142 0 7.5-3.357 7.5-7.5s-3.358-7.5-7.501-7.5z"/><path d="m318.283 128.037h-106.068c-4.142 0-7.5 3.357-7.5 7.5s3.358 7.5 7.5 7.5h106.069c4.142 0 7.5-3.357 7.5-7.5s-3.358-7.5-7.501-7.5z"/><path d="m318.283 82.964h-106.068c-4.142 0-7.5 3.357-7.5 7.5s3.358 7.5 7.5 7.5h106.069c4.142 0 7.5-3.357 7.5-7.5s-3.358-7.5-7.501-7.5z"/><path d="m167.984 169.487c1.051 3.137 3.975 5.119 7.11 5.119.79 0 1.593-.126 2.384-.391 3.928-1.315 6.044-5.566 4.729-9.494l-10.592-31.612c-.003-.01-.007-.021-.01-.031l-10.764-32.124c-2.939-8.771-11.129-14.665-20.38-14.665s-17.441 5.894-20.38 14.665l-10.764 32.124c-.003.01-.007.021-.01.031l-10.592 31.612c-1.316 3.928.801 8.179 4.729 9.494 3.928 1.314 8.179-.802 9.494-4.729l8.932-26.656h37.183zm-41.09-41.656 7.409-22.11c.888-2.65 3.362-4.431 6.157-4.431s5.269 1.78 6.157 4.431l7.409 22.11z"/><path d="m486.796 58.621-22.062-44.393c-1.607-3.234-4.849-5.243-8.461-5.244h-.001c-3.611 0-6.854 2.009-8.462 5.244l-22.062 44.393c-1.253 2.521-1.916 5.343-1.916 8.16v220.139c0 4.143 3.358 7.5 7.5 7.5s7.5-3.357 7.5-7.5v-220.139c0-.513.12-1.026.348-1.484l2.488-5.007h29.207l2.488 5.007c.228.459.348.972.348 1.484v306.283h-34.88v-54.183c0-4.143-3.358-7.5-7.5-7.5s-7.5 3.357-7.5 7.5v61.683 49.88 31.38c0 17.888 14.552 32.44 32.44 32.44s32.44-14.553 32.44-32.44v-31.38-49.88-313.783c.001-2.816-.662-5.638-1.915-8.16zm-37.674-13.331 7.149-14.385 7.149 14.385zm24.59 342.774v34.88h-34.88v-34.88zm-17.441 91.201c-9.616 0-17.44-7.824-17.44-17.44v-23.88h34.88v23.88c.001 9.615-7.823 17.44-17.44 17.44z"/></g></g></svg>