<svg id="Capa_1" enable-background="new 0 0 512 512" height="512" viewBox="0 0 512 512" width="512" xmlns="http://www.w3.org/2000/svg"><g><g><path d="m485.885 393.179h-459.77c-10.005 0-18.115-8.11-18.115-18.114 0-10.004 8.11-18.115 18.115-18.115h459.771c10.004 0 18.115 8.11 18.115 18.115-.001 10.004-8.111 18.114-18.116 18.114z" fill="#e7ecf1"/><path d="m485.885 375.179h-459.77c-6.725 0-12.581-3.673-15.706-9.115-1.524 2.653-2.408 5.72-2.408 9 0 10.004 8.11 18.115 18.115 18.115h459.771c10.004 0 18.115-8.11 18.115-18.115 0-3.28-.884-6.347-2.408-9-3.127 5.442-8.983 9.115-15.709 9.115z" fill="#c6d0da"/><path d="m480.421 356.95h-448.842l46.831-129.201c4.303-11.871 15.578-19.777 28.204-19.777h298.77c12.626 0 23.902 7.906 28.204 19.777z" fill="#dc4955"/><path d="m38.104 338.95-6.525 18h448.842l-6.525-18z" fill="#d82f3c"/><g><path d="m390.82 207.972c-4.595-27.977-28.876-49.326-58.154-49.326-6.965 0-13.643 1.216-19.845 3.434-6.871-24.937-29.699-43.259-56.821-43.259s-49.949 18.322-56.821 43.259c-6.202-2.218-12.881-3.434-19.845-3.434-29.278 0-53.559 21.349-58.154 49.326z" fill="#f6e080"/></g><path d="m127.271 189.972c-2.942 5.536-5.038 11.591-6.091 18h269.64c-1.053-6.409-3.149-12.464-6.091-18z" fill="#eccd61"/><path d="m256 259.016c-4.99-15.925-36.649-18.507-40.225 7.635-4.068 29.735 40.225 51.27 40.225 51.27s44.293-21.535 40.225-51.27c-3.576-26.142-35.235-23.56-40.225-7.635z" fill="#fcf5f5"/><path d="m295.058 261.565c-5.991 19.058-29.148 33.003-36.678 37.11-1.483.809-3.277.809-4.76 0-7.53-4.108-30.687-18.052-36.677-37.11-.511 1.562-.916 3.246-1.168 5.087-4.068 29.735 40.225 51.27 40.225 51.27s44.293-21.535 40.225-51.27c-.251-1.842-.656-3.526-1.167-5.087z" fill="#ebe1dc"/></g><g><path d="m486.335 349.633h-.206l-45.127-124.5c-5.37-14.816-19.566-24.77-35.325-24.77h-8.528c-7.644-28.99-33.748-49.423-64.333-49.423-5.109 0-10.159.578-15.089 1.725-10.049-24.847-34.44-41.627-61.727-41.627s-51.678 16.78-61.727 41.627c-4.93-1.147-9.98-1.725-15.089-1.725-30.585 0-56.689 20.433-64.333 49.423h-8.528c-15.759 0-29.954 9.954-35.325 24.77l-45.128 124.5h-.206c-14.151 0-25.664 11.512-25.664 25.664s11.513 25.665 25.664 25.665h80.223c4.15 0 7.515-3.364 7.515-7.515s-3.365-7.515-7.515-7.515h-80.223c-5.864 0-10.635-4.771-10.635-10.636 0-5.864 4.771-10.635 10.635-10.635h336.91c4.15 0 7.515-3.364 7.515-7.515s-3.364-7.515-7.515-7.515h-320.717l43.271-119.379c3.222-8.889 11.739-14.862 21.195-14.862h65.326c4.15 0 7.515-3.364 7.515-7.515s-3.365-7.515-7.515-7.515h-41.092c7.108-20.371 26.328-34.393 48.627-34.393 5.943 0 11.782 1.01 17.355 3.002 3.968 1.514 8.735-.961 9.774-5.08 6.137-22.27 26.569-37.824 49.687-37.824s43.55 15.554 49.687 37.824c1.039 4.12 5.806 6.593 9.774 5.08 5.573-1.992 11.412-3.002 17.355-3.002 22.298 0 41.518 14.023 48.627 34.393h-179.735c-4.15 0-7.515 3.364-7.515 7.515s3.364 7.515 7.515 7.515h203.969c9.456 0 17.973 5.973 21.195 14.862l43.271 119.379h-77.51c-4.15 0-7.515 3.364-7.515 7.515s3.365 7.515 7.515 7.515h93.702c5.865 0 10.636 4.771 10.636 10.635 0 5.865-4.771 10.636-10.636 10.636h-350.389c-4.15 0-7.515 3.364-7.515 7.515s3.365 7.515 7.515 7.515h350.389c14.152 0 25.665-11.514 25.665-25.665 0-14.152-11.513-25.664-25.665-25.664z"/><path d="m277.629 239.576c-8.256-.694-16.072 1.865-21.629 6.581-5.556-4.715-13.375-7.273-21.629-6.58-11.03.927-23.684 8.264-26.12 26.076-4.759 34.79 42.452 58.168 44.464 59.147 2.074 1.008 4.497 1.008 6.571 0 2.012-.978 49.223-24.357 44.464-59.147-2.437-17.812-15.091-25.15-26.121-26.077zm-21.629 69.982c-12.401-6.902-35.344-23.706-32.86-41.868 1.456-10.64 8.45-12.797 12.489-13.137 5.643-.574 11.951 2.393 13.199 6.715 2.158 6.964 12.186 6.961 14.341 0 1.34-4.275 7.132-7.233 13.199-6.715 4.04.34 11.034 2.497 12.49 13.137 2.486 18.165-20.463 34.971-32.858 41.868z"/></g></g></svg>