<svg id="Capa_1" enable-background="new 0 0 512 512" height="512" viewBox="0 0 512 512" width="512" xmlns="http://www.w3.org/2000/svg"><g><g><path d="m379.697 223.994s37.533 18.618 23.585 92.605c0 0-63.769-20.302-55.927-79.673z" fill="#cf8151"/><path d="m132.303 223.994s-37.533 18.618-23.585 92.605c0 0 63.769-20.302 55.927-79.673z" fill="#cf8151"/><path d="m355.855 233.527-8.5 3.399c-7.841 59.372 55.927 79.673 55.927 79.673 1.388-7.36 2.258-14.163 2.715-20.463-14.167-6.201-47.569-24.757-50.142-62.609z" fill="#bd6e45"/><path d="m164.646 236.926-8.5-3.399c-2.573 37.852-35.975 56.408-50.142 62.609.456 6.3 1.327 13.103 2.715 20.463-.001.001 63.768-20.301 55.927-79.673z" fill="#bd6e45"/><path d="m407.012 504h-302.024v-80.421c0-64.319 52.141-116.459 116.459-116.459h69.106c64.319 0 116.459 52.141 116.459 116.459z" fill="#b3e59f"/><path d="m104.988 486h302.025v18h-302.025z" fill="#95d6a4"/><path d="m380.841 189.92c28.882-141.949-54.771-181.92-124.844-181.92s-153.726 39.971-124.844 181.92z" fill="#cf8151"/><path d="m256 88.614c32.911 58.443 94.521 86.127 94.521 86.127v37.858c0 52.202-42.319 94.521-94.521 94.521-52.202 0-94.521-42.318-94.521-94.521v-37.858s61.61-27.684 94.521-86.127z" fill="#f0c69e"/><path d="m256 289.12c-52.202 0-94.521-42.318-94.521-94.521v18c0 52.202 42.318 94.521 94.521 94.521 52.202 0 94.521-42.318 94.521-94.521v-18c0 52.203-42.319 94.521-94.521 94.521z" fill="#e6ba94"/><path d="m161.479 212.599v-37.882c-1.071-.11-2.159-.167-3.259-.167-17.407 0-31.517 14.11-31.517 31.517 0 17.406 14.11 31.517 31.517 31.517 2.202 0 4.351-.227 6.425-.658-2.061-7.763-3.166-15.915-3.166-24.327z" fill="#e2ae84"/><path d="m353.78 174.55c-1.1 0-2.188.057-3.259.167v37.882c0 8.411-1.105 16.564-3.167 24.327 2.075.43 4.224.658 6.426.658 17.406 0 31.517-14.111 31.517-31.517 0-17.407-14.111-31.517-31.517-31.517z" fill="#e2ae84"/><path d="m158.22 219.584c-14.278 0-26.332-9.497-30.206-22.517-.849 2.853-1.311 5.872-1.311 9 0 17.406 14.11 31.517 31.517 31.517 2.202 0 4.351-.227 6.425-.658-1.502-5.656-2.49-11.522-2.919-17.542-1.151.128-2.32.2-3.506.2z" fill="#d7a379"/><path d="m353.78 219.584c-1.186 0-2.355-.071-3.507-.199-.429 6.02-1.416 11.885-2.918 17.542 2.075.43 4.224.658 6.426.658 17.406 0 31.517-14.111 31.517-31.517 0-3.128-.462-6.147-1.311-9-3.875 13.018-15.929 22.516-30.207 22.516z" fill="#d7a379"/><path d="m294.776 307.12s1.778 46.262-38.779 46.262-38.779-46.262-38.779-46.262z" fill="#e2ae84"/></g><g><path d="m307.397 300.842c14.111-8.243 26.081-19.767 34.852-33.521 4.15 14.164 12.732 26.861 25.539 37.558 15.94 13.314 32.793 18.773 33.502 19 4.136 1.426 8.955-1.444 9.664-5.768 11.364-60.28-9.82-86.873-21.196-96.435 4.645-10.066 4.313-23.299-.785-33.087 12.014-61.482 4.376-109.481-22.744-142.675-32.638-39.949-83.074-45.914-110.233-45.914-22.545 0-44.292 4.012-62.89 11.603-22.256 9.084-39.995 23.035-52.724 41.468-2.359 3.415-1.502 8.095 1.913 10.454 3.414 2.359 8.094 1.502 10.454-1.913 12.014-17.397 41.403-46.582 103.247-46.582 57.071 0 86.271 25.308 98.595 40.394 22.461 27.492 29.738 67.312 21.716 118.489-6.766-4.765-15.398-7.446-24.199-6.989-9.915-4.887-61.218-31.993-89.561-82.325-2.69-5.047-10.407-5.045-13.096 0-28.348 50.339-79.661 77.445-89.562 82.324-8.804-.456-17.435 2.226-24.203 6.993-5.328-34.114-3.839-63.413 4.466-87.243 1.366-3.919-.704-8.203-4.623-9.569-3.919-1.365-8.203.704-9.569 4.623-10.133 29.073-11.102 65.023-2.934 106.857-5.1 9.788-5.433 23.025-.786 33.092-11.376 9.563-32.56 36.155-21.196 96.435.71 4.325 5.528 7.194 9.664 5.768.709-.226 17.562-5.686 33.502-19 12.807-10.697 21.389-23.394 25.539-37.558 8.771 13.754 20.739 25.276 34.849 33.519-30.013 4.081-57.666 19.021-77.64 42.373-2.698 3.154-2.328 7.897.826 10.595s7.897 2.329 10.595-.826c18.314-21.41 43.967-34.771 71.658-37.654.969 8.862 4.093 22.911 13.968 33.173 8.037 8.352 18.8 12.586 31.991 12.586s23.954-4.235 31.992-12.586c9.877-10.265 13.001-24.32 13.968-33.181 54.892 5.689 97.837 52.216 97.837 108.586v14.426c0 4.15 3.364 7.515 7.515 7.515s7.515-3.365 7.515-7.515v-14.426c0-62.795-46.847-114.847-107.426-123.064zm90.292 5.332c-5.588-2.649-13.284-6.932-20.612-13.122-15.581-13.159-23.18-29.282-22.665-48.001 10.378-.116 19.794-4.294 26.736-11.019 7.984 7.168 22.821 26.971 16.541 72.142zm-19.654-100.205c0 12.333-9.326 22.522-21.296 23.9.969-5.643 1.48-11.439 1.48-17.354v-30.226c11.25 2.012 19.816 11.861 19.816 23.68zm-224.256-23.681v30.226c0 5.915.511 11.712 1.48 17.354-11.969-1.378-21.295-11.568-21.295-23.9 0-11.818 8.567-21.666 19.815-23.68zm-18.855 110.765c-7.33 6.191-15.026 10.473-20.613 13.121-6.28-45.168 8.556-64.974 16.541-72.142 6.942 6.725 16.357 10.903 26.736 11.019.515 18.72-7.083 34.842-22.664 48.002zm33.884-80.539v-33.227c14.05-7.132 57.787-31.873 87.191-76.577 29.404 44.703 73.141 69.445 87.191 76.577v33.227c0 48.077-39.113 87.191-87.191 87.191s-87.191-39.113-87.191-87.191zm87.188 133.544c-9.045 0-15.951-2.593-21.113-7.928-6.59-6.811-8.946-16.711-9.783-23.396h61.79c-.837 6.689-3.193 16.586-9.782 23.396-5.16 5.335-12.066 7.928-21.112 7.928z"/><path d="m407.308 460.877c-4.151 0-7.515 3.365-7.515 7.515v28.579h-44.746v-58.638c0-4.15-3.364-7.515-7.515-7.515s-7.515 3.365-7.515 7.515v58.638h-168.036v-58.638c0-4.15-3.365-7.515-7.515-7.515s-7.515 3.365-7.515 7.515v58.638h-44.745v-73.064c0-16.549 3.606-32.441 10.718-47.235 1.798-3.741.223-8.23-3.517-10.029-3.74-1.798-8.231-.223-10.029 3.517-8.096 16.842-12.201 34.926-12.201 53.747v80.578c0 4.15 3.364 7.515 7.515 7.515h302.616c4.151 0 7.515-3.364 7.515-7.515v-36.094c0-4.15-3.364-7.514-7.515-7.514z"/><path d="m210.109 175.893c-4.15 0-7.515 3.364-7.515 7.515v21.232c0 4.15 3.365 7.515 7.515 7.515s7.515-3.364 7.515-7.515v-21.232c-.001-4.151-3.365-7.515-7.515-7.515z"/><path d="m301.89 212.154c4.151 0 7.515-3.364 7.515-7.515v-21.232c0-4.15-3.364-7.515-7.515-7.515s-7.515 3.364-7.515 7.515v21.232c0 4.151 3.365 7.515 7.515 7.515z"/><path d="m283.646 245.446c1.579-3.838-.25-8.229-4.088-9.81-3.839-1.58-8.23.25-9.81 4.088-.026.063-2.914 6.341-13.748 6.341s-13.722-6.278-13.748-6.341c-1.58-3.838-5.972-5.667-9.81-4.088-3.838 1.58-5.667 5.972-4.088 9.81 2.393 5.812 10.909 15.649 27.646 15.649s25.252-9.837 27.646-15.649z"/></g></g></svg>