<svg id="Capa_1" enable-background="new 0 0 512 512" height="512" viewBox="0 0 512 512" width="512" xmlns="http://www.w3.org/2000/svg"><g><g><path d="m255.132 68.091h137.598v-25.539c0-5.912-5.224-10.705-11.668-10.705h-114.262c-6.444 0-11.668 4.793-11.668 10.705z" fill="#fcf5f5"/><path d="m427.386 129.432-34.656-61.341h-137.598l-34.656 61.341z" fill="#fcf5f5"/><path d="m255.132 50.091h137.598v18h-137.598z" fill="#ebe1dc"/><path d="m220.476 129.432h206.91v155.148h-206.91z" fill="#9ec8fc"/><ellipse cx="151.965" cy="197.686" fill="#cf8151" rx="68.87" ry="194.366" transform="matrix(.972 -.234 .234 .972 -41.963 40.954)"/><path d="m427.386 193.494-2.065 2.345c-6.609 7.505-18.299 7.526-24.935.045l-14.244-16.06c-6.62-7.464-18.275-7.464-24.895 0l-14.289 16.111c-6.62 7.464-18.275 7.464-24.895 0l-14.289-16.111c-6.62-7.464-18.275-7.464-24.895 0l-14.289 16.111c-6.62 7.464-18.275 7.464-24.895 0l-14.289-16.111c-2.455-2.768-5.603-4.503-8.928-5.219v109.975h206.91v-91.086z" fill="#80b6fc"/><path d="m84.999 213.769c25.068 104.377 75.371 181.791 112.355 172.908 36.984-8.882 46.644-100.697 21.575-205.075-.594-2.474-1.207-4.927-1.829-7.369-4.617-.04-9.247 1.819-12.592 5.59l-14.289 16.111c-6.62 7.464-18.275 7.464-24.895 0l-14.289-16.111c-6.62-7.464-18.275-7.464-24.895 0l-14.289 16.111c-6.62 7.464-18.275 7.464-24.895 0l-7.618-8.589c1.639 8.688 3.52 17.508 5.661 26.424z" fill="#bd6e45"/><path d="m427.238 504h-342.476c-13.555 0-24.544-10.988-24.544-24.544v-279.151c0-5.768 7.132-8.475 10.959-4.16l15.778 17.789c6.62 7.464 18.275 7.464 24.895 0l14.289-16.111c6.62-7.464 18.275-7.464 24.895 0l14.289 16.111c6.62 7.464 18.275 7.464 24.895 0l14.289-16.111c6.62-7.464 18.275-7.464 24.895 0l14.289 16.111c6.62 7.464 18.275 7.464 24.895 0l14.289-16.111c6.62-7.464 18.275-7.464 24.895 0l14.289 16.111c6.62 7.464 18.275 7.464 24.895 0l14.289-16.111c6.62-7.464 18.275-7.464 24.895 0l14.244 16.06c6.636 7.482 18.326 7.461 24.935-.045l15.486-17.587c3.819-4.337 10.974-1.636 10.974 4.143v279.061c.004 13.557-10.984 24.545-24.539 24.545z" fill="#f0c69e"/><path d="m427.238 486h-342.476c-13.555 0-24.544-10.988-24.544-24.544v18c0 13.555 10.989 24.544 24.544 24.544h342.475c13.555 0 24.544-10.988 24.544-24.544v-18c0 13.556-10.988 24.544-24.543 24.544z" fill="#e6ba94"/></g><g><path d="m452.166 284.814c-4.15 0-7.515 3.364-7.515 7.515v187.564c0 9.417-7.661 17.078-17.077 17.078h-343.149c-9.416 0-17.077-7.66-17.077-17.078v-63.655c0-4.151-3.365-7.515-7.515-7.515s-7.515 3.364-7.515 7.515v63.655c0 17.704 14.403 32.107 32.106 32.107h343.149c17.704 0 32.107-14.403 32.107-32.107v-187.564c.001-4.151-3.363-7.515-7.514-7.515z"/><path d="m450.758 187.376c-5.419-2.048-11.397-.56-15.227 3.79l-.293.333v-62.319c0-.291-.021-.577-.053-.859-.125-.994-.429-1.965-.919-2.837l-33.752-59.741v-23.613c0-10.059-8.616-18.242-19.206-18.242h-114.486c-10.59 0-19.206 8.183-19.206 18.242v23.612l-33.752 59.741c-.627 1.124-.964 2.406-.972 3.697v4.193c-11.023-32.829-24.581-62.166-39.544-85.194-23.129-35.595-47.571-52.388-68.822-47.281-14.039 3.372-32.187 17.521-38.914 65.783-.573 4.111 2.295 7.907 6.406 8.48 4.11.582 7.907-2.296 8.48-6.405 4.273-30.661 14.311-50.067 27.538-53.243 14.174-3.403 33.875 11.869 52.709 40.856 20.809 32.024 38.852 77.069 50.806 126.84.15.623.297 1.252.445 1.88-5.069 1.047-9.721 3.7-13.21 7.633l-14.318 16.142c-1.762 1.986-4.195 3.08-6.85 3.08s-5.088-1.094-6.85-3.08l-14.318-16.142c-4.587-5.171-11.182-8.137-18.094-8.137-6.913 0-13.507 2.966-18.094 8.137l-14.318 16.142c-1.762 1.986-4.194 3.08-6.849 3.08-2.656 0-5.088-1.094-6.85-3.08l-1.338-1.508c-8.963-38.767-13.332-76.587-12.62-109.486.09-4.149-3.201-7.585-7.35-7.675-.055-.001-.11-.002-.165-.002-4.075 0-7.421 3.258-7.51 7.352-.594 27.454 2.209 58.131 8.134 89.884-3.17-1.32-6.784-1.42-10.175-.133-5.407 2.053-8.901 7.115-8.901 12.899v185.985c0 4.151 3.365 7.515 7.515 7.515s7.515-3.364 7.515-7.515v-182.737l13.653 15.393c4.587 5.171 11.182 8.137 18.095 8.137 6.912 0 13.507-2.966 18.093-8.137l14.318-16.142c1.762-1.986 4.195-3.08 6.85-3.08s5.088 1.094 6.85 3.08l14.318 16.142c4.587 5.171 11.182 8.137 18.094 8.137 6.913 0 13.508-2.966 18.094-8.137l14.318-16.142c1.762-1.986 4.195-3.08 6.85-3.08s5.088 1.094 6.85 3.08l14.317 16.142c4.587 5.171 11.182 8.137 18.094 8.137 6.913 0 13.508-2.966 18.094-8.137l14.317-16.142c1.762-1.986 4.195-3.08 6.85-3.08 2.656 0 5.088 1.094 6.85 3.08l14.317 16.142c4.587 5.171 11.182 8.137 18.094 8.137 6.913 0 13.508-2.966 18.094-8.137l14.318-16.142c1.762-1.986 4.195-3.08 6.85-3.08s5.088 1.094 6.85 3.08l14.273 16.091c4.588 5.173 11.181 8.137 18.094 8.137h.043c6.929-.013 13.529-3.002 18.108-8.203l13.357-15.168v58.719c0 4.151 3.365 7.515 7.515 7.515s7.515-3.364 7.515-7.515v-61.987c-.002-5.794-3.504-10.861-8.925-12.907zm-188.113-145.246c0-1.742 1.912-3.212 4.176-3.212h114.486c2.264 0 4.177 1.471 4.177 3.212v18.074h-122.839zm-3.129 33.103h129.097l26.233 46.432h-181.563zm153.643 136.659c-.006 0-.012 0-.018 0-2.655 0-5.087-1.093-6.849-3.08l-14.273-16.091c-4.587-5.171-11.182-8.137-18.094-8.137s-13.507 2.966-18.094 8.137l-14.318 16.142c-1.762 1.986-4.195 3.08-6.85 3.08s-5.088-1.094-6.85-3.08l-14.317-16.142c-4.587-5.171-11.182-8.137-18.094-8.137s-13.507 2.966-18.094 8.137l-14.317 16.142c-1.762 1.986-4.195 3.08-6.85 3.08-2.656 0-5.088-1.094-6.85-3.08l-14.317-16.142c-2.012-2.268-4.411-4.112-7.053-5.467v-50.559h192.288v71.872l-.194.221c-1.76 1.997-4.194 3.099-6.856 3.104z"/><path d="m139.36 70.413-34.299 8.238c-4.036.97-6.521 5.026-5.552 9.063.827 3.445 3.906 5.761 7.3 5.761.581 0 1.172-.068 1.761-.209l34.299-8.238c4.036-.97 6.521-5.027 5.552-9.063-.968-4.035-5.03-6.518-9.061-5.552z"/><path d="m154.587 108.73-45.69 10.974c-4.036.97-6.521 5.026-5.552 9.063.827 3.445 3.906 5.761 7.3 5.761.581 0 1.172-.068 1.761-.209l45.69-10.974c4.036-.97 6.521-5.026 5.552-9.063-.969-4.036-5.03-6.518-9.061-5.552z"/><path d="m112.876 168.45c.827 3.446 3.906 5.762 7.3 5.762.581 0 1.172-.068 1.761-.209l45.69-10.973c4.035-.97 6.521-5.026 5.552-9.062s-5.031-6.519-9.062-5.553l-45.69 10.973c-4.035.97-6.52 5.026-5.551 9.062z"/></g></g></svg>