<svg id="Capa_1" enable-background="new 0 0 511.26 511.26" height="512" viewBox="0 0 511.26 511.26" width="512" xmlns="http://www.w3.org/2000/svg"><g><g><path d="m195.656 410.494h119.948v74.654h-119.948z" fill="#d7d0d6"/><path d="m195.656 410.494h44.561v74.654h-44.561z" fill="#c9bfc8"/><path d="m456.03 54.312h-12.83-364.573v17.646h-56.933v305.162l72.942 28.61h381.85l27.273-34.178v-269.51c.001-26.36-21.369-47.73-47.729-47.73z" fill="#a6e7f0"/><path d="m84.085 102.042c0-26.36 21.37-47.73 47.73-47.73h-63.755-12.83c-26.36 0-47.73 21.37-47.73 47.73v269.51l87.136 34.178h76.585l-87.136-34.178z" fill="#6bd9e7"/><path d="m443.197 84.313h12.833c9.776 0 17.729 7.953 17.729 17.729v221.779c0 9.776-7.953 17.729-17.729 17.729h-400.801c-9.776 0-17.729-7.953-17.729-17.729v-221.779c0-9.776 7.953-17.729 17.729-17.729h12.833z" fill="#9cf8d2"/><path d="m87.501 84.313h-19.438-12.834c-9.776 0-17.729 7.953-17.729 17.729v221.779c0 9.776 7.953 17.729 17.729 17.729h28.856v-239.508c0-6.267 1.22-12.246 3.416-17.729z" fill="#6cf5c2"/><g id="XMLID_1118_"><g><path d="m503.76 371.552v18.56c0 22.3-18.08 40.38-40.38 40.38h-415.5c-22.3 0-40.38-18.08-40.38-40.38v-18.56z" fill="#e5e1e5"/></g></g><path d="m84.085 390.112v-18.56h-76.585v18.56c0 22.3 18.08 40.38 40.38 40.38h76.585c-22.3 0-40.38-18.08-40.38-40.38z" fill="#d7d0d6"/><path d="m341.621 503.731h-171.982v-16.738c0-9.304 7.542-16.846 16.846-16.846h138.29c9.304 0 16.846 7.542 16.846 16.846z" fill="#e5e1e5"/><path d="m207.56 260.392v53.89l17.188 11.564h64.924l14.028-11.564v-53.89z" fill="#fee45a"/><path d="m240.217 272.387h30.827v41.898h-30.827z" fill="#ee6161"/><g id="XMLID_1119_"><g><path d="m416.62 211.342v51.31c0 7.04-5.7 12.74-12.73 12.74h-296.52c-7.03 0-12.73-5.7-12.73-12.74v-51.31c0-51.63 24.32-97.56 62.12-127.01 0 0 9.91-7.78 16.06-11.05 1.57-.94 5.43-2.74 5.43-2.74 19.45-9.34 41.23-14.58 64.21-14.58h26.34c22.98 0 44.76 5.24 64.21 14.58 0 0 3.88 1.81 5.45 2.76 7.53 4 19.49 13.8 19.49 13.8 35.82 29.52 58.67 74.2 58.67 124.24zm-45 17.414v-23.974c0-56.786-46.034-102.82-102.82-102.82h-26.34c-56.786 0-102.82 46.034-102.82 102.82v23.974c0 .904.733 1.636 1.636 1.636h228.707c.904 0 1.637-.732 1.637-1.636z" fill="#f9f7f8"/></g></g><g id="XMLID_1120_"><path d="m303.7 314.282v6.01c0 11.76-10.94 21.29-24.43 21.29h-47.28c-13.49 0-24.43-9.53-24.43-21.29v-6.01z" fill="#fccd7f"/></g><path d="m182.56 121.208c16.868-12.111 37.55-19.247 59.9-19.247h26.34c22.35 0 43.032 7.135 59.9 19.247v-52.643c-18.337-8.095-38.602-12.604-59.9-12.604h-26.34c-21.299 0-41.563 4.508-59.9 12.604z" fill="#e5e1e5"/><path d="m257.256 9.23c-.887-.926-2.366-.926-3.252 0l-45.218 47.221c-.787.822-1.226 1.916-1.226 3.054v7.747l23.04 22.408h59.684l13.416-22.408v-7.747c0-1.138-.439-2.232-1.226-3.054z" fill="#fdd79b"/><path d="m271.043 67.252v5.014h-30.826v-5.014h-32.657v163.14h32.657v-2.568h30.826v2.568h32.657v-163.14z" fill="#fee45a"/><path d="m240.217 67.255h30.827v163.132h-30.827z" fill="#ee6161"/></g><g><path d="m456.03 46.813h-91.81c-4.143 0-7.5 3.357-7.5 7.5s3.357 7.5 7.5 7.5h91.811c22.183 0 40.229 18.047 40.229 40.229v262.008h-93.654c-4.143 0-7.5 3.357-7.5 7.5s3.357 7.5 7.5 7.5h93.654v11.063c0 18.13-14.75 32.88-32.88 32.88h-147.776-119.948-147.776c-18.13 0-32.88-14.75-32.88-32.88v-11.063h355.643c4.143 0 7.5-3.357 7.5-7.5s-3.357-7.5-7.5-7.5h-355.643v-262.008c0-22.182 18.047-40.229 40.229-40.229h91.811c4.143 0 7.5-3.357 7.5-7.5s-3.357-7.5-7.5-7.5h-91.811c-30.453 0-55.229 24.775-55.229 55.229v288.072c0 26.401 21.479 47.88 47.88 47.88h140.276v24.654h-1.672c-13.424 0-24.346 10.921-24.346 24.345v9.238h-13.438c-4.143 0-7.5 3.357-7.5 7.5s3.357 7.5 7.5 7.5h20.938 171.982 21.163c4.143 0 7.5-3.357 7.5-7.5s-3.357-7.5-7.5-7.5h-13.663v-9.238c0-13.424-10.922-24.345-24.346-24.345h-1.672v-24.654h140.278c26.401 0 47.88-21.479 47.88-47.88v-288.072c0-30.454-24.777-55.229-55.23-55.229zm-121.909 440.18v9.238h-156.982v-9.238c0-5.152 4.192-9.345 9.346-9.345h9.172 119.947 9.172c5.153 0 9.345 4.192 9.345 9.345zm-26.017-24.345h-104.948v-24.654h104.947v24.654z"/><path d="m245.743 400.264c0 5.523 4.477 10 10 10s10-4.477 10-10c0-5.522-4.477-10-10-10s-10 4.478-10 10z"/><path d="m87.136 211.341v51.315c0 11.155 9.075 20.23 20.23 20.23h92.694v37.407c0 4.979 1.411 9.667 3.89 13.756h-148.721c-5.641 0-10.229-4.589-10.229-10.229v-221.778c0-5.64 4.589-10.229 10.229-10.229h57.906c4.143 0 7.5-3.357 7.5-7.5s-3.357-7.5-7.5-7.5h-57.906c-13.911 0-25.229 11.317-25.229 25.229v221.779c0 13.911 11.318 25.229 25.229 25.229h400.801c13.911 0 25.229-11.318 25.229-25.229v-221.779c0-13.911-11.318-25.229-25.229-25.229h-57.906c-4.143 0-7.5 3.357-7.5 7.5s3.357 7.5 7.5 7.5h57.906c5.641 0 10.229 4.589 10.229 10.229v221.779c0 5.641-4.589 10.229-10.229 10.229h-148.72c2.479-4.089 3.89-8.776 3.89-13.756v-37.407h92.694c11.155 0 20.23-9.075 20.23-20.23v-51.315c0-61.147-33.253-117.609-86.782-147.354-3.621-2.015-8.188-.708-10.198 2.913-2.012 3.62-.708 8.187 2.913 10.198 48.771 27.101 79.067 78.539 79.067 134.242v51.315c0 2.884-2.347 5.23-5.23 5.23h-21.295v-8.201c0-4.143-3.357-7.5-7.5-7.5s-7.5 3.357-7.5 7.5v8.201h-24.822v-8.201c0-4.143-3.357-7.5-7.5-7.5s-7.5 3.357-7.5 7.5v8.201h-24.077-.746v-8.201c0-4.143-3.357-7.5-7.5-7.5s-7.5 3.357-7.5 7.5v8.201h-16.91-7.913v-8.201c0-4.143-3.357-7.5-7.5-7.5s-7.5 3.357-7.5 7.5v8.201h-7.913-16.91v-8.201c0-4.143-3.357-7.5-7.5-7.5s-7.5 3.357-7.5 7.5v8.201h-.746-24.077v-8.201c0-4.143-3.357-7.5-7.5-7.5s-7.5 3.357-7.5 7.5v8.201h-24.822v-8.201c0-4.143-3.357-7.5-7.5-7.5s-7.5 3.357-7.5 7.5v8.201h-21.295c-2.884 0-5.23-2.347-5.23-5.23v-51.315c0-55.703 30.297-107.142 79.067-134.242 3.621-2.012 4.925-6.578 2.913-10.198-2.012-3.622-6.578-4.926-10.198-2.913-53.531 29.744-86.784 86.206-86.784 147.353zm145.581 71.546v23.897h-17.656v-23.897zm-1.411 51.163c-8.404-.276-15.251-5.547-16.143-12.266h25.053 30.826 25.053c-.892 6.718-7.738 11.989-16.143 12.266zm64.893-27.265h-17.656v-23.897h17.656zm-32.656-23.898v23.897h-15.826v-23.897z"/><path d="m207.561 201.944c-4.143 0-7.5 3.357-7.5 7.5v13.443h-52.925v-11.546c0-30.383 12.932-59.598 35.478-80.155 3.062-2.791 3.28-7.534.489-10.595-2.79-3.061-7.534-3.281-10.595-.489-25.657 23.393-40.372 56.647-40.372 91.239v19.046c0 4.143 3.357 7.5 7.5 7.5h231.988c4.143 0 7.5-3.357 7.5-7.5v-19.046c0-34.592-14.715-67.847-40.372-91.239-3.06-2.792-7.804-2.572-10.595.489s-2.572 7.804.489 10.595c22.546 20.558 35.478 49.772 35.478 80.155v11.546h-52.925v-165.152c0-1.933-.746-3.791-2.083-5.187l-48.069-50.206c-1.414-1.478-3.371-2.313-5.417-2.313s-4.003.836-5.417 2.313l-48.069 50.206c-1.337 1.396-2.083 3.254-2.083 5.187v119.746c0 4.143 3.357 7.5 7.5 7.5s7.5-3.357 7.5-7.5v-102.727h17.656v148.133h-17.656v-13.443c0-4.143-3.358-7.5-7.5-7.5zm48.069-183.57 39.619 41.381h-79.239zm-7.913 56.38h15.826v32.823c0 4.143 3.357 7.5 7.5 7.5s7.5-3.357 7.5-7.5v-32.823h17.656v148.133h-17.656v-83.347c0-4.143-3.357-7.5-7.5-7.5s-7.5 3.357-7.5 7.5v83.347h-15.826z"/></g></g></svg>