<svg id="Capa_1" enable-background="new 0 0 512 512" height="512" viewBox="0 0 512 512" width="512" xmlns="http://www.w3.org/2000/svg"><g><g><path d="m464.902 109.372c-21.176-14.423-54.108-19.185-86.772-19.559-.509 11.889-1.393 26.114-2.887 42.283 21.564-.62 42.091 1.986 55.479 11.105 58.388 39.767 19.744 173.71-102.458 209.124-5.584 16.263-11.785 32.772-18.662 49.415 188.62-34.757 239.082-235.305 155.3-292.368z" fill="#f6e080"/><path d="m464.902 109.372c-21.176-14.423-54.108-19.185-86.772-19.559-.01.223-.022.461-.031.686 26.407 1.768 51.521 7.102 68.804 18.873 80.772 55.013 36.767 243.379-135.511 287.987-.594 1.46-1.186 2.919-1.79 4.381 188.62-34.757 239.082-235.305 155.3-292.368z" fill="#eccd61"/><path d="m262.381 462.498c11.867 0 22.718-6.774 27.872-17.463 96.692-200.519 88.34-395.533 88.34-395.533h-370.412s-8.351 195.015 88.34 395.533c5.154 10.689 16.005 17.463 27.872 17.463z" fill="#f6e080"/><path d="m378.594 49.502h-18s8.352 195.015-88.34 395.534c-5.155 10.689-16.005 17.463-27.872 17.463h18c11.867 0 22.718-6.774 27.872-17.463 96.691-200.52 88.34-395.534 88.34-395.534z" fill="#eccd61"/><path d="m221.685 158.736c-5.27-16.817-38.702-19.544-42.479 8.063-4.296 31.401 42.479 54.142 42.479 54.142s46.774-22.741 42.479-54.142c-3.777-27.607-37.209-24.88-42.479-8.063z" fill="#dc4955"/><path d="m263.095 161.897c-6.089 20.521-31.164 35.525-39.035 39.803-1.481.805-3.27.805-4.751 0-7.871-4.278-32.946-19.283-39.035-39.803-.465 1.515-.828 3.146-1.069 4.902-4.296 31.401 42.479 54.142 42.479 54.142s46.774-22.741 42.479-54.142c-.239-1.756-.602-3.387-1.068-4.902z" fill="#d82f3c"/></g><g><g><path d="m59.562 333.077c-42.63-132.8-44.757-247.254-44.522-276.476h239.988c4.151 0 7.515-3.364 7.515-7.515s-3.364-7.515-7.515-7.515h-247.36c-4.026 0-7.336 3.171-7.508 7.193-.056 1.31-5.028 132.776 45.091 288.906 3.402 9.401 17.029 4.938 14.311-4.593z"/><path d="m511.461 181.846c-2.943-34.523-17.832-62.573-41.923-78.981-18.412-12.54-46.431-19.502-83.357-20.728.67-20.465.195-32.39.153-33.373-.172-4.022-3.483-7.193-7.508-7.193h-93.739c-4.151 0-7.515 3.364-7.515 7.515s3.364 7.515 7.515 7.515h86.376c.148 16.128-.392 58.22-8.062 114.677-9.082 66.852-30.31 168.113-79.862 270.873-3.881 8.048-12.187 13.248-21.16 13.248h-138.264c-8.973 0-17.278-5.2-21.159-13.248-11.992-24.869-22.982-51.004-32.665-77.678-1.416-3.902-5.727-5.914-9.628-4.5-3.901 1.416-5.916 5.726-4.5 9.628 9.854 27.149 21.043 53.755 33.254 79.08 6.371 13.212 19.991 21.75 34.698 21.75h138.265c14.706 0 28.326-8.538 34.699-21.75 6.46-13.397 12.44-26.766 17.988-40.04 33.415-6.63 64.049-18.644 91.094-35.771 25.595-16.208 47.435-36.572 64.915-60.525 2.446-3.353 1.711-8.054-1.641-10.501-3.353-2.445-8.054-1.713-10.501 1.641-16.361 22.421-36.822 41.493-60.815 56.686-22.827 14.456-48.417 25.056-76.222 31.615 4.386-11.156 8.464-22.217 12.264-33.149 78.097-24.159 121.366-86.833 129.662-138.929 5.714-35.877-4.954-66.884-28.534-82.944-11.79-8.032-29.13-12.214-51.6-12.491.828-9.889 1.425-18.962 1.851-27.12 34.079 1.102 59.47 7.194 75.536 18.136 42.252 28.777 47.984 99.12 13.332 163.626-4.401 8.896 8.203 15.731 13.242 7.112 18.196-33.871 26.652-70.87 23.811-104.181zm-84.633-32.661c18.923 12.888 26.998 37.731 22.152 68.158-7.184 45.117-43.467 99.024-108.793 123.362 20.958-64.607 32.174-123.598 38.16-167.792 1.612-11.902 2.913-23.137 3.962-33.627 20.024.092 34.986 3.406 44.519 9.899z"/><g><path d="m202.793 258.742c-2.906-7.779-14.192-7.789-17.112-.018l-27.626 72.535c-3.597 9.045 10.689 14.481 14.018 5.338l5.041-13.234h34.033l4.986 13.214c3.863 9.198 17.221 4.068 14.034-5.297zm-19.966 49.621 11.382-29.884 11.277 29.884z"/><path d="m119.807 253.946h-20.22c-4.056-.081-7.62 3.518-7.5 7.573v70.161c-.201 4.413 3.003 8.785 7.673 8.659.611-.002 15.019-.058 20.77-.158 20.633-.36 35.608-18.461 35.608-43.039 0-25.837-14.6-43.196-36.331-43.196zm.461 71.237c-2.979.052-8.493.093-13.062.119-.027-8.422-.067-21.748-.067-28.238 0-5.413-.023-19.365-.038-28.118h12.706c15.728 0 21.331 14.565 21.331 28.196 0 13.33-6.531 27.791-20.87 28.041z"/><path d="m269.175 253.946h-20.22c-4.056-.081-7.62 3.518-7.5 7.573v70.161c-.201 4.413 3.003 8.785 7.673 8.659.611-.002 15.019-.058 20.77-.158 20.634-.36 35.609-18.461 35.609-43.039 0-25.837-14.601-43.196-36.332-43.196zm.461 71.237c-2.979.052-8.492.093-13.061.119-.028-8.422-.067-21.748-.067-28.238 0-5.413-.023-19.365-.038-28.118h12.706c15.729 0 21.332 14.565 21.332 28.196-.001 13.33-6.532 27.791-20.872 28.041z"/><path d="m193.94 211.328c11.76 10.13 23.953 16.108 24.466 16.358 2.07 1.006 4.488 1.006 6.559 0 .513-.25 12.705-6.229 24.466-16.358 16.619-14.314 24.283-30.063 22.164-45.545-2.535-18.527-15.686-26.158-27.149-27.122-8.724-.727-16.973 2.02-22.76 7.069-5.787-5.048-14.04-7.794-22.761-7.069-11.463.964-24.614 8.595-27.149 27.122-2.118 15.481 5.546 31.23 22.164 45.545zm-7.303-43.512c1.574-11.504 9.162-13.84 13.544-14.208 6.141-.62 12.974 2.636 14.348 7.371 2.154 6.951 12.162 6.948 14.314 0 1.469-4.687 7.77-7.926 14.347-7.371 4.383.368 11.97 2.704 13.544 14.208 2.664 19.475-21.948 37.416-35.048 44.665-13.106-7.252-37.713-25.191-35.049-44.665z"/><path d="m138.294 229.976c4.142 0 7.5-3.357 7.5-7.5v-77.963c0-4.143-3.358-7.5-7.5-7.5s-7.5 3.357-7.5 7.5v77.963c0 4.143 3.358 7.5 7.5 7.5z"/></g></g></g></g></svg>