<svg id="Capa_1" enable-background="new 0 0 512 512" height="512" viewBox="0 0 512 512" width="512" xmlns="http://www.w3.org/2000/svg"><g><g><path d="m400.34 87.93c0-9.644-7.818-17.462-17.462-17.462h-41.234-171.29-23.772c-19.288 0-34.924 15.636-34.924 34.924 0 19.288 15.636 34.924 34.924 34.924h13.989 181.073 41.234c9.644 0 17.462-7.818 17.462-17.462s-7.818-17.462-17.462-17.462c9.644 0 17.462-7.818 17.462-17.462z" fill="#cf8151"/><path d="m160.572 105.392h222.308c9.643-.001 17.46-7.818 17.46-17.462 0-.182-.022-.358-.027-.538h-221.741c-9.941 0-18 8.059-18 18z" fill="#bd6e45"/><g><path d="m382.879 122.316h-41.234-181.073-13.989c-16.175 0-29.776-10.999-33.747-25.924-.764 2.872-1.177 5.887-1.177 9 0 19.288 15.636 34.924 34.924 34.924h13.989 181.073 41.234c9.644 0 17.462-7.818 17.462-17.462 0-3.297-.931-6.369-2.518-9-3.058 5.064-8.597 8.462-14.944 8.462z" fill="#bd6e45"/></g><path d="m424.112 140.316h-353.686c-9.644 0-17.462 7.818-17.462 17.462 0 9.644 7.818 17.462 17.462 17.462-9.644 0-17.462 7.818-17.462 17.462s7.818 17.462 17.462 17.462h353.686c19.288 0 34.924-15.636 34.924-34.924 0-19.288-15.636-34.924-34.924-34.924z" fill="#ecb85e"/><path d="m392.123 157.239h-339.131c-.006.18-.027.356-.027.538 0 9.644 7.818 17.462 17.462 17.462h339.697c-.001-9.941-8.06-18-18.001-18z" fill="#eaa949"/><g><path d="m424.112 192.163h-353.686c-6.347 0-11.886-3.398-14.943-8.462-1.588 2.631-2.519 5.703-2.519 9 0 9.644 7.818 17.462 17.462 17.462h353.686c19.288 0 34.924-15.636 34.924-34.924 0-3.113-.413-6.128-1.177-9-3.97 14.925-17.572 25.924-33.747 25.924z" fill="#eaa949"/></g><path d="m426.455 441.532h-340.91c-14.98 0-27.664-11.05-29.717-25.888l-23.418-169.252h447.18l-23.418 169.251c-2.053 14.839-14.737 25.889-29.717 25.889z" fill="#9ec8fc"/><path d="m477.1 264.392 2.49-18h-447.18l2.49 18z" fill="#80b6fc"/><path d="m485.885 246.392h-459.77c-10.005 0-18.115-8.11-18.115-18.114 0-10.004 8.11-18.115 18.115-18.115h459.771c10.004 0 18.115 8.11 18.115 18.115-.001 10.004-8.111 18.114-18.116 18.114z" fill="#e7ecf1"/><path d="m485.885 228.392h-459.77c-6.725 0-12.581-3.673-15.706-9.115-1.524 2.653-2.408 5.721-2.408 9 0 10.004 8.11 18.115 18.115 18.115h459.771c10.004 0 18.115-8.11 18.115-18.115 0-3.279-.884-6.347-2.408-9-3.127 5.442-8.984 9.115-15.709 9.115z" fill="#c6d0da"/></g><g><path d="m512 228.223c0-14.152-11.513-25.664-25.664-25.664h-29.5c6.3-7.416 10.113-17.007 10.113-27.477 0-23.438-19.068-42.507-42.507-42.507h-18.388c1.337-3.06 2.084-6.434 2.084-9.981 0-6.806-2.736-12.982-7.161-17.495 4.426-4.514 7.161-10.69 7.161-17.496 0-13.791-11.22-25.011-25.011-25.011h-212.94-23.818c-23.438 0-42.507 19.069-42.507 42.507 0 10.47 3.813 20.061 10.113 27.477h-43.912c-13.791 0-25.011 11.22-25.011 25.011 0 6.806 2.736 12.982 7.161 17.496-4.425 4.514-7.161 10.69-7.161 17.496 0 3.547.747 6.922 2.084 9.981h-21.472c-14.151-.001-25.664 11.511-25.664 25.663 0 14.071 11.384 25.529 25.425 25.659l22.567 163.103c2.558 18.484 18.558 32.424 37.219 32.424h259.854c4.151 0 7.515-3.364 7.515-7.515s-3.364-7.515-7.515-7.515h-259.854c-11.197 0-20.797-8.363-22.331-19.454l-22.281-161.036h62.265c4.151 0 7.515-3.364 7.515-7.515s-3.364-7.515-7.515-7.515h-77.2c-5.864 0-10.635-4.771-10.635-10.636 0-5.864 4.771-10.635 10.635-10.635h460.671c5.864 0 10.635 4.771 10.635 10.635 0 5.865-4.771 10.636-10.635 10.636h-353.412c-4.151 0-7.515 3.364-7.515 7.515s3.364 7.515 7.515 7.515h338.478l-22.282 161.038c-1.534 11.09-11.134 19.453-22.331 19.453h-51.664c-4.151 0-7.515 3.364-7.515 7.515s3.364 7.515 7.515 7.515h51.664c18.661 0 34.661-13.939 37.219-32.423l22.567-163.104c14.042-.13 25.426-11.589 25.426-25.66zm-441.937-25.664c-5.504 0-9.981-4.477-9.981-9.981s4.478-9.981 9.981-9.981h340.362c4.151 0 7.515-3.364 7.515-7.515s-3.364-7.515-7.515-7.515h-340.362c-5.504 0-9.981-4.477-9.981-9.981s4.478-9.981 9.981-9.981h244.778c4.151 0 7.515-3.364 7.515-7.515s-3.364-7.515-7.515-7.515h-168.472c-15.151 0-27.477-12.327-27.477-27.478s12.327-27.477 27.477-27.477h236.758c5.504 0 9.981 4.477 9.981 9.981s-4.478 9.981-9.981 9.981h-222.742c-4.151 0-7.515 3.364-7.515 7.515s3.364 7.515 7.515 7.515h222.742c5.504 0 9.981 4.477 9.981 9.98 0 5.504-4.478 9.981-9.981 9.981h-38.228c-4.151 0-7.515 3.364-7.515 7.515s3.364 7.515 7.515 7.515h79.542c15.151 0 27.477 12.327 27.477 27.478s-12.327 27.477-27.477 27.477h-354.378z"/><path d="m248.485 300.42v87.428c0 4.151 3.364 7.515 7.515 7.515s7.515-3.364 7.515-7.515v-87.428c0-4.151-3.364-7.515-7.515-7.515s-7.515 3.364-7.515 7.515z"/><path d="m296.122 300.154-3.1 87.429c-.147 4.148 3.096 7.629 7.244 7.776.091.003.181.005.271.005 4.026 0 7.361-3.192 7.505-7.249l3.1-87.429c.147-4.148-3.096-7.629-7.244-7.776-4.172-.13-7.628 3.096-7.776 7.244z"/><path d="m341.623 300.07-4.065 87.428c-.193 4.146 3.012 7.663 7.158 7.856.119.005.238.008.355.008 3.989 0 7.313-3.139 7.501-7.165l4.065-87.429c.193-4.146-3.012-7.663-7.158-7.856-4.163-.165-7.662 3.014-7.856 7.158z"/><path d="m389.607 395.364c3.804 0 7.068-2.879 7.466-6.745l9.018-87.429c.427-4.128-2.575-7.82-6.703-8.246-4.134-.434-7.821 2.576-8.246 6.704l-9.018 87.429c-.427 4.128 2.575 7.82 6.704 8.246.261.027.521.041.779.041z"/><path d="m208.102 292.91c-4.148.147-7.39 3.628-7.244 7.776l3.1 87.429c.144 4.057 3.477 7.249 7.505 7.249.09 0 .18-.002.271-.005 4.148-.147 7.39-3.628 7.244-7.776l-3.1-87.429c-.148-4.147-3.621-7.406-7.776-7.244z"/><path d="m162.52 292.913c-4.146.193-7.35 3.71-7.157 7.856l4.065 87.429c.188 4.026 3.511 7.165 7.501 7.165.117 0 .236-.003.355-.008 4.146-.193 7.35-3.71 7.158-7.856l-4.065-87.428c-.193-4.145-3.679-7.326-7.857-7.158z"/><path d="m112.614 292.945c-4.128.426-7.13 4.117-6.703 8.246l9.018 87.429c.398 3.867 3.661 6.745 7.466 6.745.257 0 .518-.014.78-.041 4.128-.426 7.13-4.117 6.703-8.246l-9.018-87.429c-.426-4.128-4.108-7.137-8.246-6.704z"/></g></g></svg>