<svg id="Capa_1" enable-background="new 0 0 511.428 511.428" height="512" viewBox="0 0 511.428 511.428" width="512" xmlns="http://www.w3.org/2000/svg"><g><g><path d="m65.705 250.02h-33.35c-13.72 0-24.85 11.13-24.85 24.86v24.4c0 13.73 11.13 24.86 24.85 24.86h33.35l23.934-7.163v-51.356z" fill="#efedef"/><path d="m81.056 250.02h-15.351v74.12h15.351 112.654v-74.12z" fill="#d4f2f6"/><g><g id="XMLID_141_"><g><path d="m76.108 250.778v72.605h5.584 97.989v-72.605h-97.989z" fill="#a6e7f0"/><path d="m472.565 413.71c11.34 12.58 2.41 32.65-14.53 32.65h-69.29-115.38-153.41c-10.8 0-19.56-8.75-19.56-19.55v-374.95c0-17.91 22.09-26.4 34.09-13.09l139.88 155.13 117.43 130.24zm-102.53-22.23-119.12-141.46-93.207-103.355c-.814-.903-2.313-.327-2.313.889v242.479c0 .733.594 1.327 1.327 1.327h116.643z" fill="#fee45a"/></g></g></g><g><g id="XMLID_229_"><g><path d="m388.745 446.36h24v-98.987l-20.95-23.233-117.43-130.24-25-27.725v82.127l1.55 1.718 119.12 141.46-96.67-.12h-24v55h24z" fill="#fedf30"/><path d="m387.745 15.16v481.1c0 4.22-3.42 7.64-7.64 7.64h-98.1c-4.22 0-7.64-3.42-7.64-7.64v-481.1c0-4.22 3.42-7.64 7.64-7.64h98.1c4.22 0 7.64 3.42 7.64 7.64z" fill="#f9f7f8"/></g></g></g><g id="XMLID_199_"><g><path d="m502.485 284.15-32.92-23.61-18.767 1.161v48.202l18.967 3.567 32.72-23.46c1.93-1.48 1.93-4.38 0-5.86z" fill="#c9bfc8"/><path d="m469.565 260.54-14.68-10.52h-29.54l-23.951 13.629v53.676l23.951 6.815h29.54l14.88-10.67z" fill="#fae2c0"/></g></g><g><path d="m274.365 225.02h113.38v124.12h-113.38z" fill="#efedef"/><path d="m193.71 250.02h231.634v74.12h-231.634z" fill="#d4f2f6"/></g></g><path d="m507.041 278.198c-.062-.047-.124-.093-.187-.139l-47.598-34.13c-1.274-.914-2.803-1.405-4.371-1.405h-59.643v-227.36c0-8.349-6.792-15.141-15.141-15.141h-98.099c-8.349 0-15.141 6.792-15.141 15.141v159.219l-126.811-140.638c-7.562-8.387-19.26-11.187-29.8-7.138-10.541 4.05-17.352 13.964-17.352 25.257v190.66h-60.539c-17.842 0-32.359 14.516-32.359 32.36v24.393c0 17.843 14.517 32.359 32.359 32.359h60.539v25.613c0 4.142 3.358 7.5 7.5 7.5s7.5-3.358 7.5-7.5v-305.385c0-7.687 5.918-10.558 7.732-11.255 1.813-.698 8.132-2.528 13.28 3.181l137.951 152.992v45.742h-12.615l-93.279-103.45c-2.079-2.305-5.363-3.091-8.26-1.979-2.897 1.113-4.81 3.897-4.81 7.001v247.268c0 4.142 3.358 7.5 7.5 7.5h111.463v40h-146.904c-6.648 0-12.058-5.409-12.058-12.058v-37.596c0-4.142-3.358-7.5-7.5-7.5s-7.5 3.358-7.5 7.5v37.596c0 14.919 12.138 27.058 27.058 27.058h146.906v42.399c0 8.349 6.792 15.141 15.141 15.141h98.099c8.349 0 15.141-6.792 15.141-15.141v-42.399h62.795c10.842 0 20.315-6.154 24.722-16.061 4.406-9.907 2.633-21.063-4.628-29.116l-69.477-77.052h46.23c1.568 0 3.096-.491 4.371-1.405l47.598-34.13c.063-.045.125-.092.187-.139 2.789-2.134 4.388-5.371 4.388-8.882-.001-3.51-1.6-6.748-4.388-8.881zm-492.041 21.079v-24.393c0-9.572 7.788-17.359 17.359-17.359h25.842v59.112h-25.842c-9.571-.001-17.359-7.789-17.359-17.36zm58.201 17.359v-59.112h19.697v59.112zm160.849-74.112h-71.152v-78.91zm-71.152 141.341v-52.229h35.5c4.142 0 7.5-3.358 7.5-7.5s-3.358-7.5-7.5-7.5h-35.5v-59.112h152.172c4.142 0 7.5-3.358 7.5-7.5s-3.358-7.5-7.5-7.5h-33.209v-227.36c0-.078.063-.141.141-.141h98.099c.078 0 .141.063.141.141v56.573h-14.895c-4.142 0-7.5 3.358-7.5 7.5s3.358 7.5 7.5 7.5h14.895v49.86h-14.895c-4.142 0-7.5 3.358-7.5 7.5s3.358 7.5 7.5 7.5h14.895v49.86h-14.895c-4.142 0-7.5 3.358-7.5 7.5s3.358 7.5 7.5 7.5h14.895v26.067h-33.209c-4.142 0-7.5 3.358-7.5 7.5s3.358 7.5 7.5 7.5h70.807v59.112h-187.479c-4.142 0-7.5 3.358-7.5 7.5s3.358 7.5 7.5 7.5h36.5v52.229zm217.204 112.54h-98.099c-.078 0-.141-.063-.141-.141v-164.628h98.38v27.245h-14.895c-4.142 0-7.5 3.358-7.5 7.5s3.358 7.5 7.5 7.5h14.895v49.86h-14.895c-4.142 0-7.5 3.358-7.5 7.5s3.358 7.5 7.5 7.5h14.895v57.523c0 .078-.063.141-.14.141zm88.952-64.697c-1.993 4.482-6.112 7.157-11.017 7.157h-62.795v-99.705l71.75 79.573c3.285 3.643 4.056 8.493 2.062 12.975zm-16.58-115.072h-19.634v-59.112h19.633l9.26 6.64v45.833zm24.259-17.395v-24.321l16.959 12.161z"/></g></svg>