<svg id="Capa_1" enable-background="new 0 0 511.814 511.814" height="512" viewBox="0 0 511.814 511.814" width="512" xmlns="http://www.w3.org/2000/svg"><g><g><g><g><g id="XMLID_10_"><g><path d="m427.703 21.924c-8.82-8.82-21.01-14.27-34.47-14.27h-335.98v39.55l48.73 46.59v324.54 37.4c0 13.46 5.46 25.65 14.27 34.47 8.755 8.755 20.829 14.189 34.161 14.269 11.572.07 22.233-4.095 30.643-10.993h256.916v-56.146-380.941c0-13.459-5.45-25.649-14.27-34.469z" fill="#f9f7f8"/></g></g></g></g><path d="m205.106 448.505c-16.977 0-30.74-13.763-30.74-30.74v-344.482c0-.163-.001-.326-.003-.49-.15-12.244 9.796-22.226 22.041-22.226h227.541c6.232 0 12.185 1.181 17.665 3.311-.596-12.522-5.908-23.81-14.21-32.112-8.82-8.82-21.01-14.27-34.47-14.27h-267.294-13.822-54.864v39.55l48.73 46.59v324.54 37.4c0 13.46 5.46 25.65 14.27 34.47 3.881 3.881 8.417 7.106 13.424 9.504.285.139.579.261.866.394.407.185.812.375 1.226.549 5.822 2.51 12.218 3.937 18.947 3.978 11.572.07 22.233-4.095 30.643-10.993h256.916v-44.974h-236.866z" fill="#efedef"/><path d="m194.556 352.203h-38.971v38.023c0 10.762 8.724 19.485 19.485 19.485 10.762 0 19.485-8.724 19.485-19.485v-38.023z" fill="#c9bfc8"/><path d="m204.785 94.707-12.291-10.821h-33.654l-3.213 2.578v281.179h1.77l34.348.691 12.372-5.101c.879-2.022 1.374-4.25 1.374-6.595v-260.661z" fill="#d4f2f6"/><path d="m182.755 363.246c-9.15 0-16.57-7.42-16.57-16.57v-260.66l.705-1.27 1.071-.86h-9.122l-13.485 10.821-.705 1.27v260.66c0 9.15 7.42 16.57 16.57 16.57h27.7c6.8 0 12.645-4.1 15.198-9.96z" fill="#a6e7f0"/><path d="m144.649 298.978h60.843v32.663h-60.843z" fill="#a6e7f0"/><path d="m144.65 298.978h21.535v32.663h-21.535z" fill="#62dbfb"/><circle cx="333.074" cy="135.671" fill="#9cf8d2" r="62.058"/><path d="m56.947 7.5c-26.915 0-48.733 21.819-48.733 48.733v33.249c0 2.298 1.863 4.16 4.16 4.16h93.305v-37.409c0-26.914-21.818-48.733-48.732-48.733z" fill="#e5e1e5"/><path d="m503.6 442.017v13.56c0 13.46-5.46 25.65-14.27 34.47-8.82 8.82-21.01 14.27-34.46 14.27h-300.46c26.92 0 48.73-21.82 48.73-48.74v-15.33c0-1.696 1.375-3.07 3.07-3.07h235.46 57.09c2.673 0 4.84 2.167 4.84 4.84z" fill="#e5e1e5"/><g id="XMLID_277_"><g><path d="m179.89 49.887 24.89 44.82h-59.42l24.89-44.82c2.1-3.78 7.54-3.78 9.64 0z" fill="#c9bfc8"/></g></g><path d="m185.483 59.958-5.593-10.071c-2.1-3.78-7.54-3.78-9.64 0l-24.89 44.82h20.825z" fill="#baafb9"/></g><g><path d="m498.758 429.672h-49.592v-373.439c0-31.007-25.226-56.233-56.233-56.233h-335.986c-31.007 0-56.233 25.226-56.233 56.233v33.249c0 6.43 5.231 11.661 11.66 11.661h85.805v354.439c0 31.007 25.226 56.233 56.233 56.233h300.456c31.007 0 56.232-25.226 56.232-56.233v-13.566c0-6.807-5.537-12.344-12.342-12.344zm-483.044-373.439c0-22.736 18.497-41.233 41.233-41.233s41.233 18.497 41.233 41.233v29.909h-82.466zm480.386 399.349c0 22.736-18.497 41.233-41.232 41.233h-262.258c11.086-10.278 18.035-24.959 18.035-41.233v-10.909h38.661c4.142 0 7.5-3.358 7.5-7.5s-3.358-7.5-7.5-7.5h-46.161c-4.142 0-7.5 3.358-7.5 7.5v18.409c0 22.736-18.497 41.233-41.233 41.233s-41.233-18.497-41.233-41.233v-361.94-37.409c0-16.278-6.959-30.955-18.05-41.233h297.804c22.735 0 41.232 18.497 41.232 41.233v373.439h-152.897c-4.143 0-7.5 3.358-7.5 7.5s3.357 7.5 7.5 7.5h214.832z"/><path d="m238.836 231.793c-4.142 0-7.5 3.358-7.5 7.5v67.75c0 2.233-1.816 4.049-4.049 4.049h-14.294v-12.114-203.002c0-1.274-.325-2.527-.943-3.642l-25.597-46.087c-2.294-4.131-6.656-6.698-11.381-6.698s-9.086 2.566-11.381 6.698l-25.597 46.087c-.619 1.114-.943 2.367-.943 3.642v32.116c0 4.142 3.358 7.5 7.5 7.5s7.5-3.358 7.5-7.5v-24.616h45.843v188.002h-45.843v-131.423c0-4.142-3.358-7.5-7.5-7.5s-7.5 3.358-7.5 7.5v138.923 32.663 24.995c0 8.429 4.358 15.855 10.936 20.156v13.437c0 14.88 12.106 26.985 26.986 26.985s26.985-12.105 26.985-26.985v-13.437c6.578-4.301 10.936-11.727 10.936-20.156v-24.995-5.549h14.294c10.504 0 19.049-8.545 19.049-19.049v-67.75c-.001-4.142-3.359-7.5-7.501-7.5zm-40.844 124.843c0 5.001-4.069 9.071-9.07 9.071h-27.702c-5.001 0-9.071-4.069-9.071-9.071v-17.495h45.843zm-22.921-299.987 17.677 31.827h-35.354zm22.921 249.829v17.663h-45.843v-17.663zm-10.936 83.751c0 6.609-5.377 11.985-11.986 11.985s-11.985-5.376-11.985-11.985v-9.522h23.971z"/><path d="m332.933 203.278c12.097 0 23.981-3.247 34.368-9.39 3.564-2.109 4.746-6.708 2.637-10.273-2.107-3.565-6.707-4.745-10.273-2.638-8.075 4.776-17.319 7.301-26.731 7.301-29.008 0-52.607-23.6-52.607-52.607s23.6-52.607 52.607-52.607c29.009 0 52.608 23.6 52.608 52.607 0 8.802-2.218 17.512-6.414 25.189-1.986 3.635-.65 8.192 2.984 10.178 3.632 1.985 8.19.651 10.178-2.984 5.398-9.877 8.252-21.075 8.252-32.383 0-37.279-30.329-67.607-67.608-67.607s-67.607 30.329-67.607 67.607 30.327 67.607 67.606 67.607z"/><path d="m348.169 112.942-26.156 32.814-6.543-3.271c-3.706-1.854-8.211-.351-10.063 3.354-1.853 3.705-.351 8.21 3.354 10.062l11.977 5.988c1.07.535 2.217.792 3.351.792 2.227 0 4.406-.991 5.869-2.826l29.942-37.564c2.581-3.239 2.049-7.958-1.19-10.54-3.239-2.581-7.958-2.048-10.541 1.191z"/></g></g></svg>