<svg id="Capa_1" enable-background="new 0 0 512 512" height="512" viewBox="0 0 512 512" width="512" xmlns="http://www.w3.org/2000/svg"><g><g><g fill="#e7ecf1"><path d="m69.219 306.512h45.034v53.828h-45.034z"/><path d="m397.746 306.512h45.034v53.828h-45.034z"/><path d="m150.45 306.512h46.236v53.828h-46.236z"/><path d="m232.882 306.512h46.236v53.828h-46.236z"/><path d="m315.314 306.512h46.236v53.828h-46.236z"/></g><path d="m69.219 342.34h45.035v18h-45.035z" fill="#c6d0da"/><path d="m397.746 342.34h45.035v18h-45.035z" fill="#c6d0da"/><path d="m150.45 342.34h46.236v18h-46.236z" fill="#c6d0da"/><path d="m232.882 342.34h46.236v18h-46.236z" fill="#c6d0da"/><path d="m315.314 342.34h46.236v18h-46.236z" fill="#c6d0da"/><g><g><path d="m114.254 140.724h36.196v219.616h-36.196z" fill="#cf8151"/></g><g><path d="m196.686 140.724h36.196v219.616h-36.196z" fill="#cf8151"/></g><g><path d="m279.118 140.724h36.196v219.616h-36.196z" fill="#cf8151"/></g><g><path d="m361.55 140.724h36.196v219.616h-36.196z" fill="#cf8151"/></g></g><path d="m114.254 342.34h36.196v18h-36.196z" fill="#bd6e45"/><path d="m196.686 342.34h36.196v18h-36.196z" fill="#bd6e45"/><path d="m279.118 342.34h36.196v18h-36.196z" fill="#bd6e45"/><path d="m361.55 342.34h36.196v18h-36.196z" fill="#bd6e45"/><path d="m69.219 360.34h373.561v45.978h-373.561z" fill="#e2ae84"/><path d="m69.219 388.318h373.562v18h-373.562z" fill="#d7a379"/><path d="m59.222 504h-16.97c-5.521 0-9.997-4.476-9.997-9.997v-467.521c.001-10.207 8.275-18.482 18.482-18.482 10.207 0 18.482 8.275 18.482 18.482v467.521c0 5.521-4.476 9.997-9.997 9.997z" fill="#cf8151"/><path d="m469.747 504h-16.97c-5.521 0-9.997-4.476-9.997-9.997v-467.521c.001-10.207 8.275-18.482 18.483-18.482 10.207 0 18.482 8.275 18.482 18.482v467.521c-.001 5.521-4.476 9.997-9.998 9.997z" fill="#cf8151"/><path d="m59.222 486h-16.97c-5.521 0-9.997-4.476-9.997-9.997v18c0 5.521 4.476 9.997 9.997 9.997h16.97c5.521 0 9.997-4.476 9.997-9.997v-18c0 5.521-4.476 9.997-9.997 9.997z" fill="#bd6e45"/><path d="m469.747 486h-16.97c-5.521 0-9.997-4.476-9.997-9.997v18c0 5.521 4.476 9.997 9.997 9.997h16.97c5.521 0 9.997-4.476 9.997-9.997v-18c0 5.521-4.475 9.997-9.997 9.997z" fill="#bd6e45"/><path d="m379.388 87.299c-56.291-11.731-59.474-52.604-123.388-52.604s-67.097 40.874-123.388 52.604c-37.206 7.753-63.393-16.481-63.393-16.481v69.906h373.562v-69.906s-26.188 24.234-63.393 16.481zm-123.388 25.058c-11.161 0-20.21-9.048-20.21-20.209s9.048-20.209 20.21-20.209 20.21 9.048 20.21 20.209-9.049 20.209-20.21 20.209z" fill="#e2ae84"/><g><path d="m69.219 122.724h373.562v18h-373.562z" fill="#d7a379"/></g></g><g><path d="m480.182 399.097c4.151 0 7.515-3.365 7.515-7.515v-365.549c0-14.355-11.678-26.033-26.033-26.033s-26.033 11.678-26.033 26.033v40.88c-6.814 5.212-27.296 18.363-54.469 12.699-23.39-4.874-36.628-14.856-50.642-25.423-17.892-13.491-36.394-27.442-74.52-27.442s-56.628 13.951-74.52 27.442c-14.014 10.567-27.252 20.549-50.642 25.423-27.187 5.664-47.675-7.502-54.469-12.698v-40.881c0-14.355-11.678-26.033-26.033-26.033s-26.033 11.678-26.033 26.033v58.431c0 4.15 3.364 7.515 7.515 7.515s7.515-3.365 7.515-7.515v-58.431c0-6.068 4.935-11.003 11.003-11.003s11.004 4.935 11.004 11.003v468.436c0 1.38-1.122 2.502-2.502 2.502h-17.003c-1.38 0-2.502-1.122-2.502-2.502v-379.947c0-4.15-3.364-7.515-7.515-7.515s-7.515 3.365-7.515 7.515v379.946c0 9.667 7.865 17.531 17.531 17.531h17.003c9.667 0 17.531-7.865 17.531-17.531v-80.342h359.262v80.342c0 9.667 7.864 17.531 17.531 17.531h17.003c9.666 0 17.531-7.865 17.531-17.531v-72.828c0-4.15-3.364-7.515-7.515-7.515s-7.515 3.365-7.515 7.515v72.828c0 1.38-1.122 2.502-2.502 2.502h-17.003c-1.38 0-2.502-1.122-2.502-2.502v-468.435c0-6.068 4.936-11.003 11.004-11.003s11.003 4.936 11.003 11.003v365.549c.002 4.15 3.366 7.515 7.517 7.515zm-110.911-46.067v-205.017h21.238v205.017zm-46.326 0v-38.904h31.297v38.904zm-36.267 0v-110.885c0-4.15-3.364-7.515-7.515-7.515s-7.515 3.365-7.515 7.515v56.952h-31.297v-151.084h31.297v64.073c0 4.15 3.364 7.515 7.515 7.515s7.515-3.365 7.515-7.515v-64.073h21.238v205.017zm-46.327 0v-38.904h31.297v38.904zm-36.267 0v-205.017h21.238v205.017zm-46.326 0v-38.904h31.296v38.904zm-36.267 0v-205.017h21.238v205.017zm-45.122 0v-38.904h30.093v38.904zm30.093-53.934h-30.093v-151.083h30.093zm82.593-151.083v151.083h-31.296v-151.083zm165.187 0v151.083h-31.297v-151.083zm81.389 0v151.083h-30.093v-151.083zm-30.093 166.113h30.093v38.904h-30.093zm-288.02-218.095c5.19-.001 10.668-.514 16.386-1.705 26.685-5.561 42.591-17.554 56.624-28.136 17.373-13.1 32.377-24.413 65.472-24.413s48.099 11.314 65.472 24.413c14.033 10.581 29.939 22.574 56.624 28.136 5.72 1.192 11.195 1.705 16.388 1.705 17.473 0 31.713-5.819 41.148-11.195v48.148h-359.263v-48.147c9.434 5.376 23.674 11.195 41.149 11.194zm-41.149 303.066v-31.038h359.262v31.038z"/><path d="m256 119.591c15.308 0 27.763-12.455 27.763-27.764s-12.455-27.763-27.763-27.763-27.763 12.455-27.763 27.764 12.455 27.763 27.763 27.763zm0-40.498c7.022 0 12.734 5.713 12.734 12.734s-5.712 12.734-12.734 12.734c-7.021 0-12.734-5.713-12.734-12.734s5.713-12.734 12.734-12.734z"/></g></g></svg>