<svg id="Capa_1" enable-background="new 0 0 512 512" height="512" viewBox="0 0 512 512" width="512" xmlns="http://www.w3.org/2000/svg"><g><g><path d="m435.934 504h-359.868c-16.569 0-30-13.431-30-30v-252.321c0-16.569 13.431-30 30-30h359.869c16.569 0 30 13.431 30 30v252.321c-.001 16.569-13.432 30-30.001 30z" fill="#909ba5"/><path d="m435.934 486h-359.868c-16.569 0-30-13.431-30-30v18c0 16.569 13.431 30 30 30h359.869c16.569 0 30-13.431 30-30v-18c-.001 16.569-13.432 30-30.001 30z" fill="#808b95"/><ellipse cx="368.307" cy="369.585" fill="#f6e080" rx="46.156" ry="46.156" transform="matrix(.973 -.23 .23 .973 -75.061 94.507)"/><path d="m368.307 397.742c-22.411 0-41.085-15.974-45.273-37.157-.576 2.912-.884 5.92-.884 9 0 25.492 20.665 46.157 46.156 46.157 25.492 0 46.156-20.665 46.156-46.157 0-3.08-.308-6.088-.884-9-4.186 21.182-22.86 37.157-45.271 37.157z" fill="#eccd61"/><circle cx="368.307" cy="369.585" fill="#dc4955" r="17.116"/><path d="m368.307 368.701c-6.146 0-11.521-3.251-14.539-8.116-1.624 2.617-2.577 5.694-2.577 9 0 9.453 7.663 17.116 17.116 17.116s17.116-7.663 17.116-17.116c0-3.306-.953-6.383-2.577-9-3.019 4.866-8.392 8.116-14.539 8.116z" fill="#d82f3c"/><path d="m244.629 450.558h-124.664c-16.569 0-30-13.431-30-30v-382.558c0-16.569 13.431-30 30-30h124.664c16.569 0 30 13.431 30 30v382.558c0 16.569-13.431 30-30 30z" fill="#e7ecf1"/><path d="m244.629 432.558h-124.664c-16.568 0-30-13.431-30-30v18c0 16.569 13.432 30 30 30h124.664c16.569 0 30-13.431 30-30v-18c0 16.569-13.431 30-30 30z" fill="#c6d0da"/><path d="m227.051 177.947h-89.508c-5.523 0-10-4.477-10-10v-83.86c0-5.523 4.477-10 10-10h89.508c5.523 0 10 4.477 10 10v83.86c0 5.523-4.477 10-10 10z" fill="#b3e59f"/><path d="m227.051 159.947h-89.508c-5.523 0-10-4.477-10-10v18c0 5.523 4.477 10 10 10h89.508c5.523 0 10-4.477 10-10v-18c0 5.523-4.477 10-10 10z" fill="#95d6a4"/><ellipse cx="182.297" cy="228.363" fill="#f6e080" rx="24.488" ry="24.488" transform="matrix(.987 -.16 .16 .987 -34.226 32.15)"/><path d="m182.297 234.852c-10.345 0-19.186-6.419-22.774-15.489-1.102 2.787-1.715 5.821-1.715 9 0 13.525 10.964 24.489 24.488 24.489 13.525 0 24.488-10.964 24.488-24.489 0-3.179-.612-6.213-1.715-9-3.586 9.07-12.426 15.489-22.772 15.489z" fill="#eccd61"/></g><g><path d="m137.311 185.309h29.812c4.151 0 7.515-3.364 7.515-7.515s-3.364-7.515-7.515-7.515h-29.812c-1.382 0-2.505-1.123-2.505-2.505v-84.023c0-1.382 1.123-2.505 2.505-2.505h89.683c1.382 0 2.505 1.123 2.505 2.505v84.024c0 1.382-1.123 2.505-2.505 2.505h-29.812c-4.151 0-7.515 3.364-7.515 7.515s3.364 7.515 7.515 7.515h29.812c9.668 0 17.534-7.866 17.534-17.534v-84.025c0-9.668-7.866-17.534-17.534-17.534h-89.683c-9.668 0-17.534 7.866-17.534 17.534v84.024c0 9.668 7.866 17.534 17.534 17.534z"/><path d="m164.363 50.904h35.579c4.151 0 7.515-3.364 7.515-7.515s-3.364-7.515-7.515-7.515h-35.579c-4.151 0-7.515 3.364-7.515 7.515s3.364 7.515 7.515 7.515z"/><path d="m127.292 286.339h16.502c4.151 0 7.515-3.364 7.515-7.515s-3.364-7.515-7.515-7.515h-16.502c-4.151 0-7.515 3.364-7.515 7.515s3.364 7.515 7.515 7.515z"/><path d="m190.404 271.309h-16.502c-4.151 0-7.515 3.364-7.515 7.515s3.364 7.515 7.515 7.515h16.502c4.151 0 7.515-3.364 7.515-7.515s-3.364-7.515-7.515-7.515z"/><path d="m237.014 271.309h-16.501c-4.151 0-7.515 3.364-7.515 7.515s3.364 7.515 7.515 7.515h16.501c4.151 0 7.515-3.364 7.515-7.515-.001-4.151-3.365-7.515-7.515-7.515z"/><path d="m127.292 325.232h16.502c4.151 0 7.515-3.364 7.515-7.515s-3.364-7.515-7.515-7.515h-16.502c-4.151 0-7.515 3.364-7.515 7.515s3.364 7.515 7.515 7.515z"/><path d="m190.404 310.203h-16.502c-4.151 0-7.515 3.364-7.515 7.515s3.364 7.515 7.515 7.515h16.502c4.151 0 7.515-3.364 7.515-7.515s-3.364-7.515-7.515-7.515z"/><path d="m237.014 310.203h-16.501c-4.151 0-7.515 3.364-7.515 7.515s3.364 7.515 7.515 7.515h16.501c4.151 0 7.515-3.364 7.515-7.515s-3.365-7.515-7.515-7.515z"/><path d="m127.292 364.126h16.502c4.151 0 7.515-3.364 7.515-7.515s-3.364-7.515-7.515-7.515h-16.502c-4.151 0-7.515 3.364-7.515 7.515s3.364 7.515 7.515 7.515z"/><path d="m190.404 349.097h-16.502c-4.151 0-7.515 3.364-7.515 7.515s3.364 7.515 7.515 7.515h16.502c4.151 0 7.515-3.364 7.515-7.515s-3.364-7.515-7.515-7.515z"/><path d="m237.014 349.097h-16.501c-4.151 0-7.515 3.364-7.515 7.515s3.364 7.515 7.515 7.515h16.501c4.151 0 7.515-3.364 7.515-7.515-.001-4.151-3.365-7.515-7.515-7.515z"/><path d="m127.292 403.021h16.502c4.151 0 7.515-3.364 7.515-7.515s-3.364-7.515-7.515-7.515h-16.502c-4.151 0-7.515 3.364-7.515 7.515s3.364 7.515 7.515 7.515z"/><path d="m190.404 387.991h-16.502c-4.151 0-7.515 3.364-7.515 7.515s3.364 7.515 7.515 7.515h16.502c4.151 0 7.515-3.364 7.515-7.515s-3.364-7.515-7.515-7.515z"/><path d="m237.014 387.991h-16.501c-4.151 0-7.515 3.364-7.515 7.515s3.364 7.515 7.515 7.515h16.501c4.151 0 7.515-3.364 7.515-7.515s-3.365-7.515-7.515-7.515z"/><path d="m182.153 196.258c-17.673 0-32.051 14.378-32.051 32.051s14.378 32.051 32.051 32.051 32.051-14.378 32.051-32.051-14.378-32.051-32.051-32.051zm0 49.073c-9.385 0-17.021-7.636-17.021-17.021s7.636-17.021 17.021-17.021c9.386 0 17.022 7.636 17.022 17.021s-7.637 17.021-17.022 17.021z"/><path d="m127.292 235.824h8.252c4.151 0 7.515-3.364 7.515-7.515s-3.364-7.515-7.515-7.515h-8.252c-4.151 0-7.515 3.364-7.515 7.515s3.364 7.515 7.515 7.515z"/><path d="m237.014 220.794h-8.251c-4.151 0-7.515 3.364-7.515 7.515s3.364 7.515 7.515 7.515h8.251c4.151 0 7.515-3.364 7.515-7.515-.001-4.151-3.365-7.515-7.515-7.515z"/><path d="m167.123 496.971h-91.41c-12.431 0-22.544-10.114-22.544-22.544v-252.814c0-12.43 10.113-22.544 22.544-22.544h6.413v221.811c0 20.718 16.855 37.573 37.573 37.573h124.907c20.718 0 37.573-16.855 37.573-37.573v-221.812h71.317c4.151 0 7.515-3.364 7.515-7.515s-3.364-7.515-7.515-7.515h-71.316v-146.465c0-20.718-16.855-37.573-37.573-37.573h-124.907c-20.719 0-37.574 16.855-37.574 37.573v146.466h-6.413c-20.718 0-37.573 16.855-37.573 37.573v252.814c0 20.719 16.855 37.574 37.573 37.574h91.41c4.151 0 7.515-3.364 7.515-7.515s-3.364-7.514-7.515-7.514zm-69.967-459.398c0-12.43 10.113-22.544 22.544-22.544h124.907c12.43 0 22.544 10.114 22.544 22.544v383.307c0 12.431-10.113 22.544-22.544 22.544h-124.907c-12.431 0-22.544-10.113-22.544-22.544z"/><path d="m436.287 184.039h-52.731c-4.151 0-7.515 3.364-7.515 7.515s3.364 7.515 7.515 7.515h52.731c12.43 0 22.544 10.114 22.544 22.544v252.814c0 12.43-10.113 22.544-22.544 22.544h-239.105c-4.151 0-7.515 3.364-7.515 7.515s3.364 7.515 7.515 7.515h239.105c20.718 0 37.573-16.855 37.573-37.573v-252.815c0-20.719-16.855-37.574-37.573-37.574z"/><path d="m368.526 316.046c-29.644 0-53.761 24.117-53.761 53.761 0 29.645 24.117 53.762 53.761 53.762 29.645 0 53.762-24.117 53.762-53.762.001-29.644-24.117-53.761-53.762-53.761zm0 92.494c-21.357 0-38.732-17.376-38.732-38.733s17.375-38.732 38.732-38.732 38.733 17.375 38.733 38.732-17.375 38.733-38.733 38.733z"/><path d="m368.526 345.144c-13.6 0-24.663 11.064-24.663 24.663 0 13.6 11.064 24.664 24.663 24.664s24.664-11.065 24.664-24.664c.001-13.6-11.064-24.663-24.664-24.663zm0 34.298c-5.312 0-9.634-4.322-9.634-9.635 0-5.312 4.322-9.634 9.634-9.634 5.313 0 9.635 4.322 9.635 9.634 0 5.313-4.321 9.635-9.635 9.635z"/><path d="m398.272 252.462h-59.49c-4.151 0-7.515 3.364-7.515 7.515s3.364 7.515 7.515 7.515h59.49c4.151 0 7.515-3.364 7.515-7.515s-3.364-7.515-7.515-7.515z"/><path d="m385.787 226.756h-34.52c-4.151 0-7.515 3.364-7.515 7.515s3.364 7.515 7.515 7.515h34.52c4.151 0 7.515-3.364 7.515-7.515-.001-4.151-3.365-7.515-7.515-7.515z"/><path d="m385.787 293.197c4.151 0 7.515-3.364 7.515-7.515s-3.364-7.515-7.515-7.515h-34.52c-4.151 0-7.515 3.364-7.515 7.515s3.364 7.515 7.515 7.515z"/><path d="m312.794 449.007c-4.151 0-7.515 3.364-7.515 7.515s3.364 7.515 7.515 7.515h16.502c4.151 0 7.515-3.364 7.515-7.515s-3.364-7.515-7.515-7.515z"/><path d="m359.659 449.007c-4.151 0-7.515 3.364-7.515 7.515s3.364 7.515 7.515 7.515h16.502c4.151 0 7.515-3.364 7.515-7.515s-3.364-7.515-7.515-7.515z"/><path d="m399.008 456.522c0 4.151 3.364 7.515 7.515 7.515h16.502c4.151 0 7.515-3.364 7.515-7.515s-3.364-7.515-7.515-7.515h-16.502c-4.151 0-7.515 3.364-7.515 7.515z"/></g></g></svg>