<svg id="Capa_1" enable-background="new 0 0 511.351 511.351" height="512" viewBox="0 0 511.351 511.351" width="512" xmlns="http://www.w3.org/2000/svg"><g><g><path d="m450.765 32.528h-12.26-1.211v30.643h-362.449v-30.643h-2-12.26c-13.26 0-24 10.75-24 24.01v209.95c0 13.26 10.74 24.01 24 24.01h390.18c13.26 0 24-10.75 24-24.01v-209.95c0-13.26-10.74-24.01-24-24.01z" fill="#d4f2f6"/><path d="m280.675 41.243h-60.067v-8.715h-147.763-12.26c-3.863 0-7.508.918-10.74 2.538v213.545c0 16.298 13.259 29.557 29.557 29.557h143.943c4.042 0 7.33 3.288 7.33 7.33v5h49.822c.095-2.937.178-5 .178-5z" fill="#a6e7f0"/><path d="m223.345 7.498h-137.421v245.67h137.421c17.86 0 32.33 14.47 32.33 32.33v-245.67c0-17.855-14.474-32.33-32.33-32.33z" fill="#fef1da"/><path d="m223.345 7.498h-12.786c17.855 0 32.33 14.475 32.33 32.33v219.917c7.768 5.904 12.786 15.239 12.786 25.753v-245.67c0-17.855-14.474-32.33-32.33-32.33z" fill="#fae2c0"/><g><path d="m99.845 248.611v-236.555c0-2.517 2.04-4.557 4.557-4.557h-25c-2.517 0-4.557 2.04-4.557 4.557v236.556c0 2.517 2.04 4.557 4.557 4.557h25c-2.516-.001-4.557-2.041-4.557-4.558z" fill="#fae2c0"/></g><path d="m225.675 220.886c0 1.269-1.035 2.283-2.304 2.283-.008 0-.016 0-.023 0h-116.222c-1.261 0-2.283-1.022-2.283-2.283v-181.103c0-1.261 1.022-2.283 2.283-2.283h113.939c2.546 0 4.611 2.064 4.611 4.611v178.775z" fill="#9cf8d2"/><g id="XMLID_290_"><g><path d="m450.765 32.528h-12.26-144.954v8.715h-19.605v244.255h6.73c0-4.042 3.288-7.33 7.33-7.33h144.611c15.93 0 28.889-12.959 28.889-28.889v-214.212c-3.232-1.621-6.878-2.539-10.741-2.539z" fill="#a6e7f0"/><path d="m436.505 11.387v237.892c0 2.148-1.741 3.889-3.889 3.889h-144.611c-17.86 0-32.33 14.47-32.33 32.33v-245.67c0-17.855 14.475-32.33 32.33-32.33h144.611c2.148 0 3.889 1.742 3.889 3.889z" fill="#fdf6ec"/><path d="m266.911 39.828c0-17.855 14.475-32.33 32.33-32.33h-11.236c-17.855 0-32.33 14.475-32.33 32.33v245.67c0-9.795 4.359-18.564 11.236-24.492z" fill="#fef1da"/></g></g><path d="m285.675 38.77c0-.7 1.044-1.27 2.328-1.27h116.223c1.26 0 2.281 1.021 2.281 2.281v96.721c0 1.26-1.021 2.281-2.281 2.281h-116.223c-.008 0-.016 0-.023 0-1.269 0-2.304-1.012-2.304-2.281v-97.732z" fill="#9cf8d2"/><path d="m301.558 442.057h-90.482l-4.018 18.804 7.003 36.558c.715 3.733 3.98 6.432 7.781 6.432h66.667c3.801 0 7.066-2.699 7.781-6.432l7.003-36.558z" fill="#fccd7f"/><path d="m303.293 460.861h-96.235l1.916 10 5.088 26.557c.715 3.733 3.98 6.432 7.781 6.432h22.352c-3.801 0-7.066-2.699-7.781-6.432l-3.787-19.768c-.675-3.523 2.025-6.789 5.612-6.789h63.139z" fill="#fbc56d"/><path d="m307.686 460.861h-105.021c-4.122 0-7.463-3.341-7.463-7.463v-20.888c0-4.122 3.341-7.463 7.463-7.463h105.021c4.122 0 7.463 3.341 7.463 7.463v20.889c0 4.121-3.342 7.462-7.463 7.462z" fill="#fccd7f"/><path d="m227.111 437.037v-11.99h-24.447c-4.122 0-7.463 3.341-7.463 7.463v20.889c0 4.122 3.341 7.463 7.463 7.463h105.021c4.122 0 7.463-3.341 7.463-7.463v-2.625h-74.301c-7.586 0-13.736-6.151-13.736-13.737z" fill="#fbc56d"/><path d="m307.486 391.171h-51.81v-31.159c0-19.937 16.162-36.099 36.099-36.099h45.659c3.397 0 6.151 2.754 6.151 6.151v25.008c-.001 19.937-16.163 36.099-36.099 36.099z" fill="#57be92"/><path d="m203.865 391.171h51.81v-31.159c0-19.937-16.162-36.099-36.099-36.099h-45.659c-3.397 0-6.151 2.754-6.151 6.151v25.008c0 19.937 16.162 36.099 36.099 36.099z" fill="#57be92"/><path d="m196.692 355.073v-25.008c0-3.397 2.754-6.151 6.151-6.151h-28.926c-3.397 0-6.151 2.754-6.151 6.151v25.008c0 19.937 16.162 36.099 36.099 36.099h28.926c-19.937-.001-36.099-16.163-36.099-36.099z" fill="#22b27f"/></g><g><path d="m225.675 230.711c1.938 0 3.805-.75 5.205-2.1 1.466-1.414 2.295-3.363 2.295-5.4v-133.189c0-4.142-3.358-7.5-7.5-7.5s-7.5 3.358-7.5 7.5v125.646h-105.832v-170.668h105.833v13.06c0 4.142 3.358 7.5 7.5 7.5s7.5-3.358 7.5-7.5v-18.232c0-5.419-4.409-9.828-9.828-9.828h-113.948c-6.648 0-12.057 5.409-12.057 12.057v176.554c0 6.648 5.409 12.057 12.057 12.057 0 0 116.184.043 116.275.043z"/><path d="m406.508 30h-118.505c-5.511 0-9.828 3.852-9.828 8.77v100.038c0 2.016.811 3.946 2.25 5.357 1.403 1.375 3.289 2.143 5.25 2.143.05 0 .101 0 .152-.001.721-.015 1.448-.022 2.176-.022h118.505c4.142 0 7.5-3.358 7.5-7.5v-101.285c0-4.142-3.358-7.5-7.5-7.5zm-7.5 101.284h-105.833v-86.284h105.833z"/><path d="m450.763 25.03h-6.755v-17.53c0-4.142-3.358-7.5-7.5-7.5h-148.505c-13.3 0-25.09 6.56-32.328 16.607-7.237-10.047-19.027-16.607-32.327-16.607h-148.505c-4.142 0-7.5 3.358-7.5 7.5v17.53h-6.755c-17.373 0-31.507 14.134-31.507 31.507v209.953c0 17.373 14.134 31.507 31.507 31.507h187.588v29.149c-7.662-6.676-17.662-10.732-28.599-10.732h-45.659c-7.527 0-13.651 6.124-13.651 13.651v25.008c0 24.041 19.558 43.599 43.599 43.599h44.311v18.875h-45.511c-8.25 0-14.962 6.712-14.962 14.963v20.889c0 7.63 5.744 13.932 13.132 14.839l5.861 30.592c1.39 7.255 7.76 12.521 15.147 12.521h66.667c7.387 0 13.757-5.266 15.147-12.521l5.861-30.592c7.388-.907 13.132-7.21 13.132-14.839v-20.889c0-8.25-6.712-14.963-14.962-14.963h-44.511v-18.875h16.905c4.142 0 7.5-3.358 7.5-7.5s-3.358-7.5-7.5-7.5h-16.905v-23.66c0-15.77 12.829-28.599 28.599-28.599h44.311v23.659c0 14.374-10.739 26.566-24.979 28.361-4.109.518-7.021 4.269-6.503 8.379.518 4.109 4.269 7.029 8.379 6.503 21.723-2.738 38.104-21.329 38.104-43.243v-25.008c0-7.527-6.124-13.651-13.651-13.651h-45.659c-10.936 0-20.937 4.057-28.599 10.732v-29.149h187.588c17.373 0 31.507-14.134 31.507-31.507v-209.952c-.005-17.373-14.139-31.507-31.512-31.507zm-161.84 470.978c-.038.198-.212.342-.415.342h-66.667c-.202 0-.376-.144-.415-.343l-5.296-27.646h78.089zm18.768-42.647-4.371.002c-.009 0-.018-.002-.028-.002h-96.235c-.216 0-.43.017-.644.036l-3.712.001-.038-20.852 52.642-.019c.123.006.244.019.369.019.126 0 .249-.013.374-.019l51.599-.018zm-132.425-98.288v-23.66h44.311c15.77 0 28.599 12.829 28.599 28.599v23.66h-44.311c-15.77-.001-28.599-12.83-28.599-28.599zm-92.923-340.073h141.005c13.69 0 24.828 11.138 24.828 24.828v214.547c-6.813-5.446-15.448-8.707-24.828-8.707h-141.005zm-38.262 251.489v-209.952c0-9.102 7.405-16.507 16.507-16.507h6.755v213.139c0 4.142 3.358 7.5 7.5 7.5h148.505c12.846 0 23.444 9.807 24.702 22.328h-187.463c-9.102-.001-16.506-7.406-16.506-16.508zm423.189 0c0 9.102-7.405 16.507-16.507 16.507h-187.462c1.258-12.52 11.856-22.328 24.702-22.328h148.505c4.142 0 7.5-3.358 7.5-7.5v-166.197c0-4.142-3.358-7.5-7.5-7.5s-7.5 3.358-7.5 7.5v158.697h-141.005c-9.38 0-18.015 3.261-24.828 8.707v-214.547c0-13.69 11.138-24.828 24.828-24.828h141.005v40.009c0 4.142 3.358 7.5 7.5 7.5s7.5-3.358 7.5-7.5v-14.979h6.755c9.102 0 16.507 7.405 16.507 16.507z"/><path d="m285.675 178.147h10.386c4.142 0 7.5-3.358 7.5-7.5s-3.358-7.5-7.5-7.5h-10.386c-4.142 0-7.5 3.358-7.5 7.5s3.358 7.5 7.5 7.5z"/><path d="m406.508 163.147h-82.721c-4.142 0-7.5 3.358-7.5 7.5s3.358 7.5 7.5 7.5h82.721c4.142 0 7.5-3.358 7.5-7.5s-3.358-7.5-7.5-7.5z"/><path d="m406.508 194.987h-10.386c-4.142 0-7.5 3.358-7.5 7.5s3.358 7.5 7.5 7.5h10.386c4.142 0 7.5-3.358 7.5-7.5s-3.358-7.5-7.5-7.5z"/><path d="m368.396 194.987h-82.721c-4.142 0-7.5 3.358-7.5 7.5s3.358 7.5 7.5 7.5h82.721c4.142 0 7.5-3.358 7.5-7.5s-3.357-7.5-7.5-7.5z"/></g></g></svg>