<svg id="Capa_1" enable-background="new 0 0 512 512" height="512" viewBox="0 0 512 512" width="512" xmlns="http://www.w3.org/2000/svg"><g><g><path d="m278.902 504h-270.902v-171.504l135.451-150.589 135.451 150.589z" fill="#e7ecf1"/><path d="m8 486h270.902v18h-270.902z" fill="#c6d0da"/><path d="m278.902 332.496h225.098v171.504h-225.098z" fill="#c6d0da"/><path d="m278.902 486h225.098v18h-225.098z" fill="#a0aab7"/><path d="m504 332.496-135.451-150.589h-225.098l135.451 150.589z" fill="#dc4955"/><path d="m262.711 314.496 16.191 18h225.098l-16.19-18z" fill="#d82f3c"/><path d="m100.676 382.78h85.55v121.22h-85.55z" fill="#ecb85e"/><path d="m100.676 486h85.55v18h-85.55z" fill="#eaa949"/><path d="m342.718 382.78h106.147v65.743h-106.147z" fill="#9ec8fc"/><path d="m342.718 430.523h106.146v18h-106.146z" fill="#80b6fc"/><ellipse cx="302.088" cy="110.086" fill="#f6e080" rx="102.086" ry="102.086" transform="matrix(.707 -.707 .707 .707 10.637 245.852)"/><path d="m302.088 8c-3.033 0-6.034.14-9 .399 52.164 4.558 93.086 48.34 93.086 101.687s-40.922 97.129-93.086 101.687c2.966.259 5.967.399 9 .399 56.381 0 102.086-45.705 102.086-102.086s-45.705-102.086-102.086-102.086z" fill="#eccd61"/><g><path d="m331.932 8h-29.844c56.381 0 102.086 45.706 102.086 102.086s-45.705 102.086-102.086 102.086h29.844c56.381 0 102.086-45.705 102.086-102.086s-45.705-102.086-102.086-102.086z" fill="#ecb85e"/></g></g><g><path d="m123.48 431.099c-4.151 0-7.515 3.365-7.515 7.515v10.286c0 4.15 3.364 7.515 7.515 7.515s7.515-3.365 7.515-7.515v-10.286c0-4.15-3.364-7.515-7.515-7.515z"/><path d="m342.888 456.414h106.355c4.151 0 7.515-3.365 7.515-7.515v-65.872c0-4.15-3.364-7.515-7.515-7.515h-106.355c-4.151 0-7.515 3.364-7.515 7.515v65.873c0 4.15 3.364 7.514 7.515 7.514zm98.84-15.029h-38.149v-50.842h38.149zm-91.326-50.842h38.148v50.842h-38.148z"/><g><path d="m511.993 332.5c-.003-.142-.011-.283-.022-.425-.008-.109-.017-.218-.029-.326-.016-.133-.038-.265-.061-.397-.02-.113-.039-.226-.064-.338-.028-.124-.062-.247-.096-.371-.031-.114-.062-.228-.099-.34-.039-.119-.084-.235-.129-.353-.043-.112-.086-.223-.133-.332-.05-.113-.105-.223-.161-.334-.055-.109-.109-.219-.169-.325-.059-.104-.122-.205-.186-.307-.069-.109-.138-.218-.212-.323-.065-.092-.134-.183-.204-.273-.085-.109-.171-.217-.261-.321-.033-.038-.061-.079-.095-.117l-44.403-49.366c-2.775-3.084-7.527-3.339-10.613-.562-3.086 2.775-3.338 7.527-.562 10.612l33.124 36.826h-205.323l-122.197-135.851h66.395c19.711 18.78 46.375 30.324 75.685 30.324h29.902c17.934 0 34.876-4.323 49.842-11.979l52.48 58.345c2.783 3.092 7.536 3.331 10.612.562 3.086-2.776 3.338-7.527.562-10.613l-50.551-56.201c28.312-19.879 46.856-52.77 46.856-89.915.001-60.544-49.256-109.8-109.801-109.8h-29.902c-35.722 0-69.327 17.471-89.893 46.734-2.386 3.396-1.568 8.083 1.827 10.469 3.396 2.388 8.085 1.567 10.469-1.827 17.755-25.264 46.763-40.347 77.597-40.347 52.257 0 94.771 42.514 94.771 94.771s-42.514 94.771-94.771 94.771-94.771-42.514-94.771-94.771c0-9.918 1.523-19.687 4.529-29.038 1.27-3.951-.904-8.184-4.855-9.454-3.949-1.27-8.184.903-9.454 4.855-3.483 10.839-5.249 22.155-5.249 33.636 0 24.061 7.786 46.335 20.961 64.447h-70.108c-2.113-.009-4.17.932-5.587 2.489l-77.062 85.675c-2.776 3.086-2.525 7.837.562 10.613 3.087 2.775 7.839 2.524 10.613-.562l71.475-79.462 128.201 142.529v161.442h-77.829v-113.942c0-4.15-3.364-7.515-7.515-7.515h-85.717c-4.151 0-7.515 3.364-7.515 7.515v113.943h-77.828v-161.443l36.628-40.722c2.776-3.086 2.524-7.837-.562-10.613-3.088-2.777-7.839-2.523-10.613.562l-38.554 42.865c-1.241 1.38-1.928 3.17-1.928 5.026v171.839c0 4.15 3.364 7.515 7.515 7.515h496.971c4.151 0 7.515-3.365 7.515-7.515v-171.839c-.001-.049-.007-.097-.008-.146zm-100.015-222.7c0-35.701-17.131-67.473-43.601-87.54 34.297 14.274 58.475 48.134 58.475 87.54s-24.177 73.266-58.475 87.54c26.47-20.066 43.601-51.838 43.601-87.54zm-233.404 387.171h-70.688v-106.428h70.688zm318.397 0h-210.509v-156.811h210.509z"/><path d="m269.929 240.672c-4.151 0-7.515 3.364-7.515 7.515 0 4.15 3.364 7.515 7.515 7.515h97.054c4.151 0 7.515-3.365 7.515-7.515s-3.364-7.515-7.515-7.515z"/><path d="m285.361 137.244c-3.468-2.268-8.116-1.296-10.382 2.171-2.268 3.466-1.296 8.115 2.171 10.382 6.579 4.303 11.382 5.98 17.369 6.553v4.237c0 4.142 3.358 7.5 7.5 7.5 4.143 0 7.5-3.358 7.5-7.5v-4.949c11.981-3.138 19.66-13.412 21.364-23.547 2.207-13.131-4.921-24.998-17.739-29.529-1.194-.422-2.408-.86-3.625-1.31v-22.309c2.222.902 3.513 1.984 3.626 2.081l.007-.008c8.349 6.537 17.576-5.78 9.021-11.968-1.924-1.477-6.356-4.401-12.654-5.701v-3.763c0-4.142-3.357-7.5-7.5-7.5-4.142 0-7.5 3.358-7.5 7.5v4.28c-.379.101-.758.2-1.142.316-8.653 2.607-15.115 9.991-16.864 19.271-1.606 8.524 1.167 16.778 7.238 21.54 2.808 2.203 6.224 4.223 10.768 6.317v29.951c-3.058-.481-5.441-1.584-9.158-4.015zm30.73-7.64c-.621 3.694-2.85 7.572-6.571 9.889v-22.23c7.212 3.27 7.025 9.639 6.571 12.341zm-23.082-36.414c-1.623-1.273-2.312-4.005-1.756-6.959.375-1.993 1.427-4.254 3.267-5.883v13.923c-.534-.356-1.045-.716-1.511-1.081z"/></g></g></g></svg>