<svg id="Capa_1" enable-background="new 0 0 512.105 512.105" height="512" viewBox="0 0 512.105 512.105" width="512" xmlns="http://www.w3.org/2000/svg"><g><g><g id="XMLID_294_"><g><path d="m490.473 140.813v116.98c0 16.38-6.64 31.2-17.37 41.93s-25.55 17.37-41.93 17.37c-14.53 0-28.55-5.33-39.4-14.98l-15.42-13.7-83.02-63.16v-33.81l90.09-62.65 37.85-25.11c3.66-2.43 7.62-4.28 11.78-5.53 4.15-1.26 8.48-1.9 12.86-1.9 24.609 0 44.56 19.95 44.56 44.56zm-29.131 1.01c.1-7.58-5.41-14.32-12.95-15.14-3.36-.37-6.68.42-9.49 2.23l-49.05 31.64-39.83 23.32v41.38l41.67 36.93 19.04 17.39c6.55 5.98 15.49 8.72 24.44 7.29 14.17-2.27 24.44-14.77 24.63-29.11z" fill="#fedf30"/></g></g><g><g id="XMLID_3_"><g><path d="m191.092 167.893v61.1l-55.34 59.42-15.42 13.7c-5.42 4.82-11.64 8.57-18.32 11.11s-13.82 3.87-21.08 3.87c-32.75 0-59.3-26.55-59.3-59.3v-116.98c0-12.3 4.99-23.44 13.05-31.51 8.07-8.06 19.21-13.05 31.51-13.05 8.76 0 17.33 2.58 24.64 7.43l37.85 25.11zm-32.23 57.36v-41.38l-36.61-23.32-49.05-31.64c-2.81-1.81-6.13-2.6-9.49-2.23-7.54.82-13.05 7.56-12.95 15.14l1.54 115.93c.19 14.34 10.46 26.84 24.63 29.11 8.95 1.43 17.89-1.31 24.44-7.29l19.04-17.39z" fill="#fedf30"/></g></g></g><g><g id="XMLID_291_"><g><path d="m392.982 228.063c3.09 32.12-11.71 63.35-38.52 81.3l-62.18 41.63c-2.98 1.99-4.77 5.34-4.77 8.93v38.27l2.28 70.61h-67.08l2.88-70.61v-38.27c0-3.59-1.79-6.94-4.77-8.93l-62.18-41.63c-26.81-17.95-41.61-49.18-38.52-81.3l13.71-142.43 7.89-41.32h234.63l2.92 41.32z" fill="#fee97d"/></g></g></g><g><path d="m316.674 135.92c2.25-3.258 3.439-7.072 3.439-11.03v-3.247-4.635c0-4.003 3.245-7.249 7.249-7.249h54c.114-.126.172-.19.286-.315l-2.376-24.444-2.92-40.922h-234.63l-7.89 40.922-2.406 24.759h.084l-11.388 118.304c-3.09 32.12 11.71 63.35 38.52 81.3l62.18 41.63c2.98 1.99 4.77 5.34 4.77 8.93v38.27l-2.88 70.61h31.833l2.88-70.61v-38.27c0-3.59-1.79-6.94-4.77-8.93l-62.18-41.63c-26.81-17.95-41.61-49.18-38.52-81.3l10.291-106.915c.622-6.46 6.049-11.39 12.539-11.39h12.404c2.653 0 4.803 2.15 4.803 4.803v7.081 3.247c0 3.938 1.198 7.783 3.435 11.024l4.368 6.329c2.258 3.272 1.462 7.718-1.744 10.068-25.343 18.577-41.499 48.98-40.253 83.012 1.872 51.113 43.257 92.593 94.367 94.574 55.978 2.169 102.21-42.742 102.21-98.247 0-33.565-16.91-63.251-42.654-80.999-1.947-1.342-2.457-3.993-1.114-5.94z" fill="#fee45a"/><g fill="#fedf30"><path d="m396.702 35.135v34.672c0 8.388-6.87 15.192-15.34 15.192h-250.62c-8.47 0-15.34-6.804-15.34-15.192v-34.672c0-8.388 6.87-15.192 15.34-15.192h250.62c8.47 0 15.34 6.804 15.34 15.192z"/><path d="m191.992 75.244h128.121v34.515h-128.121z"/></g></g><path d="m330.705 398.19h-149.305c-10.448 0-18.918 8.47-18.918 18.918v19.858l19.758 36.348h153.019l14.365-36.348v-19.858c-.001-10.448-8.47-18.918-18.919-18.918z" fill="#fee45a"/><path d="m260.41 473.213-19.758-36.348v-19.858c0-9.787 7.432-17.836 16.959-18.817h-76.211c-10.448 0-18.918 8.47-18.918 18.918v19.858l19.758 36.348h153.019l.04-.101z" fill="#fedf30"/><path d="m365.35 436.966h-222.937c-11.889 0-21.526 9.638-21.526 21.526v46.113h265.989v-46.113c0-11.888-9.638-21.526-21.526-21.526z" fill="#fedf30"/><path d="m199.057 504.504v-46.113c0-11.211 8.572-20.411 19.519-21.425h-76.163c-11.889 0-21.526 9.638-21.526 21.526v46.113h265.989v-.101z" fill="#fed402"/><path d="m292.714 103.62h-64.884l-19.837 18.022v3.247c0 .692.211 1.368.604 1.938l19.596 28.395 16.91 21.07h22.99l15.82-21.07 19.596-28.395c.393-.57.604-1.245.604-1.938v-3.247z" fill="#efedef"/><path d="m265.473 155.223-19.021-27.561c-.768-1.113-1.179-2.433-1.179-3.785v-2.234l19.837-18.022h-37.28l-19.837 18.022v3.247c0 .692.211 1.368.604 1.937l19.596 28.395 16.91 21.07h22.99l6.907-9.199z" fill="#e5e1e5"/><path d="m191.992 19.943h128.121v65.69h-128.121z" fill="#fed402"/><path d="m292.242 7.503h-19.615v1.963h-33.149v-1.963h-19.615c-6.56 0-11.87 5.31-11.87 11.87v102.27h31.484v-1.994h33.149v1.994h31.487v-102.27c0-6.56-5.311-11.87-11.871-11.87z" fill="#eb5569"/><g><path d="m250.609 9.465h-11.131v-1.962h-19.615c-6.56 0-11.87 5.31-11.87 11.87v102.27h37.28v-102.27c-.001-4.144 2.121-7.785 5.336-9.908z" fill="#e53950"/></g><path d="m239.478 7.5h33.149v114.141h-33.149z" fill="#f9f7f8"/><path d="m239.478 7.5v114.141h5.794v-102.268c0-4.144 2.122-7.785 5.336-9.907l3.05-1.965h-14.18z" fill="#efedef"/><path d="m277.164 153.112-2.164.142-7.606-.527-30.444 4.424-15.389 7.502-30.224 36.75-6.526 18.375 2.576 32.113 10.819 28.678 25.244 20.779 34.517 9.788 20.165-1.222c34.179-9.624 59.244-41.007 59.244-78.264-.001-37.609-25.537-69.24-60.212-78.538z" fill="#fedf30"/><path d="m219.033 231.65c0-37.231 25.072-68.604 59.215-78.252-7.045-1.991-14.513-3.07-22.195-3.07-44.913 0-81.323 36.409-81.323 81.323 0 44.913 36.409 81.323 81.323 81.323 7.682 0 15.15-1.075 22.195-3.066-34.143-9.649-59.215-41.027-59.215-78.258z" fill="#fed402"/><circle cx="256.052" cy="231.65" fill="#fef0ae" r="51.323"/><path d="m233.313 277.656c-8.995-13.079-14.281-28.929-14.281-46.005s5.263-32.915 14.258-45.994c-16.915 8.402-28.56 25.861-28.56 45.994s11.668 37.603 28.583 46.005z" fill="#fee97d"/></g><g><path d="m167.23 231.65c0 48.977 39.846 88.823 88.822 88.823s88.822-39.846 88.822-88.823c0-34.907-20.243-65.17-49.604-79.68l15.019-21.761c.864-1.252 1.327-2.738 1.327-4.26v-106.577c.001-10.682-8.689-19.372-19.37-19.372h-19.619-33.148-19.619c-10.682 0-19.371 8.69-19.371 19.372v106.578c0 1.522.463 3.008 1.327 4.26l15.019 21.761c-29.361 14.51-49.605 44.773-49.605 79.679zm129.387-212.278v94.77h-16.49v-99.142h12.119c2.41 0 4.371 1.961 4.371 4.372zm-31.49-4.372v99.141h-18.148v-99.141zm-45.268 0h12.119v99.141h-16.49v-94.77c0-2.41 1.961-4.371 4.371-4.371zm-.555 114.141h20.174 33.148 20.174l-11.893 17.231c-7.891-2.304-16.231-3.544-24.856-3.544s-16.965 1.241-24.856 3.544zm36.748 28.687c40.706 0 73.822 33.117 73.822 73.823s-33.116 73.823-73.822 73.823-73.822-33.117-73.822-73.823 33.116-73.823 73.822-73.823z"/><path d="m256.052 290.473c32.435 0 58.822-26.388 58.822-58.823 0-9.997-2.576-19.891-7.449-28.61-2.022-3.616-6.59-4.909-10.206-2.888-3.615 2.021-4.908 6.59-2.888 10.206 3.626 6.489 5.543 13.852 5.543 21.293 0 24.164-19.658 43.823-43.822 43.823s-43.822-19.659-43.822-43.823 19.658-43.823 43.822-43.823c6.282 0 12.367 1.321 18.087 3.925 3.771 1.716 8.218.051 9.934-3.717 1.717-3.77.053-8.217-3.717-9.934-7.686-3.5-15.862-5.274-24.304-5.274-32.435 0-58.822 26.388-58.822 58.823s26.388 58.822 58.822 58.822z"/><path d="m445.915 88.749c-10.272 0-20.227 3.002-28.787 8.683l-27.433 18.205-2.245-23.333c9.649-2.672 16.756-11.525 16.756-22.013v-35.006c0-12.596-10.247-22.843-22.843-22.843h-47.245c-4.143 0-7.5 3.358-7.5 7.5s3.357 7.5 7.5 7.5h47.245c4.324 0 7.843 3.518 7.843 7.843v35.006c0 4.325-3.519 7.843-7.843 7.843h-2.035c-.004 0-.008 0-.012 0h-45.198c-4.143 0-7.5 3.358-7.5 7.5s3.357 7.5 7.5 7.5h38.342l3.496 36.322c.001.007.001.014.002.022l9.557 99.302c1.922 19.966-3.685 39.498-15.159 55.133-.058.077-.113.154-.168.232-5.403 7.308-12.09 13.758-19.9 18.987l-62.176 41.627c-5.07 3.394-8.097 9.063-8.097 15.164v30.768h-46.924v-30.768c0-6.102-3.026-11.771-8.096-15.164l-62.177-41.627c-24.561-16.442-38.059-44.933-35.227-74.352l13.054-135.646h37.342c4.143 0 7.5-3.358 7.5-7.5s-3.357-7.5-7.5-7.5h-44.167c-.023 0-.045 0-.068 0h-3.009c-4.324 0-7.843-3.518-7.843-7.843v-35.006c0-4.325 3.519-7.843 7.843-7.843h47.245c4.143 0 7.5-3.358 7.5-7.5s-3.357-7.5-7.5-7.5h-47.245c-12.596 0-22.843 10.247-22.843 22.843v35.006c0 10.838 7.59 19.931 17.732 22.259l-2.282 23.71-28.374-18.829c-8.56-5.68-18.514-8.683-28.786-8.683-28.706 0-52.061 23.354-52.061 52.061v116.981c0 36.836 29.969 66.805 66.805 66.805 16.379 0 32.142-5.993 44.382-16.874l10.091-8.969c5.496 6.351 11.88 12.034 19.065 16.844l62.178 41.627c.902.604 1.44 1.613 1.44 2.699v30.768h-36.69c-14.567 0-26.419 11.851-26.419 26.418v12.358h-12.568c-16.005 0-29.026 13.021-29.026 29.026v38.613h-13.442c-4.143 0-7.5 3.358-7.5 7.5s3.357 7.5 7.5 7.5h312.214c4.143 0 7.5-3.358 7.5-7.5s-3.357-7.5-7.5-7.5h-17.783v-38.613c0-16.005-13.021-29.026-29.026-29.026h-8.226v-12.358c0-14.567-11.852-26.418-26.419-26.418h-35.69v-30.768c0-1.086.538-2.095 1.441-2.699l62.177-41.627c6.996-4.684 13.227-10.199 18.624-16.348l9.532 8.472c12.24 10.882 28.003 16.875 44.382 16.875 36.836 0 66.805-29.968 66.805-66.805v-116.981c-.001-28.706-23.355-52.06-52.061-52.06zm-330.565 207.76c-9.492 8.438-21.715 13.085-34.416 13.085-28.565 0-51.805-23.239-51.805-51.805v-116.98c0-20.435 16.625-37.061 37.061-37.061 7.313 0 14.399 2.137 20.492 6.181l35.039 23.253-1.64 17.04-42.814-27.611c-4.237-2.73-9.336-3.931-14.363-3.386-11.166 1.214-19.794 11.184-19.641 22.697l.245 18.417c.055 4.108 3.401 7.4 7.497 7.4h.102c4.142-.055 7.455-3.458 7.399-7.599l-.245-18.417c-.051-3.866 2.7-7.198 6.264-7.585 1.64-.179 3.24.196 4.615 1.082l49.05 31.631c.09.058.186.098.277.151l-5.807 60.34c-.984 10.222-.295 20.346 1.886 30.047l-18.23 16.643c-4.936 4.506-11.569 6.479-18.204 5.422-10.462-1.672-18.161-10.843-18.307-21.805l-.873-65.547c-.055-4.142-3.452-7.45-7.599-7.399-4.142.055-7.455 3.458-7.399 7.6l.873 65.547c.242 18.275 13.254 33.59 30.938 36.417 1.977.316 3.952.472 5.914.472 9.126 0 17.917-3.369 24.771-9.628l13.125-11.983c1.947 4.669 4.264 9.178 6.932 13.484zm226.774 120.599v12.358h-30.712c-4.143 0-7.5 3.358-7.5 7.5s3.357 7.5 7.5 7.5h53.938c7.734 0 14.026 6.292 14.026 14.026v38.613h-250.99v-38.613c0-7.734 6.292-14.026 14.026-14.026h137.036c4.143 0 7.5-3.358 7.5-7.5s-3.357-7.5-7.5-7.5h-109.467v-12.358c0-6.296 5.122-11.418 11.419-11.418h149.305c6.297 0 11.419 5.122 11.419 11.418zm58.321-189.765-5.863-60.922 48.381-31.2c1.377-.887 2.978-1.259 4.617-1.083 3.563.387 6.314 3.719 6.264 7.584l-1.544 115.928c-.146 10.962-7.845 20.132-18.307 21.805-6.631 1.058-13.27-.916-18.205-5.422l-17.402-15.888c2.317-9.931 3.068-20.315 2.059-30.802zm82.53 30.447c0 28.565-23.239 51.805-51.805 51.805-12.701 0-24.924-4.647-34.417-13.086l-10.493-9.327c2.691-4.275 5.039-8.752 7.015-13.392l12.398 11.32c6.856 6.26 15.646 9.629 24.772 9.628 1.961 0 3.938-.156 5.914-.472 17.684-2.827 30.695-18.142 30.938-36.417l1.544-115.928c.153-11.513-8.475-21.482-19.641-22.696-5.027-.547-10.126.656-14.365 3.388l-41.871 27.002-1.641-17.057 34.099-22.629c6.094-4.043 13.18-6.181 20.493-6.181 20.436 0 37.061 16.625 37.061 37.061v116.981z"/></g></g></svg>