<svg id="Capa_1" enable-background="new 0 0 511.26 511.26" height="512" viewBox="0 0 511.26 511.26" width="512" xmlns="http://www.w3.org/2000/svg"><g><g><g id="XMLID_292_"><g><path d="m407.05 149.499v324.38c0 16.4-13.29 29.69-29.69 29.69h-243.46c-16.4 0-29.69-13.29-29.69-29.69v-324.38-80.84h302.84z" fill="#baafb9"/></g></g><path d="m104.21 149.499v25h302.84v-25-80.84h-302.84z" fill="#aa9ea9"/><path d="m164.316 473.879v-324.38-80.84h-60.106v80.84 324.38c0 16.4 13.29 29.69 29.69 29.69h60.107c-16.401 0-29.691-13.29-29.691-29.69z" fill="#aa9ea9"/><g id="XMLID_942_"><g><path d="m377.05 149.499v318.95c0 2.827-2.292 5.12-5.12 5.12h-231.478c-3.447 0-6.242-2.795-6.242-6.242v-317.828-55.67h242.84z" fill="#d4f2f6"/></g></g><path d="m164.316 93.829h-9.133-20.973v55.67 317.499c0 3.629 2.942 6.571 6.571 6.571h23.536v-246.756c0-28.892 23.421-52.313 52.313-52.313h160.42v-25-55.67h-212.734z" fill="#a6e7f0"/><path d="m392.791 64.05h-267.925l-35.826 22.469v53.19c0 5.4 4.38 9.79 9.79 9.79h313.6c5.41 0 9.79-4.39 9.79-9.79v-53.19z" fill="#aa9ea9"/><path d="m146.167 95.139v-21.996l14.498-9.093h-35.799l-35.826 22.469v53.19c0 5.4 4.38 9.79 9.79 9.79h313.6c5.41 0 9.79-4.39 9.79-9.79v-3.587h-235.07c-22.634.001-40.983-18.348-40.983-40.983z" fill="#9b8e99"/><path d="m411.237 27.934h-311.98l-10.217 20.245v38.34h333.18v-38.34z" fill="#9b8e99"/><g id="XMLID_944_"><g><path d="m503.76 16.919v22.02c0 5.1-4.13 9.24-9.23 9.24h-477.8c-5.1 0-9.23-4.14-9.23-9.24v-22.02c0-5.1 4.13-9.23 9.23-9.23h477.8c5.1 0 9.23 4.13 9.23 9.23z" fill="#a79ba7"/></g></g><path d="m70.419 38.939v-22.02c0-5.1 4.13-9.23 9.23-9.23h-62.919c-5.1 0-9.23 4.13-9.23 9.23v22.02c0 5.1 4.13 9.24 9.23 9.24h62.919c-5.1 0-9.23-4.14-9.23-9.24z" fill="#9b8e99"/><path d="m488.58 271.53v-18.995c0-8.834-7.161-15.995-15.995-15.995-8.834 0-15.995 7.161-15.995 15.995v18.995 30.688h31.989v-30.688z" fill="#e2dee2"/><path d="m498.537 330.572h-51.902c-2.8 0-5.07-2.27-5.07-5.07v-25.951c0-17.132 13.889-31.021 31.021-31.021 17.132 0 31.021 13.889 31.021 31.021v25.951c0 2.8-2.27 5.07-5.07 5.07z" fill="#efedef"/><circle cx="255.63" cy="311.533" fill="#f9f7f8" r="80.559"/></g><g><path d="m141.707 419.363c0-4.142-3.358-7.5-7.5-7.5s-7.5 3.358-7.5 7.5v54.208c0 4.142 3.358 7.5 7.5 7.5h242.847c4.142 0 7.5-3.358 7.5-7.5v-265.789c0-4.142-3.358-7.5-7.5-7.5s-7.5 3.358-7.5 7.5v258.289h-227.847z"/><path d="m494.528 55.675c9.226 0 16.731-7.506 16.731-16.731v-22.023c0-9.226-7.506-16.731-16.731-16.731h-477.797c-9.225-.001-16.731 7.505-16.731 16.731v22.022c0 9.226 7.506 16.731 16.731 16.731h64.807v30.832.01s0 .006 0 .01v53.181c0 8.814 6.634 16.095 15.168 17.146v317.023c0 20.51 16.686 37.195 37.195 37.195h243.456c20.51 0 37.195-16.686 37.195-37.195v-317.023c8.534-1.051 15.168-8.331 15.168-17.146v-53.181c0-.003 0-.006 0-.01s0-.006 0-.01v-30.831h35.364v174.601c-9.287 3.138-15.995 11.927-15.995 22.26v16.52c-9.13 7.05-15.026 18.094-15.026 30.495v25.951c0 6.931 5.639 12.57 12.57 12.57h51.902c6.931 0 12.57-5.639 12.57-12.57v-25.951c0-12.401-5.896-23.445-15.026-30.495v-16.52c0-10.333-6.707-19.122-15.995-22.26v-174.601zm1.579 267.397h-47.042v-23.521c0-12.97 10.551-23.521 23.521-23.521s23.521 10.551 23.521 23.521zm-15.026-61.087c-2.735-.618-5.575-.955-8.495-.955s-5.76.337-8.495.955v-9.45c0-4.684 3.811-8.495 8.495-8.495s8.495 3.811 8.495 8.495zm-466.081-223.042v-22.022c0-.955.777-1.731 1.731-1.731h477.797c.955 0 1.731.777 1.731 1.731v22.022c0 .955-.777 1.731-1.731 1.731h-477.797c-.954.001-1.731-.776-1.731-1.731zm397.433 103.053h-212.919c-4.142 0-7.5 3.358-7.5 7.5s3.358 7.5 7.5 7.5h170.04v18.823c0 4.142 3.358 7.5 7.5 7.5s7.5-3.358 7.5-7.5v-18.823h15v316.879c0 12.238-9.957 22.195-22.195 22.195h-243.457c-12.239 0-22.195-9.957-22.195-22.195v-316.879h15v230.404c0 4.142 3.358 7.5 7.5 7.5s7.5-3.358 7.5-7.5v-230.404h25.845c4.142 0 7.5-3.358 7.5-7.5s-3.358-7.5-7.5-7.5h-68.725c-1.262 0-2.289-1.027-2.289-2.29v-45.69h318.184v45.691c0 1.262-1.027 2.289-2.289 2.289zm2.289-62.98h-318.184v-23.341h318.184z"/><path d="m255.63 399.592c48.556 0 88.059-39.503 88.059-88.059s-39.503-88.059-88.059-88.059-88.059 39.503-88.059 88.059 39.503 88.059 88.059 88.059zm0-161.117c40.285 0 73.059 32.774 73.059 73.059s-32.774 73.059-73.059 73.059-73.059-32.774-73.059-73.059 32.774-73.059 73.059-73.059z"/><path d="m215.469 353.301c3.926 1.318 8.179-.802 9.494-4.729l9.898-29.539h41.538l9.898 29.539c1.051 3.137 3.975 5.119 7.11 5.119.79 0 1.593-.125 2.384-.391 3.928-1.316 6.044-5.566 4.729-9.494l-11.56-34.499c-.002-.005-.004-.011-.005-.016l-11.74-35.037c-3.112-9.29-11.787-15.531-21.584-15.531s-18.472 6.242-21.584 15.531l-11.74 35.037c-.002.006-.004.011-.005.016l-11.56 34.499c-1.317 3.929.8 8.179 4.727 9.495zm40.161-79.578c3.341 0 6.3 2.128 7.361 5.297l8.381 25.014h-31.485l8.381-25.014c1.062-3.169 4.021-5.297 7.362-5.297z"/><path d="m300.342 446.389c4.142 0 7.5-3.358 7.5-7.5s-3.358-7.5-7.5-7.5h-88.474c-4.142 0-7.5 3.358-7.5 7.5s3.358 7.5 7.5 7.5z"/></g></g></svg>