<svg id="Capa_1" enable-background="new 0 0 511.598 511.598" height="512" viewBox="0 0 511.598 511.598" width="512" xmlns="http://www.w3.org/2000/svg"><g><g><g id="XMLID_943_"><g><path d="m330.463 413.829v34.05c0 31.05-25.17 56.22-56.22 56.22h-209.55c-31.05 0-56.22-25.17-56.22-56.22v-169.55-160.06-54.55c0-31.05 25.17-56.22 56.22-56.22h209.55c31.05 0 56.22 25.17 56.22 56.22v3.15z" fill="#baafb9"/></g></g><path d="m72.013 447.879v-169.55-160.06-54.55c0-31.05 25.17-56.22 56.22-56.22h-63.54c-31.05 0-56.22 25.17-56.22 56.22v54.55 160.06 169.55c0 31.05 25.17 56.22 56.22 56.22h63.539c-31.049 0-56.219-25.17-56.219-56.22z" fill="#aa9ea9"/><path d="m326.851 43.88c-12.701.107-24.319 4.814-33.289 12.52v382.105l6.9-.059v-44.306h30v-327.271-3.15c.001-6.986-1.282-13.668-3.611-19.839z" fill="#aa9ea9"/><g><g id="XMLID_945_"><g><path d="m300.463 63.719v384.16c0 14.481-11.739 26.22-26.22 26.22h-209.55c-14.481 0-26.22-11.739-26.22-26.22v-384.16c0-14.481 11.739-26.22 26.22-26.22h27.804c2.125 0 4.114 1.049 5.314 2.803l6.742 9.857c2.61 5.02 7.55 8.14 12.91 8.14h104.01c5.36 0 10.3-3.12 12.91-8.14l6.742-9.857c1.2-1.754 3.188-2.803 5.314-2.803h27.804c14.481 0 26.22 11.739 26.22 26.22z" fill="#d4f2f6"/></g></g></g><path d="m72.013 278.329v-160.06-54.55c0-9.472 2.339-18.39 6.476-26.22h-13.796c-14.481 0-26.22 11.739-26.22 26.22v384.16c0 14.481 11.739 26.22 26.22 26.22h13.795c-4.137-7.83-6.476-16.748-6.476-26.22v-169.55z" fill="#a6e7f0"/><g id="XMLID_946_"><g><path d="m300.463 63.719c0-3.864-.843-7.53-2.344-10.833-13.668 9.339-22.656 25.044-22.656 42.813v331.6c0 6.258 5.102 11.317 11.36 11.264l13.64-.116z" fill="#a6e7f0"/><path d="m503.123 81.319v318.06c0 6.88-5.57 12.45-12.45 12.45h-163.38c-14.82 0-26.83 12.02-26.83 26.83v-342.96c0-14.82 12.01-26.83 26.83-26.83h163.38c6.88 0 12.45 5.57 12.45 12.45z" fill="#9cf8d2"/></g></g><path d="m353.436 95.699c0-14.82 12.01-26.83 26.83-26.83h-52.973c-14.82 0-26.83 12.01-26.83 26.83v342.96c0-14.81 12.01-26.83 26.83-26.83h26.143z" fill="#6cf5c2"/><g id="XMLID_947_"><g><path d="m473.123 106.119v268.46c0 4.01-3.25 7.25-7.25 7.25h-128.16c-4 0-7.25-3.24-7.25-7.25v-268.46c0-4.01 3.25-7.25 7.25-7.25h128.16c4 0 7.25 3.24 7.25 7.25z" fill="#eaf9fa"/></g></g><path d="m353.436 98.869h-15.723c-4 0-7.25 3.24-7.25 7.25v268.46c0 4.01 3.25 7.25 7.25 7.25h15.723z" fill="#d4f2f6"/><path d="m428.692 346.399h-76.238c-3.271 0-5.922-2.651-5.922-5.922v-48.191c0-3.271 2.651-5.922 5.922-5.922h76.238c3.271 0 5.922 2.651 5.922 5.922v48.191c0 3.271-2.651 5.922-5.922 5.922z" fill="#a6e7f0"/><g fill="#eaf9fa"><path d="m251.963 220.112h-159.317c-4.863 0-8.806-3.943-8.806-8.806v-101.619c0-4.863 3.943-8.806 8.806-8.806h159.317c4.863 0 8.806 3.943 8.806 8.806v101.619c0 4.863-3.942 8.806-8.806 8.806z"/><path d="m138.816 442.235h-47.395c-4.187 0-7.581-3.394-7.581-7.581v-34.771c0-4.187 3.394-7.581 7.581-7.581h47.395c4.187 0 7.581 3.394 7.581 7.581v34.771c0 4.187-3.394 7.581-7.581 7.581z"/></g></g><g><path d="m490.672 61.367h-152.768c-1.242-34.047-29.311-61.367-63.656-61.367h-209.557c-35.133 0-63.716 28.583-63.716 63.716v384.166c0 35.133 28.583 63.716 63.716 63.716h209.557c35.133 0 63.716-28.583 63.716-63.716v-28.549h152.709c11 0 19.95-8.95 19.95-19.951v-318.065c0-11-8.95-19.95-19.951-19.95zm-216.424 435.231h-209.557c-26.862 0-48.716-21.854-48.716-48.716v-384.166c0-26.862 21.854-48.716 48.716-48.716h209.557c26.171 0 47.58 20.747 48.664 46.656-5.491.703-10.581 2.701-14.948 5.687v-3.628c0-18.591-15.125-33.716-33.716-33.716h-31.201c-2.475 0-4.791 1.221-6.189 3.264l-8.663 12.656c-.17.249-.326.508-.465.776-1.315 2.528-3.713 4.098-6.258 4.098h-104.005c-2.546 0-4.944-1.57-6.259-4.099-.139-.268-.294-.526-.464-.775l-8.662-12.656c-1.399-2.042-3.715-3.263-6.19-3.263h-31.201c-18.591 0-33.716 15.125-33.716 33.716v384.166c0 18.591 15.125 33.716 33.716 33.716h209.557c18.591 0 33.716-15.125 33.716-33.716v-9.22c0-9.168 6.422-16.849 15-18.822v28.042c-.001 26.862-21.855 48.716-48.716 48.716zm18.715-400.902v342.965 9.22c0 10.32-8.396 18.716-18.716 18.716h-209.556c-10.32 0-18.716-8.396-18.716-18.716v-384.165c0-10.32 8.396-18.716 18.716-18.716h27.246l6.197 9.054c3.967 7.255 11.33 11.74 19.333 11.74h104.005c8.003 0 15.367-4.485 19.333-11.74l6.196-9.054h27.246c10.32 0 18.716 8.396 18.716 18.716zm202.66 303.686c0 2.73-2.221 4.951-4.95 4.951h-163.38c-7.163 0-13.82 2.205-19.329 5.972v-314.609c0-10.658 8.671-19.329 19.329-19.329h163.38c2.729 0 4.95 2.221 4.95 4.95z"/><path d="m473.123 91.367h-20.106c-4.142 0-7.5 3.358-7.5 7.5s3.358 7.5 7.5 7.5h12.606v267.966h-135.16c-4.142 0-7.5 3.358-7.5 7.5s3.358 7.5 7.5 7.5h142.659c4.142 0 7.5-3.358 7.5-7.5v-282.966c.001-4.142-3.357-7.5-7.499-7.5z"/><path d="m330.463 106.367h90.591c4.142 0 7.5-3.358 7.5-7.5s-3.358-7.5-7.5-7.5h-90.591c-4.142 0-7.5 3.358-7.5 7.5s3.358 7.5 7.5 7.5z"/><path d="m346.532 157.206h9.001c4.142 0 7.5-3.358 7.5-7.5s-3.358-7.5-7.5-7.5h-9.001c-4.142 0-7.5 3.358-7.5 7.5s3.358 7.5 7.5 7.5z"/><path d="m380.823 149.706c0 4.142 3.358 7.5 7.5 7.5h46.292c4.142 0 7.5-3.358 7.5-7.5s-3.358-7.5-7.5-7.5h-46.292c-4.142 0-7.5 3.358-7.5 7.5z"/><path d="m434.614 184.511h-9.001c-4.142 0-7.5 3.358-7.5 7.5s3.358 7.5 7.5 7.5h9.001c4.142 0 7.5-3.358 7.5-7.5s-3.358-7.5-7.5-7.5z"/><path d="m346.532 199.511h46.291c4.142 0 7.5-3.358 7.5-7.5s-3.358-7.5-7.5-7.5h-46.291c-4.142 0-7.5 3.358-7.5 7.5s3.358 7.5 7.5 7.5z"/><path d="m346.532 241.815h9.001c4.142 0 7.5-3.358 7.5-7.5s-3.358-7.5-7.5-7.5h-9.001c-4.142 0-7.5 3.358-7.5 7.5s3.358 7.5 7.5 7.5z"/><path d="m434.614 226.815h-46.292c-4.142 0-7.5 3.358-7.5 7.5s3.358 7.5 7.5 7.5h46.292c4.142 0 7.5-3.358 7.5-7.5s-3.358-7.5-7.5-7.5z"/><path d="m412.63 338.899c-4.142 0-7.5 3.358-7.5 7.5s3.358 7.5 7.5 7.5h16.062c7.401 0 13.422-6.021 13.422-13.422v-48.191c0-7.401-6.021-13.422-13.422-13.422h-76.238c-7.401 0-13.422 6.021-13.422 13.422v48.191c0 7.401 6.021 13.422 13.422 13.422h28.214c4.142 0 7.5-3.358 7.5-7.5s-3.358-7.5-7.5-7.5h-26.636v-45.036h73.082v45.036z"/><path d="m251.963 93.38h-104.257c-4.142 0-7.5 3.358-7.5 7.5s3.358 7.5 7.5 7.5h104.257c.72 0 1.306.586 1.306 1.306v101.619c0 .72-.586 1.306-1.306 1.306h-159.317c-.72 0-1.306-.586-1.306-1.306v-101.618c0-.72.586-1.306 1.306-1.306h23.097c4.142 0 7.5-3.358 7.5-7.5s-3.358-7.5-7.5-7.5h-23.097c-8.991 0-16.306 7.315-16.306 16.306v101.619c0 8.991 7.315 16.306 16.306 16.306h159.317c8.991 0 16.306-7.315 16.306-16.306v-101.619c0-8.992-7.315-16.307-16.306-16.307z"/><path d="m83.84 279.24h13.27c4.142 0 7.5-3.358 7.5-7.5s-3.358-7.5-7.5-7.5h-13.27c-4.142 0-7.5 3.358-7.5 7.5s3.358 7.5 7.5 7.5z"/><path d="m260.769 264.24h-132.697c-4.142 0-7.5 3.358-7.5 7.5s3.358 7.5 7.5 7.5h132.697c4.142 0 7.5-3.358 7.5-7.5s-3.358-7.5-7.5-7.5z"/><path d="m260.769 301.49h-13.269c-4.142 0-7.5 3.358-7.5 7.5s3.358 7.5 7.5 7.5h13.27c4.142 0 7.5-3.358 7.5-7.5s-3.359-7.5-7.501-7.5z"/><path d="m83.84 316.49h132.697c4.142 0 7.5-3.358 7.5-7.5s-3.358-7.5-7.5-7.5h-132.697c-4.142 0-7.5 3.358-7.5 7.5s3.358 7.5 7.5 7.5z"/><path d="m83.84 353.741h13.27c4.142 0 7.5-3.358 7.5-7.5s-3.358-7.5-7.5-7.5h-13.27c-4.142 0-7.5 3.358-7.5 7.5s3.358 7.5 7.5 7.5z"/><path d="m260.769 338.741h-132.697c-4.142 0-7.5 3.358-7.5 7.5s3.358 7.5 7.5 7.5h132.697c4.142 0 7.5-3.358 7.5-7.5s-3.358-7.5-7.5-7.5z"/><path d="m138.816 384.802h-47.395c-8.316 0-15.081 6.765-15.081 15.081v34.771c0 8.316 6.765 15.081 15.081 15.081h47.395c8.316 0 15.081-6.765 15.081-15.081v-34.771c0-8.316-6.765-15.081-15.081-15.081zm.081 49.852c0 .045-.036.081-.081.081h-47.395c-.045 0-.081-.036-.081-.081v-34.771c0-.045.036-.081.081-.081h47.395c.045 0 .081.036.081.081z"/><path d="m260.769 409.769h-75.827c-4.142 0-7.5 3.358-7.5 7.5s3.358 7.5 7.5 7.5h75.827c4.142 0 7.5-3.358 7.5-7.5s-3.358-7.5-7.5-7.5z"/></g></g></svg>