<svg id="Capa_1" enable-background="new 0 0 512 512" height="512" viewBox="0 0 512 512" width="512" xmlns="http://www.w3.org/2000/svg"><g><g><path d="m389.989 37.974-33.691-29.974-33.69 29.974-33.69-29.974-33.69 29.974-33.688-29.974v130.154h68.919 33.305c-18.394 0-33.305 14.911-33.305 33.305v173.718h99.915c18.394 0 33.305-14.911 33.305-33.305v-303.872z" fill="#c6d0da"/><g><path d="m405.679 24.015v287.857c0 18.394-14.911 33.305-33.305 33.305h18c18.394 0 33.305-14.911 33.305-33.305v-303.872z" fill="#a0aab7"/></g><path d="m323.764 138.154h-33.305-168.833c-18.394 0-33.305 14.911-33.305 33.305v332.541l33.69-29.974 33.691 29.974 33.69-29.974 33.69 29.974 33.69-29.974 33.687 29.974v-158.823-173.718c0-18.394 14.912-33.305 33.305-33.305z" fill="#e7ecf1"/><g><g><g><path d="m305.764 138.154c-18.394 0-33.305 14.911-33.305 33.305v173.718 142.807l18 16.016v-158.823-173.718c0-18.394 14.911-33.305 33.305-33.305z" fill="#c6d0da"/></g></g></g><path d="m357.069 311.872v-140.413c0-18.394-14.911-33.305-33.305-33.305-18.394 0-33.305 14.911-33.305 33.305v173.718h66.61 33.305c-18.394 0-33.305-14.911-33.305-33.305z" fill="#808b95"/><path d="m332.764 139.395c-2.864-.802-5.88-1.241-9-1.241-18.394 0-33.305 14.911-33.305 33.305v173.718h18v-173.718c0-15.274 10.286-28.137 24.305-32.064z" fill="#5e6b75"/></g><g><path d="m424.008 80.771c4.151 0 7.515-3.365 7.515-7.515v-65.742c.208-6.29-7.952-9.951-12.51-5.614l-28.761 25.59-28.762-25.59c-2.847-2.533-7.143-2.533-9.99 0l-28.761 25.59-28.762-25.59c-2.847-2.533-7.143-2.533-9.99 0l-28.761 25.589-28.758-25.589c-4.562-4.338-12.718-.674-12.51 5.614v122.894h-92.595c-22.544 0-40.886 18.341-40.886 40.885v227.759c0 4.15 3.364 7.515 7.515 7.515s7.515-3.365 7.515-7.515v-227.758c0-14.257 11.599-25.856 25.856-25.856h170.886c-5.77 7.05-9.236 16.056-9.236 25.856v316.446l-21.244-18.902c-2.847-2.534-7.143-2.534-9.99 0l-28.761 25.589-28.761-25.589c-2.847-2.533-7.143-2.533-9.99 0l-28.761 25.589-28.761-25.589c-2.847-2.533-7.143-2.533-9.99 0l-21.247 18.904v-58.63c0-4.15-3.364-7.515-7.515-7.515s-7.515 3.365-7.515 7.515v75.374c-.208 6.29 7.95 9.949 12.51 5.614l28.761-25.589 28.761 25.589c2.847 2.533 7.143 2.533 9.99 0l28.761-25.589 28.761 25.589c2.847 2.533 7.143 2.533 9.99 0l28.761-25.589 28.758 25.589c4.578 4.341 12.713.67 12.51-5.614v-151.62h92.595c22.544 0 40.886-18.341 40.886-40.885v-208.666c0-4.15-3.364-7.515-7.515-7.515s-7.515 3.365-7.515 7.515v208.666c0 14.257-11.599 25.856-25.856 25.856-14.256 0-25.855-11.599-25.855-25.856v-67.769c0-4.15-3.364-7.515-7.515-7.515s-7.515 3.364-7.515 7.515v67.769c0 9.801 3.469 18.805 9.241 25.856h-60.951v-166.543c0-14.257 11.599-25.856 25.855-25.856s25.855 11.599 25.855 25.856v42.86c0 4.15 3.364 7.515 7.515 7.515s7.515-3.364 7.515-7.515v-42.86c0-22.544-18.34-40.885-40.885-40.885h-94.91v-106.149l21.244 18.902c2.847 2.534 7.143 2.534 9.99 0l28.761-25.589 28.761 25.589c2.847 2.533 7.143 2.533 9.99 0l28.761-25.589 28.761 25.589c2.847 2.533 7.143 2.533 9.99 0l21.247-18.904v48.998c.002 4.151 3.366 7.515 7.517 7.515z"/><path d="m131.244 212.213h115.923c4.151 0 7.515-3.365 7.515-7.515s-3.364-7.515-7.515-7.515h-115.923c-4.151 0-7.515 3.365-7.515 7.515.001 4.151 3.365 7.515 7.515 7.515z"/><path d="m131.244 262.737h115.923c4.151 0 7.515-3.365 7.515-7.515s-3.364-7.515-7.515-7.515h-115.923c-4.151 0-7.515 3.365-7.515 7.515s3.365 7.515 7.515 7.515z"/><path d="m131.244 313.26h115.923c4.151 0 7.515-3.365 7.515-7.515s-3.364-7.515-7.515-7.515h-115.923c-4.151 0-7.515 3.364-7.515 7.515.001 4.151 3.365 7.515 7.515 7.515z"/><path d="m131.244 363.784h115.923c4.151 0 7.515-3.365 7.515-7.515s-3.364-7.515-7.515-7.515h-115.923c-4.151 0-7.515 3.365-7.515 7.515s3.365 7.515 7.515 7.515z"/><path d="m247.167 399.279h-62.39c-4.151 0-7.515 3.364-7.515 7.515s3.364 7.515 7.515 7.515h62.39c4.151 0 7.515-3.365 7.515-7.515s-3.364-7.515-7.515-7.515z"/></g></g></svg>