<svg id="Capa_1" enable-background="new 0 0 511.382 511.382" height="512" viewBox="0 0 511.382 511.382" width="512" xmlns="http://www.w3.org/2000/svg"><g><g><path d="m459.238 216.565 10.573-10.709h.001c-2.803-35.732-14.386-68.992-32.579-97.64l-5.594-.278-14.02-17.164.772-7.902c-36.443-42.15-89.057-69.917-148.199-73.681v1.236h-30.05v-1.081l-88.036 32.059-80.533 93.394-13.192 120.627 84.3 134.667-13.182 5.183c35.511 26.172 79.391 41.65 126.892 41.65 113.871 0 206.96-88.902 213.685-201.082z" fill="#fec165"/><path d="m334.442 416.365c-118.25 0-214.1-95.85-214.1-214.09 0-85.026 49.556-158.469 121.361-193.028-59.025 4-111.483 31.918-147.764 74.138-.024.208-1.062 9.035-1.116 9.252l-17.599 16.079c-18.015 28.536-29.473 61.622-32.261 97.15l4.594 3.844v21.519l-4.86 4.615c6.724 112.182 99.814 201.084 213.695 201.084 33.222 0 64.675-7.568 92.732-21.072-4.853.327-9.746.509-14.682.509z" fill="#fdb441"/><path d="m501.461 341.946-64.815-31.878h-378.717l-50.008 31.918c.09 9.31 3.38 18.59 9.87 26.08 13.808 15.918 33.805 37.095 58.462 57.973l-.001-5.01s22.899 4.658 23.028 4.852l12.732 27.515c41.13 28.13 90.54 50.49 143.68 50.49s102.55-22.36 143.68-50.49l17.88-26.004 17.87-1.346c24.66-20.88 44.66-42.06 58.47-57.98 6.49-7.48 9.78-16.76 9.87-26.07z" fill="#fdd79b"/><path d="m471.565 373.571c-11.03 9.35-22.99 18.63-35.75 27.35-41.13 28.13-90.54 50.49-143.68 50.49s-102.55-22.36-143.68-50.49c-12.76-8.72-24.72-18-35.75-27.35-24.66-20.88-44.66-42.06-58.47-57.98-.59-.681-1.145-1.382-1.682-2.092l-44.632 28.487c.09 9.31 3.38 18.59 9.87 26.08 13.808 15.918 33.805 37.095 58.462 57.973l-.001-5.01s22.899 4.658 23.028 4.852l12.732 27.515c41.13 28.13 90.54 50.49 143.68 50.49s102.55-22.36 143.68-50.49l17.88-26.004 17.87-1.346c24.66-20.88 44.66-42.06 58.47-57.98 5.974-6.885 9.236-15.295 9.788-23.848-9.448 9.456-20.102 19.435-31.815 29.353z" fill="#fccd7f"/><path d="m493.591 315.076c-13.8-15.93-33.8-37.1-58.46-57.98l-4.962 9.7-27.406-17.704-3.382-19.346c-41.13-28.12-90.54-50.48-143.69-50.48s-102.56 22.36-143.69 50.48l-16.63 25.68-16.73 7.275-2.39-5.605c-22.163 18.766-40.545 37.753-54.062 52.972h23.16v31.878h390.282 65.83l2 .05c.11-9.59-3.18-19.2-9.87-26.92z" fill="#fddeb0"/><g id="XMLID_952_"><path d="m54.235 315.591c-.59-.681-1.145-1.382-1.682-2.092l-14.881-20.153c-7.583 7.861-14.255 15.235-19.881 21.729-6.69 7.71-9.98 17.33-9.87 26.91l1.99-.04h68.73c-9.481-9.601-17.682-18.604-24.406-26.354z" fill="#fdd79b"/><g><path d="m112.011 453.396c-12.76-8.72-24.72-18-35.75-27.35l-.01-168.95c11.03-9.34 22.99-18.62 35.75-27.35z" fill="#fccd7f"/><path d="m112.007 372.972c-13.387-11.379-25.387-22.828-35.751-33.454l.005 86.528c4.136 3.506 8.403 7.003 12.794 10.463 1.464 1.154 2.941 2.303 4.432 3.448 5.964 4.579 12.144 9.079 18.524 13.439z" fill="#fbc56d"/><path d="m435.121 426.046c-11.03 9.35-22.99 18.63-35.75 27.35l.01-223.65c12.76 8.73 24.72 18.01 35.75 27.35z" fill="#fccd7f"/><path d="m435.121 426.046.001-24.657c-11.326 7.711-23.272 14.981-35.75 21.463l-.001 30.544c6.38-4.36 12.56-8.86 18.524-13.439 1.491-1.145 2.968-2.294 4.432-3.448 4.391-3.461 8.658-6.957 12.794-10.463z" fill="#fbc56d"/></g></g></g><g><path d="m499.255 310.166c-20.543-23.693-53.769-57.922-95.397-86.436-50.344-34.482-100.194-51.967-148.167-51.967s-97.823 17.484-148.167 51.967c-41.629 28.513-74.854 62.742-95.397 86.436-15.523 17.905-15.523 44.909 0 62.814 20.543 23.693 53.769 57.922 95.397 86.436 50.344 34.483 100.194 51.967 148.167 51.967s97.823-17.484 148.167-51.967c41.629-28.513 74.854-62.742 95.397-86.436 15.524-17.905 15.524-44.909 0-62.814zm-11.334 9.826c3.681 4.246 6.091 9.236 7.231 14.458h-53.51v-61.702c19.003 17.122 34.709 33.899 46.279 47.244zm-96.976-86.88v101.337h-18.893v-9.717c0-12.221-9.943-22.164-22.165-22.164s-22.164 9.943-22.164 22.164v9.717h-18.893v-9.717c0-12.221-9.943-22.164-22.165-22.164s-22.164 9.943-22.164 22.164v9.717h-17.621v-9.717c0-12.221-9.942-22.164-22.164-22.164s-22.165 9.943-22.165 22.164v9.717h-18.893v-9.717c0-12.221-9.942-22.164-22.164-22.164s-22.165 9.943-22.165 22.164v9.717h-18.893v-32.477c0-4.142-3.357-7.5-7.5-7.5s-7.5 3.358-7.5 7.5v137.573c-7.198-5.279-14.105-10.702-20.697-16.17v-163.605c6.592-5.468 13.499-10.891 20.697-16.17v26.409c0 4.142 3.357 7.5 7.5 7.5s7.5-3.358 7.5-7.5v-36.898c46.272-30.759 91.753-46.349 135.254-46.349s88.983 15.591 135.255 46.35zm-33.893 91.62v33.682c0 3.95-3.214 7.164-7.165 7.164-3.95 0-7.164-3.214-7.164-7.164v-33.682c0-3.95 3.214-7.164 7.164-7.164 3.951 0 7.165 3.214 7.165 7.164zm-77.551 0c0-3.95 3.214-7.164 7.164-7.164 3.951 0 7.165 3.214 7.165 7.164v33.682c0 3.95-3.214 7.164-7.165 7.164-3.95 0-7.164-3.214-7.164-7.164zm-61.95 0c0-3.95 3.214-7.164 7.165-7.164 3.95 0 7.164 3.214 7.164 7.164v33.682c0 3.95-3.214 7.164-7.164 7.164-3.951 0-7.165-3.214-7.165-7.164zm-48.892 33.682c0 3.95-3.214 7.164-7.164 7.164-3.951 0-7.165-3.214-7.165-7.164v-33.682c0-3.95 3.214-7.164 7.165-7.164 3.95 0 7.164 3.214 7.164 7.164zm-98.919-85.667v61.702h-53.51c1.141-5.221 3.55-10.212 7.231-14.458 11.57-13.344 27.276-30.121 46.279-47.244zm-46.28 90.406c-3.503-4.041-5.848-8.757-7.051-13.704h53.33v60.949c-19.002-17.123-34.709-33.9-46.279-47.245zm96.977 86.881v-100.585h18.893v8.964c0 12.221 9.943 22.164 22.165 22.164s22.164-9.943 22.164-22.164v-8.964h18.893v8.964c0 12.221 9.943 22.164 22.165 22.164s22.164-9.943 22.164-22.164v-8.964h17.621v8.964c0 12.221 9.942 22.164 22.164 22.164s22.165-9.943 22.165-22.164v-8.964h18.893v8.964c0 12.221 9.942 22.164 22.164 22.164s22.165-9.943 22.165-22.164v-8.964h18.893v38.629c0 4.142 3.357 7.5 7.5 7.5s7.5-3.358 7.5-7.5v-144.478c7.198 5.279 14.105 10.702 20.697 16.17v163.605c-6.592 5.468-13.499 10.891-20.697 16.17v-19.504c0-4.142-3.357-7.5-7.5-7.5s-7.5 3.358-7.5 7.5v29.993c-46.272 30.759-91.752 46.348-135.254 46.348s-88.983-15.59-135.255-46.348zm321.205-39.636v-60.949h53.33c-1.202 4.947-3.547 9.663-7.051 13.704-11.569 13.345-27.276 30.122-46.279 47.245z"/><path d="m43.312 253.582c.293 0 .59-.017.888-.052 4.113-.484 7.056-4.212 6.57-8.326-.072-.614-.123-1.23-.19-1.844h7.349c4.143 0 7.5-3.358 7.5-7.5s-3.357-7.5-7.5-7.5h-8.444c-.092-2.509-.155-5.012-.155-7.5 0-2.512.061-5.01.151-7.5h44.329c4.143 0 7.5-3.358 7.5-7.5s-3.357-7.5-7.5-7.5h-43.245c3.2-29.302 12.572-56.774 26.789-81.087 29.149 9.762 52.756 31.246 65.291 59.671 1.237 2.806 3.984 4.476 6.866 4.476 1.011 0 2.038-.206 3.022-.64 3.79-1.671 5.508-6.099 3.836-9.889-13.745-31.17-39.208-55.001-70.749-66.614 2.947-4.273 6.051-8.428 9.304-12.46 33.686 13.71 61.053 40.4 75.569 73.946 1.225 2.831 3.986 4.523 6.887 4.523.994 0 2.004-.199 2.975-.619 3.802-1.645 5.55-6.06 3.904-9.862-15.391-35.569-43.833-64.182-78.976-79.879 32.733-34.798 77.406-58.232 127.407-63.693v133.576c0 4.142 3.357 7.5 7.5 7.5s7.5-3.358 7.5-7.5v-134.658c2.49-.09 4.988-.151 7.5-.151s5.01.061 7.5.151v29.458c0 4.142 3.357 7.5 7.5 7.5s7.5-3.358 7.5-7.5v-28.374c50.151 5.477 94.941 29.038 127.701 64.008-34.81 15.764-62.997 44.265-78.271 79.564-1.645 3.801.104 8.217 3.905 9.861.971.42 1.98.619 2.975.619 2.9 0 5.662-1.692 6.888-4.524 14.393-33.266 41.484-59.842 74.815-73.64 3.238 4.029 6.328 8.18 9.261 12.448-31.168 11.728-56.343 35.455-69.953 66.319-1.671 3.79.046 8.217 3.836 9.888.984.434 2.012.64 3.022.64 2.881 0 5.629-1.67 6.866-4.476 12.397-28.114 35.697-49.493 64.456-59.391 14.125 24.244 23.436 51.618 26.624 80.808h-42.244c-4.143 0-7.5 3.358-7.5 7.5s3.357 7.5 7.5 7.5h43.327c.09 2.49.151 4.988.151 7.5 0 2.485-.063 4.99-.156 7.5h-7.442c-4.143 0-7.5 3.358-7.5 7.5s3.357 7.5 7.5 7.5h6.353c-.038.352-.065.704-.105 1.056-.469 4.116 2.488 7.832 6.604 8.3 4.1.477 7.832-2.487 8.301-6.603.959-8.424 1.445-16.92 1.445-25.253 0-58.994-22.974-114.457-64.688-156.171s-97.177-64.688-156.171-64.688c-58.993 0-114.456 22.974-156.171 64.688s-64.688 97.178-64.688 156.172c0 8.629.52 17.41 1.543 26.099.449 3.816 3.688 6.624 7.438 6.623z"/><path d="m270.19 69.072c-4.143 0-7.5 3.358-7.5 7.5v73.168c0 4.142 3.357 7.5 7.5 7.5s7.5-3.358 7.5-7.5v-73.168c0-4.142-3.357-7.5-7.5-7.5z"/></g></g></svg>