<svg id="Capa_1" enable-background="new 0 0 512 512" height="512" viewBox="0 0 512 512" width="512" xmlns="http://www.w3.org/2000/svg"><g><g><path d="m66.047 407.035v-144.449l189.953-178.891 189.953 178.891v144.449z" fill="#e7ecf1"/><path d="m256 83.695-189.953 178.891v27l186.525-175.663c1.926-1.813 4.93-1.813 6.856 0l186.525 175.663v-27z" fill="#c6d0da"/><path d="m66.047 389.034h379.907v18h-379.907z" fill="#c6d0da"/><g><g><path d="m445.953 204.124v-95.747c0-5.523-4.477-10-10-10h-32.651c-5.523 0-10 4.477-10 10v46.163z" fill="#dc4955"/></g></g><path d="m393.303 154.539 52.65 49.585v-27l-52.65-49.585z" fill="#d82f3c"/><path d="m234.055 45.9-219.367 206.591c-4.268 4.02-6.688 9.623-6.688 15.486 0 18.646 22.283 28.27 35.857 15.486l212.143-199.789 212.143 199.789c13.574 12.783 35.857 3.16 35.857-15.486 0-5.863-2.42-11.466-6.688-15.486l-219.367-206.591c-12.327-11.61-31.563-11.61-43.89 0z" fill="#dc4955"/><path d="m252.571 59.905-237.596 223.849c7.68 6.863 20.1 7.979 28.882-.291l212.143-199.789 212.143 199.789c8.782 8.27 21.202 7.154 28.882.291l-237.596-223.849c-1.926-1.815-4.932-1.815-6.858 0z" fill="#d82f3c"/><path d="m201.256 268.863h109.488v138.171h-109.488z" fill="#ecb85e"/><path d="m201.256 389.034h109.488v18h-109.488z" fill="#eaa949"/><g fill="#e2ae84"><path d="m66.047 474.808h-58.047v-88.942l29.023-27 29.024 27z"/><path d="m504 474.808h-58.047v-88.942l29.024-27 29.023 27z"/><path d="m394.512 474.808h-58.047v-88.942l29.023-27 29.024 27z"/><path d="m285.023 474.808h-58.046v-88.942l29.023-27 29.023 27z"/><path d="m175.535 474.808h-58.047v-88.942l29.024-27 29.023 27z"/></g><path d="m8 456.808h58.047v18h-58.047z" fill="#d7a379"/><path d="m445.953 456.808h58.047v18h-58.047z" fill="#d7a379"/><path d="m336.465 456.808h58.047v18h-58.047z" fill="#d7a379"/><path d="m226.977 456.808h58.047v18h-58.047z" fill="#d7a379"/><path d="m117.488 456.808h58.047v18h-58.047z" fill="#d7a379"/><path d="m66.047 407.035h51.442v40.502h-51.442z" fill="#cf8151"/><path d="m175.535 407.035h51.442v40.502h-51.442z" fill="#cf8151"/><path d="m285.023 407.035h51.442v40.502h-51.442z" fill="#cf8151"/><path d="m394.512 407.035h51.442v40.502h-51.442z" fill="#cf8151"/><path d="m66.047 429.537h51.442v18h-51.442z" fill="#bd6e45"/><path d="m175.535 429.537h51.442v18h-51.442z" fill="#bd6e45"/><path d="m285.023 429.537h51.442v18h-51.442z" fill="#bd6e45"/><path d="m394.512 429.537h51.442v18h-51.442z" fill="#bd6e45"/></g><g><path d="m225.023 334.912v12.219c0 4.15 3.365 7.515 7.515 7.515s7.515-3.365 7.515-7.515v-12.219c0-4.15-3.364-7.515-7.515-7.515s-7.515 3.365-7.515 7.515z"/><path d="m480.523 353.556c-2.885-2.684-7.352-2.684-10.237 0l-16.447 15.301v-88.888l9.567 9.009c8.553 8.075 20.608 10.076 31.196 5.479 18.846-7.381 23.284-34.05 8.334-47.453l-49.096-46.237v-92.689c0-9.668-7.866-17.534-17.534-17.534h-32.714c-9.668 0-17.534 7.866-17.534 17.534v28.853l-102.918-96.923c-15.219-14.333-39.062-14.333-54.281 0l-48.163 45.358c-3.021 2.845-3.164 7.601-.318 10.623 2.845 3.021 7.601 3.164 10.623.318l48.163-45.358c9.44-8.891 24.232-8.891 33.672 0l219.796 206.996c2.758 2.597 4.339 6.258 4.339 10.046 0 5.681-3.114 10.416-8.328 12.668-5.214 2.251-10.798 1.272-14.932-2.623l-61.785-58.187c-3.021-2.845-7.777-2.702-10.623.318-2.845 3.021-2.703 7.777.318 10.623l37.189 35.024v120.296 13.695h-36.513v-13.695c0-2.087-.868-4.08-2.396-5.502l-29.08-27.053c-2.884-2.684-7.352-2.684-10.237 0l-29.08 27.053c-1.528 1.422-2.396 3.415-2.396 5.502v13.695h-10.742v-59.377c0-4.15-3.364-7.515-7.515-7.515-4.15 0-7.515 3.365-7.515 7.515v59.377h-10.742v-13.695c0-2.087-.868-4.08-2.396-5.502l-29.08-27.053c-2.885-2.684-7.352-2.684-10.237 0l-29.08 27.053c-1.528 1.422-2.396 3.415-2.396 5.502v13.695h-10.742v-123.411h94.673v33.977c0 4.15 3.365 7.515 7.515 7.515s7.515-3.365 7.515-7.515v-41.491c0-4.15-3.364-7.515-7.515-7.515h-109.702c-4.15 0-7.515 3.365-7.515 7.515v130.927h-10.742v-13.695c0-2.087-.868-4.08-2.396-5.502l-29.08-27.053c-2.885-2.684-7.352-2.684-10.237 0l-29.08 27.053c-1.528 1.422-2.396 3.415-2.396 5.502v13.695h-36.513v-13.695-120.297l182.81-172.165 123.749 116.543c3.022 2.846 7.778 2.702 10.623-.318 2.845-3.022 2.703-7.777-.319-10.623l-128.901-121.395c-2.895-2.725-7.41-2.725-10.304 0l-212.558 200.18c-4.136 3.895-9.719 4.875-14.932 2.623-5.215-2.252-8.328-6.988-8.328-12.668 0-3.788 1.581-7.449 4.339-10.046l149.76-141.039c3.021-2.845 3.164-7.601.318-10.623-2.845-3.021-7.601-3.164-10.623-.319l-149.76 141.04c-14.951 13.405-10.509 40.072 8.335 47.452 10.587 4.598 22.643 2.595 31.196-5.479l9.567-9.01v88.888l-16.447-15.301c-2.884-2.684-7.352-2.684-10.237 0l-29.08 27.053c-1.53 1.423-2.398 3.416-2.398 5.503v89.115c0 4.15 3.365 7.515 7.515 7.515h58.16c4.15 0 7.515-3.365 7.515-7.515v-19.81h36.513v19.81c0 4.15 3.365 7.515 7.515 7.515h58.16c4.15 0 7.515-3.365 7.515-7.515v-19.81h36.513v19.81c0 4.15 3.365 7.515 7.515 7.515h58.16c4.15 0 7.515-3.365 7.515-7.515v-19.81h36.513v19.81c0 4.15 3.365 7.515 7.515 7.515h58.16c4.15 0 7.515-3.365 7.515-7.515v-19.81h36.513v19.81c0 4.15 3.365 7.515 7.515 7.515h58.16c4.15 0 7.515-3.365 7.515-7.515v-89.115c0-2.087-.868-4.08-2.396-5.502zm-79.437-245.478c0-1.381 1.124-2.505 2.505-2.505h32.714c1.381 0 2.505 1.124 2.505 2.505v78.535l-37.724-35.527zm-342.926 359.634h-43.131v-78.328l21.565-20.062 21.566 20.062v17.937zm15.03-27.324v-25.552h36.513v25.552zm94.673 27.324h-43.131v-78.328l21.566-20.062 21.566 20.062v78.328zm15.029-27.324v-25.552h36.513v25.552zm94.674 27.324h-43.131v-78.328l21.565-20.062 21.566 20.062zm15.029-27.324v-25.552h36.513v25.552zm94.673 27.324h-43.131v-78.328l21.566-20.062 21.566 20.062v78.328zm15.029-27.324v-25.552h36.513v25.552zm94.674 27.324h-43.131v-60.391-17.937l21.566-20.062 21.566 20.062v78.328z"/></g></g></svg>