<svg id="Capa_1" enable-background="new 0 0 512.909 512.909" height="512" viewBox="0 0 512.909 512.909" width="512" xmlns="http://www.w3.org/2000/svg"><g><g><circle cx="120.161" cy="264.582" fill="#d4f2f6" r="102.022"/><circle cx="392.747" cy="264.582" fill="#d4f2f6" r="102.022"/><path d="m77.839 264.582c0-45.959 30.391-84.816 72.172-97.581-9.442-2.885-19.464-4.441-29.85-4.441-56.345 0-102.022 45.677-102.022 102.022s45.677 102.022 102.022 102.022c10.386 0 20.408-1.557 29.85-4.442-41.78-12.765-72.172-51.621-72.172-97.58z" fill="#a6e7f0"/><path d="m350.425 264.582c0-45.959 30.391-84.816 72.172-97.581-9.442-2.885-19.464-4.441-29.85-4.441-56.345 0-102.022 45.677-102.022 102.022s45.677 102.022 102.022 102.022c10.386 0 20.408-1.557 29.85-4.442-41.78-12.765-72.172-51.621-72.172-97.58z" fill="#a6e7f0"/><g><path d="m217.806 249.342c-6.437 0-12.388-4.176-14.35-10.656-5.298-17.491-16.304-33.218-30.989-44.285-15.166-11.429-33.253-17.47-52.306-17.47s-37.14 6.041-52.306 17.47c-14.686 11.067-25.691 26.794-30.989 44.285-2.401 7.929-10.776 12.408-18.704 10.008-7.929-2.401-12.409-10.776-10.007-18.704 7.128-23.533 21.918-44.681 41.646-59.547 20.411-15.381 44.741-23.511 70.36-23.511s49.949 8.13 70.36 23.511c19.728 14.867 34.518 36.014 41.646 59.547 2.402 7.928-2.078 16.303-10.007 18.704-1.449.439-2.914.648-4.354.648z" fill="#eb5569"/></g><g><path d="m295.103 249.342c6.437 0 12.388-4.176 14.35-10.656 5.298-17.491 16.304-33.218 30.989-44.285 15.166-11.429 33.253-17.47 52.306-17.47s37.14 6.041 52.306 17.47c14.686 11.067 25.691 26.794 30.989 44.285 2.401 7.929 10.776 12.408 18.704 10.008 7.929-2.401 12.409-10.776 10.007-18.704-7.128-23.533-21.918-44.681-41.646-59.547-20.411-15.381-44.741-23.511-70.36-23.511s-49.949 8.13-70.36 23.511c-19.728 14.867-34.518 36.014-41.646 59.547-2.402 7.928 2.078 16.303 10.007 18.704 1.448.439 2.913.648 4.354.648z" fill="#eb5569"/></g></g><path d="m511.931 227.816c-7.455-24.613-22.861-46.857-43.38-62.634-3.284-2.525-7.993-1.908-10.517 1.374-2.525 3.284-1.91 7.993 1.374 10.518 18.057 13.884 31.611 33.449 38.167 55.092.581 1.917.381 3.945-.564 5.712-.945 1.766-2.521 3.059-4.438 3.639-.181.055-.362.094-.543.135-.088.02-.177.036-.264.059-3.701.689-7.427-1.507-8.546-5.198-5.755-19-17.707-36.083-33.653-48.101-16.478-12.417-36.125-18.98-56.819-18.98s-40.342 6.563-56.819 18.98c-15.946 12.018-27.898 29.1-33.653 48.102-.95 3.138-3.899 5.329-7.172 5.329-.732 0-1.467-.11-2.181-.326-1.917-.581-3.493-1.873-4.438-3.639-.945-1.767-1.146-3.795-.564-5.712 6.671-22.022 20.515-41.815 38.981-55.732 19.1-14.393 41.869-22.001 65.847-22.001 14.077 0 27.762 2.624 40.673 7.798 3.842 1.539 8.21-.326 9.752-4.172 1.541-3.845-.327-8.211-4.172-9.752-14.693-5.889-30.255-8.875-46.253-8.875-27.261 0-53.152 8.652-74.874 25.021-14.627 11.023-26.693 25.299-35.237 41.414l-5.24-5.617c-2.963-3.178-7.156-5.001-11.503-5.001h-19.879c-4.347 0-8.54 1.823-11.502 5l-4.597 4.928c-8.521-15.834-20.461-29.856-34.881-40.723-21.722-16.369-47.613-25.021-74.874-25.021s-53.152 8.652-74.874 25.021c-20.988 15.817-36.725 38.319-44.31 63.362-1.743 5.752-1.142 11.838 1.694 17.138 1.986 3.712 4.916 6.706 8.462 8.777-.316 3.403-.494 6.822-.494 10.224 0 60.391 49.131 109.522 109.521 109.522 18.842 0 37.432-4.872 53.761-14.09 3.607-2.036 4.881-6.611 2.845-10.218s-6.613-4.88-10.218-2.844c-14.084 7.95-30.124 12.152-46.388 12.152-52.119 0-94.521-42.403-94.521-94.522 0-2.455.103-4.921.294-7.381 8.282-1.288 15.523-7.169 18.11-15.712 4.84-15.979 14.899-30.352 28.325-40.47 13.855-10.441 30.381-15.959 47.792-15.959 8.639 0 17.101 1.358 25.149 4.037 3.931 1.309 8.177-.818 9.484-4.748s-.817-8.177-4.748-9.484c-9.579-3.188-19.635-4.804-29.886-4.804-20.694 0-40.342 6.563-56.819 18.98-15.946 12.018-27.898 29.1-33.653 48.101-1.118 3.69-4.84 5.887-8.546 5.197-.085-.022-.173-.038-.26-.058-.182-.041-.365-.081-.547-.136-1.917-.581-3.493-1.873-4.438-3.639-.945-1.767-1.146-3.795-.564-5.712 6.671-22.022 20.515-41.815 38.981-55.732 19.1-14.393 41.869-22.001 65.847-22.001s46.747 7.608 65.847 22.001c18.467 13.917 32.311 33.709 38.981 55.732.581 1.917.381 3.945-.564 5.712-.945 1.766-2.521 3.059-4.438 3.64-.714.216-1.448.326-2.181.326-3.272 0-6.222-2.191-7.172-5.33-5.296-17.483-16.033-33.601-30.233-45.383-3.188-2.645-7.916-2.205-10.562.983-2.645 3.188-2.204 7.916.983 10.561 11.963 9.925 21.003 23.487 25.456 38.187 2.558 8.449 9.616 14.439 18.112 15.719.191 2.459.293 4.924.293 7.375 0 23.759-8.853 46.472-24.928 63.956-2.804 3.049-2.605 7.793.444 10.597 1.44 1.325 3.26 1.979 5.074 1.979 2.025 0 4.044-.815 5.522-2.424 18.628-20.259 28.887-46.578 28.887-74.108 0-3.4-.178-6.819-.494-10.224 3.545-2.072 6.475-5.065 8.461-8.777 2.836-5.3 3.438-11.386 1.694-17.137-.804-2.653-1.718-5.271-2.701-7.862l8.839-9.475c.137-.146.331-.23.532-.23h19.879c.201 0 .396.084.533.231l9.554 10.241c-.871 2.342-1.692 4.702-2.417 7.094-1.743 5.752-1.142 11.838 1.694 17.138 1.986 3.712 4.916 6.705 8.461 8.777-.317 3.405-.494 6.824-.494 10.224 0 60.391 49.132 109.522 109.522 109.522s109.521-49.131 109.521-109.522c0-3.402-.178-6.821-.494-10.224 3.546-2.072 6.476-5.065 8.462-8.777 2.838-5.303 3.44-11.388 1.697-17.14zm-119.184 130.661c-52.12 0-94.522-42.403-94.522-94.522 0-2.452.103-4.916.293-7.375 8.496-1.28 15.554-7.27 18.112-15.718 4.84-15.979 14.899-30.352 28.325-40.47 13.855-10.441 30.381-15.959 47.792-15.959s33.937 5.519 47.792 15.959c13.426 10.118 23.485 24.49 28.325 40.469 2.587 8.542 9.83 14.423 18.11 15.712.191 2.46.294 4.926.294 7.381.001 52.12-42.402 94.523-94.521 94.523z"/></g></svg>