<svg id="Capa_1" enable-background="new 0 0 511.134 511.134" height="512" viewBox="0 0 511.134 511.134" width="512" xmlns="http://www.w3.org/2000/svg"><g><g><path d="m415.703 341.266-2.327.206-20.567-20.705-2.654-36.929h4.422v-76.03c0-38.39-15.56-73.14-40.72-98.3-17.73-17.737-40.24-30.693-65.423-36.8l-32.867 4.157-52.932 18.42-51.759 55.439-15.702 81.144.582 71.226-31.986 56.412-45.944 49.762-3.338.4v18.22h402.16v-42.48z" fill="#fee45a"/><path d="m199.502 409.268v38.67 7.798c0 26.453 21.445 47.898 47.898 47.898h16.335c26.453 0 47.898-21.445 47.898-47.898v-7.798-38.67z" fill="#efedef"/><path d="m182.537 328.128c5.74-6.2 8.94-14.34 8.94-22.79v-97.53c0-63.798 42.975-117.558 101.549-133.913-11.919-3.328-24.481-5.107-37.459-5.107-76.77 0-139.01 62.24-139.01 139.02v97.53c0 8.45-3.2 16.59-8.94 22.79l-53.13 57.28v42.48h74.92v-42.48z" fill="#fedf30"/><g id="XMLID_954_"><g><path d="m477.547 394.568c5.65 5.66 9.15 13.48 9.15 22.11 0 17.26-13.99 31.26-31.26 31.26h-399.74c-8.63 0-16.45-3.5-22.11-9.16-5.65-5.65-9.15-13.47-9.15-22.1 0-17.27 13.99-31.27 31.26-31.27h399.74c8.63 0 16.45 3.5 22.11 9.16z" fill="#fed402"/></g></g><path d="m102.37 416.678c0-15.883 11.707-29.266 27.043-31.27h-73.716c-17.27 0-31.26 14-31.26 31.27 0 8.63 3.5 16.45 9.15 22.1 5.66 5.66 13.48 9.16 22.11 9.16h77.933c-8.63 0-16.45-3.5-22.11-9.16-5.65-5.65-9.15-13.47-9.15-22.1z" fill="#fac600"/><path d="m403.517 328.128c-5.74-6.2-8.94-14.34-8.94-22.79v-21.5h-3-243.698v59.11l267.999-1.49z" fill="#fedf30"/><path d="m182.43 328.408c5.784-6.159 9.042-14.276 9.103-22.725l.154-21.499-71.918-.515-3-.022-.154 21.499c-.061 8.45-3.319 16.567-9.103 22.725l-12.455 13.241 73.618 1.914z" fill="#fed402"/></g><g><path d="m116.556 223.634c4.142 0 7.5-3.358 7.5-7.5v-8.331c0-72.516 58.996-131.511 131.511-131.511 32.6 0 63.875 12.019 88.062 33.843 3.076 2.775 7.819 2.531 10.593-.544 2.775-3.076 2.531-7.818-.544-10.593-13.843-12.49-29.773-22.089-46.913-28.48v-19.32c0-28.231-22.967-51.198-51.198-51.198s-51.198 22.967-51.198 51.198v19.332c-55.613 20.809-95.313 74.489-95.313 137.273v8.331c0 4.142 3.358 7.5 7.5 7.5zm132.813-162.202v-10.234c0-3.417 2.781-6.198 6.198-6.198s6.198 2.78 6.198 6.198v10.23c-2.061-.087-4.127-.136-6.198-.136-2.077 0-4.142.054-6.198.14zm-30-10.234c0-19.959 16.238-36.198 36.198-36.198s36.198 16.238 36.198 36.198v14.625c-4.932-1.255-9.938-2.252-15-2.989v-11.636c0-11.688-9.509-21.198-21.198-21.198s-21.198 9.509-21.198 21.198v11.633c-5.088.741-10.094 1.739-15 2.99z"/><path d="m460.198 378.215-51.178-55.185c-4.477-4.828-6.942-11.111-6.942-17.695v-97.532c0-30.042-9.038-58.923-26.136-83.522-2.362-3.399-7.037-4.241-10.439-1.878-3.401 2.364-4.242 7.038-1.878 10.439 15.343 22.073 23.453 47.994 23.453 74.961v68.53h-263.022v-28.236c0-4.142-3.358-7.5-7.5-7.5s-7.5 3.358-7.5 7.5v57.238c0 6.583-2.465 12.867-6.942 17.694l-51.178 55.186c-19.135 2.355-34.003 18.699-34.003 38.46 0 21.375 17.389 38.764 38.764 38.764h136.305v.297c0 30.546 24.852 55.398 55.398 55.398h16.335c30.546 0 55.398-24.852 55.398-55.398v-.297h136.305c21.375 0 38.764-17.389 38.764-38.764-.001-19.761-14.869-36.105-34.004-38.46zm-347.086-44.986c7.057-7.61 10.944-17.517 10.944-27.895v-14.001h263.022v14.001c0 10.378 3.887 20.285 10.944 27.895l2.057 2.218h-289.024zm191.021 122.507c0 22.275-18.123 40.398-40.398 40.398h-16.335c-22.275 0-40.398-18.123-40.398-40.398v-.297h97.131zm151.305-15.297h-143.796c-.003 0-.006 0-.01 0h-112.13c-.003 0-.006 0-.01 0h-143.795c-13.104 0-23.764-10.66-23.764-23.764 0-13.103 10.66-23.763 23.764-23.763h279.96c4.142 0 7.5-3.358 7.5-7.5s-3.358-7.5-7.5-7.5h-263.983l25.47-27.464h316.846l25.47 27.464h-71.84c-4.142 0-7.5 3.358-7.5 7.5s3.358 7.5 7.5 7.5h87.818c13.104 0 23.764 10.66 23.764 23.763-.001 13.104-10.661 23.764-23.764 23.764z"/></g></g></svg>