<svg id="Capa_1" enable-background="new 0 0 511.235 511.235" height="512" viewBox="0 0 511.235 511.235" width="512" xmlns="http://www.w3.org/2000/svg"><g><g><path d="m259.061 371.43c-34.366 0-62.226 27.859-62.226 62.226v10.903l1.619 36.133h120.929l1.903-36.133v-10.903c.001-34.367-27.859-62.226-62.225-62.226z" fill="#f9f7f8"/><path d="m427.825 156.056-36.69-15.685-49.7 49.7 19.927 32.449c17.102 17.102 44.831 17.102 61.933 0l4.53-4.53c17.103-17.103 17.103-44.832 0-61.934z" fill="#fee45a"/><path d="m254.751 27.317-9.579-9.579c-6.111-6.111-16.018-6.111-22.128 0s-6.111 16.018 0 22.128l9.579 9.579 22.784 11.422 15.481-15.481z" fill="#d7d0d6"/><g id="XMLID_953_"><g id="XMLID_956_"><g><path d="m359.38 50.089 30.13 41.05-97.88 95.78-36.91-32.18-27.42-27.42c-20.22-20.22-20.22-53 0-73.22l31.43-31.43c20.22-20.22 53.01-20.22 73.23 0z" fill="#efedef"/></g></g><path d="m334.615 143.934-36.91-32.18-27.42-27.42c-18.253-18.254-20.023-46.74-5.32-66.984-2.181 1.584-4.269 3.353-6.235 5.319l-31.43 31.43c-20.22 20.22-20.22 53 0 73.22l27.42 27.42 36.91 32.18 97.88-95.78-.394-.537z" fill="#e5e1e5"/><g><path d="m470.381 102.459c3.04 3.05 3.04 8 0 11.04l-151.57 151.57c-3.05 3.05-7.99 3.05-11.04 0l-47.69-47.69c-18.6-18.6-18.6-48.75 0-67.35l95.26-95.26c18.6-18.59 48.75-18.59 67.34 0z" fill="#f9f7f8"/></g></g><g id="XMLID_959_"><g><path d="m350.757 222.084-47.69-47.69c-18.6-18.6-18.6-48.749-.001-67.349l-42.985 42.985c-18.6 18.6-18.6 48.75 0 67.35l47.69 47.69c3.05 3.05 7.99 3.05 11.04 0l42.985-42.985c-3.05 3.049-7.99 3.049-11.039-.001z" fill="#efedef"/></g></g><path d="m254.026 433.656c0-24.053 13.676-44.913 33.65-55.27-8.564-4.441-18.302-6.955-28.615-6.955-34.366 0-62.226 27.859-62.226 62.226v10.903l1.619 36.133h57.191l-1.619-36.133z" fill="#efedef"/><path d="m384.366 503.735h-250.61v-18.421c0-22.509 18.247-40.756 40.756-40.756h169.098c22.509 0 40.756 18.247 40.756 40.756z" fill="#efedef"/><path d="m231.704 444.558h-57.191c-22.509 0-40.756 18.247-40.756 40.756v18.421h57.191v-18.421c-.001-22.508 18.246-40.756 40.756-40.756z" fill="#e5e1e5"/><circle cx="81.787" cy="260.802" fill="#e5e1e5" r="53.429"/><path d="m81.787 284.231c-12.919 0-23.43-10.511-23.43-23.43s10.511-23.429 23.43-23.429 23.429 10.51 23.429 23.429-10.51 23.43-23.429 23.43z" fill="#d7d0d6"/></g><g><path d="m475.68 97.161-47.691-47.691c-10.411-10.411-24.253-16.145-38.976-16.145-9.882 0-19.361 2.594-27.678 7.44l-23.402-23.402c-11.197-11.196-26.083-17.363-41.917-17.363-15.525 0-30.13 5.941-41.249 16.726l-4.292-4.292c-4.372-4.372-10.185-6.78-16.368-6.78s-11.996 2.408-16.367 6.779c-4.372 4.372-6.78 10.185-6.78 16.368s2.408 11.996 6.78 16.367l4.292 4.292c-10.785 11.118-16.726 25.724-16.726 41.249 0 7.811 1.507 15.389 4.372 22.41l-26.349 23.4c-3.097 2.75-3.378 7.491-.628 10.588 1.482 1.669 3.542 2.52 5.611 2.52 1.771 0 3.549-.624 4.977-1.892l23.99-21.305c1.643 2.166 3.435 4.24 5.39 6.196l9.058 9.058-98.111 87.131c-3.719-6.003-8.453-11.309-13.957-15.691l49.689-44.128c3.097-2.75 3.378-7.491.628-10.588s-7.491-3.378-10.588-.627l-53.171 47.22c-7.484-3.29-15.744-5.129-24.43-5.129-33.597 0-60.93 27.333-60.93 60.929s27.333 60.93 60.93 60.93c8.296 0 16.206-1.672 23.421-4.688l17.933 16.518c1.441 1.328 3.263 1.983 5.079 1.983 2.023 0 4.04-.813 5.519-2.419 2.806-3.046 2.611-7.792-.436-10.598l-14.512-13.367c5.586-4.284 10.405-9.513 14.229-15.444l88.316 81.347c-5.952 3.846-11.29 8.562-15.815 13.984l-48.689-44.847c-3.047-2.807-7.792-2.612-10.598.436-2.806 3.046-2.611 7.791.436 10.598l50.45 46.469c-4.962 9.58-7.784 20.44-7.784 31.953v3.403h-14.823c-26.608 0-48.256 21.647-48.256 48.256v10.921h-10.014c-4.142 0-7.5 3.358-7.5 7.5s3.358 7.5 7.5 7.5h287.867c4.142 0 7.5-3.358 7.5-7.5s-3.358-7.5-7.5-7.5h-12.244v-10.921c0-26.608-21.648-48.256-48.256-48.256h-14.823v-3.403c0-38.447-31.279-69.726-69.726-69.726-8.172 0-16.014 1.425-23.307 4.02l-95.995-88.42c1.912-5.905 2.958-12.196 2.958-18.729 0-6.146-.923-12.078-2.624-17.676l102.26-90.816 3.719 3.719c-4.846 8.317-7.44 17.796-7.44 27.678 0 14.723 5.733 28.565 16.145 38.976l47.692 47.692c2.984 2.983 6.903 4.475 10.823 4.475s7.84-1.492 10.824-4.476l37.64-37.64c9.041 6.721 19.806 10.088 30.575 10.088 13.135 0 26.271-5 36.27-15l4.53-4.53c18.198-18.198 19.831-46.777 4.912-66.845l37.64-37.64c5.965-5.966 5.965-15.677-.003-21.645zm-393.893 209.57c-25.326 0-45.93-20.604-45.93-45.93 0-25.325 20.604-45.929 45.93-45.929s45.929 20.604 45.929 45.929c0 25.326-20.603 45.93-45.929 45.93zm177.274 72.199c30.176 0 54.726 24.55 54.726 54.726v3.403h-22.763c-4.142 0-7.5 3.358-7.5 7.5s3.358 7.5 7.5 7.5h52.586c18.337 0 33.256 14.918 33.256 33.256v10.921h-235.61v-10.921c0-18.337 14.919-33.256 33.256-33.256h84.548c4.142 0 7.5-3.358 7.5-7.5s-3.358-7.5-7.5-7.5h-54.726v-3.403c.002-30.176 24.551-54.726 54.727-54.726zm-30.713-355.889c1.539-1.539 3.584-2.386 5.76-2.386s4.222.847 5.761 2.386l4.276 4.276-11.521 11.521-4.276-4.276c-1.539-1.539-2.386-3.584-2.386-5.76s.846-4.222 2.386-5.761zm194.174 189.645-4.53 4.53c-12.334 12.334-31.409 13.918-45.473 4.752l54.755-54.755c9.166 14.065 7.582 33.139-4.752 45.473zm42.552-104.485-42.55 42.551s-.001.001-.001.001l-66.463 66.463c-.001.001-.002.002-.003.004l-42.547 42.548c-.12.12-.315.12-.435 0l-47.691-47.691c-15.643-15.643-15.643-41.097 0-56.74l49.017-49.016c2.929-2.929 2.929-7.678 0-10.606-2.929-2.929-7.678-2.929-10.606 0l-48.412 48.411-22.105-22.105c-17.265-17.265-17.265-45.356 0-62.621l31.43-31.43c17.265-17.265 45.356-17.265 62.621 0l22.105 22.105-25.179 25.175c-2.929 2.929-2.929 7.678 0 10.606 2.929 2.929 7.678 2.929 10.606 0l25.781-25.781c15.644-15.643 41.097-15.642 56.74 0l47.691 47.691c.12.121.12.315.001.435z"/><path d="m472.213 243.118-10.003-8.098c-3.219-2.607-7.942-2.11-10.548 1.11s-2.109 7.942 1.11 10.548l10.003 8.098c1.389 1.125 3.057 1.671 4.715 1.671 2.185 0 4.352-.951 5.833-2.781 2.606-3.22 2.109-7.942-1.11-10.548z"/><path d="m425.305 263.895c-.512-4.111-4.261-7.027-8.369-6.517-4.11.512-7.028 4.258-6.517 8.369l1.588 12.772c.473 3.796 3.704 6.575 7.434 6.575.309 0 .621-.019.935-.058 4.11-.512 7.028-4.258 6.517-8.369z"/><path d="m482.531 194.867-12.857.594c-4.138.191-7.337 3.701-7.146 7.838.186 4.02 3.503 7.154 7.486 7.154.117 0 .234-.002.352-.008l12.857-.594c4.138-.191 7.337-3.701 7.146-7.838-.191-4.138-3.708-7.337-7.838-7.146z"/><path d="m81.787 229.873c-17.055 0-30.93 13.875-30.93 30.929 0 17.055 13.875 30.93 30.93 30.93 17.054 0 30.929-13.875 30.929-30.93 0-17.054-13.875-30.929-30.929-30.929zm0 46.858c-8.784 0-15.93-7.146-15.93-15.93 0-8.783 7.146-15.929 15.93-15.929 8.783 0 15.929 7.146 15.929 15.929 0 8.784-7.146 15.93-15.929 15.93z"/></g></g></svg>