<svg id="Capa_1" enable-background="new 0 0 512.059 512.059" height="512" viewBox="0 0 512.059 512.059" width="512" xmlns="http://www.w3.org/2000/svg"><g><g><path d="m284.149 465.022-52.465-.322-5.841 10.35c0 16.297 13.212 29.509 29.509 29.509h1.356c16.297 0 29.509-13.211 29.509-29.509z" fill="#baafb9"/><path d="m319.18 33.123h-.41c-19.43-7.65-40.59-11.86-62.74-11.86-21.59 0-42.24 4.02-61.26 11.31h-.62c-64.85 24.55-111.05 86.65-112.07 160.23-.83 59.68 28.39 112.57 73.51 144.52 13.59 9.63 24.17 22.52 31 37.21 5.75 12.37 8.84 26.01 8.84 40.03v1.47 25.185h119.798l1.325-25.185h.077v-1.46c0-13.96 3.11-27.49 8.84-39.78 6.96-14.92 17.78-28.02 31.58-37.88 44.16-31.54 72.95-83.23 72.95-141.64-.001-73.8-45.96-136.87-110.82-162.15z" fill="#fee97d"/><path d="m250.99 429.233v-25.185-1.47c0-14.02-3.09-27.66-8.84-40.03-6.83-14.69-17.41-27.58-31-37.21-45.12-31.95-74.34-84.84-73.51-144.52 1.008-72.708 46.134-134.201 109.775-159.336-18.472.92-36.171 4.776-52.646 11.09h-.62c-64.85 24.55-111.05 86.65-112.07 160.23-.83 59.68 28.39 112.57 73.51 144.52 13.59 9.63 24.17 22.52 31 37.21 5.75 12.37 8.84 26.01 8.84 40.03v1.47 25.185h119.798l.63-11.984z" fill="#fee45a"/><g><g id="XMLID_990_"><g><path d="m343.17 106.083v78.66c0 5.74-4.66 10.4-10.4 10.4h-31-90.48-31c-5.74 0-10.4-4.66-10.4-10.4v-78.66c0-11.94 5.17-23.31 14.17-31.16l38.9-33.93h67.14l38.9 33.93c9 7.85 14.17 19.22 14.17 31.16z" fill="#d7d0d6"/></g></g></g><path d="m192.432 184.743v-78.66c0-11.94 5.17-23.31 14.17-31.16l38.9-33.93h-22.542l-38.9 33.93c-9 7.85-14.17 19.22-14.17 31.16v78.66c0 5.74 4.66 10.4 10.4 10.4h22.542c-5.74 0-10.4-4.66-10.4-10.4z" fill="#c9bfc8"/><g><path d="m324.23 374.033 1.24.76c-5.73 12.29-8.84 25.82-8.84 39.78v1.46h-121.2v-1.47c0-14.02-3.09-27.66-8.84-40.03l1.24-.5 1.62-.83c4.28-2.22 8.97-3.34 13.66-3.34 4.46 0 8.93 1.01 13.05 3.03 4.1 2.02 8.57 3.03 13.05 3.03 3.59 0 7.19-.65 10.61-1.96 1.38-.53 2.29-1.85 2.29-3.33v-67.6-28.86h27.84v28.86 67.6c0 .74.23 1.44.63 2.02s.97 1.04 1.66 1.31c3.42 1.31 7.02 1.96 10.61 1.96 4.48 0 8.95-1.01 13.05-3.03 8.45-4.14 18.36-4.03 26.71.31z" fill="#fec165"/><path d="m250.99 402.579c0-14.02-3.09-27.66-8.84-40.03-.013-.028-.028-.056-.041-.084v8.168c0 1.48-.91 2.8-2.29 3.33-3.42 1.31-7.02 1.96-10.61 1.96-4.48 0-8.95-1.01-13.05-3.03-4.12-2.02-8.59-3.03-13.05-3.03-4.69 0-9.38 1.12-13.66 3.34l-1.62.83-1.24.5c.224.483.437.971.654 1.457 5.325 11.981 8.186 25.1 8.186 38.573v1.47h55.561v-11.984z" fill="#fdb441"/></g><path d="m273.698 242.986h-38.072l-8.784 22.142v24.418c0 7.45 6.039 13.49 13.49 13.49h32.394c7.45 0 13.49-6.04 13.49-13.49v-24.418z" fill="#f07281"/><path d="m286.216 271.362v-13.005l-12.518-22.142h-28.196v6.771h-9.875l-8.784 22.142v24.418c0 7.45 6.039 13.49 13.49 13.49h32.394c6.82 0 12.442-5.066 13.348-11.636h-22.101c-8.53 0-15.444-6.915-15.444-15.444 0-2.537 2.057-4.594 4.594-4.594z" fill="#eb5569"/><path d="m324.254 231.764-30.315-46.471v-111.91l-7.659-15.904h-50.811l-12.46 12.12v115.855l.875.505-30.236 52.371v26.803h129.02c1.303 0 2.36-1.057 2.36-2.36v-28.401c.002-.926-.268-1.832-.774-2.608z" fill="#f9f7f8"/><path d="m270.587 264.944h-29.115v-46.772c0-8.04 6.518-14.558 14.558-14.558 8.04 0 14.558 6.518 14.558 14.558v46.772z" fill="#efedef"/><path d="m301.028 430.787h-83.13l-8.606 14.754v17.83c0 6.45 5.229 11.679 11.679 11.679h70.119c6.45 0 11.679-5.229 11.679-11.679v-17.83z" fill="#c9bfc8"/><path d="m313.215 416.033h-114.371c-8.149 0-14.754 6.606-14.754 14.754 0 8.149 6.606 14.754 14.754 14.754h114.372c8.149 0 14.754-6.606 14.754-14.754 0-8.148-6.606-14.754-14.755-14.754z" fill="#d7d0d6"/><path d="m210.55 262.772v-28.401c0-.926.269-1.832.775-2.608l28.597-43.838c1.121-1.718 1.718-3.725 1.718-5.777v-108.765l16.35-15.904h-22.521l-16.35 15.904v111.91l-30.315 46.471c-.506.776-.775 1.682-.775 2.608v28.401c0 1.303 1.057 2.36 2.36 2.36h22.521c-1.303 0-2.36-1.057-2.36-2.361z" fill="#efedef"/><g id="XMLID_961_"><g><path d="m293.94 61.553v11.83h-74.82v-11.55c0-15.85 6.44-31.01 17.84-42.02l7.6-7.34c6.83-6.6 17.67-6.55 24.45.1l7.43 7.29c11.2 10.98 17.5 26.01 17.5 41.69z" fill="#f07281"/></g></g><path d="m259.48 19.813 7.6-7.34c.295-.285.606-.541.915-.801-6.808-5.725-16.935-5.482-23.436.801l-7.6 7.34c-11.4 11.01-17.84 26.17-17.84 42.02v11.55h22.521v-11.55c0-15.85 6.44-31.01 17.84-42.02z" fill="#eb5569"/></g><g><path d="m405.067 91.716c-20.729-29.777-49.487-52.454-83.165-65.579-3.858-1.505-8.208.404-9.712 4.264-1.504 3.859.405 8.208 4.265 9.712 30.895 12.041 57.279 32.848 76.302 60.173 19.459 27.951 29.744 60.797 29.744 94.986 0 53.643-26.098 104.313-69.811 135.542-12.739 9.1-23.077 20.782-30.481 34.005-9.553-3.635-20.341-3.201-29.606 1.343-4.711 2.31-10.104 2.857-15.15 1.593v-57.776c9.302-2.152 16.264-10.487 16.264-20.433v-16.918h31.314c4.143 0 7.5-3.358 7.5-7.5v-32.179c0-1.455-.423-2.879-1.219-4.098l-17.099-26.213h18.56c9.867 0 17.896-8.028 17.896-17.896v-78.659c0-14.114-6.101-27.531-16.737-36.81l-37.432-32.65c-3.372-8.242-8.381-15.813-14.802-22.114l-7.434-7.294c-9.749-9.565-25.083-9.628-34.909-.142l-7.605 7.342c-6.498 6.273-11.581 13.822-15.018 22.059l-37.602 32.799c-10.637 9.279-16.737 22.695-16.737 36.81v11.782c0 4.142 3.358 7.5 7.5 7.5s7.5-3.358 7.5-7.5v-11.782c0-9.78 4.227-19.077 11.598-25.506l22.653-19.759c-.005.339-.026.677-.026 1.017v121.228l-2.984 4.575h-28.344c-1.597 0-2.896-1.299-2.896-2.896v-34.914c0-4.142-3.358-7.5-7.5-7.5s-7.5 3.358-7.5 7.5v34.914c0 9.868 8.028 17.896 17.896 17.896h18.559l-17.099 26.213c-.795 1.219-1.218 2.643-1.218 4.098v32.179c0 4.142 3.358 7.5 7.5 7.5h31.315v16.918c0 9.587 6.468 17.675 15.264 20.176v18.33c0 4.142 3.358 7.5 7.5 7.5s7.5-3.358 7.5-7.5v-17.516h12.845v60.095c0 4.553 2.856 8.706 7.107 10.335 4.271 1.636 8.777 2.449 13.278 2.449 5.624 0 11.239-1.269 16.369-3.784 5.191-2.547 11.186-2.924 16.618-1.16-3.655 9.579-5.886 19.706-6.512 30.062h-106.566c-.614-10.398-2.813-20.535-6.42-30.095 5.406-1.728 11.361-1.338 16.523 1.193 5.13 2.516 10.744 3.784 16.368 3.784 4.501 0 9.008-.813 13.278-2.448 4.252-1.629 7.108-5.783 7.108-10.336v-10.617c0-4.142-3.358-7.5-7.5-7.5s-7.5 3.358-7.5 7.5v7.742c-5.045 1.263-10.439.717-15.15-1.593-9.22-4.522-19.951-4.978-29.468-1.4-7.308-13.13-17.505-24.659-30.067-33.556-44.811-31.739-71.108-83.442-70.346-138.305.474-34.104 11.093-66.696 30.71-94.253 19.187-26.954 45.646-47.379 76.516-59.067 3.874-1.467 5.825-5.796 4.358-9.67-1.466-3.874-5.796-5.826-9.67-4.358-33.66 12.744-62.508 35.012-83.425 64.396-21.392 30.051-32.972 65.579-33.489 102.744-.831 59.802 27.833 116.159 76.675 150.753 22.117 15.666 35.645 40.903 36.614 67.993-6.727 3.832-11.277 11.066-11.277 19.346 0 12.271 9.983 22.254 22.254 22.254h2.948v10.33c0 9.94 7.602 18.134 17.297 19.083 3.44 16.87 18.392 29.604 36.263 29.604h1.355c17.871 0 32.824-12.734 36.263-29.604 9.695-.949 17.297-9.144 17.297-19.083v-10.33h2.947c12.271 0 22.255-9.983 22.255-22.254 0-8.279-4.548-15.512-11.274-19.345.991-26.972 14.739-52.367 37.213-68.423 47.646-34.038 76.092-89.271 76.092-147.747.002-37.267-11.213-73.076-32.431-103.555zm-162.901-66.509 7.605-7.342c3.937-3.8 10.08-3.775 13.985.057l7.434 7.294c5.09 4.994 9.026 11.022 11.63 17.583.144.581.36 1.144.643 1.682 1.946 5.449 2.981 11.229 2.981 17.073v4.328h-59.83v-4.047c.001-13.737 5.669-27.087 15.552-36.628zm-46.638 209.972 29.869-45.789c.795-1.219 1.218-2.643 1.218-4.098v-104.41h22.415v47.067c0 4.142 3.358 7.5 7.5 7.5 4.143 0 7.5-3.358 7.5-7.5v-47.067h22.415v8.845c0 4.142 3.357 7.5 7.5 7.5s7.5-3.358 7.5-7.5v-28.173c0-.243-.016-.486-.019-.729l22.645 19.752c7.37 6.429 11.598 15.726 11.598 25.506v78.659c0 1.597-1.299 2.896-2.896 2.896h-28.344l-2.984-4.575v-61.373c0-4.142-3.357-7.5-7.5-7.5s-7.5 3.358-7.5 7.5v63.602c0 1.455.423 2.879 1.218 4.098l29.868 45.789v22.449h-31.314-8.129v-39.455c0-12.163-9.895-22.058-22.058-22.058s-22.058 9.895-22.058 22.058v39.455h-7.129-31.315zm53.444 22.265v-39.271c0-3.892 3.166-7.058 7.058-7.058s7.058 3.166 7.058 7.058v39.271zm-14.629 15.184h44.373v16.918c0 3.303-2.687 5.99-5.989 5.99h-32.395c-3.303 0-5.989-2.687-5.989-5.99zm22.364 224.431h-1.355c-9.503 0-17.619-6.055-20.693-14.509h42.742c-3.075 8.454-11.191 14.509-20.694 14.509zm38.561-33.687c0 2.304-1.875 4.179-4.179 4.179h-4.873-60.373-4.873c-2.304 0-4.178-1.875-4.178-4.179v-10.33h78.476zm17.947-25.331h-10.447-93.476-10.448c-4 0-7.254-3.254-7.254-7.254 0-3.997 3.249-7.249 7.245-7.254h114.391c3.995.005 7.245 3.257 7.245 7.254-.001 4-3.256 7.254-7.256 7.254z"/><path d="m256.03 177.077c4.143 0 7.5-3.358 7.5-7.5v-8.339c0-4.142-3.357-7.5-7.5-7.5-4.142 0-7.5 3.358-7.5 7.5v8.339c0 4.142 3.357 7.5 7.5 7.5z"/></g></g></svg>