<svg id="Capa_1" enable-background="new 0 0 512 512" height="512" viewBox="0 0 512 512" width="512" xmlns="http://www.w3.org/2000/svg"><g><g><path d="m464.902 109.372c-21.176-14.423-54.108-19.185-86.772-19.559-.509 11.889-1.393 26.114-2.887 42.283 21.564-.62 42.091 1.986 55.479 11.105 58.388 39.767 19.744 173.71-102.458 209.124-5.584 16.263-11.785 32.772-18.662 49.415 188.62-34.757 239.082-235.305 155.3-292.368z" fill="#ecb85e"/><path d="m464.902 109.372c-21.176-14.423-54.108-19.185-86.772-19.559-.01.223-.022.461-.031.686 26.407 1.768 51.521 7.102 68.804 18.873 80.772 55.013 36.767 243.379-135.511 287.987-.593 1.46-1.186 2.919-1.79 4.381 188.62-34.757 239.082-235.305 155.3-292.368z" fill="#eaa949"/><path d="m262.381 462.498c11.867 0 22.718-6.774 27.872-17.463 96.692-200.519 88.34-395.533 88.34-395.533h-370.412s-8.351 195.015 88.34 395.533c5.154 10.689 16.005 17.463 27.872 17.463z" fill="#ecb85e"/><path d="m378.594 49.502h-18s8.352 195.015-88.34 395.534c-5.155 10.689-16.005 17.463-27.873 17.463h18c11.867 0 22.718-6.774 27.872-17.463 96.692-200.52 88.341-395.534 88.341-395.534z" fill="#eaa949"/></g><g><path d="m60.632 336.282c-43.628-134.168-45.792-250.217-45.556-279.666h239.969c4.151 0 7.515-3.364 7.515-7.515s-3.364-7.514-7.515-7.514h-247.34c-4.025 0-7.336 3.171-7.508 7.193-.059 1.363-1.372 33.976 3.639 86.503 4.615 48.381 15.736 123.332 42.502 205.648 1.033 3.175 3.978 5.193 7.145 5.193.77 0 1.554-.119 2.326-.37 3.947-1.285 6.106-5.525 4.823-9.472z"/><path d="m511.461 181.851c-2.943-34.521-17.83-62.568-41.92-78.975-18.412-12.54-46.429-19.502-83.35-20.728.67-20.462.195-32.386.153-33.369-.172-4.021-3.482-7.193-7.508-7.193h-93.732c-4.151 0-7.515 3.364-7.515 7.514 0 4.151 3.364 7.515 7.515 7.515h86.369c.148 16.127-.392 58.216-8.061 114.668-9.081 66.847-30.308 168.102-79.856 270.854-3.881 8.047-12.186 13.246-21.158 13.246h-138.255c-8.972 0-17.278-5.199-21.157-13.246-11.989-24.862-22.978-50.994-32.663-77.674-1.416-3.901-5.726-5.914-9.628-4.499-3.901 1.416-5.915 5.727-4.499 9.628 9.857 27.152 21.045 53.756 33.252 79.073 6.371 13.211 19.989 21.747 34.695 21.747h138.255c14.705 0 28.324-8.536 34.696-21.747 6.46-13.396 12.439-26.764 17.987-40.038 33.413-6.629 64.045-18.644 91.087-35.768 25.592-16.208 47.432-36.57 64.91-60.52 2.446-3.352 1.711-8.053-1.641-10.5-3.353-2.445-8.053-1.713-10.5 1.641-16.36 22.418-36.819 41.49-60.81 56.682-22.826 14.454-48.414 25.054-76.216 31.613 4.386-11.155 8.464-22.216 12.263-33.148 78.09-24.156 121.356-86.824 129.653-138.917 5.713-35.875-4.953-66.88-28.533-82.941-11.792-8.031-29.129-12.213-51.595-12.489.828-9.888 1.425-18.961 1.851-27.118 34.076 1.101 59.465 7.192 75.531 18.135 42.249 28.774 47.98 99.113 13.331 163.614-1.964 3.656-.592 8.211 3.065 10.176 1.131.608 2.348.896 3.549.896 2.678 0 5.271-1.436 6.627-3.961 18.194-33.866 26.649-70.862 23.808-104.171zm-84.627-32.658c18.922 12.887 26.996 37.729 22.15 68.154-7.185 45.115-43.465 99.017-108.785 123.352 20.956-64.602 32.171-123.588 38.157-167.779 1.612-11.901 2.912-23.135 3.962-33.625 20.019.091 34.984 3.404 44.516 9.898z"/><g><path d="m139.981 268.202c-.795-3.896-4.122-6.772-8.091-6.995-3.986-.238-7.598 2.261-8.823 6.043-.028.085-.055.171-.079.258l-9.485 33.273-9.839-33.349c-.026-.089-.054-.177-.083-.265-1.267-3.772-4.928-6.213-8.892-5.952-3.969.267-7.265 3.182-8.03 7.17l-9.8 54.293c-.735 4.076 1.973 7.977 6.049 8.713 4.07.731 7.978-1.973 8.713-6.049l5.12-28.367 8.478 28.734c.025.088.054.176.082.263 1.2 3.577 4.533 5.974 8.304 5.974.014 0 .028-.001.042-.001 3.788-.018 7.12-2.45 8.29-6.053.028-.087.055-.174.08-.261l8.184-28.707 5.445 28.494c.777 4.069 4.714 6.744 8.774 5.958 4.068-.777 6.736-4.705 5.958-8.775z"/><path d="m299.617 268.298c-.753-3.904-4.05-6.817-8.018-7.082-3.98-.279-7.622 2.184-8.888 5.952-.029.088-.057.176-.083.265l-9.839 33.349-9.485-33.273c-.024-.087-.051-.173-.079-.258-1.227-3.782-4.866-6.273-8.823-6.043-3.969.223-7.296 3.1-8.108 7.086l-10.379 54.309c-.778 4.069 1.89 7.997 5.958 8.775 4.068.785 7.996-1.889 8.774-5.958l5.445-28.494 8.184 28.707c.025.087.052.174.08.261 1.17 3.602 4.5 6.034 8.286 6.053.016 0 .03.001.046.001 3.767-.001 7.1-2.395 8.302-5.969.029-.089.058-.178.084-.267l8.478-28.734 5.12 28.367c.735 4.076 4.64 6.779 8.713 6.049 4.076-.736 6.784-4.637 6.049-8.713z"/><path d="m193.146 261.192c-19.507 0-35.377 15.87-35.377 35.377s15.87 35.377 35.377 35.377 35.377-15.87 35.377-35.377-15.87-35.377-35.377-35.377zm0 55.754c-11.236 0-20.377-9.141-20.377-20.377s9.141-20.377 20.377-20.377 20.377 9.141 20.377 20.377c0 11.237-9.14 20.377-20.377 20.377z"/><path d="m246.838 226.405h24.208c4.143 0 7.5-3.357 7.5-7.5s-3.357-7.5-7.5-7.5h-16.708v-13.727h14.923c4.143 0 7.5-3.357 7.5-7.5s-3.357-7.5-7.5-7.5h-14.923v-13.727h16.708c4.143 0 7.5-3.357 7.5-7.5s-3.357-7.5-7.5-7.5h-24.208c-4.143 0-7.5 3.357-7.5 7.5v57.453c0 4.144 3.357 7.501 7.5 7.501z"/><path d="m103.561 207.922c1.462-8.186-2.241-18.873-17.016-24.323-7.079-2.61-13.673-5.453-15.742-6.358-2.637-2.374-1.395-6.607 3.133-7.96 8.046-2.425 15.525 3.482 15.725 3.643 3.17 2.627 7.872 2.208 10.526-.949 2.665-3.171 2.256-7.901-.915-10.567-.552-.464-13.694-11.299-29.662-6.49-8.1 2.44-13.831 8.828-14.957 16.672-1.057 7.365 2.136 14.45 8.333 18.49.331.216.679.405 1.04.566.336.149 8.328 3.707 17.328 7.026 1.938.715 8.197 3.375 7.441 7.613-.561 3.139-4.41 6.385-9.881 6.385-5.692 0-11.168-2.292-14.647-6.131-2.783-3.07-7.526-3.301-10.594-.521-3.069 2.782-3.303 7.525-.521 10.594 6.369 7.028 15.76 11.059 25.763 11.059 12.341-.001 22.706-7.886 24.646-18.749z"/><path d="m168.131 201.044v-39.856c0-4.143-3.358-7.5-7.5-7.5-4.143 0-7.5 3.357-7.5 7.5v39.856c1.206 4.024-6.612 11.319-12.974 10.626-5.949.453-13.141-5.923-12.315-10.584v-39.898c0-4.143-3.357-7.5-7.5-7.5s-7.5 3.357-7.5 7.5v39.898c-.565 13.665 13.246 25.866 27.273 25.584 16.684.063 28.731-13.562 28.016-25.626z"/><path d="m319.928 197.77c9.465-2.898 16.343-11.446 16.343-21.513 0-12.444-10.507-22.569-23.422-22.569h-15.407c-.003 0-.007.001-.01.001s-.007-.001-.01-.001c-4.143 0-7.5 3.357-7.5 7.5v57.982c0 4.143 3.357 7.5 7.5 7.5 4.142 0 7.5-3.357 7.5-7.5v-15.745l18.219 20.7c6.828 7.23 17.557-2.244 11.26-9.91zm-7.078-29.083c4.565 0 8.422 3.467 8.422 7.569 0 4.103-3.856 7.569-8.422 7.569-1.839 0-4.921.013-7.843.026-.014-2.845-.033-12.181-.042-15.165h7.885z"/><path d="m205.162 153.687h-16.145c-4.03-.079-7.571 3.476-7.5 7.5v57.982c0 4.143 3.357 7.5 7.5 7.5s7.5-3.357 7.5-7.5v-17.726c3.18-.016 6.629-.031 8.645-.031 13.334 0 24.183-10.704 24.183-23.862 0-13.157-10.849-23.863-24.183-23.863zm0 32.726c-2.002 0-5.409.015-8.573.03-.017-3.276-.04-14.323-.049-17.756h8.622c4.978 0 9.183 4.059 9.183 8.863s-4.205 8.863-9.183 8.863z"/></g></g></g></svg>