<svg id="Capa_1" enable-background="new 0 0 513.868 513.868" height="512" viewBox="0 0 513.868 513.868" width="512" xmlns="http://www.w3.org/2000/svg"><g><g><path d="m358.362 242.28v52.693c0 2.146-1.669 4.068-4.19 4.835-64.825 19.724-129.651 19.724-194.476 0-2.521-.767-4.19-2.689-4.19-4.835v-52.693c-.17-1.024 0-16.325 0-16.325l101.39-17.852 101.466 18.779z" fill="#aa9ea9"/><path d="m256.896 208.103-101.39 17.852s-.17 15.302 0 16.325v18.537 34.156c0 2.146 1.669 4.068 4.19 4.835 15.075 4.587 30.15 8.093 45.224 10.546v-16.926c0-10.405 9.758-18.053 19.862-15.567l26.787 6.591c1.75.431 3.556.649 5.364.649s3.614-.219 5.364-.649l96.064-23.635v-18.537-15.398z" fill="#9b8e99"/><path d="m392.67 228.373-134.673-33.134c-.693-.17-1.434-.17-2.127 0l-134.673 33.134c-3.379.831-3.379 4.634 0 5.466l134.673 33.134c.693.171 1.434.171 2.127 0l134.673-33.134c3.379-.832 3.379-4.635 0-5.466z" fill="#c9bfc8"/><path d="m241.396 222.07 62.827-15.458-46.226-11.373c-.693-.171-1.434-.171-2.127 0l-134.672 33.134c-3.379.831-3.379 4.635 0 5.466l134.672 33.135c.699.172 1.429.172 2.127 0l32.333-7.955-48.934-12.04c-13.015-3.203-13.015-21.707 0-24.909z" fill="#aa9ea9"/><path d="m196.924 337.582h-8.59c-6.969 0-12.618 5.649-12.618 12.618v15.154c0 2.53 2.051 4.581 4.581 4.581h24.663c2.53 0 4.581-2.051 4.581-4.581v-15.154c.001-6.969-5.648-12.618-12.617-12.618z" fill="#d7d0d6"/></g><g><path d="m148.006 294.973c0 5.453 3.82 10.28 9.506 12.01 9.182 2.794 18.391 5.186 27.617 7.205v16.174c-9.572 1.542-16.913 9.838-16.913 19.838v15.154c0 6.662 5.42 12.082 12.081 12.082h24.663c6.662 0 12.082-5.42 12.082-12.082v-15.154c0-10-7.342-18.295-16.913-19.837v-13.229c18.973 3.282 37.995 4.934 56.979 4.934 13.489 0 26.961-.831 40.38-2.495 4.11-.51 7.03-4.255 6.521-8.366-.511-4.111-4.262-7.033-8.366-6.52-31.673 3.927-63.66 2.96-95.513-2.808v-40.896l53.949 13.273c.934.23 1.895.345 2.855.345s1.922-.115 2.855-.345l91.072-22.407v41.125c-7.891 2.371-15.95 4.482-23.975 6.28-4.042.906-6.584 4.917-5.679 8.958.781 3.49 3.878 5.862 7.312 5.862.543 0 1.095-.059 1.646-.183 8.771-1.965 17.582-4.289 26.189-6.908 5.686-1.73 9.506-6.557 9.506-12.01v-46.815l28.601-7.037c4.931-1.213 8.242-5.239 8.242-10.017s-3.313-8.802-8.242-10.015l-134.668-33.133c-1.873-.462-3.851-.461-5.716-.001l-40.651 10.001c-4.022.989-6.48 5.052-5.491 9.075.99 4.021 5.051 6.481 9.075 5.491l39.923-9.822 115.451 28.405-115.451 28.405-115.452-28.405 43.802-10.777c4.022-.99 6.48-5.052 5.491-9.075-.989-4.021-5.052-6.48-9.075-5.491l-62.293 15.327c-4.931 1.212-8.243 5.237-8.243 10.015s3.312 8.803 8.242 10.017l28.601 7.037zm54.036 55.227v12.236h-18.826v-12.236c0-2.822 2.296-5.118 5.117-5.118h8.591c2.823 0 5.118 2.296 5.118 5.118zm-16.913-51.394c-7.387-1.692-14.764-3.621-22.123-5.833v-41.125l22.123 5.443z"/><path d="m506.368 249.434h-16.458c-1.867-59.454-25.888-115.077-68.143-157.333s-97.879-66.277-157.333-68.144v-16.457c0-4.142-3.357-7.5-7.5-7.5s-7.5 3.358-7.5 7.5v16.458c-59.454 1.867-115.077 25.888-157.333 68.144s-66.276 97.878-68.143 157.332h-16.458c-4.143 0-7.5 3.358-7.5 7.5s3.357 7.5 7.5 7.5h16.457c1.867 59.454 25.888 115.077 68.143 157.333s97.879 66.277 157.333 68.144v16.458c0 4.142 3.357 7.5 7.5 7.5s7.5-3.358 7.5-7.5v-16.459c59.454-1.867 115.077-25.888 157.333-68.144s66.276-97.879 68.143-157.333h16.457c4.143 0 7.5-3.358 7.5-7.5s-3.356-7.499-7.498-7.499zm-95.207-146.726c39.421 39.422 61.879 91.28 63.741 146.726h-28.988c-3.856-98.339-83.14-177.624-181.48-181.479v-28.988c55.446 1.861 107.305 24.319 146.727 63.741zm-308.453 0c39.422-39.422 91.281-61.88 146.727-63.741v28.988c-98.339 3.855-177.624 83.14-181.48 181.479h-28.988c1.861-55.446 24.319-107.304 63.741-146.726zm0 308.452c-39.421-39.422-61.879-91.28-63.741-146.726h28.984c1.85 47.747 21.318 92.36 55.319 126.321 2.93 2.927 7.679 2.924 10.606-.006 2.927-2.931 2.924-7.68-.007-10.607-31.162-31.126-49.068-71.971-50.909-115.708h10.915c4.143 0 7.5-3.358 7.5-7.5s-3.357-7.5-7.5-7.5h-10.911c3.837-90.067 76.402-162.633 166.47-166.47v10.912c0 4.142 3.357 7.5 7.5 7.5s7.5-3.358 7.5-7.5v-10.912c90.068 3.837 162.633 76.402 166.47 166.47h-10.911c-4.143 0-7.5 3.358-7.5 7.5s3.357 7.5 7.5 7.5h10.911c-3.837 90.068-76.402 162.633-166.47 166.47v-10.912c0-4.142-3.357-7.5-7.5-7.5s-7.5 3.358-7.5 7.5v10.92c-33.128-1.402-64.811-12.075-92.053-31.094-3.396-2.371-8.071-1.54-10.442 1.857-2.371 3.396-1.54 8.072 1.856 10.443 29.774 20.785 64.424 32.4 100.639 33.81v28.973c-55.446-1.861-107.304-24.319-146.726-63.741zm308.453 0c-39.422 39.422-91.281 61.88-146.727 63.741v-28.987c98.339-3.855 177.624-83.14 181.48-181.48h28.988c-1.862 55.446-24.32 107.304-63.741 146.726z"/></g></g></svg>