<svg id="Capa_1" enable-background="new 0 0 512.186 512.186" height="512" viewBox="0 0 512.186 512.186" width="512" xmlns="http://www.w3.org/2000/svg"><g><g><path d="m254.227 7.513c-67.422.983-122.334 56.085-123.097 123.51-.481 42.443 20.199 80.082 52.146 103.024 9.221 6.622 16.321 15.78 20.584 26.302l11.062 27.301 7.244 33.681 66.472 1.663 8.627-35.344 11.059-27.296c4.336-10.701 11.695-19.86 21.043-26.637 31.324-22.709 51.697-59.598 51.697-101.246 0-69.641-56.963-125.977-126.837-124.958z" fill="#fee45a"/><path d="m263.196 293.32-11.062-27.301c-4.263-10.522-11.363-19.679-20.584-26.302-31.946-22.942-52.626-60.581-52.146-103.024.734-64.779 51.452-118.173 115.222-123.137-12.698-4.112-26.285-6.249-40.4-6.043-67.422.983-122.334 56.085-123.097 123.51-.481 42.443 20.199 80.082 52.146 103.024 9.221 6.622 16.321 15.78 20.584 26.302l11.062 27.301 7.244 33.681 47.31 1.183z" fill="#fedf30"/><path d="m225.138 301.084-2.973 21.91v1.416c0 18.738 15.19 33.927 33.928 33.927 18.738 0 33.928-15.19 33.928-33.927v-1.416-21.91z" fill="#d7d0d6"/><path d="m256.093 324.41v-1.416l2.973-21.91h-33.928l-2.973 21.91v1.416c0 18.738 15.19 33.927 33.928 33.927 6.182 0 11.972-1.65 16.964-4.539-10.138-5.867-16.964-16.832-16.964-29.388z" fill="#c9bfc8"/><path d="m293.226 287.65h-74.266c-9.76 0-17.672 7.912-17.672 17.672 0 9.76 7.912 17.672 17.672 17.672h74.266c9.76 0 17.672-7.912 17.672-17.672 0-9.76-7.912-17.672-17.672-17.672z" fill="#e5e1e5"/><path d="m235.216 305.322c0-9.76 7.912-17.672 17.672-17.672h-33.928c-9.76 0-17.672 7.912-17.672 17.672s7.912 17.672 17.672 17.672h33.928c-9.76 0-17.672-7.912-17.672-17.672z" fill="#d7d0d6"/><path d="m302.871 462.958h-46.778v-26.836c0-19.914 16.143-36.057 36.057-36.057h37.946c4.878 0 8.832 3.954 8.832 8.832v18.004c-.001 19.914-16.144 36.057-36.057 36.057z" fill="#22b27f"/><path d="m210.315 462.958h45.778v-26.836c0-19.914-16.143-36.057-36.057-36.057h-36.946c-4.878 0-8.832 3.954-8.832 8.832v18.004c0 19.914 16.143 36.057 36.057 36.057z" fill="#22b27f"/><path d="m206.578 426.902v-18.004c0-4.878 3.954-8.832 8.832-8.832h-32.32c-4.878 0-8.832 3.954-8.832 8.832v18.004c0 19.914 16.143 36.057 36.057 36.057h32.319c-19.913-.001-36.056-16.144-36.056-36.057z" fill="#09a76d"/></g><g><path d="m254.117.014c-28.399.414-55.402 9.779-78.089 27.084-21.938 16.734-38.469 40.354-46.55 66.51-1.223 3.957.994 8.157 4.952 9.38 3.956 1.221 8.157-.995 9.379-4.952 7.167-23.197 21.841-44.154 41.317-59.011 20.113-15.342 44.046-23.646 69.21-24.013 31.739-.465 61.633 11.536 84.21 33.786 22.582 22.255 35.019 51.971 35.019 83.673 0 37.533-18.168 73.112-48.6 95.174-10.634 7.71-18.792 18.047-23.592 29.893l-9.162 22.612h-10.664v-43.9c0-4.143-3.358-7.5-7.5-7.5s-7.5 3.357-7.5 7.5v43.9h-20.908v-83.702h20.908v7.839c0 4.143 3.358 7.5 7.5 7.5s7.5-3.357 7.5-7.5v-7.839h12.291c14.078 0 25.531-11.453 25.531-25.531 0-14.077-11.453-25.53-25.531-25.53h-1.76c-14.078 0-25.531 11.453-25.531 25.53v10.531h-20.908v-10.531c0-14.077-11.453-25.53-25.531-25.53h-1.76c-14.078 0-25.531 11.453-25.531 25.53 0 14.078 11.453 25.531 25.531 25.531h12.291v83.702h-10.664l-9.164-22.617c-4.839-11.943-12.848-22.171-23.161-29.578-31.129-22.355-49.455-58.56-49.021-96.847.012-1.019.037-2.033.075-3.046.154-4.139-3.077-7.619-7.216-7.773-4.146-.112-7.62 3.077-7.773 7.217-.042 1.142-.072 2.285-.084 3.433-.489 43.173 20.172 83.995 55.27 109.2 8.008 5.751 14.235 13.714 18.008 23.027l8.494 20.964c-6.978 4.48-11.614 12.302-11.614 21.192 0 12.56 9.246 22.999 21.289 24.872 2.477 17.646 16.108 31.753 33.515 34.951v38.108c-7.027-6.115-16.041-10.027-25.992-10.607-4.131-.257-7.682 2.916-7.923 7.051-.241 4.136 2.916 7.683 7.051 7.924 15.063.878 26.864 13.397 26.864 28.502v19.336h-38.278c-15.746 0-28.557-12.811-28.557-28.557v-18.005c0-.734.598-1.331 1.332-1.331h7.112c4.142 0 7.5-3.357 7.5-7.5s-3.358-7.5-7.5-7.5h-7.112c-9.005 0-16.332 7.326-16.332 16.331v18.005c0 24.018 19.54 43.557 43.557 43.557h38.278v34.228c0 4.143 3.358 7.5 7.5 7.5s7.5-3.357 7.5-7.5v-34.228h39.278c24.017 0 43.557-19.539 43.557-43.557v-18.005c0-9.006-7.326-16.332-16.332-16.332h-37.946c-10.919 0-20.904 4.048-28.557 10.709v-38.13c17.408-3.198 31.038-17.305 33.515-34.951 12.043-1.873 21.289-12.312 21.289-24.872 0-8.89-4.637-16.712-11.614-21.192l8.492-20.959c3.743-9.237 10.138-17.322 18.494-23.381 34.311-24.875 54.795-64.994 54.795-107.318 0-35.75-14.024-69.26-39.49-94.356-25.459-25.092-59.168-38.617-94.957-38.101zm27.43 170.903c0-5.807 4.724-10.53 10.531-10.53h1.76c5.807 0 10.531 4.724 10.531 10.53s-4.724 10.531-10.531 10.531h-12.291zm-73.73 0c0-5.807 4.724-10.53 10.531-10.53h1.76c5.807 0 10.531 4.724 10.531 10.53v10.531h-12.291c-5.806 0-10.531-4.725-10.531-10.531zm84.332 236.648h37.946c.734 0 1.332.598 1.332 1.332v18.005c0 15.746-12.811 28.557-28.557 28.557h-39.278v-19.336-.001c.001-15.746 12.811-28.557 28.557-28.557zm-36.056-56.727c-12.479 0-22.966-8.694-25.721-20.344h51.442c-2.755 11.649-13.242 20.344-25.721 20.344zm37.133-35.344h-3.205-67.855-3.205c-5.609 0-10.172-4.563-10.172-10.172s4.563-10.172 10.172-10.172h74.266c5.609 0 10.172 4.563 10.172 10.172s-4.564 10.172-10.173 10.172z"/><path d="m440.457 249.836h-14.691c-4.142 0-7.5 3.357-7.5 7.5s3.358 7.5 7.5 7.5h14.691c4.142 0 7.5-3.357 7.5-7.5s-3.358-7.5-7.5-7.5z"/><path d="m413.604 201.847c.929 0 1.875-.174 2.79-.541l13.635-5.47c3.844-1.542 5.71-5.909 4.168-9.753-1.542-3.845-5.908-5.71-9.753-4.169l-13.635 5.47c-3.844 1.542-5.71 5.909-4.168 9.753 1.175 2.93 3.989 4.71 6.963 4.71z"/><path d="m416.27 318.247-12.08-8.36c-3.406-2.357-8.079-1.507-10.435 1.898-2.357 3.406-1.507 8.078 1.899 10.436l12.08 8.36c1.302.901 2.789 1.334 4.261 1.334 2.378 0 4.718-1.129 6.174-3.232 2.357-3.407 1.507-8.079-1.899-10.436z"/><path d="m86.42 249.836h-14.691c-4.142 0-7.5 3.357-7.5 7.5s3.358 7.5 7.5 7.5h14.691c4.142 0 7.5-3.357 7.5-7.5s-3.358-7.5-7.5-7.5z"/><path d="m82.157 195.837 13.635 5.47c.916.367 1.86.541 2.79.541 2.974 0 5.788-1.781 6.963-4.71 1.542-3.844-.324-8.211-4.168-9.753l-13.635-5.47c-3.845-1.541-8.211.324-9.753 4.169-1.543 3.843.324 8.211 4.168 9.753z"/><path d="m107.997 309.886-12.081 8.36c-3.406 2.357-4.256 7.029-1.899 10.435 1.456 2.104 3.795 3.233 6.174 3.233 1.472 0 2.959-.433 4.261-1.334l12.081-8.36c3.406-2.357 4.256-7.029 1.899-10.435-2.357-3.405-7.028-4.257-10.435-1.899z"/></g></g></svg>