<svg id="Capa_1" enable-background="new 0 0 512 512" height="512" viewBox="0 0 512 512" width="512" xmlns="http://www.w3.org/2000/svg"><g><g><path d="m374.719 374.406c-34.206 47.365-88.389 79.339-150.203 83.574h279.484v-83.574z" fill="#909ba5"/><path d="m210.473 127.12c-71.53 0-129.517 57.987-129.517 129.517 0 71.531 57.987 129.517 129.517 129.517s129.518-57.987 129.518-129.517-57.987-129.517-129.518-129.517zm0 160.993c-17.384 0-31.476-14.092-31.476-31.476s14.092-31.476 31.476-31.476 31.476 14.092 31.476 31.476-14.092 31.476-31.476 31.476z" fill="#909ba5"/><g><path d="m210.473 368.155c-68.504 0-124.578-53.187-129.201-120.517-.204 2.974-.317 5.974-.317 9 0 71.531 57.987 129.517 129.517 129.517s129.518-57.987 129.518-129.517c0-3.026-.112-6.026-.316-9-4.622 67.33-60.696 120.517-129.201 120.517z" fill="#808b95"/></g><path d="m210.473 53.527c-111.823 0-202.473 90.65-202.473 202.473s90.65 202.474 202.473 202.474 202.474-90.651 202.474-202.474-90.65-202.473-202.474-202.473zm0 35.115c23.647 0 42.817 19.17 42.817 42.817s-19.17 42.817-42.817 42.817-42.817-19.17-42.817-42.817 19.17-42.817 42.817-42.817zm-132.27 170.724c-22.528-7.19-34.961-31.281-27.771-53.809s31.281-34.961 53.809-27.771 34.961 31.281 27.771 53.809c-7.191 22.527-31.282 34.961-53.809 27.771zm92.435 123.431c-14.035 19.032-40.841 23.083-59.873 9.047-19.032-14.035-23.082-40.841-9.047-59.873s40.841-23.083 59.873-9.047c19.031 14.035 23.082 40.841 9.047 59.873zm39.835-94.684c-17.384 0-31.476-14.092-31.476-31.476s14.092-31.476 31.476-31.476 31.476 14.092 31.476 31.476-14.092 31.476-31.476 31.476zm99.709 103.731c-19.032 14.035-45.838 9.984-59.873-9.047-14.035-19.032-9.984-45.838 9.047-59.872 19.032-14.035 45.838-9.984 59.872 9.047 14.036 19.031 9.986 45.837-9.046 59.872zm32.562-132.478c-22.528 7.19-46.619-5.243-53.809-27.771-7.19-22.527 5.243-46.618 27.771-53.809 22.527-7.19 46.618 5.243 53.809 27.771 7.19 22.528-5.243 46.619-27.771 53.809z" fill="#f6e080"/><path d="m374.719 374.406c-34.206 47.365-88.389 79.339-150.203 83.574h70.775c40.996-17.236 75.642-46.587 99.457-83.574z" fill="#808b95"/><g><path d="m210.473 440.474c-108.805 0-197.553-85.829-202.263-193.474-.131 2.985-.21 5.983-.21 9 0 111.823 90.65 202.474 202.473 202.474s202.474-90.651 202.474-202.474c0-3.017-.079-6.015-.21-9-4.71 107.645-93.457 193.474-202.264 193.474z" fill="#eccd61"/></g></g><g><path d="m115.354 85.521c28.884-16.113 61.745-24.629 95.03-24.629 42.154 0 82.29 13.211 116.071 38.205 33.127 24.51 57.291 58.083 69.88 97.092 3.417 9.394 17.036 4.911 14.303-4.616-13.559-42.014-39.578-78.169-75.244-104.558-36.387-26.923-79.615-41.153-125.011-41.153-35.842 0-71.236 9.175-102.351 26.533-3.625 2.021-4.924 6.599-2.902 10.223 2.024 3.626 6.6 4.927 10.224 2.903z"/><path d="m210.385 181.878c27.799 0 50.416-22.617 50.416-50.416s-22.616-50.416-50.416-50.416c-27.799 0-50.416 22.616-50.416 50.416s22.616 50.416 50.416 50.416zm0-15.029c-16.724 0-30.766-11.666-34.44-27.285 11.137-3.265 22.69-4.934 34.436-4.934 11.752 0 23.307 1.669 34.444 4.934-3.675 15.618-17.716 27.285-34.44 27.285zm0-70.773c16.951 0 31.151 11.984 34.587 27.923-11.242-2.92-22.833-4.398-34.591-4.398-11.754 0-23.342 1.479-34.584 4.399 3.436-15.94 17.636-27.924 34.588-27.924z"/><path d="m377.898 203.42c-8.453-26.482-36.875-41.153-63.358-32.699-12.829 4.095-23.296 12.94-29.472 24.906-6.176 11.967-7.322 25.622-3.227 38.451s12.94 23.296 24.906 29.472c7.255 3.744 15.13 5.64 23.066 5.64 5.154 0 10.335-.8 15.385-2.413 26.483-8.451 41.152-36.873 32.7-63.357zm-14.317 4.57c5.159 16.168-1.961 33.359-16.132 41.468-1.246-23.598-8.399-46.088-20.996-65.926 16.235-1.578 31.972 8.305 37.128 24.458zm-67.422 21.519c-5.082-15.925 1.753-32.84 15.503-41.094 13.202 19.45 20.384 41.956 20.922 65.609-15.981 1.228-31.344-8.595-36.425-24.515z"/><path d="m277.293 407.679c2.552.387 5.105.576 7.639.576 10.686 0 21.055-3.39 29.815-9.85 10.839-7.992 17.916-19.727 19.928-33.042 2.013-13.316-1.281-26.617-9.274-37.455-16.498-22.374-48.123-27.153-70.498-10.654-22.373 16.499-27.152 48.125-10.653 70.498 7.994 10.839 19.728 17.915 33.043 19.927zm39.788-64.409c2.796 6.161 3.768 12.999 2.734 19.846-1.413 9.346-6.38 17.583-13.987 23.193-7.607 5.611-16.937 7.92-26.29 6.51-6.834-1.033-13.07-3.974-18.125-8.451 21.66-8.7 40.91-22.911 55.668-41.098zm-53.258-13.92c13.452-9.92 31.664-8.872 43.89 1.5-14.185 18.623-33.522 32.895-55.412 40.903-6.314-14.752-1.938-32.476 11.522-42.403z"/><path d="m138.928 234.079c4.095-12.829 2.949-26.484-3.227-38.451-6.176-11.966-16.643-20.811-29.472-24.906-26.48-8.458-54.906 6.215-63.358 32.699s6.217 54.906 32.7 63.357c5.052 1.612 10.231 2.413 15.385 2.413 7.935 0 15.811-1.896 23.065-5.64 11.966-6.177 20.812-16.643 24.907-29.472zm-65.605 15.38c-14.173-8.108-21.294-25.301-16.135-41.47 4.795-15.023 18.747-24.629 33.735-24.629 1.124 0 2.255.075 3.387.184-12.592 19.836-19.742 42.322-20.987 65.915zm14.866 4.566c.538-23.653 7.72-46.159 20.922-65.608 13.748 8.254 20.582 25.169 15.5 41.093-5.081 15.918-20.443 25.741-36.422 24.515z"/><path d="m106.021 398.405c8.76 6.461 19.129 9.85 29.815 9.85 2.533 0 5.087-.191 7.639-.576 13.316-2.012 25.05-9.088 33.043-19.927 16.499-22.373 11.72-53.999-10.653-70.498s-53.999-11.719-70.498 10.654c-7.993 10.838-11.287 24.139-9.274 37.455 2.013 13.315 9.09 25.049 19.928 33.042zm29.967-75.948c7.294 0 14.651 2.243 20.958 6.893 13.46 9.927 17.836 27.652 11.521 42.404-21.893-8.002-41.23-22.276-55.413-40.905 6.494-5.51 14.672-8.392 22.934-8.392zm-32.3 20.814c14.756 18.193 34.005 32.404 55.667 41.098-5.054 4.476-11.29 7.417-18.123 8.45-9.351 1.408-18.682-.9-26.29-6.51s-12.574-13.846-13.987-23.193c-1.035-6.847-.063-13.685 2.733-19.845z"/><path d="m249.436 256.886c0-21.533-17.519-39.052-39.052-39.052s-39.052 17.519-39.052 39.052 17.519 39.052 39.052 39.052c21.534 0 39.052-17.519 39.052-39.052zm-63.074 0c0-13.246 10.777-24.022 24.023-24.022s24.022 10.777 24.022 24.022c0 13.246-10.777 24.023-24.022 24.023-13.246 0-24.023-10.777-24.023-24.023z"/><path d="m355.378 429.744c-4.151 0-7.515 3.364-7.515 7.515s3.364 7.515 7.515 7.515h8.005c4.151 0 7.515-3.364 7.515-7.515s-3.364-7.515-7.515-7.515z"/><path d="m398.607 429.744h-8.006c-4.151 0-7.515 3.364-7.515 7.515s3.364 7.515 7.515 7.515h8.006c4.151 0 7.515-3.364 7.515-7.515s-3.365-7.515-7.515-7.515z"/><path d="m441.344 437.259c0-4.151-3.364-7.515-7.515-7.515h-8.005c-4.151 0-7.515 3.364-7.515 7.515s3.364 7.515 7.515 7.515h8.005c4.151-.001 7.515-3.365 7.515-7.515z"/><path d="m461.049 444.773h8.005c4.151 0 7.515-3.364 7.515-7.515s-3.364-7.515-7.515-7.515h-8.005c-4.151 0-7.515 3.364-7.515 7.515s3.364 7.515 7.515 7.515z"/><path d="m398.607 390.918h-8.006c-4.151 0-7.515 3.364-7.515 7.515s3.364 7.515 7.515 7.515h8.006c4.151 0 7.515-3.364 7.515-7.515-.001-4.151-3.365-7.515-7.515-7.515z"/><path d="m425.825 405.948h8.005c4.151 0 7.515-3.364 7.515-7.515s-3.364-7.515-7.515-7.515h-8.005c-4.151 0-7.515 3.364-7.515 7.515s3.364 7.515 7.515 7.515z"/><path d="m461.049 405.948h8.005c4.151 0 7.515-3.364 7.515-7.515s-3.364-7.515-7.515-7.515h-8.005c-4.151 0-7.515 3.364-7.515 7.515s3.364 7.515 7.515 7.515z"/><path d="m504.485 367.37h-115.538c20.154-32.268 31.822-70.356 31.822-111.123 0-11.529-.941-23.098-2.798-34.383-.673-4.096-4.542-6.871-8.634-6.196-4.096.673-6.87 4.539-6.196 8.634 1.724 10.481 2.598 21.229 2.598 31.944 0 107.719-87.636 195.355-195.355 195.355s-195.355-87.635-195.355-195.354c0-61.044 27.76-117.463 76.161-154.792 3.287-2.534 3.896-7.252 1.362-10.539-2.535-3.288-7.255-3.895-10.54-1.362-24.948 19.241-45.595 44.248-59.706 72.317-14.801 29.442-22.306 61.194-22.306 94.376 0 116.007 94.378 209.89 210.385 209.89h200.411c4.151 0 7.515-3.364 7.515-7.515s-3.364-7.515-7.515-7.515h-121.129c35.526-14.507 66.234-38.449 88.979-68.708h118.325v68.708h-56.116c-4.151 0-7.515 3.364-7.515 7.515s3.364 7.515 7.515 7.515h63.631c4.151 0 7.515-3.364 7.515-7.515v-83.738c-.001-4.15-3.365-7.514-7.516-7.514z"/></g></g></svg>