<svg id="Capa_1" enable-background="new 0 0 511.089 511.089" height="512" viewBox="0 0 511.089 511.089" width="512" xmlns="http://www.w3.org/2000/svg"><g><g><path d="m213.277 53.368 28.731 72.957 8.725 17.698-125.581 46.961-19.023-45.241-17.131-44.143-8.168-18.256 126.307-51.182z" fill="#baafb9"/><path d="m143.451 98.703 76.056-29.517-6.229-15.818-6.14-21.206-126.308 51.182 8.168 18.256 3.697 9.526 13.435 34.616 19.023 45.241 33.239-12.43-13.797-32.812-10.244-26.396c-3.188-8.212.886-17.455 9.1-20.642z" fill="#aa9ea9"/><circle cx="199.283" cy="312.558" fill="#a6e7f0" r="191.03"/><path d="m86.54 331.841c-9.985-98.415 56.606-186.949 151.473-206.391-18.607-3.846-38.106-4.966-58.012-2.946-104.965 10.649-181.422 104.373-170.772 209.337s104.373 181.421 209.337 170.772c6.549-.665 12.986-1.653 19.299-2.946-79.51-16.435-142.695-82.767-151.325-167.826z" fill="#6bd9e7"/><circle cx="199.283" cy="312.559" fill="#fee45a" r="135.03"/><path d="m119.678 421.556c-17.924-25.752-29.746-56.286-33.138-89.715-4.793-47.243 8.067-92.203 33.223-128.342-33.624 24.583-55.51 64.31-55.51 109.059 0 44.712 21.849 84.409 55.425 108.998z" fill="#fedf30"/><circle cx="199.283" cy="312.558" fill="#f47c7c" r="69.253"/><path d="m233.659 8.078-190.259 73.838c-4.391 1.704-6.569 6.645-4.865 11.035l6.437 16.587c1.704 4.391 6.645 6.569 11.035 4.865l190.259-73.838c4.391-1.704 6.569-6.645 4.865-11.035l-6.437-16.587c-1.703-4.391-6.644-6.569-11.035-4.865z" fill="#baafb9"/><path d="m74.422 244.17h-7.529c-9.153 0-16.572 7.42-16.572 16.572v18.97c0 2.872 2.328 5.199 5.199 5.199h30.275c2.872 0 5.199-2.328 5.199-5.199v-18.97c0-9.153-7.419-16.572-16.572-16.572z" fill="#d7d0d6"/><path d="m497.705 349.734h-63.74c-2.317 0-4.346-1.555-4.948-3.793l-8.622-32.052c-.234-.872-.234-1.79 0-2.662l8.622-32.052c.602-2.238 2.631-3.793 4.948-3.793h63.74c3.371 0 5.823 3.199 4.948 6.455l-7.906 29.391c-.234.872-.234 1.79 0 2.662l7.906 29.39c.876 3.255-1.577 6.454-4.948 6.454z" fill="#f47c7c"/></g><path d="m502.156 312.559 7.739-28.773c1.029-3.823.237-7.817-2.171-10.96-2.408-3.142-6.06-4.943-10.019-4.943h-63.74c-5.696 0-10.709 3.842-12.19 9.345l-7.487 27.832h-16.628c-1.814-48.828-21.291-94.802-55.335-130.162-26.172-27.184-58.924-46.011-94.765-54.941l-24.542-62.323 25.962-10.076c3.992-1.549 7.142-4.56 8.868-8.478 1.728-3.918 1.825-8.273.276-12.265l-6.438-16.586c-3.198-8.236-12.497-12.339-20.741-9.144l-190.259 73.839c-3.991 1.55-7.14 4.56-8.866 8.478-1.728 3.917-1.825 8.272-.276 12.264l6.438 16.585c1.548 3.992 4.559 7.142 8.477 8.868 2.07.913 4.264 1.371 6.461 1.371 1.959 0 3.922-.364 5.804-1.094l4.436-1.721v48.444c-38.575 36.438-62.404 88.016-62.404 144.44 0 109.47 89.061 198.53 198.53 198.53 106.958 0 194.416-85.023 198.375-191.03h16.63l7.487 27.833c1.481 5.501 6.494 9.343 12.19 9.343h19.057c4.143 0 7.5-3.357 7.5-7.5s-3.357-7.5-7.5-7.5h-17.235l-5.966-22.176h58.82l5.964 22.176h-9.62c-4.143 0-7.5 3.357-7.5 7.5s3.357 7.5 7.5 7.5h12.721c3.959 0 7.61-1.802 10.019-4.943 2.408-3.143 3.2-7.137 2.171-10.96zm-66.37-29.677h58.818l-5.964 22.177h-58.82zm-357.629-169.029 6.562-2.547 12.105 31.192c-6.479 3.917-12.708 8.195-18.667 12.799zm-11.264 137.817h7.529c5.003 0 9.072 4.069 9.072 9.072v16.669h-25.673v-16.669c0-5.003 4.069-9.072 9.072-9.072zm132.39 244.419c-101.199 0-183.53-82.331-183.53-183.53 0-46.944 17.845-90.255 47.404-123.006v47.408c-11.506 1.8-20.337 11.778-20.337 23.781v18.97c0 7.002 5.697 12.699 12.699 12.699h30.275c7.002 0 12.699-5.697 12.699-12.699v-18.97c0-12.003-8.831-21.981-20.337-23.781v-62.235c26.73-23.556 60.447-39.523 97.954-44.246 4.109-.518 7.021-4.269 6.504-8.379-.518-4.108-4.259-7.017-8.379-6.504-22.902 2.884-44.497 9.647-64.167 19.568l-11.366-29.287 7.588-2.945c3.861-1.499 5.776-5.845 4.278-9.706-1.5-3.861-5.847-5.774-9.706-4.278l-14.569 5.655c-.004.001-.008.002-.011.004s-.007.003-.011.005l-32.977 12.799c-.528.201-1.127-.057-1.331-.587l-6.438-16.587c-.205-.528.058-1.124.586-1.329l190.258-73.839c.531-.205 1.127.058 1.331.587l6.438 16.586c.128.328.061.608-.018.786s-.24.417-.569.544l-112.891 43.812c-3.861 1.499-5.776 5.844-4.278 9.706 1.5 3.861 5.846 5.774 9.706 4.278l72.946-28.31 21.013 53.36c-7.442-1.155-14.986-1.903-22.607-2.212-4.097-.169-7.63 3.052-7.797 7.191s3.053 7.629 7.191 7.797c47.419 1.918 91.699 21.843 124.686 56.104 31.338 32.55 49.326 74.832 51.132 119.759h-40.987c-3.914-75.145-66.279-135.079-142.381-135.079-39.973 0-78.365 16.944-105.331 46.489-2.793 3.059-2.576 7.803.483 10.595 3.057 2.794 7.803 2.576 10.595-.483 24.132-26.438 58.485-41.601 94.253-41.601 67.829 0 123.456 53.209 127.352 120.079h-50.97c-3.782-38.814-36.591-69.253-76.382-69.253-42.321 0-76.753 34.432-76.753 76.753s34.432 76.753 76.753 76.753c39.791 0 72.599-30.439 76.382-69.253h50.97c-3.896 66.869-59.523 120.078-127.352 120.078-33.689 0-65.465-13.013-89.473-36.64-23.98-23.6-37.503-55.105-38.077-88.714-.07-4.099-3.414-7.372-7.496-7.372-.044 0-.088 0-.131.001-4.142.071-7.441 3.485-7.371 7.627.643 37.563 15.755 72.774 42.553 99.148 26.832 26.406 62.344 40.949 99.995 40.949 76.103 0 138.468-59.933 142.381-135.078h40.983c-3.949 97.736-84.678 176.032-183.365 176.032zm0-176.03h61.281c-3.715 30.524-29.771 54.253-61.281 54.253-34.051 0-61.753-27.702-61.753-61.753s27.702-61.753 61.753-61.753c31.511 0 57.566 23.729 61.281 54.253h-61.281c-4.143 0-7.5 3.357-7.5 7.5s3.358 7.5 7.5 7.5z"/></g></svg>