<svg id="Capa_1" enable-background="new 0 0 512 512" height="512" viewBox="0 0 512 512" width="512" xmlns="http://www.w3.org/2000/svg"><g><g><path d="m415.789 345.637h-319.578v-11.832c0-10.134 8.215-18.349 18.349-18.349h282.88c10.134 0 18.349 8.215 18.349 18.349z" fill="#e7ecf1"/><path d="m97.296 327.637c-.69 1.93-1.085 4.001-1.085 6.168v11.832h319.578v-11.832c0-2.167-.395-4.238-1.085-6.168z" fill="#c6d0da"/><path d="m415.789 83.695h-319.578v-11.832c0-10.134 8.215-18.349 18.349-18.349h282.88c10.134 0 18.349 8.215 18.349 18.349z" fill="#e7ecf1"/><path d="m97.296 65.695c-.69 1.93-1.085 4-1.085 6.168v11.832h319.578v-11.832c0-2.167-.395-4.238-1.085-6.168z" fill="#c6d0da"/><path d="m69.219 345.715h373.561v73.659h-373.561z" fill="#ecb85e"/><path d="m69.219 404.244h373.562v15.13h-373.562z" fill="#eaa949"/><path d="m69.219 83.695h373.561v73.659h-373.561z" fill="#ecb85e"/><path d="m69.219 142.225h373.562v15.13h-373.562z" fill="#eaa949"/><path d="m58.526 504h-15.577c-5.906 0-10.693-4.787-10.693-10.693v-475.31c0-5.521 4.476-9.997 9.997-9.997h16.97c5.521 0 9.997 4.476 9.997 9.997v475.31c-.001 5.906-4.788 10.693-10.694 10.693z" fill="#cf8151"/><path d="m469.051 504h-15.578c-5.905 0-10.693-4.787-10.693-10.693v-475.31c0-5.521 4.476-9.997 9.997-9.997h16.97c5.521 0 9.997 4.476 9.997 9.997v475.31c0 5.906-4.787 10.693-10.693 10.693z" fill="#cf8151"/><path d="m58.526 486h-15.577c-5.906 0-10.693-4.787-10.693-10.693v18c0 5.905 4.787 10.693 10.693 10.693h15.578c5.906 0 10.693-4.787 10.693-10.693v-18c-.001 5.906-4.788 10.693-10.694 10.693z" fill="#bd6e45"/><path d="m469.051 486h-15.578c-5.905 0-10.693-4.787-10.693-10.693v18c0 5.905 4.787 10.693 10.693 10.693h15.578c5.906 0 10.693-4.787 10.693-10.693v-18c0 5.906-4.787 10.693-10.693 10.693z" fill="#bd6e45"/><path d="m228.642 504h-12.777c-5.521 0-9.997-4.476-9.997-9.997v-410.385h32.77v410.385c.001 5.521-4.475 9.997-9.996 9.997z" fill="#cf8151"/><path d="m369.803 504h-12.777c-5.521 0-9.997-4.476-9.997-9.997v-410.385h32.771v410.385c0 5.521-4.476 9.997-9.997 9.997z" fill="#cf8151"/><path d="m228.642 486h-12.777c-5.521 0-9.997-4.476-9.997-9.997v18c0 5.521 4.476 9.997 9.997 9.997h12.777c5.521 0 9.997-4.476 9.997-9.997v-18c0 5.521-4.476 9.997-9.997 9.997z" fill="#bd6e45"/><path d="m369.803 486h-12.777c-5.521 0-9.997-4.476-9.997-9.997v18c0 5.521 4.476 9.997 9.997 9.997h12.777c5.521 0 9.997-4.476 9.997-9.997v-18c0 5.521-4.475 9.997-9.997 9.997z" fill="#bd6e45"/><g fill="#cf8151"><path d="m238.639 315.456h108.391v30.259h-108.391z"/><path d="m238.639 229.735h108.391v30.259h-108.391z"/><path d="m238.639 142.225h108.391v30.259h-108.391z"/><path d="m238.639 404.244h108.391v30.259h-108.391z"/></g><g fill="#bd6e45"><path d="m238.639 327.715h108.391v18h-108.391z"/><path d="m238.639 241.995h108.391v18h-108.391z"/><path d="m238.639 154.484h108.391v18h-108.391z"/><path d="m238.639 416.504h108.391v18h-108.391z"/></g></g><path d="m480.182 338.298c4.151 0 7.515-3.364 7.515-7.515v-313.252c0-9.666-7.865-17.531-17.532-17.531h-17.003c-9.667 0-17.531 7.865-17.531 17.531v58.312h-12.015v-4.34c0-14.281-11.618-25.9-25.9-25.9h-283.432c-14.281 0-25.9 11.619-25.9 25.9v4.34h-12.016v-58.312c0-9.666-7.864-17.531-17.531-17.531h-17.003c-9.666 0-17.531 7.865-17.531 17.531v80.711c0 4.15 3.365 7.515 7.515 7.515s7.515-3.364 7.515-7.515v-80.711c0-1.38 1.122-2.502 2.501-2.502h17.003c1.38 0 2.502 1.122 2.502 2.502v476.24c0 1.764-1.435 3.199-3.199 3.199h-15.608c-1.764 0-3.199-1.435-3.199-3.199v-365.47c0-4.15-3.365-7.515-7.515-7.515s-7.515 3.364-7.515 7.515v365.47c0 10.051 8.177 18.228 18.229 18.228h15.608c10.051 0 18.229-8.177 18.229-18.228v-66.563h121.887v67.26c0 9.667 7.865 17.531 17.531 17.531h12.802c9.666 0 17.531-7.864 17.531-17.531v-52.101h93.573v52.101c0 9.667 7.865 17.531 17.531 17.531h12.802c9.666 0 17.53-7.864 17.53-17.531v-67.26h48.074v66.563c0 10.051 8.177 18.228 18.229 18.228h15.609c10.051 0 18.228-8.177 18.228-18.228v-132.93c0-4.15-3.364-7.515-7.515-7.515s-7.515 3.365-7.515 7.515v132.93c0 1.764-1.434 3.199-3.199 3.199h-15.607c-1.764 0-3.2-1.435-3.2-3.199v-476.24c0-1.38 1.122-2.502 2.502-2.502h17.003c1.38 0 2.502 1.122 2.502 2.502v313.252c0 4.151 3.364 7.515 7.515 7.515zm-92.625-15.211h10.159c5.994 0 10.871 4.877 10.871 10.871v4.418h-21.03zm10.159-15.03h-10.159v-143.381h48.074v173.7h-12.015v-4.418c0-14.282-11.618-25.901-25.9-25.901zm37.915-158.41h-48.074v-58.774h48.074zm-332.218-78.144c0-5.994 4.877-10.871 10.871-10.871h283.432c5.994 0 10.871 4.877 10.871 10.871v4.34h-305.174zm142.706 180.985v-15.289h93.573v15.289zm93.574 15.029v40.54h-93.573v-40.54zm-93.574-45.348v-42.334h93.573v42.334zm0 100.918h93.573v15.289h-93.573zm93.574-158.281h-93.573v-15.289h93.573zm-93.574 188.599h93.573v43.615h-93.573zm93.574-218.918h-93.573v-43.614h93.573zm-141.438-43.614v58.774h-121.887v-58.774zm-121.887 321.306v-58.774h121.887v58.774zm121.887-73.803h-94.842v-4.418c0-5.994 4.877-10.871 10.871-10.871h83.972v15.289zm32.835 156.093c0 1.38-1.122 2.502-2.501 2.502h-12.802c-1.38 0-2.502-1.122-2.502-2.502v-252.118c0-4.15-3.364-7.515-7.515-7.515-4.15 0-7.515 3.365-7.515 7.515v65.706h-83.972c-14.281 0-25.9 11.619-25.9 25.9v4.418h-12.015v-173.7h121.887v47.617c0 4.15 3.365 7.515 7.515 7.515s7.515-3.364 7.515-7.515v-121.419h17.805zm15.029-67.131v-15.289h93.573v15.289zm126.408 67.131c0 1.38-1.122 2.502-2.501 2.502h-12.802c-1.38 0-2.502-1.122-2.502-2.502v-403.596h17.805zm15.03-82.29v-58.774h48.074v58.774z"/></g></svg>