<svg id="Capa_1" enable-background="new 0 0 511.705 511.705" height="512" viewBox="0 0 511.705 511.705" width="512" xmlns="http://www.w3.org/2000/svg"><g><g><g id="XMLID_1067_"><g><path d="m296.157 438.955h-75.26l-17.799 18.037v14.17c0 18.22 14.77 32.98 32.99 32.98h39.86c18.22 0 32.99-14.76 32.99-32.98v-14.17z" fill="#fccd7f"/></g></g><path d="m232.341 471.162v-14.17l17.799-18.037h-29.244l-17.799 18.037v14.17c0 18.22 14.77 32.98 32.99 32.98h29.244c-18.22 0-32.99-14.76-32.99-32.98z" fill="#fbc56d"/><path d="m203.097 383.582h105.84v73.41h-105.84z" fill="#fee45a"/><path d="m203.097 323.258h105.84v41.324h-105.84z" fill="#fee45a"/><path d="m203.097 323.258h29.244v41.324h-29.244z" fill="#fedf30"/><path d="m203.097 383.582h29.244v73.41h-29.244z" fill="#fedf30"/><g><g><g id="XMLID_13_"><g><g><path d="m481.717 300.242v98.259c0 3.359-2.723 6.081-6.081 6.081h-440.558c-3.364 0-6.091-2.727-6.091-6.091v-98.249c0-121.166 98.224-219.39 219.39-219.39h13.95c121.16 0 219.39 98.22 219.39 219.39zm-60 38.958v-38.958c0-88.029-71.361-159.39-159.39-159.39h-13.95c-88.029 0-159.39 71.361-159.39 159.39v38.968c0 2.967 2.405 5.372 5.372 5.372h321.976c2.973 0 5.382-2.41 5.382-5.382z" fill="#efedef"/></g></g></g></g></g><path d="m167.926 212.712h171.962v95.61h-171.962z" fill="#d4f2f6"/><path d="m178.097 212.712h155.84v95.61h-155.84z" fill="#a6e7f0"/><g><path d="m178.097 157.154c21.201-10.433 45.054-16.302 70.28-16.302h13.95c25.755 0 50.078 6.116 71.61 16.963v-64.997c-22.444-7.748-46.533-11.966-71.61-11.966h-13.95c-24.58 0-48.216 4.043-70.28 11.5z" fill="#e5e1e5"/></g><path d="m291.065 64.466h-65.021l-22.947 16.386v242.406h105.84v-242.406z" fill="#fee45a"/><path d="m238.031 80.854h36.642v263.723h-36.642z" fill="#ee6161"/><path d="m238.031 404.577h36.642v52.417h-36.642z" fill="#ee6161"/><g><path d="m88.987 333.323v-33.081c0-43.926 17.77-83.7 46.511-112.53h-75.477c-19.7 32.903-31.034 71.39-31.034 112.53v33.081z" fill="#e5e1e5"/><path d="m15.797 212.712c-4.58 0-8.3 3.72-8.3 8.3v79.01c0 4.58 3.72 8.3 8.3 8.3h152.128v-60.159-35.451z" fill="#d4f2f6"/><path d="m421.717 300.242v33.081h60v-33.081c0-41.14-11.334-79.627-31.034-112.53h-75.478c28.742 28.83 46.512 68.604 46.512 112.53z" fill="#e5e1e5"/><path d="m495.907 212.712h-156.019v35.451 60.159h156.019c4.58 0 8.3-3.72 8.3-8.3v-79.01c0-4.58-3.72-8.3-8.3-8.3z" fill="#d4f2f6"/></g><path d="m261.987 10.742c-2.85-4.24-9.09-4.24-11.94 0l-17.8 26.59 12.411 13.554h30.015l5.114-13.554z" fill="#c9bfc8"/><path d="m257.182 43.764 13.455-20.1-8.651-12.922c-2.85-4.24-9.09-4.24-11.94 0l-17.8 26.59 12.411 13.554h19.045z" fill="#baafb9"/><path d="m255.288 64.466h-29.244l-22.947 16.386v242.406h29.244v-242.406z" fill="#fedf30"/><g><path d="m279.787 37.332 29.15 43.52h-3-97.84-5l29.15-43.52z" fill="#fae2c0"/></g><path d="m232.247 37.332-29.15 43.52h5 24.244l29.15-43.52z" fill="#fddeb0"/></g><path d="m495.911 205.216h-28.185c-12.122-26.248-28.832-49.79-49.736-70.029-22.13-21.425-47.796-38.031-76.285-49.357-3.852-1.53-8.21.35-9.74 4.199s.35 8.21 4.199 9.74c49.623 19.727 90.946 57.808 114.905 105.447h-52.222c-14.585-21.278-33.913-39.296-56.132-52.263-3.578-2.091-8.17-.881-10.258 2.697s-.88 8.17 2.697 10.258c17.293 10.092 32.674 23.531 45.095 39.308h-63.815v-60.705c0-4.143-3.358-7.5-7.5-7.5s-7.5 3.357-7.5 7.5v192.566h-19.261v-248.722h19.261v24.194c0 4.143 3.358 7.5 7.5 7.5s7.5-3.357 7.5-7.5v-31.695c0-1.486-.441-2.938-1.269-4.173l-46.95-70.109c-2.731-4.077-7.291-6.511-12.198-6.511s-9.467 2.434-12.198 6.512l-46.951 70.108c-.827 1.234-1.269 2.687-1.269 4.173v124.362h-6.519c-4.142 0-7.5 3.357-7.5 7.5s3.358 7.5 7.5 7.5h6.519v80.603h-32.254v-15.097c0-4.143-3.358-7.5-7.5-7.5s-7.5 3.357-7.5 7.5v15.097h-33.215v-15.097c0-4.143-3.358-7.5-7.5-7.5s-7.5 3.357-7.5 7.5v15.097h-33.215v-15.097c0-4.143-3.358-7.5-7.5-7.5s-7.5 3.357-7.5 7.5v15.097h-36.121c-.438 0-.794-.356-.794-.795v-79.014c0-.438.356-.794.794-.794h31.986c.013 0 .026.002.038.002.009 0 .018-.002.027-.002h67.978c.005 0 .009.001.014.001s.011-.001.016-.001h41.265c4.142 0 7.5-3.357 7.5-7.5s-3.358-7.5-7.5-7.5h-26.677c12.726-16.168 28.55-29.861 46.378-40.044 3.597-2.055 4.847-6.636 2.792-10.232-2.054-3.598-6.637-4.847-10.232-2.793-22.823 13.037-42.633 31.336-57.528 53.069h-52.217c24.177-48.087 65.967-86.354 116.192-105.952 3.858-1.506 5.766-5.854 4.26-9.714-1.506-3.857-5.853-5.763-9.713-4.261-55.985 21.846-102.161 65.399-127.391 119.927h-27.188c-8.709 0-15.794 7.085-15.794 15.794v79.014c0 8.709 7.085 15.795 15.794 15.795h5.698v81.122c0 8.347 6.79 15.137 15.137 15.137h158.971v59.083c0 22.322 18.161 40.483 40.483 40.483h39.869c22.322 0 40.483-18.161 40.483-40.483v-59.083h157.642c8.346 0 15.137-6.79 15.137-15.137v-81.122h6.698c8.709 0 15.794-7.086 15.794-15.795v-79.014c-.001-8.709-7.086-15.794-15.795-15.794zm-179.476 110.603h97.778v21.259h-97.778zm-49.262 21.258h-21.642v-248.722h21.642zm-56.573 0v-248.722h19.932v248.723h-19.932zm25.647-292.242h39.539l19.099 28.52h-20.213-36.642-20.883zm29.494-15h-19.449l9.724-14.521zm-35.21 382.242v37.417h-19.931v-37.417zm36.642 0v37.417h-21.642v-37.417zm8.779 84.567h-39.869c-14.051 0-25.483-11.432-25.483-25.483v-6.666h27.432 36.642 26.761v6.666c0 14.051-11.432 25.483-25.483 25.483zm25.483-47.15h-19.261v-37.417h19.261zm172.778-52.553c0 .075-.062.137-.137.137h-28.182v-6.822c0-4.143-3.358-7.5-7.5-7.5s-7.5 3.357-7.5 7.5v6.822h-21.408v-6.822c0-4.143-3.358-7.5-7.5-7.5s-7.5 3.357-7.5 7.5v6.822h-21.409v-6.822c0-4.143-3.358-7.5-7.5-7.5s-7.5 3.357-7.5 7.5v6.822h-21.408v-6.822c0-4.143-3.358-7.5-7.5-7.5s-7.5 3.357-7.5 7.5v6.822h-12.734-8.674v-6.822c0-4.143-3.358-7.5-7.5-7.5s-7.5 3.357-7.5 7.5v6.822h-10.587-10.821v-6.822c0-4.143-3.358-7.5-7.5-7.5s-7.5 3.357-7.5 7.5v6.822h-10.821-10.587v-6.822c0-4.143-3.358-7.5-7.5-7.5s-7.5 3.357-7.5 7.5v6.822h-9.345-12.064v-6.822c0-4.143-3.358-7.5-7.5-7.5s-7.5 3.357-7.5 7.5v6.822h-21.409v-6.822c0-4.143-3.358-7.5-7.5-7.5s-7.5 3.357-7.5 7.5v6.822h-21.408v-6.822c0-4.143-3.358-7.5-7.5-7.5s-7.5 3.357-7.5 7.5v6.822h-21.408v-6.822c0-4.143-3.358-7.5-7.5-7.5s-7.5 3.357-7.5 7.5v6.822h-30.183c-.075 0-.137-.062-.137-.137v-81.122h45v28.759c0 4.143 3.358 7.5 7.5 7.5h26.853c4.142 0 7.5-3.357 7.5-7.5s-3.358-7.5-7.5-7.5h-19.352v-21.259h99.108v21.259h-47.792c-4.142 0-7.5 3.357-7.5 7.5s3.358 7.5 7.5 7.5h90.224 36.642 147.04c4.142 0 7.5-3.357 7.5-7.5v-28.759h45v81.122zm22.492-96.917c0 .438-.356.795-.794.795h-34.791v-15.097c0-4.143-3.358-7.5-7.5-7.5s-7.5 3.357-7.5 7.5v15.097h-33.215v-15.097c0-4.143-3.358-7.5-7.5-7.5s-7.5 3.357-7.5 7.5v15.097h-33.215v-15.097c0-4.143-3.358-7.5-7.5-7.5s-7.5 3.357-7.5 7.5v15.097h-33.254v-80.603h78.409c.005 0 .011.001.016.001s.009-.001.014-.001h67.986c.009 0 .018.002.027.002.013 0 .026-.002.038-.002h32.985c.438 0 .794.356.794.794z"/></g></svg>