<svg id="Capa_1" enable-background="new 0 0 512 512" height="512" viewBox="0 0 512 512" width="512" xmlns="http://www.w3.org/2000/svg"><g><g><g fill="#ecb85e"><path d="m277.874 39.604c0-12.08-21.874-31.604-21.874-31.604s-21.874 19.524-21.874 31.604 9.794 21.874 21.874 21.874 21.874-9.794 21.874-21.874z"/><path d="m166.652 39.604c0-12.08-21.874-31.604-21.874-31.604s-21.874 19.524-21.874 31.604 9.793 21.874 21.874 21.874c12.08 0 21.874-9.794 21.874-21.874z"/><path d="m345.348 39.604c0-12.08 21.874-31.604 21.874-31.604s21.874 19.524 21.874 31.604-9.793 21.874-21.874 21.874c-12.08 0-21.874-9.794-21.874-21.874z"/></g><path d="m256 8s-4.248 3.793-9 9.068c6.031 6.695 12.874 15.779 12.874 22.536 0 8.871-5.284 16.503-12.874 19.935 2.746 1.242 5.791 1.939 9 1.939 12.08 0 21.874-9.793 21.874-21.874 0-12.08-21.874-31.604-21.874-31.604z" fill="#eaa949"/><path d="m144.778 8s-4.248 3.793-9 9.068c6.031 6.695 12.874 15.779 12.874 22.536 0 8.871-5.284 16.503-12.874 19.935 2.746 1.242 5.791 1.939 9 1.939 12.08 0 21.874-9.793 21.874-21.874 0-12.08-21.874-31.604-21.874-31.604z" fill="#eaa949"/><path d="m367.222 8s-4.248 3.793-9 9.068c6.031 6.695 12.874 15.779 12.874 22.536 0 8.871-5.284 16.503-12.874 19.935 2.746 1.242 5.791 1.939 9 1.939 12.081 0 21.874-9.793 21.874-21.874-.001-12.08-21.874-31.604-21.874-31.604z" fill="#eaa949"/><path d="m277.874 147.847h-43.747v-58.162c0-5.523 4.477-10 10-10h23.747c5.523 0 10 4.477 10 10z" fill="#f0c69e"/><path d="m166.652 147.847h-43.747v-58.162c0-5.523 4.477-10 10-10h23.747c5.523 0 10 4.477 10 10z" fill="#f0c69e"/><path d="m345.348 147.847h43.747v-58.162c0-5.523-4.477-10-10-10h-23.747c-5.523 0-10 4.477-10 10z" fill="#f0c69e"/><path d="m267.874 79.685h-18c5.523 0 10 4.477 10 10v58.162h18v-58.162c0-5.523-4.478-10-10-10z" fill="#e6ba94"/><path d="m156.652 79.685h-18c5.523 0 10 4.477 10 10v58.162h18v-58.162c0-5.523-4.478-10-10-10z" fill="#e6ba94"/><path d="m379.095 79.685h-18c5.523 0 10 4.477 10 10v58.162h18v-58.162c0-5.523-4.477-10-10-10z" fill="#e6ba94"/><path d="m485.885 345.163h-459.771c-10.004 0-18.114 8.11-18.114 18.115 0 10.004 8.11 18.115 18.114 18.115h205.201v86.379h-115.201c-10.004 0-18.114 8.11-18.114 18.115 0 10.003 8.11 18.113 18.114 18.113h279.771c10.005 0 18.115-8.11 18.115-18.115 0-10.004-8.11-18.115-18.115-18.115h-115.201v-86.379h205.201c10.004 0 18.115-8.11 18.115-18.115 0-10.003-8.11-18.113-18.115-18.113z" fill="#dc4955"/><g><g><g><path d="m267.684 467.771h13v-86.379h-13c-2.761 0-5 2.239-5 5v76.379c0 2.761 2.239 5 5 5z" fill="#d82f3c"/></g><g><path d="m395.885 467.771h-18c10.004 0 18.115 8.11 18.115 18.115 0 10.004-8.11 18.114-18.115 18.114h18c10.005 0 18.115-8.11 18.115-18.115 0-10.004-8.11-18.114-18.115-18.114z" fill="#d82f3c"/></g><g><path d="m485.885 345.163h-18c10.004 0 18.115 8.11 18.115 18.115s-8.11 18.115-18.115 18.115h18c10.004 0 18.115-8.11 18.115-18.115s-8.11-18.115-18.115-18.115z" fill="#d82f3c"/></g></g></g><path d="m435.944 270.059c-16.563 0-29.991-13.427-29.991-29.99v-4.131c0-16.563-13.427-29.99-29.991-29.99-16.563 0-29.991 13.427-29.991 29.99v4.131c0 16.563-13.427 29.99-29.99 29.99s-29.991-13.427-29.991-29.99v-4.131c0-16.843-13.885-30.444-30.834-29.979-16.336.448-29.148 14.262-29.148 30.603v3.507c0 16.563-13.427 29.99-29.991 29.99-16.563 0-29.991-13.427-29.991-29.99v-4.131c0-16.563-13.427-29.991-29.991-29.991-16.563 0-29.991 13.427-29.991 29.99v4.131c0 16.563-13.427 29.99-29.991 29.99-4.473 0-8.713-.986-12.526-2.742v77.846h384.94v-77.846c-3.81 1.757-8.05 2.743-12.523 2.743z" fill="#f6e080"/><g fill="#eccd61"><path d="m267.991 235.937v4.131c0 16.563 13.427 29.99 29.991 29.99 3.136 0 6.159-.483 9-1.376-12.166-3.823-20.991-15.187-20.991-28.614v-4.131c0-16.843-13.885-30.444-30.834-29.979-2.827.078-5.545.564-8.113 1.386 12.141 3.838 20.947 15.183 20.947 28.593z"/><path d="m387.953 235.937v4.131c0 16.563 13.427 29.99 29.991 29.99 3.13 0 6.142-.492 8.977-1.384-12.154-3.83-20.968-15.188-20.968-28.607v-4.131c0-16.563-13.427-29.99-29.991-29.99-3.136 0-6.159.483-9 1.376 12.166 3.824 20.991 15.188 20.991 28.615z"/><path d="m148.028 235.937v4.131c0 16.563 13.427 29.99 29.991 29.99 3.136 0 6.159-.483 9-1.376-12.166-3.823-20.991-15.187-20.991-28.614v-4.131c0-16.563-13.427-29.99-29.991-29.99-3.136 0-6.159.483-9 1.376 12.166 3.823 20.991 15.187 20.991 28.614z"/><path d="m67.079 268.675c-1.217-.383-2.404-.831-3.549-1.358v2.235c1.209-.224 2.395-.513 3.549-.877z"/><path d="m435.944 270.059c-1.871 0-3.698-.18-5.474-.508v75.612h18v-77.846c-3.813 1.756-8.053 2.742-12.526 2.742z"/></g><path d="m46.066 177.847v62.222c0 16.563 13.427 29.991 29.991 29.991 16.563 0 29.991-13.427 29.991-29.991v-4.131c0-16.563 13.427-29.99 29.991-29.99 16.563 0 29.991 13.427 29.991 29.991v4.131c0 16.563 13.427 29.991 29.99 29.991 16.563 0 29.991-13.427 29.991-29.991v-3.507c0-16.342 12.812-30.155 29.148-30.603 16.948-.465 30.834 13.135 30.834 29.979v4.131c0 16.563 13.427 29.991 29.991 29.991 16.563 0 29.99-13.427 29.99-29.991v-4.131c0-16.563 13.427-29.99 29.991-29.99 16.563 0 29.991 13.427 29.991 29.99v4.131c0 16.563 13.427 29.991 29.991 29.991 16.563 0 29.991-13.427 29.991-29.991v-62.222c0-16.569-13.431-30-30-30h-359.872c-16.569-.001-30 13.43-30 29.999z" fill="#cf8151"/><g fill="#bd6e45"><path d="m237.157 205.958c-16.335.448-29.148 14.262-29.148 30.603v3.507c0 13.427-8.825 24.792-20.991 28.615 2.841.893 5.864 1.376 9 1.376 16.563 0 29.991-13.427 29.991-29.991v-3.507c0-13.513 8.765-25.289 21.034-29.217-3.108-.982-6.431-1.48-9.886-1.386z"/><path d="m118.037 205.947c-16.563 0-29.991 13.427-29.991 29.99v4.131c0 13.427-8.825 24.792-20.991 28.615 2.841.893 5.864 1.376 9 1.376 16.563 0 29.991-13.427 29.991-29.991v-4.131c0-13.427 8.825-24.792 20.99-28.615-2.84-.892-5.863-1.375-8.999-1.375z"/><path d="m435.935 147.847h-18c16.569 0 30 13.431 30 30v62.222c0 13.427-8.825 24.792-20.991 28.615 2.841.893 5.864 1.376 9 1.376 16.563 0 29.991-13.427 29.991-29.991v-62.222c0-16.569-13.432-30-30-30z"/><path d="m357.963 205.947c-16.563 0-29.991 13.427-29.991 29.99v4.131c0 13.427-8.825 24.792-20.99 28.615 2.841.893 5.864 1.376 9 1.376 16.563 0 29.99-13.427 29.99-29.991v-4.131c0-13.427 8.825-24.792 20.991-28.615-2.842-.892-5.864-1.375-9-1.375z"/></g></g><path d="m486.336 337.823h-29.974v-66.053c10.506-6.667 17.499-18.395 17.499-31.733v-62.343c0-20.718-16.855-37.573-37.573-37.573h-39.416v-50.762c0-9.668-7.866-17.534-17.534-17.534h-4.383v-4.189c12.6-3.33 21.917-14.823 21.917-28.455 0-14.724-20.348-33.632-24.428-37.273-2.851-2.544-7.156-2.544-10.008 0-4.079 3.641-24.427 22.549-24.427 37.273 0 13.631 9.317 25.124 21.916 28.454v4.189h-4.382c-9.668 0-17.534 7.866-17.534 17.534v50.761h-52.577v-50.76c0-9.668-7.866-17.534-17.534-17.534h-4.383v-4.189c12.6-3.33 21.917-14.823 21.917-28.455 0-14.724-20.348-33.632-24.428-37.273-2.851-2.544-7.158-2.545-10.008 0-4.079 3.641-24.427 22.549-24.427 37.273 0 13.631 9.317 25.124 21.916 28.454v4.189h-4.382c-9.668 0-17.534 7.866-17.534 17.534v50.761h-52.578v-50.76c0-9.668-7.866-17.534-17.534-17.534h-4.382v-4.189c12.599-3.33 21.916-14.823 21.916-28.454 0-14.724-20.347-33.632-24.427-37.273-2.851-2.544-7.158-2.545-10.008 0-4.079 3.641-24.428 22.549-24.428 37.273 0 13.631 9.317 25.124 21.917 28.454v4.189h-4.383c-9.668 0-17.534 7.866-17.534 17.534v50.761h-39.415c-20.718 0-37.573 16.855-37.573 37.573v62.343c0 13.337 6.993 25.065 17.499 31.732v66.053h-29.975c-14.151.002-25.664 11.515-25.664 25.666 0 14.152 11.513 25.665 25.664 25.665h198.089v71.519h-107.913c-14.151 0-25.664 11.513-25.664 25.664 0 14.152 11.513 25.664 25.664 25.664h86.062c4.15 0 7.515-3.364 7.515-7.515s-3.365-7.515-7.515-7.515h-86.062c-5.864 0-10.635-4.771-10.635-10.635s4.771-10.635 10.635-10.635h115.427c4.15 0 7.515-3.364 7.515-7.515v-86.548c0-4.151-3.365-7.515-7.515-7.515h-205.603c-5.864 0-10.635-4.771-10.635-10.636 0-5.864 4.771-10.635 10.635-10.635h317.054c4.151 0 7.515-3.364 7.515-7.515s-3.364-7.515-7.515-7.515h-272.05v-60.568c1.649.222 3.328.347 5.036.347 20.713 0 37.564-16.851 37.564-37.565v-4.139c0-12.426 10.109-22.534 22.535-22.534 4.15 0 7.515-3.364 7.515-7.515s-3.364-7.515-7.515-7.515c-20.713 0-37.564 16.851-37.564 37.564v4.139c0 12.426-10.109 22.535-22.535 22.535s-22.535-10.11-22.535-22.535v-62.343c0-12.43 10.113-22.544 22.544-22.544h360.573c12.43 0 22.544 10.113 22.544 22.544v62.343c0 12.426-10.11 22.535-22.535 22.535s-22.534-10.11-22.534-22.535v-4.139c0-20.712-16.851-37.564-37.565-37.564-20.712 0-37.564 16.851-37.564 37.564v4.139c0 12.426-10.109 22.535-22.534 22.535-12.426 0-22.535-10.11-22.535-22.535v-4.139c0-10.229-4.038-19.791-11.371-26.925-7.33-7.132-17.027-10.911-27.243-10.624-20.134.551-36.514 17.676-36.514 38.174v3.514c0 12.426-10.109 22.535-22.535 22.535s-22.534-10.11-22.534-22.535v-4.139c0-6.606-1.741-13.106-5.036-18.797-2.079-3.591-6.678-4.817-10.268-2.739-3.592 2.079-4.818 6.677-2.739 10.269 1.972 3.406 3.014 7.302 3.014 11.267v4.139c0 20.713 16.851 37.565 37.564 37.565s37.564-16.851 37.564-37.565v-3.514c0-12.434 9.822-22.82 21.896-23.151 6.148-.16 11.955 2.095 16.351 6.373 4.399 4.28 6.822 10.017 6.822 16.153v4.139c0 20.713 16.851 37.565 37.565 37.565 20.712 0 37.564-16.851 37.564-37.565v-4.139c0-12.426 10.11-22.534 22.535-22.534 12.426 0 22.534 10.109 22.534 22.534v4.139c0 20.713 16.851 37.565 37.565 37.565 1.708 0 3.387-.125 5.035-.347v60.568h-68.555c-4.151 0-7.515 3.364-7.515 7.515s3.364 7.515 7.515 7.515h113.559c5.864 0 10.635 4.771 10.635 10.635 0 5.865-4.771 10.636-10.635 10.636h-205.603c-4.151 0-7.515 3.364-7.515 7.515v86.548c0 4.151 3.364 7.515 7.515 7.515h115.427c5.864 0 10.635 4.771 10.635 10.635s-4.771 10.635-10.635 10.635h-164.199c-4.15 0-7.515 3.364-7.515 7.515s3.364 7.515 7.515 7.515h164.199c14.152 0 25.664-11.513 25.664-25.664 0-14.152-11.513-25.664-25.664-25.664h-107.912v-71.519h198.088c14.152 0 25.664-11.514 25.664-25.665s-11.513-25.664-25.664-25.664zm-133.298-298.642c0-4.283 6.791-13.482 14.415-21.277 8.782 8.922 14.388 17.713 14.388 21.277 0 7.941-6.461 14.401-14.402 14.401s-14.401-6.459-14.401-14.401zm-111.44 0c0-4.283 6.791-13.482 14.415-21.277 8.782 8.922 14.388 17.713 14.388 21.277 0 7.941-6.461 14.401-14.402 14.401-7.94 0-14.401-6.459-14.401-14.401zm-111.44 0c0-4.284 6.793-13.485 14.42-21.281 8.779 8.908 14.383 17.703 14.383 21.281 0 7.941-6.46 14.401-14.401 14.401s-14.402-6.459-14.402-14.401zm222.88 50.178c0-1.382 1.123-2.505 2.505-2.505h23.794c1.382 0 2.505 1.123 2.505 2.505v50.761h-28.803v-50.761zm-111.44 0c0-1.382 1.124-2.505 2.505-2.505h23.794c1.382 0 2.505 1.123 2.505 2.505v50.761h-28.804zm-111.44 0c0-1.382 1.124-2.505 2.505-2.505h23.794c1.381 0 2.505 1.123 2.505 2.505v50.761h-28.803v-50.761z"/></g></svg>