<svg id="Capa_1" enable-background="new 0 0 511.931 511.931" height="512" viewBox="0 0 511.931 511.931" width="512" xmlns="http://www.w3.org/2000/svg"><g><g><path d="m474.095 464.699v-87.363-23.378h-391.537l-51.903 51.074v51.291l49.741 34.602h393.699z" fill="#fdd79b"/><path d="m147.995 480.812c-14.94-14.94-24.18-35.58-24.18-58.37 0-28.515 14.46-53.652 36.445-68.483h-77.702l-51.903 51.073v51.291l49.74 34.602h79.867c-4.41-2.976-8.518-6.364-12.267-10.113z" fill="#fccd7f"/><g><g id="XMLID_1066_"><g><path d="m503.615 473.872v23.12c0 4.11-3.33 7.44-7.44 7.44h-377.1-28.21c-22.8 0-43.43-9.24-58.37-24.18s-24.18-35.58-24.18-58.37c0-45.59 36.96-82.55 82.55-82.55h405.31c4.11 0 7.44 3.34 7.44 7.45v23.11c0 4.11-3.33 7.44-7.44 7.44h-404.52c-24.93 0-45.76 20.4-45.33 45.33.41 24.2 20.23 43.77 44.54 43.77h28.21 377.1c4.11 0 7.44 3.33 7.44 7.44z" fill="#fec165"/></g></g></g><path d="m91.655 377.332h45.565c14.326-21.907 38.792-36.593 66.725-37.398.202-.006.401-.051.585-.134l1.032-.467h-1.31-112.332c-45.389 0-83.079 36.197-83.599 81.583-.265 23.173 9.023 44.186 24.175 59.337 14.94 14.94 35.57 24.18 58.37 24.18h28.21 77.798c-19.003-2.177-36.043-10.785-48.879-23.62-4.338-4.337-8.202-9.168-11.492-14.38h-17.427-28.21c-24.31 0-44.13-19.57-44.54-43.77-.431-24.931 20.399-45.331 45.329-45.331z" fill="#fdb441"/><path d="m208.021 502.172-26.745-11.069-26.745 11.069c-2.599 1.076-5.457-.835-5.457-3.648v-76.641h64.405v76.641c-.001 2.813-2.859 4.723-5.458 3.648z" fill="#fee45a"/><path d="m270.965 101.552c12.492-7.951 32.448-14.61 58.598-3.74 46.645 19.39 78.34 90.914 44.253 166.981s-80.732 76.844-94.487 72.568c-7.202-2.239-13.268-4.617-17.412-6.375-3.69-1.665-7.904-1.704-11.627-.117-4.149 1.768-10.325 4.203-17.688 6.492-13.754 4.275-60.4 3.499-94.487-72.568s-2.392-147.592 44.253-166.981c26.15-10.87 46.106-4.21 58.598 3.74l12.674 12.024z" fill="#f47c7c"/><g><path d="m203.114 264.793c-32.351-72.194-5.447-140.289 37.253-163.613-12.526-7.782-32.259-14.068-57.999-3.368-46.645 19.39-78.34 90.914-44.253 166.981s80.733 76.844 94.487 72.568c7.364-2.289 13.539-4.724 17.688-6.492 1.609-.686 3.287-1.068 4.997-1.147-16.986-9.686-35.984-28.803-52.173-64.929z" fill="#ee6161"/><path d="m315.289 330.869c-4.149 1.768-10.325 4.203-17.688 6.492-2.238.696-5.352 1.255-9.136 1.38 8.427.279 20.2-1.61 33.161-9.001-2.149-.097-4.315.268-6.337 1.129z" fill="#e94444"/></g><path d="m308.949 63.951h-42.089v-23.731c0-16.487 13.365-29.851 29.851-29.851h36.601c3.031 0 5.488 2.457 5.488 5.488v18.243c0 16.486-13.365 29.851-29.851 29.851z" fill="#22b27f"/><g><path d="m270.965 145.961v-71.159c0-15.389-3.64-30.799-10.525-44.564l-9.198-18.383c-1.5-2.998-5.145-4.212-8.143-2.712l-15.975 7.993c-2.998 1.5-4.212 5.146-2.712 8.143l9.197 18.382c4.812 9.619 7.355 20.388 7.355 31.142v71.159h30.001z" fill="#fdd79b"/></g></g><g><path d="m496.173 384.836c8.239 0 14.942-6.703 14.942-14.942v-23.115c0-8.239-6.703-14.942-14.942-14.942h-163.83c18.943-13.167 35.163-34.624 48.317-63.976 6.367-14.208 10.761-28.823 13.06-43.44.644-4.092-2.151-7.931-6.243-8.574-4.09-.639-7.931 2.151-8.574 6.244-2.093 13.305-6.107 26.64-11.931 39.636-13.784 30.761-31.586 52.485-51.482 62.825-15.395 8.001-28.574 7.314-33.934 5.648-7.034-2.186-12.92-4.512-16.641-6.088-5.56-2.478-11.956-2.531-17.565-.142-3.768 1.606-9.771 3.99-16.973 6.229-5.36 1.668-18.539 2.352-33.934-5.648-19.896-10.34-37.698-32.064-51.483-62.825-16.277-36.322-18.107-74.304-5.153-106.945 9.409-23.71 25.972-41.95 45.441-50.043 17.383-7.227 33.581-6.838 48.219 1.112v31.042c-1.889-.63-3.779-1.315-5.669-2.1-3.825-1.592-8.214.224-9.803 4.049s.224 8.214 4.049 9.803c11.313 4.7 22.811 7.05 34.416 7.05 11.571 0 23.25-2.338 34.949-7.011 3.847-1.536 5.719-5.9 4.183-9.747s-5.899-5.719-9.747-4.183c-2.473.988-4.931 1.852-7.377 2.595v-31.499c14.637-7.949 30.835-8.339 48.219-1.112 14.085 5.854 26.593 16.873 36.169 31.862 10.086 15.786 16.126 34.869 17.467 55.187.262 3.965 3.56 7.006 7.477 7.006.166 0 .333-.005.501-.017 4.133-.272 7.262-3.845 6.99-7.978-3.042-46.089-27.711-85.307-62.847-99.912-22.202-9.229-40.469-6.991-53.976-1.583v-14.5c0-2.074-.062-4.149-.184-6.221h34.773c20.596 0 37.352-16.756 37.352-37.352v-18.242c-.003-7.161-5.829-12.987-12.991-12.987h-36.601c-15.993 0-29.665 10.105-34.98 24.264l-7.887-15.765c-1.622-3.241-4.409-5.658-7.848-6.803-3.438-1.146-7.117-.884-10.358.739l-15.976 7.992c-6.69 3.348-9.411 11.516-6.063 18.206l9.197 18.382c4.293 8.583 6.563 18.191 6.563 27.786v14.5c-13.506-5.408-31.772-7.645-53.977 1.584-23.186 9.639-42.732 30.91-53.626 58.361-14.46 36.438-12.54 78.563 5.407 118.613 13.153 29.352 29.374 50.808 48.317 63.976h-88.723c-49.652 0-90.047 40.396-90.047 90.048s40.395 90.047 90.047 90.047h28.21c4.142 0 7.5-3.357 7.5-7.5s-3.358-7.5-7.5-7.5h-28.21c-41.381 0-75.047-33.666-75.047-75.047 0-41.382 33.666-75.048 75.047-75.048h322.92l82.332-.058.058 23.058h-71.851c-4.142 0-7.5 3.357-7.5 7.5s3.358 7.5 7.5 7.5h42.272v74.095h-223.116c-4.142 0-7.5 3.357-7.5 7.5s3.358 7.5 7.5 7.5l252.637-.058.058 23.058h-252.695c-4.142 0-7.5 3.357-7.5 7.5s3.358 7.5 7.5 7.5h252.695c8.239 0 14.942-6.703 14.942-14.942v-23.115c0-8.239-6.703-14.942-14.942-14.942h-14.578v-74.095zm-217.708-347.485c0-12.324 10.027-22.351 22.352-22.351h34.589v16.229c0 12.324-10.027 22.352-22.352 22.352h-34.589zm-46.705-14.149 13.415-6.712 8.557 17.103c6.367 12.729 9.733 26.979 9.733 41.209v65.58c-5.03.499-10.024.452-15-.121v-65.459c0-11.912-2.817-23.841-8.148-34.498z"/><path d="m91.653 384.836h300.707c4.142 0 7.5-3.357 7.5-7.5s-3.358-7.5-7.5-7.5h-300.707c-14.129 0-27.946 5.812-37.906 15.944-9.861 10.03-15.161 23.173-14.924 37.007.483 28.2 23.829 51.144 52.04 51.144h28.21c4.142 0 7.5-3.357 7.5-7.5s-3.358-7.5-7.5-7.5h-28.21c-20.081 0-36.698-16.329-37.042-36.4-.167-9.779 3.605-19.096 10.623-26.234 7.159-7.284 17.076-11.461 27.209-11.461z"/><path d="m226.539 414.384h-94.07c-4.142 0-7.5 3.357-7.5 7.5s3.358 7.5 7.5 7.5h9.104v18.246c0 4.143 3.358 7.5 7.5 7.5s7.5-3.357 7.5-7.5v-18.246h49.405v63.826l-21.834-9.037c-1.837-.76-3.899-.76-5.736 0l-21.834 9.037v-13.617c0-4.143-3.358-7.5-7.5-7.5s-7.5 3.357-7.5 7.5v24.838c0 2.505 1.25 4.844 3.333 6.235 2.083 1.393 4.722 1.652 7.036.694l29.334-12.141 29.334 12.141c.923.382 1.897.57 2.868.57 1.463 0 2.917-.428 4.168-1.265 2.083-1.392 3.333-3.73 3.333-6.235v-75.047h5.561c4.142 0 7.5-3.357 7.5-7.5s-3.36-7.499-7.502-7.499z"/></g></g></svg>