<svg id="Capa_1" enable-background="new 0 0 512 512" height="512" viewBox="0 0 512 512" width="512" xmlns="http://www.w3.org/2000/svg"><g><g><path d="m380.847 189.92c21.809-159.866-64.073-181.92-124.847-181.92s-146.657 22.054-124.847 181.92z" fill="#b9c1cb"/><path d="m158.22 156.55c-12.852 0-23.9 7.697-28.805 18.729.476 4.747 1.054 9.626 1.738 14.641h30.326v-33.203c-1.071-.11-2.159-.167-3.259-.167z" fill="#a0aab7"/><path d="m380.847 189.92c.684-5.015 1.262-9.894 1.738-14.641-4.905-11.032-15.953-18.729-28.805-18.729-1.101 0-2.188.057-3.259.167v33.203z" fill="#a0aab7"/><path d="m407.012 504h-302.024v-80.421c0-64.319 52.141-116.459 116.459-116.459h69.106c64.319 0 116.459 52.141 116.459 116.459z" fill="#9ec8fc"/><path d="m104.988 486h302.025v18h-302.025z" fill="#80b6fc"/><path d="m255.993 307.12c52.203 0 94.521-42.318 94.521-94.52v-55.437c0-18.457-9.816-35.356-25.535-45.03-6.804-4.188-12.024-11.478-17.033-21.88-14.873-30.887-36.139-31.788-51.949-31.788-15.804 0-37.076.9-51.949 31.788-5.009 10.402-10.229 17.692-17.033 21.88-15.718 9.674-25.535 26.573-25.535 45.03v55.437c0 52.202 42.318 94.52 94.52 94.52z" fill="#f0c69e"/><g fill="#e6ba94"><path d="m255.997 289.12h.003-.006.003c-52.201-.002-94.518-42.319-94.518-94.52v18c0 52.201 42.317 94.519 94.518 94.52 52.201-.002 94.518-42.319 94.518-94.52v-18c-.001 52.2-42.317 94.518-94.518 94.52z"/><path d="m256 307.12h-.003-.003z"/></g><path d="m161.479 212.599v-37.882c-1.071-.11-2.159-.167-3.259-.167-17.406 0-31.517 14.111-31.517 31.517s14.11 31.517 31.517 31.517c2.202 0 4.351-.228 6.426-.658-2.062-7.763-3.167-15.915-3.167-24.327z" fill="#e2ae84"/><path d="m353.78 174.549c-1.101 0-2.188.057-3.259.167v37.882c0 8.411-1.105 16.564-3.167 24.327 2.075.43 4.224.658 6.426.658 17.406 0 31.517-14.111 31.517-31.517s-14.111-31.517-31.517-31.517z" fill="#e2ae84"/><path d="m158.22 219.583c-14.278 0-26.332-9.497-30.206-22.517-.849 2.853-1.311 5.872-1.311 9 0 17.406 14.11 31.517 31.517 31.517 2.202 0 4.351-.227 6.426-.658-1.502-5.656-2.49-11.522-2.919-17.542-1.152.129-2.321.2-3.507.2z" fill="#d7a379"/><path d="m353.78 219.583c-1.186 0-2.355-.071-3.507-.199-.429 6.02-1.416 11.885-2.918 17.542 2.075.43 4.224.658 6.426.658 17.406 0 31.517-14.111 31.517-31.517 0-3.128-.462-6.147-1.311-9-3.875 13.019-15.929 22.516-30.207 22.516z" fill="#d7a379"/><path d="m255.993 238.252c12.127 23.263 43.028 13.868 43.028 13.868s4.246-40.845-43.025-40.845-43.024 40.845-43.024 40.845 30.901 9.395 43.028-13.868z" fill="#b9c1cb"/><path d="m181.742 314.068 31.132 75.722 43.123-27.407-38.722-55.18c-12.439.437-24.383 2.821-35.533 6.865z" fill="#fcf5f5"/><path d="m294.719 307.202-38.722 55.18 43.123 27.407 31.133-75.724c-11.151-4.042-23.095-6.426-35.534-6.863z" fill="#fcf5f5"/><path d="m255.997 362.382-38.78-55.262h77.559z" fill="#e2ae84"/></g><g><path d="m407.308 460.877c-4.15 0-7.515 3.364-7.515 7.515v28.579h-44.745v-58.638c0-4.151-3.364-7.515-7.515-7.515-4.15 0-7.515 3.364-7.515 7.515v58.638h-168.037v-58.638c0-4.151-3.365-7.515-7.515-7.515s-7.515 3.364-7.515 7.515v58.638h-44.745v-73.064c0-16.549 3.606-32.441 10.718-47.236 1.798-3.741.223-8.23-3.517-10.028-3.742-1.798-8.231-.223-10.029 3.518-8.096 16.842-12.201 34.926-12.201 53.747v80.578c0 4.151 3.365 7.515 7.515 7.515h302.615c4.15 0 7.515-3.364 7.515-7.515v-36.094c0-4.151-3.364-7.515-7.514-7.515z"/><path d="m307.39 300.842c21.201-12.384 37.568-32.177 45.518-55.806.354.01.709.027 1.063.027 21.556 0 39.093-17.537 39.093-39.094 0-6.34-1.52-12.33-4.21-17.629 8.796-67.335-.666-117.448-28.163-148.951-22.812-26.137-58.035-39.389-104.691-39.389-40.842 0-71.797 9.608-94.635 29.373-3.138 2.715-3.48 7.462-.764 10.6 2.715 3.137 7.46 3.479 10.6.764 19.988-17.299 47.726-25.708 84.799-25.708 42.716 0 73.257 11.201 93.369 34.243 22.81 26.133 31.554 67.831 26.078 124.06-5.053-3.335-10.918-5.537-17.233-6.222v-10.141c0-21.021-10.901-40.28-29.16-51.518-5.101-3.139-9.492-8.932-14.235-18.783-17.385-36.105-44.341-36.105-58.822-36.105s-41.436 0-58.822 36.105c-4.743 9.851-9.133 15.644-14.235 18.783-18.26 11.239-29.161 30.497-29.161 51.518v10.142c-6.316.686-12.181 2.89-17.234 6.227-4.667-47.943 1.01-85.416 16.93-111.535 2.16-3.544 1.038-8.167-2.506-10.328-3.545-2.162-8.168-1.038-10.328 2.506-19.162 31.439-25.039 76.642-17.498 134.363-2.689 5.299-4.208 11.287-4.208 17.625 0 21.557 17.537 39.094 39.093 39.094.352 0 .704-.018 1.056-.027 7.95 23.628 24.316 43.421 45.517 55.805-30.015 4.08-57.668 19.021-77.643 42.374-2.698 3.154-2.328 7.897.826 10.595 3.153 2.698 7.897 2.329 10.595-.826 10.832-12.664 24.236-22.506 39.107-29.037l28.353 68.962c1.628 4.24 7.199 6.013 10.981 3.485l31.661-20.123v47.982c0 4.151 3.365 7.515 7.515 7.515s7.515-3.364 7.515-7.515v-47.983l31.662 20.123c3.782 2.528 9.353.754 10.981-3.485l28.35-68.954c38.407 16.928 65.289 55.357 65.289 99.953v14.426c0 4.151 3.364 7.515 7.515 7.515 4.15 0 7.515-3.364 7.515-7.515v-14.426c-.001-62.799-46.851-114.852-107.433-123.065zm50.824-88.328v-30.227c11.252 2.011 19.821 11.861 19.821 23.682 0 12.335-9.33 22.526-21.302 23.901.969-5.643 1.481-11.441 1.481-17.356zm-224.249-6.545c0-11.818 8.566-21.667 19.815-23.68v30.225c0 5.915.511 11.713 1.48 17.355-11.969-1.378-21.295-11.568-21.295-23.9zm34.844 6.545v-55.545c0-15.762 8.228-30.236 22.009-38.717 7.696-4.737 13.833-12.467 19.898-25.063 13.289-27.596 31.027-27.596 45.28-27.596s31.992 0 45.281 27.596c6.065 12.596 12.202 20.326 19.898 25.063 13.781 8.481 22.009 22.955 22.009 38.717v55.545c0 48.077-39.114 87.191-87.185 87.191-48.077-.001-87.19-39.114-87.19-87.191zm47.52 166.383-24.684-60.038c7.069-1.999 14.368-3.289 21.798-3.828l31.884 45.436zm39.668-29.39-24.401-34.772h48.803zm39.667 29.39-28.998-18.43 31.889-45.443c7.498.541 14.79 1.84 21.797 3.826z"/><path d="m217.624 195.621v-21.231c0-4.151-3.365-7.515-7.515-7.515s-7.515 3.364-7.515 7.515v21.231c0 4.151 3.364 7.515 7.515 7.515 4.15 0 7.515-3.364 7.515-7.515z"/><path d="m301.891 203.136c4.15 0 7.515-3.364 7.515-7.515v-21.231c0-4.151-3.365-7.515-7.515-7.515s-7.515 3.364-7.515 7.515v21.231c0 4.151 3.365 7.515 7.515 7.515z"/><path d="m301.292 259.302c2.892-.88 4.976-3.406 5.289-6.413.084-.809 1.91-19.977-11.037-34.34-8.899-9.871-22.204-14.877-39.547-14.877-17.342 0-30.648 5.005-39.546 14.877-12.947 14.363-11.121 33.53-11.037 34.34.313 3.007 2.396 5.533 5.289 6.413 10.756 3.271 31.813 4.72 45.294-8.526 8.332 8.186 19.555 10.759 29.453 10.759 6.119 0 11.732-.983 15.842-2.233zm-38.515-24.33c-.106-.222-.223-.438-.352-.651-1.362-2.247-3.798-3.618-6.426-3.618h-.006c-2.627 0-5.063 1.372-6.426 3.618-.129.212-.246.43-.352.651-6.606 12.336-20.879 12.22-28.728 11.078.472-4.787 2.086-11.908 7.213-17.535 5.933-6.511 15.453-9.812 28.294-9.812 12.842 0 22.361 3.301 28.295 9.813 5.13 5.629 6.743 12.755 7.215 17.533-7.858 1.143-22.124 1.252-28.727-11.077z"/><path d="m227.639 144.127h56.722c4.15 0 7.515-3.364 7.515-7.515s-3.364-7.515-7.515-7.515h-56.722c-4.15 0-7.515 3.364-7.515 7.515s3.365 7.515 7.515 7.515z"/><path d="m240.162 115.511h31.676c4.15 0 7.515-3.364 7.515-7.515s-3.364-7.515-7.515-7.515h-31.676c-4.15 0-7.515 3.364-7.515 7.515s3.365 7.515 7.515 7.515z"/></g></g></svg>