<svg id="Capa_1" enable-background="new 0 0 512.326 512.326" height="512" viewBox="0 0 512.326 512.326" width="512" xmlns="http://www.w3.org/2000/svg"><g><g><path d="m331.785 108.664h73.716v30.716h-73.716z" fill="#e5e1e5"/><g><path d="m235.511 422.277h-.258c-85.474 0-154.764-69.291-154.764-154.764 0-78.579 58.564-143.474 134.425-153.433h61.032v58.945h-40.436c-52.552 0-95.154 42.602-95.154 95.154s42.602 95.154 95.154 95.154h51.307v61.255l-51.565-2.311" fill="#d4f2f6"/></g><path d="m265.79 212.55 3.534 19.793 12.112 23.913c1.661 3.006 4.824 4.872 8.259 4.872h27.97c3.434 0 6.597-1.866 8.259-4.872l12.112-23.913 5.36-19.793z" fill="#d7d0d6"/><path d="m283.875 23.875h39.608v61.091h-39.608z" fill="#e5e1e5"/><path d="m345.725 39.875h-84.09c-4.451 0-8.06-3.609-8.06-8.06v-16.255c0-4.451 3.609-8.06 8.06-8.06h84.09c4.451 0 8.06 3.609 8.06 8.06v16.255c0 4.452-3.609 8.06-8.06 8.06z" fill="#a6e7f0"/><path d="m408.224 350.571c6.694 0 12.12-5.427 12.12-12.12v-33.249c0-6.694-5.426-12.12-12.12-12.12h-180.193c-6.694 0-12.12 5.427-12.12 12.12v33.249c0 6.694 5.426 12.12 12.12 12.12h18.195z" fill="#d7d0d6"/><path d="m279.498 318.337c-2.856 0-5.667.198-8.419.581-6.287.874-11.938-3.868-11.938-10.215v-3.5c0-6.694 5.427-12.12 12.12-12.12h-43.23c-6.694 0-12.12 5.426-12.12 12.12v33.249c0 6.694 5.426 12.12 12.12 12.12h18.195 6.646 18.39 62.002c-10.293-19.169-30.53-32.235-53.766-32.235z" fill="#c9bfc8"/><path d="m323.484 473.765h-87.973v-94.442c0-24.293 19.693-43.986 43.986-43.986 24.293 0 43.986 19.693 43.986 43.986v94.442z" fill="#a6e7f0"/><path d="m291.606 337.025c-3.844-1.097-7.913-1.688-12.109-1.688-24.293 0-43.986 19.693-43.986 43.986v94.442h24.185v-94.442c0-20.097 13.5-37.043 31.91-42.298z" fill="#6bd9e7"/><circle cx="279.498" cy="382.226" fill="#6bd9e7" r="15.565"/><path d="m342.938 67.968h-78.51c-6 0-10.85 4.86-10.85 10.85v18.67 91.57l24.026 25.263h62.772l13.412-25.263v-110.24c0-5.99-4.861-10.85-10.85-10.85z" fill="#a6e7f0"/><path d="m304.048 91.444c-3.083-2.667-4.899-6.508-4.899-10.585v-3.728-9.163h-34.722c-6 0-10.85 4.86-10.85 10.85v18.67 14.114h28.1v12.419h-28.1v65.036l24.026 25.263h19.38c20.487-13.999 33.963-37.536 33.963-64.167.001-23.431-10.434-44.463-26.898-58.709z" fill="#6bd9e7"/><g id="XMLID_1097_"><g><path d="m353.788 189.058v27.54c0 8.69-7.05 15.74-15.75 15.74h-68.71c-8.7 0-15.75-7.05-15.75-15.74v-13.78-13.76z" fill="#d4f2f6"/></g></g><path d="m396.735 156.716h10.25c5.652 0 10.233-4.582 10.233-10.233v-44.921c0-5.652-4.582-10.233-10.233-10.233h-10.25c-5.652 0-10.233 4.582-10.233 10.233v44.921c-.001 5.651 4.581 10.233 10.233 10.233z" fill="#a6e7f0"/><g id="XMLID_1094_"><g><path d="m413.048 475.838v28.99h-267.1v-28.99c0-12.75 10.32-23.07 23.06-23.07h220.98c12.74 0 23.06 10.32 23.06 23.07z" fill="#6bd9e7"/></g></g><path d="m229.587 452.768h-60.58c-12.74 0-23.06 10.32-23.06 23.07v28.99h60.58v-28.99c0-12.75 10.32-23.07 23.06-23.07z" fill="#2ed1e2"/><path d="m320.458 189.058h-66.881v13.76 13.78c0 4.312 1.739 8.218 4.551 11.062 26.619-1.651 49.636-16.765 62.33-38.602z" fill="#a6e7f0"/><circle cx="253.274" cy="150.155" fill="#e5e1e5" r="52.672"/><g fill="#d7d0d6"><path d="m226.825 150.155c0-24.563 16.814-45.198 39.561-51.026-4.192-1.074-8.585-1.646-13.112-1.646-29.09 0-52.672 23.582-52.672 52.672s23.582 52.672 52.672 52.672c4.527 0 8.92-.572 13.112-1.646-22.746-5.828-39.561-26.463-39.561-51.026z"/><path d="m253.274 172.827c-12.501 0-22.672-10.171-22.672-22.672 0-12.502 10.171-22.673 22.672-22.673 12.502 0 22.673 10.171 22.673 22.673 0 12.501-10.171 22.672-22.673 22.672z"/></g></g><path d="m431.837 497.326h-11.286v-21.493c0-16.854-13.713-30.567-30.567-30.567h-59v-65.942c0-7.576-1.658-14.768-4.61-21.252h81.85c10.818 0 19.62-8.802 19.62-19.621v-33.248c0-10.818-8.802-19.62-19.62-19.62h-180.193c-10.818 0-19.62 8.802-19.62 19.62v33.248c0 5.332 2.145 10.168 5.608 13.708-37.889-9.508-66.03-43.85-66.03-84.646 0-15.214 4.002-30.21 11.574-43.369 2.065-3.59.83-8.175-2.761-10.241-3.589-2.063-8.175-.831-10.241 2.761-8.879 15.431-13.572 33.014-13.572 50.85 0 54.271 42.497 98.795 95.96 102.063-.608 3.158-.938 6.414-.938 9.747v35.273c-77.851-3.789-140.022-68.311-140.022-147.084 0-67.751 46.52-126.281 110.722-142.684-3.59 7.704-5.609 16.282-5.609 25.327 0 7.898 1.545 15.438 4.323 22.354-10.337 4.122-19.897 9.901-28.504 17.254-3.149 2.689-3.521 7.424-.831 10.573 1.483 1.737 3.588 2.629 5.706 2.629 1.723 0 3.454-.591 4.867-1.798 7.851-6.706 16.629-11.864 26.138-15.413 9.619 13.062 24.38 22.102 41.273 24.127v6.712c0 11.149 7.89 20.486 18.378 22.732l10.292 20.32c.04.08.083.16.126.239 2.98 5.393 8.66 8.743 14.823 8.743h27.97c6.163 0 11.843-3.351 14.823-8.743.043-.079.086-.159.126-.239l10.292-20.32c10.488-2.245 18.378-11.583 18.378-22.732v-69.714h17.737c.214 9.594 8.069 17.336 17.713 17.336h10.249c9.778 0 17.733-7.955 17.733-17.733v-44.921c0-9.778-7.955-17.733-17.733-17.733h-10.249c-9.644 0-17.499 7.742-17.713 17.336h-17.737v-22.35c0-10.118-8.231-18.35-18.35-18.35h-11.951v-13.09h14.74c8.58 0 15.561-6.98 15.561-15.56v-16.255c0-8.579-6.98-15.56-15.561-15.56h-40.963c-4.143 0-7.5 3.357-7.5 7.5s3.357 7.5 7.5 7.5h40.963c.309 0 .561.251.561.56v16.256c0 .309-.252.56-.561.56h-22.24-39.608-22.241c-.309 0-.56-.251-.56-.56v-16.256c0-.309.251-.56.56-.56h11.164c4.143 0 7.5-3.357 7.5-7.5s-3.357-7.5-7.5-7.5h-11.164c-8.579 0-15.56 6.98-15.56 15.56v16.256c0 8.579 6.98 15.56 15.56 15.56h14.741v13.091h-11.952c-10.117 0-18.349 8.231-18.349 18.35v11.613c-13.403 1.606-25.461 7.63-34.677 16.577-37.72 5.565-72.355 24.346-97.763 53.09-26.211 29.652-40.646 67.8-40.646 107.417 0 87.045 68.898 158.291 155.022 162.094v15.659h-59c-16.854 0-30.567 13.713-30.567 30.567v21.493h-8.418c-4.143 0-7.5 3.357-7.5 7.5s3.357 7.5 7.5 7.5h15.918 267.107 18.786c4.143 0 7.5-3.357 7.5-7.5s-3.354-7.501-7.497-7.501zm-223.735-347.171c0-24.908 20.264-45.173 45.172-45.173.098 0 .195.007.294.007h.007.002c24.769.164 44.87 20.358 44.87 45.165s-20.101 45-44.87 45.164c-.001 0-.002 0-.002 0-.002 0-.005 0-.007 0-.098 0-.195.007-.294.007-24.908.002-45.172-20.262-45.172-45.17zm111.215 102.547c-.351.573-.976.926-1.652.926h-27.97c-.677 0-1.302-.353-1.652-.926l-6.513-12.858h44.3zm18.719-27.859h-68.712c-4.549 0-8.249-3.7-8.249-8.249v-6.789c11.477-1.493 21.954-6.215 30.465-13.246h54.745v20.035c0 4.549-3.701 8.249-8.249 8.249zm55.965-123.281c0-1.507 1.227-2.733 2.733-2.733h10.249c1.507 0 2.733 1.227 2.733 2.733v44.921c0 1.507-1.227 2.733-2.733 2.733h-10.249c-1.507 0-2.733-1.227-2.733-2.733v-7.103-30.716zm-15 14.602v15.716h-17.717v-15.716zm-87.626-68.789h24.608v13.091h-24.608zm-26.952 28.091h19.433c.006 0 .013.001.019.001h39.608c.007 0 .013-.001.019-.001h19.432c1.847 0 3.35 1.503 3.35 3.35v29.849 30.716 42.179h-41.706c5.62-9.148 8.869-19.902 8.869-31.403 0-30.535-22.867-55.812-52.372-59.65v-11.692c0-1.846 1.502-3.349 3.348-3.349zm-41.012 229.736c0-2.548 2.072-4.62 4.62-4.62h180.193c2.548 0 4.62 2.072 4.62 4.62v33.248c0 2.548-2.072 4.621-4.62 4.621h-92.206c-9.333-9.402-22.257-15.234-36.52-15.234s-27.187 5.833-36.52 15.234h-14.947c-2.548 0-4.62-2.073-4.62-4.621zm19.6 74.121c0-20.118 16.368-36.486 36.486-36.486s36.486 16.368 36.486 36.486v65.942h-72.973v-65.942zm-89.567 118.003v-21.493c0-8.584 6.983-15.567 15.567-15.567h66.5 87.973 66.5c8.584 0 15.567 6.983 15.567 15.567v21.493z"/><g><path d="m279.498 359.16c-12.719 0-23.065 10.347-23.065 23.065s10.347 23.065 23.065 23.065 23.065-10.347 23.065-23.065-10.347-23.065-23.065-23.065zm0 31.131c-4.447 0-8.065-3.618-8.065-8.065s3.618-8.065 8.065-8.065 8.065 3.618 8.065 8.065-3.618 8.065-8.065 8.065z"/><path d="m283.447 150.155c0-16.638-13.535-30.173-30.173-30.173-16.637 0-30.172 13.535-30.172 30.173 0 16.637 13.535 30.172 30.172 30.172 16.638 0 30.173-13.535 30.173-30.172zm-45.345 0c0-8.366 6.806-15.173 15.172-15.173s15.173 6.807 15.173 15.173-6.807 15.172-15.173 15.172-15.172-6.806-15.172-15.172z"/></g></g></svg>