<svg id="Capa_1" enable-background="new 0 0 512 512" height="512" viewBox="0 0 512 512" width="512" xmlns="http://www.w3.org/2000/svg"><g><g><path d="m98.975 432.14h-47.085c-5.523 0-10-4.477-10-10v-26.209h67.085v26.209c0 5.523-4.477 10-10 10z" fill="#808b95"/><path d="m460.11 432.14h-47.085c-5.523 0-10-4.477-10-10v-26.209h67.085v26.209c0 5.523-4.477 10-10 10z" fill="#808b95"/><path d="m66.433 278.438h379.135v59.061h-379.135z" fill="#c42d41"/><path d="m66.429 319.499h379.135v18h-379.135z" fill="#b72d47"/><path d="m489 151.842h-28.433c-8.284 0-15 6.716-15 15v170.656h-379.134v-170.656c0-8.284-6.716-15-15-15h-28.433c-8.284 0-15 6.716-15 15v214.089c0 8.284 6.716 15 15 15h466c8.284 0 15-6.716 15-15v-214.089c0-8.284-6.716-15-15-15z" fill="#b9c1cb"/><path d="m403.025 395.931h67.085v18h-67.085z" fill="#5e6b75"/><path d="m41.89 395.931h67.085v18h-67.085z" fill="#5e6b75"/><path d="m489 377.931h-466c-8.284 0-15-6.716-15-15v18c0 8.284 6.716 15 15 15h466c8.284 0 15-6.716 15-15v-18c0 8.285-6.716 15-15 15z" fill="#a0aab7"/><path d="m415.567 79.86h-319.134c-16.569 0-30 13.432-30 30v168.578h379.135v-168.578c-.001-16.569-13.432-30-30.001-30z" fill="#dc4955"/><path d="m66.433 260.438h379.135v18h-379.135z" fill="#d82f3c"/></g><path d="m489.456 144.124h-28.488c-2.634 0-5.163.458-7.515 1.292v-35.843c0-20.718-16.855-37.573-37.573-37.573h-48.232c-4.151 0-7.515 3.364-7.515 7.515s3.364 7.515 7.515 7.515h48.232c12.431 0 22.544 10.113 22.544 22.544v161.394h-253.945c-4.151 0-7.515 3.364-7.515 7.515s3.364 7.515 7.515 7.515h253.945v44.147h-364.848v-44.147h80.843c4.151 0 7.515-3.364 7.515-7.515s-3.364-7.515-7.515-7.515h-80.843v-161.395c0-12.431 10.113-22.544 22.544-22.544h241.469c4.151 0 7.515-3.364 7.515-7.515s-3.364-7.515-7.515-7.515h-241.469c-20.718 0-37.573 16.855-37.573 37.573v35.843c-2.352-.834-4.88-1.292-7.515-1.292h-28.488c-12.431.001-22.544 10.115-22.544 22.545v214.508c0 12.431 10.113 22.544 22.544 22.544h11.412v18.746c0 9.668 7.866 17.534 17.534 17.534h47.178c9.668 0 17.534-7.866 17.534-17.534v-18.746h185.316c4.151 0 7.515-3.364 7.515-7.515s-3.364-7.515-7.515-7.515h-278.974c-4.144 0-7.515-3.371-7.515-7.515v-214.507c0-4.144 3.371-7.515 7.515-7.515h28.488c4.144 0 7.515 3.371 7.515 7.515v170.99c0 4.151 3.364 7.515 7.515 7.515h379.877c4.151 0 7.515-3.364 7.515-7.515v-170.99c0-4.144 3.371-7.515 7.515-7.515h28.488c4.144 0 7.515 3.371 7.515 7.515v214.508c0 4.144-3.371 7.515-7.515 7.515h-157.88c-4.151 0-7.515 3.364-7.515 7.515s3.364 7.515 7.515 7.515h64.22v18.746c0 9.668 7.866 17.534 17.534 17.534h47.178c9.668 0 17.534-7.866 17.534-17.534v-18.747h11.412c12.431 0 22.544-10.114 22.544-22.544v-214.508c.001-12.43-10.112-22.544-22.543-22.544zm-388.283 278.342c0 1.382-1.123 2.505-2.505 2.505h-47.178c-1.382 0-2.505-1.123-2.505-2.505v-18.746h52.188zm361.842 0c0 1.382-1.123 2.505-2.505 2.505h-47.178c-1.382 0-2.505-1.123-2.505-2.505v-18.746h52.188z"/></g></svg>