<svg id="Capa_1" enable-background="new 0 0 510.768 510.768" height="512" viewBox="0 0 510.768 510.768" width="512" xmlns="http://www.w3.org/2000/svg"><g><g><path d="m288.483 504.575v-98.254h-34.612v98.254c0 1.487 1.205 2.692 2.692 2.692h29.227c1.488 0 2.693-1.205 2.693-2.692z" fill="#e5e1e5"/><path d="m160.337 502.197 55.653-87.864 25.287-35.101-25.287-22.507-29.24 39.088-65.824 103.921c-.971 1.533.13 3.534 1.945 3.534h35.521c.789-.001 1.523-.404 1.945-1.071z" fill="#e5e1e5"/><path d="m243.439 390.495-14.051 18.648c-3.941 5.23-11.237 6.56-16.769 3.055l-22.496-14.249c-5.533-3.504-7.449-10.668-4.404-16.467l33.92-64.6 16.978-32.324 51.866 36.978z" fill="#c9bfc8"/><path d="m66.574 43.862-1.875-.99c-17.148-9.062-38.394-2.506-47.456 14.641-9.062 17.148-2.506 38.394 14.641 47.456l1.875.991 25.661 4.875 33.858-52.008z" fill="#c9bfc8"/><path d="m406.025 234.723-30.67-13.615-21.28 36.802 28.623 20.956 58.525 30.926 23.327-44.143z" fill="#f9f7f8"/><path d="m355.604 395.813 66.33 104.721c.751 1.186-.101 2.734-1.505 2.734h-36.754c-.61 0-1.178-.312-1.505-.828l-55.807-88.106-20.548-31.196 30.642-17.464z" fill="#e5e1e5"/><path d="m322.716 316.882 33.92 64.6c3.044 5.798 1.128 12.962-4.404 16.467l-22.496 14.249c-5.533 3.504-12.828 2.175-16.77-3.055l-14.051-18.648-38.552-59.953 44.232-60.706z" fill="#c9bfc8"/><path d="m303.075 339.333-6.051 74.433c-.531 6.527-5.983 11.554-12.532 11.554h-26.629c-6.549 0-12.001-5.027-12.532-11.554l-6.051-74.433-4.87-46.028h76.052z" fill="#d7d0d6"/><g><path d="m328.57 267.158v24.461c0 31.697-25.696 57.393-57.393 57.393s-57.393-25.696-57.393-57.393v-59.953-44.466h114.712z" fill="#efedef"/></g><path d="m414.169 274.443c-4.277-2.26-5.912-7.559-3.652-11.836l8.773-16.601c.594-1.125 1.115-2.274 1.576-3.44l-14.841-7.843-30.67-13.615-21.28 36.802 28.624 20.956 10.772 5.692 47.752 25.234 8.697-16.457z" fill="#efedef"/><path d="m328.57 267.158-.073-79.958h-45.177v50.491l-37.676-15.164v-.01h-31.859v9.15 59.953c0 25.138 16.174 46.506 38.674 54.271-4.341-8.078-6.815-17.332-6.815-27.145v-48.756c0-1.624 1.685-2.7 3.158-2.016.314.146 12.279 4.042 18.286 4.042h.001c8.728 0 17.033-2.591 24.02-7.218.686-.454 1.557-.515 2.284-.13l35.176 18.587v-16.097z" fill="#e5e1e5"/><path d="m397.193 215.16-75.401-39.844-41.203-14.839-34.944 58.725 40.514 23.545 75.401 39.844c8.276 4.373 18.531 1.21 22.904-7.067l19.795-37.46c4.374-8.276 1.21-18.531-7.066-22.904z" fill="#f9f7f8"/><path d="m243.237 104.485 6.004-11.362c6.076-11.498 1.68-25.745-9.818-31.821l-39.847-21.057c-11.498-6.076-25.745-1.681-31.821 9.818l-3.783 7.158-26.206 50.967 78.612 48.505z" fill="#efedef"/><path d="m378.697 265.453-49.436-26.123c-5.623-2.971-7.773-9.939-4.801-15.562l17.708-33.511c.581-1.099 1.101-2.213 1.59-3.334l-21.967-11.608-41.203-14.839-34.944 58.725 40.514 23.545 6.784 3.585 68.618 36.26c8.276 4.373 18.531 1.209 22.904-7.067l4.368-8.266c-3.369.448-6.902-.096-10.135-1.805z" fill="#efedef"/><path d="m311.328 147.41-184.02-109.73-38.186-15.559-54.545 116.06 28.301 21.439 194.34 90.21c11.34 5.26 24.82.72 30.66-10.34l32.19-60.92c5.85-11.06 2-24.75-8.74-31.16z" fill="#f9f7f8"/><g id="XMLID_1100_"><g><path d="m290.109 223.596-143.318-66.526c-23.707-11.005-33.353-39.629-21.14-62.737l19.935-37.72c1.102-2.087 2.016-4.224 2.756-6.39l-21.034-12.543-38.186-15.559-54.545 116.06 18.292 13.857 10.009 7.582 194.34 90.21c11.34 5.26 24.82.72 30.66-10.34l7.489-14.172c-1.779-.359-3.543-.927-5.258-1.722z" fill="#efedef"/><path d="m115.398 18.74c9.46 5 13.08 16.73 8.08 26.2l-56.77 107.42c-5 9.47-16.73 13.09-26.2 8.09l-19.1-10.1c-4.8-2.53-6.63-8.47-4.1-13.27l65.71-124.34c2.54-4.8 8.47-6.63 13.27-4.09z" fill="#e5e1e5"/><path d="m116.037 19.12-45.943 86.934c-5 9.47-16.73 13.09-26.2 8.09l-11.306-5.978-15.28 28.914c-2.53 4.8-.7 10.74 4.1 13.27l19.1 10.1c9.47 5 21.2 1.38 26.2-8.09l56.77-107.42c4.883-9.248 1.529-20.634-7.441-25.82z" fill="#d7d0d6"/></g></g><g fill="#c9bfc8"><path d="m444.344 326.337 11.242 5.941c5.122 2.707 11.468.749 14.175-4.373l26.6-50.337c2.707-5.122.749-11.468-4.373-14.175l-11.242-5.941c-5.122-2.707-11.468-.749-14.175 4.373l-26.6 50.337c-2.707 5.122-.749 11.468 4.373 14.175z"/><circle cx="271.177" cy="294.864" r="14.938"/></g></g><g><path d="m504.276 267.362c-1.417-4.592-4.536-8.356-8.785-10.602l-11.24-5.94c-4.25-2.245-9.119-2.701-13.709-1.285-3.563 1.099-6.618 3.233-8.862 6.115l-47.951-25.339c.014-2.467-.345-4.949-1.094-7.374-1.925-6.241-6.165-11.357-11.939-14.408l-29.707-15.698c-3.662-1.936-8.199-.535-10.135 3.127s-.535 8.2 3.127 10.135l29.707 15.698c2.231 1.18 3.87 3.157 4.614 5.568.744 2.412.505 4.969-.674 7.2l-9.898 18.73-9.899 18.733c-2.434 4.604-8.16 6.369-12.768 3.937l-68.77-36.34 28.625-54.169 10.775 5.695c1.118.591 2.316.871 3.498.871 2.691 0 5.293-1.453 6.638-3.997 1.936-3.662.536-8.2-3.126-10.136l-12.62-6.67c1.389-11.803-4.115-23.805-14.909-30.241l-62.912-37.513 3.611-6.833c7.998-15.137 2.19-33.958-12.945-41.956l-39.847-21.056c-7.331-3.875-15.733-4.663-23.659-2.218-7.924 2.445-14.422 7.83-18.296 15.161l-1.028 1.946-27.112-16.167c-.199-1.471-.513-2.937-.959-4.384-2.117-6.862-6.78-12.488-13.129-15.843l-19.107-10.094c-4.089-2.161-8.773-2.6-13.196-1.237-4.42 1.363-8.044 4.367-10.205 8.457l-13.108 24.803c-19.779-7.448-42.543.807-52.67 19.971-10.126 19.164-4.121 42.623 13.176 54.766l-13.108 24.805c-2.16 4.09-2.599 8.775-1.235 13.195s4.368 8.044 8.457 10.204l19.106 10.097c3.927 2.075 8.208 3.128 12.527 3.128 2.663 0 5.341-.4 7.958-1.208 1.447-.446 2.835-1.012 4.162-1.677l88.866 41.25c1.022.475 2.096.699 3.153.699 2.829 0 5.538-1.609 6.808-4.344 1.744-3.758.112-8.217-3.645-9.961l-83.65-38.829c.049-.09.102-.177.149-.267l56.769-107.429c.048-.091.09-.183.136-.274l177.249 105.69c7.315 4.362 9.929 13.679 5.949 21.21l-32.194 60.924c-3.979 7.531-13.152 10.621-20.874 7.034l-74.542-34.602c-3.759-1.745-8.217-.112-9.961 3.645-1.744 3.758-.112 8.217 3.645 9.961l26.771 12.426v57.167c0 8.858 1.789 17.306 5.017 25.006l-14.046 26.749c-1.925 3.668-.514 8.202 3.153 10.128 1.113.584 2.306.861 3.48.861 2.698 0 5.306-1.461 6.647-4.015l9.74-18.549c3.431 4.338 7.395 8.234 11.806 11.574l3.648 44.885-12.334 16.369c-1.578 2.095-4.552 2.638-6.766 1.233l-22.497-14.25c-2.215-1.403-2.996-4.322-1.777-6.644l3.308-6.298c1.926-3.667.515-8.201-3.152-10.127-3.67-1.929-8.202-.514-10.127 3.152l-3.309 6.299c-2.85 5.43-2.918 11.675-.705 17.028l-66.02 104.231c-2.217 3.5-1.177 8.133 2.322 10.35 1.246.789 2.634 1.165 4.007 1.165 2.484 0 4.915-1.233 6.343-3.487l64.049-101.119 16.567 10.494-52.318 82.598c-2.217 3.5-1.177 8.133 2.322 10.35 1.245.789 2.634 1.165 4.007 1.165 2.484 0 4.915-1.233 6.343-3.487l54.279-85.693c5.79-.283 11.412-3.031 15.105-7.932l2.183-2.897.294 3.615c.497 6.112 3.782 11.425 8.517 14.762v74.13c0 4.143 3.357 7.5 7.5 7.5s7.5-3.357 7.5-7.5v-70.446h19.611v70.446c0 4.143 3.357 7.5 7.5 7.5s7.5-3.357 7.5-7.5v-74.13c4.735-3.338 8.019-8.651 8.517-14.763l.294-3.615 2.183 2.897c3.694 4.901 9.314 7.649 15.105 7.932l54.277 85.693c1.428 2.254 3.858 3.487 6.343 3.487 1.372 0 2.762-.377 4.007-1.165 3.499-2.217 4.539-6.85 2.322-10.35l-52.317-82.597 16.567-10.495 64.049 101.119c1.428 2.254 3.858 3.487 6.343 3.487 1.372 0 2.762-.377 4.007-1.165 3.499-2.217 4.539-6.85 2.322-10.35l-66.02-104.231c2.214-5.353 2.145-11.598-.705-17.028l-32.224-61.369c3.228-7.7 5.017-16.147 5.017-25.006v-14.016l21.985 11.618c3.572 1.888 7.465 2.845 11.393 2.845 2.422 0 4.858-.364 7.238-1.099 2.424-.748 4.672-1.854 6.702-3.255l48.296 25.521c-1.673 7.692 1.863 15.88 9.155 19.734h.001l11.24 5.94c2.674 1.413 5.544 2.082 8.376 2.082 6.459 0 12.714-3.484 15.936-9.582l26.6-50.337c2.247-4.244 2.704-9.113 1.286-13.705zm-473.398-172.003c-10.021-8.135-13.258-22.506-7.004-34.343 4.947-9.361 14.547-14.71 24.465-14.71 2.623 0 5.267.374 7.854 1.147l-25.146 47.585zm85.967-53.927-56.769 107.428c-1.483 2.806-3.971 4.867-7.004 5.803-3.032.937-6.248.635-9.056-.849l-19.107-10.098c-.7-.37-1.002-.946-1.131-1.364s-.205-1.064.165-1.766l16.446-31.121c0-.001.001-.002.002-.003l32.814-62.097c.002-.004.003-.008.005-.011l16.441-31.113c.371-.701.947-1.002 1.365-1.131.189-.059.426-.106.693-.106.322 0 .688.069 1.072.271l19.107 10.097c5.794 3.062 8.017 10.266 4.957 16.06zm57.543 12.135c2.003-3.79 5.361-6.572 9.457-7.836 4.096-1.266 8.437-.856 12.229 1.146l39.847 21.056c7.823 4.135 10.825 13.863 6.691 21.686l-3.25 6.149-66.363-39.571zm83.475 364.254c-2.623 0-4.844-2.048-5.057-4.662l-4.959-61.001c7.246 2.802 15.108 4.355 23.33 4.355s16.084-1.553 23.33-4.355l-4.959 61c-.213 2.615-2.434 4.663-5.057 4.663zm92.133-32.853c1.22 2.322.438 5.241-1.777 6.645l-22.495 14.25c-2.218 1.404-5.189.861-6.767-1.233l-12.334-16.37 3.648-44.884c4.412-3.341 8.375-7.237 11.807-11.574zm-28.926-93.348c0 27.511-22.382 49.893-49.893 49.893s-49.893-22.382-49.893-49.893v-50.204l32.772 15.212c4.221 1.959 8.662 2.89 13.039 2.89 7.445 0 14.69-2.706 20.338-7.615l33.635 17.774v21.943zm88.082-46.763 45.262 23.918-16.319 30.881-45.262-23.918zm80.578 29.205-26.6 50.337c-.504.953-1.32 1.324-1.763 1.461-.44.136-1.323.29-2.278-.214l-11.241-5.94h.001c-1.458-.771-2.018-2.583-1.248-4.04l1.249-2.363c.001-.003.003-.005.004-.008l23.326-44.143c.001-.002.001-.003.002-.005l2.018-3.819c.771-1.458 2.582-2.017 4.041-1.247l11.24 5.94c.954.504 1.325 1.32 1.461 1.763.138.442.291 1.326-.212 2.278z"/><path d="m271.178 272.426c-12.373 0-22.438 10.065-22.438 22.438s10.065 22.438 22.438 22.438 22.438-10.065 22.438-22.438-10.065-22.438-22.438-22.438zm0 29.877c-4.102 0-7.438-3.337-7.438-7.438s3.337-7.438 7.438-7.438 7.438 3.337 7.438 7.438-3.337 7.438-7.438 7.438z"/></g></g></svg>