<svg id="Capa_1" enable-background="new 0 0 512 512" height="512" viewBox="0 0 512 512" width="512" xmlns="http://www.w3.org/2000/svg"><g><g><path d="m447.124 8h-36.801c11.046 0 20 8.954 20 20v456c0 11.046-8.954 20-20 20h36.801c11.046 0 20-8.954 20-20v-456c0-11.046-8.954-20-20-20z" fill="#cf8151"/><g><path d="m447.124 486h-16.902c-1.004 10.106-9.528 18-19.899 18h36.801c11.046 0 20-8.954 20-20v-18c0 11.046-8.954 20-20 20z" fill="#bd6e45"/></g><path d="m410.323 504h-335v-496h335c11.046 0 20 8.954 20 20v456c0 11.046-8.954 20-20 20z" fill="#f6e080"/><path d="m410.323 486h-335v18h335c11.046 0 20-8.954 20-20v-18c0 11.046-8.954 20-20 20z" fill="#eccd61"/><path d="m366.313 220.741h-202.495c-5.523 0-10-4.477-10-10v-123.583c0-5.523 4.477-10 10-10h202.496c5.523 0 10 4.477 10 10v123.583c-.001 5.523-4.478 10-10.001 10z" fill="#9ec8fc"/><path d="m366.313 202.741h-202.495c-5.523 0-10-4.477-10-10v18c0 5.523 4.477 10 10 10h202.496c5.523 0 10-4.477 10-10v-18c-.001 5.522-4.478 10-10.001 10z" fill="#80b6fc"/><path d="m211.787 220.741h106.557c0-33.455-20.277-52.122-35.035-60.006 6.408-5.271 10.495-13.26 10.495-22.205 0-15.872-12.867-28.738-28.738-28.738-15.872 0-28.738 12.867-28.738 28.738 0 8.945 4.087 16.934 10.495 22.205-14.759 7.884-35.036 26.551-35.036 60.006z" fill="#909ba5"/><g><path d="m213.941 202.741c-1.365 5.454-2.154 11.438-2.154 18h106.557c0-6.562-.789-12.546-2.154-18z" fill="#808b95"/></g><path d="m366.313 434.842h-202.495c-5.523 0-10-4.477-10-10v-123.583c0-5.523 4.477-10 10-10h202.496c5.523 0 10 4.477 10 10v123.583c-.001 5.523-4.478 10-10.001 10z" fill="#9ec8fc"/><path d="m366.313 416.842h-202.495c-5.523 0-10-4.477-10-10v18c0 5.523 4.477 10 10 10h202.496c5.523 0 10-4.477 10-10v-18c-.001 5.523-4.478 10-10.001 10z" fill="#80b6fc"/><path d="m371.595 433.323c-.585-32.53-20.468-50.774-35.008-58.542 6.408-5.27 10.495-13.26 10.495-22.205 0-15.872-12.866-28.738-28.738-28.738s-28.738 12.867-28.738 28.738c0 8.945 4.087 16.934 10.495 22.205-14.758 7.884-35.035 26.551-35.035 60.006h102.297c1.543-.162 2.978-.682 4.232-1.464z" fill="#909ba5"/><path d="m366.313 416.842h-99.108c-1.357 5.439-2.14 11.405-2.14 17.944h102.297c1.544-.161 2.979-.682 4.233-1.464-.111-6.155-.914-11.797-2.24-16.955-.96.307-1.981.475-3.042.475z" fill="#808b95"/><path d="m158.536 433.323c1.254.783 2.688 1.303 4.233 1.464h102.297c0-33.455-20.277-52.122-35.035-60.006 6.408-5.27 10.495-13.26 10.495-22.205 0-15.872-12.866-28.738-28.738-28.738s-28.738 12.867-28.738 28.738c0 8.945 4.087 16.934 10.495 22.205-14.541 7.767-34.424 26.012-35.009 58.542z" fill="#909ba5"/><path d="m163.818 416.842c-1.061 0-2.082-.168-3.041-.475-1.325 5.158-2.129 10.8-2.24 16.955 1.254.783 2.688 1.303 4.233 1.464h102.297c0-6.539-.783-12.505-2.14-17.944z" fill="#808b95"/></g><g><path d="m366.529 283.814h-202.892c-9.668 0-17.534 7.866-17.534 17.534v123.825c0 9.668 7.866 17.534 17.534 17.534h202.892c9.668 0 17.534-7.866 17.534-17.534v-123.825c.001-9.668-7.865-17.534-17.534-17.534zm-200.294 143.864c2.952-28.166 22.168-41.464 30.728-46.036 2.212-1.182 3.69-3.39 3.937-5.887s-.767-4.952-2.706-6.546c-4.94-4.064-7.774-10.057-7.774-16.444 0-11.734 9.546-21.28 21.28-21.28s21.28 9.546 21.28 21.28c0 6.387-2.834 12.381-7.774 16.444-1.938 1.594-2.952 4.049-2.705 6.546.247 2.496 1.725 4.704 3.937 5.887 8.629 4.609 27.79 17.919 30.734 46.036zm106.759 0c2.944-28.117 22.105-41.427 30.734-46.036 2.212-1.182 3.69-3.39 3.937-5.887.246-2.497-.767-4.952-2.706-6.546-4.94-4.064-7.774-10.057-7.774-16.444 0-11.734 9.546-21.28 21.28-21.28s21.28 9.546 21.28 21.28c0 6.387-2.834 12.381-7.774 16.444-1.938 1.594-2.952 4.049-2.705 6.546.248 2.496 1.725 4.704 3.937 5.887 8.56 4.572 27.776 17.871 30.728 46.036zm96.04-31.687c-6.307-10.616-14.355-17.934-20.716-22.544 4.17-6.006 6.457-13.185 6.457-20.682 0-20.021-16.289-36.309-36.309-36.309-20.021 0-36.309 16.289-36.309 36.309 0 7.497 2.286 14.674 6.455 20.68-7.361 5.329-16.964 14.262-23.528 27.722-6.565-13.459-16.168-22.392-23.528-27.722 4.169-6.006 6.455-13.183 6.455-20.68 0-20.021-16.289-36.309-36.309-36.309-20.021 0-36.309 16.289-36.309 36.309 0 7.497 2.287 14.676 6.457 20.682-6.361 4.609-14.409 11.928-20.716 22.544v-94.643c0-1.382 1.123-2.505 2.505-2.505h202.892c1.382 0 2.505 1.123 2.505 2.505v94.643z"/><path d="m384.064 86.828c0-9.668-7.866-17.534-17.534-17.534h-202.893c-9.668 0-17.534 7.866-17.534 17.534v46.883c0 4.151 3.364 7.515 7.515 7.515s7.515-3.364 7.515-7.515v-46.883c0-1.382 1.123-2.505 2.505-2.505h202.892c1.382 0 2.505 1.123 2.505 2.505v123.825c0 1.382-1.123 2.505-2.505 2.505h-40.883c-2.522-29.003-19.303-45.919-30.709-54.177 4.169-6.006 6.455-13.183 6.455-20.68 0-20.021-16.289-36.309-36.309-36.309-20.021 0-36.309 16.289-36.309 36.309 0 7.497 2.286 14.674 6.455 20.68-11.407 8.257-28.187 25.173-30.709 54.177h-40.883c-1.382 0-2.505-1.123-2.505-2.505v-46.883c0-4.151-3.364-7.515-7.515-7.515s-7.515 3.364-7.515 7.515v46.883c0 9.668 7.866 17.534 17.534 17.534h202.892c9.668 0 17.534-7.866 17.534-17.534v-123.825zm-164.447 126.33c2.963-28.08 22.105-41.374 30.728-45.98 2.212-1.182 3.69-3.39 3.937-5.886.247-2.497-.767-4.952-2.706-6.546-4.94-4.064-7.774-10.057-7.774-16.444 0-11.734 9.546-21.28 21.28-21.28s21.28 9.546 21.28 21.28c0 6.387-2.834 12.381-7.774 16.444-1.938 1.594-2.952 4.049-2.705 6.546.247 2.496 1.725 4.704 3.937 5.886 8.623 4.606 27.765 17.901 30.728 45.98z"/><path d="m467.537 385.596c4.151 0 7.515-3.364 7.515-7.515v-350.527c0-15.193-12.361-27.554-27.554-27.554h-372.528c-4.151 0-7.515 3.364-7.515 7.515v35.079c-17.378 3.498-30.507 18.88-30.507 37.272 0 18.393 13.129 33.774 30.507 37.273v13.522c-17.378 3.498-30.507 18.88-30.507 37.273s13.129 33.773 30.507 37.271v13.522c-17.378 3.498-30.507 18.88-30.507 37.273s13.129 33.774 30.507 37.272v13.523c-17.378 3.498-30.507 18.88-30.507 37.272s13.129 33.774 30.507 37.272v13.522c-17.378 3.498-30.507 18.88-30.507 37.273s13.129 33.774 30.507 37.272v35.078c0 4.151 3.364 7.515 7.515 7.515h372.528c15.193 0 27.554-12.361 27.554-27.554v-76.305c0-4.151-3.364-7.515-7.515-7.515s-7.515 3.364-7.515 7.515v76.306c0 6.906-5.618 12.524-12.525 12.524h-12.342c1.928-3.761 3.023-8.016 3.023-12.524v-386.597c0-4.151-3.364-7.515-7.515-7.515s-7.515 3.364-7.515 7.515v386.597c0 6.906-5.618 12.524-12.524 12.524h-328.14v-86.56c8.998 3.121 15.478 11.678 15.478 21.725 0 4.151 3.364 7.515 7.515 7.515s7.515-3.364 7.515-7.515c0-18.393-13.129-33.774-30.507-37.273v-72.52c8.998 3.121 15.478 11.678 15.478 21.725 0 4.151 3.364 7.515 7.515 7.515s7.515-3.364 7.515-7.515c0-18.393-13.129-33.774-30.507-37.272v-72.52c8.998 3.121 15.478 11.678 15.478 21.725 0 4.151 3.364 7.515 7.515 7.515s7.515-3.364 7.515-7.515c0-18.393-13.129-33.774-30.507-37.273v-72.519c8.998 3.121 15.478 11.678 15.478 21.725 0 4.151 3.364 7.515 7.515 7.515s7.515-3.364 7.515-7.515c0-18.393-13.129-33.774-30.507-37.273v-72.52c8.998 3.121 15.478 11.678 15.478 21.724 0 4.151 3.364 7.515 7.515 7.515s7.515-3.364 7.515-7.515c0-18.393-13.129-33.774-30.507-37.272v-27.563h328.141c6.906 0 12.524 5.618 12.524 12.524v40.237c0 4.151 3.364 7.515 7.515 7.515s7.515-3.364 7.515-7.515v-40.236c0-4.509-1.095-8.764-3.023-12.524h12.342c6.906 0 12.525 5.618 12.525 12.524v350.527c-.006 4.151 3.359 7.515 7.509 7.515zm-415.559-305.73c0-10.047 6.48-18.603 15.478-21.724v43.449c-8.999-3.122-15.478-11.678-15.478-21.725zm0 88.068c0-10.047 6.48-18.603 15.478-21.725v43.448c-8.999-3.121-15.478-11.677-15.478-21.723zm0 88.066c0-10.047 6.48-18.603 15.478-21.725v43.449c-8.999-3.121-15.478-11.677-15.478-21.724zm0 88.068c0-10.047 6.48-18.603 15.478-21.725v43.449c-8.999-3.121-15.478-11.678-15.478-21.724zm0 88.067c0-10.047 6.48-18.603 15.478-21.725v43.449c-8.999-3.121-15.478-11.677-15.478-21.724z"/></g></g></svg>