<svg id="Capa_1" enable-background="new 0 0 512.145 512.145" height="512" viewBox="0 0 512.145 512.145" width="512" xmlns="http://www.w3.org/2000/svg"><g><path d="m196.098 421.407h119.948v60.654h-119.948z" fill="#d7d0d6"/><path d="m196.098 421.407h43.263v60.654h-43.263z" fill="#c9bfc8"/><path d="m456.472 55.226h-357.99v14.598h-77.136c-.731.757-1.445 1.529-2.125 2.333v304.822l61.333 24.539h401.539l22.109-29.052v-269.51c0-26.36-21.37-47.73-47.73-47.73z" fill="#a6e7f0"/><path d="m72.835 102.956c0-26.36 21.37-47.73 47.73-47.73h-64.893c-26.36 0-47.73 21.37-47.73 47.73v269.51l72.612 29.052h64.893l-72.612-29.052z" fill="#6bd9e7"/><path d="m73.482 55.226h365.41v49.357h-365.41z" fill="#6bd9e7"/><path d="m456.473 85.227c9.776 0 17.729 7.953 17.729 17.729v221.779c0 9.776-7.953 17.729-17.729 17.729h-400.802c-9.776 0-17.729-7.953-17.729-17.729v-221.779c0-9.776 7.953-17.729 17.729-17.729z" fill="#9cf8d2"/><g id="XMLID_1109_"><g><path d="m504.202 372.466v18.56c0 22.3-18.08 40.38-40.38 40.38h-415.5c-22.3 0-40.38-18.08-40.38-40.38v-18.56z" fill="#e5e1e5"/></g></g><path d="m72.835 391.026v-18.56h-64.893v18.56c0 22.3 18.08 40.38 40.38 40.38h64.893c-22.3 0-40.38-18.08-40.38-40.38z" fill="#d7d0d6"/><path d="m342.063 504.644h-171.981v-16.738c0-9.304 7.542-16.846 16.846-16.846h138.29c9.304 0 16.846 7.542 16.846 16.846v16.738z" fill="#e5e1e5"/><g id="XMLID_1111_"><g><path d="m72.835 342.464h-17.164c-9.776 0-17.729-7.953-17.729-17.729v-221.779c0-9.776 7.953-17.729 17.729-17.729h17.811 2.769 362.641v257.237h-365.41" fill="#6cf5c2"/><path d="m394.114 31.361h-273.811l-21.821 23.865v287.24h315.41v-287.24z" fill="#f9f7f8"/></g></g><path d="m237.213 177.164h-59.199l-24.344 16.096c-1.449.958-3.383-.081-3.383-1.819v-57.83c0-24.053 19.499-43.552 43.552-43.552h43.374c24.053 0 43.552 19.499 43.552 43.552 0 24.054-19.499 43.553-43.552 43.553z" fill="#a6e7f0"/><path d="m276.655 292.631h59.199l24.622 16.281c1.33.879 3.104-.074 3.104-1.669v-58.164c0-24.053-19.499-43.552-43.552-43.552h-43.374c-24.053 0-43.552 19.499-43.552 43.552.001 24.053 19.5 43.552 43.553 43.552z" fill="#fee97d"/><path d="m162.457 31.361h-42.154l-21.821 23.865v287.24h42.155v-287.24z" fill="#efedef"/><path d="m413.892 26.746v28.48h-315.41v-28.48c0-10.63 8.61-19.25 19.24-19.25h276.92c10.63 0 19.25 8.62 19.25 19.25z" fill="#ee6161"/><path d="m159.877 7.496h-42.155c-10.63 0-19.24 8.62-19.24 19.25v28.48h42.155v-28.48c0-10.63 8.61-19.25 19.24-19.25z" fill="#e94444"/><g><path d="m456.473 47.727h-12.582c-4.143 0-7.5 3.357-7.5 7.5s3.357 7.5 7.5 7.5h12.582c22.183 0 40.229 18.047 40.229 40.229v262.009h-341.216c-4.142 0-7.5 3.357-7.5 7.5s3.358 7.5 7.5 7.5h341.216v11.063c0 18.13-14.75 32.88-32.88 32.88h-147.776-119.948-147.776c-18.13 0-32.88-14.75-32.88-32.88v-11.063h108.081c4.142 0 7.5-3.357 7.5-7.5s-3.358-7.5-7.5-7.5h-108.081v-262.01c0-22.182 18.047-40.229 40.229-40.229h12.809c4.142 0 7.5-3.357 7.5-7.5s-3.358-7.5-7.5-7.5h-12.809c-30.454 0-55.229 24.775-55.229 55.229v288.072c0 26.401 21.479 47.88 47.88 47.88h140.276v24.654h-1.671c-13.424 0-24.346 10.921-24.346 24.345v9.238h-13.438c-4.142 0-7.5 3.357-7.5 7.5s3.358 7.5 7.5 7.5h20.938 171.982 21.163c4.143 0 7.5-3.357 7.5-7.5s-3.357-7.5-7.5-7.5h-13.663v-9.238c0-13.424-10.922-24.345-24.346-24.345h-1.672v-24.654h140.276c26.401 0 47.88-21.479 47.88-47.88v-288.072c.001-30.453-24.775-55.228-55.228-55.228zm-121.91 440.179v9.238h-156.981v-9.238c0-5.152 4.192-9.345 9.346-9.345h9.171 119.948 9.172c5.152.001 9.344 4.193 9.344 9.345zm-26.017-24.344h-104.948v-24.654h104.948z"/><path d="m55.671 334.964c-5.64 0-10.229-4.589-10.229-10.229v-221.78c0-5.64 4.589-10.229 10.229-10.229h12.809c4.142 0 7.5-3.357 7.5-7.5s-3.358-7.5-7.5-7.5h-12.809c-13.911 0-25.229 11.317-25.229 25.229v221.779c0 13.911 11.318 25.229 25.229 25.229h307.555c4.143 0 7.5-3.357 7.5-7.5s-3.357-7.5-7.5-7.5h-257.246v-272.236h300.411v272.237h-11.201c-4.143 0-7.5 3.357-7.5 7.5s3.357 7.5 7.5 7.5h61.283c13.911 0 25.229-11.318 25.229-25.229v-221.78c0-13.911-11.318-25.229-25.229-25.229h-12.582c-4.143 0-7.5 3.357-7.5 7.5s3.357 7.5 7.5 7.5h12.582c5.641 0 10.229 4.589 10.229 10.229v221.779c0 5.641-4.589 10.229-10.229 10.229h-35.082v-308.216c0-14.748-11.999-26.747-26.747-26.747h-276.917c-14.748 0-26.747 11.999-26.747 26.747v308.217zm62.056-319.964h276.917c6.478 0 11.747 5.27 11.747 11.747v20.979h-300.411v-20.979c0-6.477 5.27-11.747 11.747-11.747z"/><path d="m288.265 133.611c0-28.149-22.901-51.051-51.052-51.051h-14.068c-4.142 0-7.5 3.357-7.5 7.5s3.358 7.5 7.5 7.5h14.068c19.879 0 36.052 16.172 36.052 36.051 0 19.88-16.173 36.053-36.052 36.053h-59.199c-1.471 0-2.91.433-4.137 1.244l-16.09 10.639v-47.936c0-19.03 14.867-34.833 33.845-35.977 4.135-.249 7.285-3.803 7.036-7.938-.249-4.133-3.797-7.291-7.937-7.035-26.884 1.619-47.944 23.999-47.944 50.949v61.886c0 2.761 1.517 5.299 3.949 6.605 1.112.599 2.333.895 3.551.895 1.446 0 2.887-.418 4.137-1.244l25.845-17.089h56.943c28.151.001 51.053-22.901 51.053-51.052z"/><path d="m276.655 300.131h56.943l25.845 17.09c1.25.826 2.691 1.244 4.137 1.244 1.219 0 2.439-.296 3.552-.895 2.432-1.307 3.948-3.845 3.948-6.605v-61.886c0-28.15-22.901-51.052-51.052-51.052h-43.373c-28.15 0-51.052 22.901-51.052 51.052s22.902 51.052 51.052 51.052zm0-87.104h43.373c19.879 0 36.052 16.173 36.052 36.052v47.935l-16.089-10.639c-1.227-.812-2.666-1.244-4.137-1.244h-59.199c-19.879 0-36.052-16.173-36.052-36.052s16.173-36.052 36.052-36.052z"/><circle cx="320.965" cy="133.612" r="10"/><circle cx="194.63" cy="251.392" r="10"/><path d="m380.981 133.611c0-4.143-3.357-7.5-7.5-7.5h-16.651c-4.143 0-7.5 3.357-7.5 7.5s3.357 7.5 7.5 7.5h16.651c4.143 0 7.5-3.357 7.5-7.5z"/><path d="m139.505 243.893c-4.142 0-7.5 3.357-7.5 7.5s3.358 7.5 7.5 7.5h16.652c4.142 0 7.5-3.357 7.5-7.5s-3.358-7.5-7.5-7.5z"/></g></g></svg>