<svg id="Capa_1" enable-background="new 0 0 511.598 511.598" height="512" viewBox="0 0 511.598 511.598" width="512" xmlns="http://www.w3.org/2000/svg"><g><g><g><path d="m416.793 447.882c0 31.047-25.169 56.216-56.216 56.216h-209.556c-31.047 0-56.216-25.169-56.216-56.216v-384.166c0-31.047 25.169-56.216 56.216-56.216h209.557c31.047 0 56.216 25.169 56.216 56.216v384.166z" fill="#baafb9"/></g><path d="m170.725 447.882v-384.166c0-31.047 25.168-56.216 56.216-56.216h-75.92c-31.047 0-56.216 25.169-56.216 56.216v384.166c0 31.047 25.169 56.216 56.216 56.216h75.92c-31.047 0-56.216-25.169-56.216-56.216z" fill="#aa9ea9"/><path d="m416.793 123.271h-321.988v150.053h120.069l19.371 19.071c5.783 5.695 13.438 8.831 21.554 8.831s15.771-3.136 21.554-8.83l19.371-19.072h120.069z" fill="#aa9ea9"/><g><path d="m386.793 63.716c0-14.455-11.761-26.216-26.216-26.216h-31.201l-8.662 12.656c-2.613 5.024-7.553 8.138-12.912 8.138h-104.006c-5.359 0-10.299-3.113-12.912-8.138l-8.662-12.656h-31.201c-14.455 0-26.216 11.761-26.216 26.216v384.166c0 14.455 11.761 26.216 26.216 26.216h209.557c14.455 0 26.216-11.761 26.216-26.216v-384.166z" fill="#d4f2f6"/></g><path d="m182.261 123.271c-6.371 0-11.536-5.165-11.536-11.536v-48.019c0-9.47 2.352-18.387 6.488-26.216h-26.193c-14.479 0-26.216 11.737-26.216 26.216v59.556 150.053 174.558c0 14.479 11.737 26.216 26.216 26.216h26.193c-4.136-7.829-6.488-16.746-6.488-26.216v-163.023c0-6.371 5.165-11.536 11.536-11.536h32.613l19.371 19.071c6.068 5.976 14.197 9.134 22.758 8.808 7.836-.298 15.221-3.758 20.809-9.26l18.912-18.62h90.069v-150.052z" fill="#a6e7f0"/><path d="m472.187 148.272h-432.776c-17.531 0-31.742 14.212-31.742 31.742v36.568c0 17.531 14.211 31.742 31.742 31.742h181.422c2.745 0 5.38 1.079 7.336 3.005l23.616 23.252c2.227 2.193 5.801 2.193 8.028 0l23.616-23.252c1.956-1.926 4.591-3.005 7.336-3.005h181.422c17.531 0 31.742-14.212 31.742-31.742v-36.568c0-17.531-14.212-31.742-31.742-31.742z" fill="#fee97d"/><g><path d="m71.102 216.583v-36.568c0-17.531 14.212-31.742 31.742-31.742h-63.433c-17.531 0-31.742 14.211-31.742 31.742v36.568c0 17.531 14.212 31.742 31.742 31.742h63.433c-17.53 0-31.742-14.212-31.742-31.742z" fill="#fee45a"/></g><circle cx="256.299" cy="371.917" fill="#f9f7f8" r="37.142"/></g><g><path d="m94.805 125.771c4.143 0 7.5-3.357 7.5-7.5v-54.555c0-26.862 21.854-48.716 48.716-48.716h209.557c26.862 0 48.716 21.854 48.716 48.716v54.556c0 4.143 3.357 7.5 7.5 7.5s7.5-3.357 7.5-7.5v-54.556c-.001-35.133-28.584-63.716-63.717-63.716h-209.556c-35.133 0-63.716 28.583-63.716 63.716v54.556c0 4.142 3.357 7.499 7.5 7.499z"/><path d="m416.793 270.824c-4.143 0-7.5 3.357-7.5 7.5v169.558c0 26.862-21.854 48.716-48.716 48.716h-209.556c-26.862 0-48.716-21.854-48.716-48.716v-169.558c0-4.143-3.357-7.5-7.5-7.5s-7.5 3.357-7.5 7.5v169.558c0 35.133 28.583 63.716 63.716 63.716h209.557c35.133 0 63.716-28.583 63.716-63.716v-169.558c-.001-4.142-3.358-7.5-7.501-7.5z"/><path d="m386.793 125.771c4.143 0 7.5-3.357 7.5-7.5v-54.555c0-18.591-15.125-33.716-33.716-33.716h-31.201c-2.476 0-4.791 1.222-6.189 3.264l-8.662 12.656c-.17.249-.325.508-.465.775-1.314 2.528-3.713 4.099-6.259 4.099h-15.802c-4.143 0-7.5 3.357-7.5 7.5s3.357 7.5 7.5 7.5h15.802c8.003 0 15.367-4.485 19.334-11.74l6.196-9.054h27.246c10.32 0 18.716 8.396 18.716 18.716v54.556c0 4.142 3.357 7.499 7.5 7.499z"/><path d="m184.463 54.054c3.967 7.255 11.331 11.74 19.334 11.74h56.24c4.143 0 7.5-3.357 7.5-7.5s-3.357-7.5-7.5-7.5h-56.24c-2.546 0-4.944-1.57-6.259-4.099-.14-.268-.295-.526-.465-.775l-8.662-12.656c-1.398-2.042-3.714-3.264-6.189-3.264h-31.201c-18.591 0-33.716 15.125-33.716 33.716v54.556c0 4.143 3.357 7.5 7.5 7.5s7.5-3.357 7.5-7.5v-54.556c0-10.32 8.396-18.716 18.716-18.716h27.246z"/><path d="m124.805 270.824c-4.143 0-7.5 3.357-7.5 7.5v169.558c0 18.591 15.125 33.716 33.716 33.716h209.557c18.591 0 33.716-15.125 33.716-33.716v-104.165c0-4.143-3.357-7.5-7.5-7.5s-7.5 3.357-7.5 7.5v104.165c0 10.32-8.396 18.716-18.716 18.716h-209.557c-10.32 0-18.716-8.396-18.716-18.716v-169.558c0-4.142-3.358-7.5-7.5-7.5z"/><path d="m386.793 319.255c4.143 0 7.5-3.357 7.5-7.5v-33.431c0-4.143-3.357-7.5-7.5-7.5s-7.5 3.357-7.5 7.5v33.431c0 4.142 3.357 7.5 7.5 7.5z"/><path d="m472.187 140.771h-293.042c-4.143 0-7.5 3.357-7.5 7.5s3.357 7.5 7.5 7.5h293.042c13.367 0 24.242 10.875 24.242 24.242v36.568c0 13.367-10.875 24.242-24.242 24.242h-185.707c-1.969 0-3.859.774-5.262 2.155l-24.761 24.38c-.363.359-.955.358-1.318.001l-24.761-24.381c-1.402-1.381-3.293-2.155-5.262-2.155h-185.705c-13.367 0-24.242-10.875-24.242-24.242v-36.567c0-13.368 10.875-24.243 24.242-24.243h107.771c4.143 0 7.5-3.357 7.5-7.5s-3.357-7.5-7.5-7.5h-107.771c-21.639 0-39.242 17.604-39.242 39.243v36.567c0 21.639 17.604 39.242 39.242 39.242h182.634l22.571 22.225c3.083 3.035 7.133 4.553 11.183 4.553s8.1-1.518 11.183-4.553l22.571-22.225h182.634c21.639 0 39.242-17.604 39.242-39.242v-36.568c0-21.638-17.604-39.242-39.242-39.242z"/><path d="m290.051 342.698c-7.805-9.015-18.653-14.451-30.547-15.308-11.879-.854-23.407 2.971-32.423 10.774-9.016 7.805-14.452 18.652-15.309 30.546s2.971 23.408 10.774 32.423c7.805 9.017 18.653 14.453 30.547 15.31 1.095.079 2.186.118 3.273.118 8.204 0 16.127-2.238 23.066-6.461l21.984 25.396c1.483 1.713 3.573 2.591 5.674 2.591 1.739 0 3.487-.602 4.906-1.829 3.131-2.711 3.473-7.448.762-10.58l-21.987-25.399c5.859-7.091 9.38-15.796 10.054-25.156.857-11.894-2.971-23.409-10.774-32.425zm-35.88 58.784c-7.897-.569-15.101-4.179-20.283-10.166-5.182-5.985-7.723-13.632-7.154-21.528.568-7.897 4.179-15.1 10.165-20.282 5.435-4.705 12.238-7.232 19.355-7.232.722 0 1.446.026 2.173.078 7.897.568 15.101 4.179 20.283 10.165 5.182 5.985 7.723 13.632 7.154 21.528-.568 7.894-4.176 15.094-10.157 20.276-.002.002-.005.004-.008.006s-.005.005-.007.007c-5.984 5.179-13.634 7.711-21.521 7.148z"/><circle cx="69.822" cy="199.669" r="10"/><circle cx="124.805" cy="199.669" r="10"/><ellipse cx="179.787" cy="199.669" rx="10" ry="10" transform="matrix(.383 -.924 .924 .383 -73.484 289.361)"/><path d="m244.77 199.669c0-5.523-4.477-10-10-10s-10 4.477-10 10 4.477 10 10 10 10-4.477 10-10z"/><circle cx="289.753" cy="199.669" r="10"/><circle cx="344.735" cy="199.669" r="10"/></g></g></svg>