<svg id="Capa_1" enable-background="new 0 0 511.59 511.59" height="512" viewBox="0 0 511.59 511.59" width="512" xmlns="http://www.w3.org/2000/svg"><g><g><g><path d="m134.535 44.861h242.52v198.22h-242.52z" fill="#aa9ea9"/></g><g><path d="m466.983 469.093c0 14.935-12.107 27.042-27.042 27.042h-368.292c-14.935 0-27.042-12.107-27.042-27.042v-219.105h422.376z" fill="#fae2c0"/></g><path d="m112.239 469.093v-219.105h-67.632v219.105c0 14.935 12.107 27.042 27.042 27.042h67.632c-14.934 0-27.042-12.107-27.042-27.042z" fill="#fdd79b"/><g><path d="m44.607 344.976 185.106 50.071c8.501 2.299 17.276 3.465 26.082 3.465s17.581-1.166 26.083-3.465l185.105-50.071v-94.988h-422.376z" fill="#fdd79b"/><path d="m134.535 44.861v35.853 6.865 155.502h56.694v-115.81c0-13.095 12.281-22.721 24.997-19.593l32.818 8.074c2.204.54 4.475.814 6.751.814s4.547-.274 6.767-.818l114.493-28.17v-42.717z" fill="#9b8e99"/><path d="m471.1 317.964c7.646-2.068 12.957-9.006 12.957-16.927v-92.807c0-12.318-9.986-22.303-22.303-22.303h-411.917c-12.318 0-22.303 9.985-22.303 22.303v92.807c0 7.921 5.31 14.858 12.957 16.927l195.75 52.95c12.806 3.464 26.303 3.464 39.11 0l151.411-40.956z" fill="#fccd7f"/><path d="m130.481 311.635c-7.646-2.068-12.957-9.006-12.957-16.927v-92.807c0-6.265 2.586-11.923 6.746-15.974h-74.433c-12.318 0-22.303 9.985-22.303 22.303v92.807c0 7.921 5.31 14.858 12.957 16.927l195.75 52.95c12.806 3.464 26.303 3.464 39.11 0l37.139-10.046z" fill="#fbc56d"/></g><path d="m159.715 358.909h-62.011v135.185c0 5.52 4.475 9.996 9.996 9.996h42.02c5.52 0 9.996-4.475 9.996-9.996v-135.185z" fill="#fccd7f"/><path d="m97.704 358.909h62.011v30h-62.011z" fill="#fbc56d"/><path d="m162.85 371.909h-68.281c-5.545 0-10.04-4.495-10.04-10.04v-56.447c0-12.081 9.794-21.874 21.874-21.874h44.613c12.081 0 21.874 9.794 21.874 21.874v56.447c0 5.545-4.495 10.04-10.04 10.04z" fill="#e9b665"/><path d="m121.349 361.869v-56.447c0-12.081 9.793-21.875 21.875-21.875h-36.821c-12.081 0-21.875 9.794-21.875 21.875v56.447c0 5.545 4.495 10.041 10.04 10.041h36.821c-5.545-.001-10.04-4.496-10.04-10.041z" fill="#d8aa5e"/><circle cx="128.709" cy="327.728" fill="#d7d0d6" r="16.47"/><path d="m352.875 349.909h62.012v144.185c0 5.52-4.475 9.996-9.996 9.996h-42.02c-5.52 0-9.996-4.475-9.996-9.996z" fill="#fccd7f"/><path d="m352.875 349.909h62.011v39h-62.011z" fill="#fbc56d"/><path d="m349.74 371.909h68.281c5.545 0 10.04-4.495 10.04-10.04v-56.447c0-12.081-9.794-21.874-21.874-21.874h-44.613c-12.081 0-21.874 9.794-21.874 21.874v56.447c0 5.545 4.495 10.04 10.04 10.04z" fill="#e9b665"/><path d="m377.058 361.869v-56.447c0-12.081 9.793-21.875 21.875-21.875h-37.358c-12.081 0-21.875 9.794-21.875 21.875v56.447c0 5.545 4.495 10.041 10.04 10.041h37.358c-5.545-.001-10.04-4.496-10.04-10.041z" fill="#d8aa5e"/><circle cx="383.881" cy="327.728" fill="#d7d0d6" r="16.47"/><path d="m418.075 47.266-161.008-39.614c-.828-.204-1.715-.204-2.543 0l-161.009 39.614c-4.04.994-4.04 5.541 0 6.535l161.009 39.614c.828.204 1.715.204 2.543 0l161.009-39.614c4.04-.994 4.04-5.541-.001-6.535z" fill="#c9bfc8"/><path d="m215.627 43.249 93.062-22.897-51.622-12.7c-.828-.204-1.715-.204-2.543 0l-161.009 39.614c-4.04.994-4.04 5.541 0 6.535l161.009 39.614c.828.204 1.715.204 2.543 0l42.916-10.559-84.355-20.755c-9.852-2.423-9.852-16.428-.001-18.852z" fill="#baafb9"/><path d="m420.279 211.307h-15.205c-6.969 0-12.618 5.649-12.618 12.618v21.481c0 2.53 2.051 4.581 4.581 4.581h31.278c2.53 0 4.581-2.051 4.581-4.581v-21.481c.001-6.968-5.648-12.618-12.617-12.618z" fill="#efedef"/></g><g><path d="m461.753 178.427h-39.576v-118.16c3.922-1.819 6.429-5.493 6.429-9.733 0-5.024-3.512-9.265-8.738-10.551l-161.007-39.613c-2.006-.493-4.126-.494-6.13-.001l-161.008 39.614c-5.227 1.286-8.738 5.526-8.738 10.551s3.512 9.265 8.738 10.551l35.31 8.687v108.656h-77.196c-16.434 0-29.804 13.37-29.804 29.804v12.747c0 4.143 3.357 7.5 7.5 7.5s7.5-3.357 7.5-7.5v-12.747c0-8.163 6.641-14.804 14.804-14.804h357.34v10.381h-.103c-11.093 0-20.118 9.024-20.118 20.117v21.481c0 6.662 5.42 12.082 12.081 12.082h31.278c6.661 0 12.081-5.42 12.081-12.082v-21.481c0-11.093-9.024-20.117-20.117-20.117h-.103v-10.381h39.576c8.163 0 14.804 6.641 14.804 14.804v92.807c0 4.522-3.05 8.506-7.415 9.687l-33.58 9.083v-14.385c0-16.197-13.178-29.375-29.375-29.375h-44.612c-16.197 0-29.375 13.178-29.375 29.375v42.345l-58.808 15.907c-11.513 3.114-23.681 3.114-35.193 0l-57.808-15.638v-42.614c0-16.197-13.178-29.375-29.375-29.375h-44.612c-16.197 0-29.375 13.178-29.375 29.375v14.655l-34.58-9.354c-4.365-1.181-7.415-5.164-7.415-9.687v-48.098c0-4.143-3.357-7.5-7.5-7.5s-7.5 3.357-7.5 7.5v48.098c0 10.78 6.954 20.318 17.074 23.717v144.339c0 19.047 15.495 34.542 34.541 34.542h21.404c3.126 4.782 8.519 7.955 14.646 7.955h42.021c6.127 0 11.52-3.173 14.646-7.955h183.859c3.126 4.782 8.519 7.955 14.646 7.955h42.021c6.128 0 11.521-3.173 14.646-7.955h20.404c19.046 0 34.541-15.495 34.541-34.542v-144.34c10.12-3.399 17.074-12.936 17.074-23.717v-92.807c.001-16.433-13.369-29.803-29.803-29.803zm-34.356 45.498v18.563h-25.44v-18.563c0-2.821 2.296-5.117 5.118-5.117h15.205c2.821 0 5.117 2.296 5.117 5.117zm-174.676-123.23c1.007.249 2.043.374 3.077.374 1.031 0 2.062-.124 3.061-.371l33.468-8.234c4.022-.99 6.48-5.053 5.491-9.075-.989-4.021-5.052-6.477-9.075-5.491l-32.947 8.106-144.169-35.47 144.169-35.47 144.168 35.47-79.927 19.664c-4.022.99-6.48 5.053-5.491 9.075.989 4.021 5.054 6.477 9.075 5.491l45.938-11.302v65.232h-227.527v-65.232zm-110.689 53h227.525v24.732h-227.525zm242.526 24.732v-108.656l22.619-5.565v114.221zm-37.359 126.995c0-7.927 6.448-14.375 14.375-14.375h44.612c7.927 0 14.375 6.448 14.375 14.375v56.447c0 1.4-1.14 2.54-2.54 2.54h-68.281c-1.401 0-2.541-1.14-2.541-2.54zm-255.171 0c0-7.927 6.448-14.375 14.375-14.375h44.612c7.927 0 14.375 6.448 14.375 14.375v56.447c0 1.4-1.14 2.54-2.541 2.54h-3.135-62.011-3.135c-1.4 0-2.54-1.14-2.54-2.54zm-39.92 163.671v-140.217l24.921 6.741v26.252c0 8.163 5.612 15.02 13.175 16.968v109.798h-18.555c-10.776 0-19.541-8.767-19.541-19.542zm97.612 27.497h-42.021c-1.376 0-2.496-1.12-2.496-2.496v-114.685h47.012v114.685c0 1.376-1.119 2.496-2.495 2.496zm255.171 0h-42.021c-1.376 0-2.495-1.12-2.495-2.496v-69.062c0-4.143-3.357-7.5-7.5-7.5s-7.5 3.357-7.5 7.5v63.603h-178.16v-109.798c7.036-1.812 12.381-7.873 13.09-15.284l53.977 14.602c7.037 1.903 14.274 2.854 21.513 2.854s14.476-.951 21.513-2.854l54.963-14.867c.607 7.53 5.984 13.716 13.104 15.55v14.233c0 4.143 3.357 7.5 7.5 7.5s7.5-3.357 7.5-7.5v-13.661h47.012v114.685c0 1.375-1.12 2.495-2.496 2.495zm35.051-7.955h-17.555v-109.798c7.563-1.948 13.175-8.805 13.175-16.968v-26.522l23.921-6.471v140.217c0 10.775-8.766 19.542-19.541 19.542z"/><path d="m128.709 351.698c13.218 0 23.971-10.753 23.971-23.97 0-13.218-10.753-23.971-23.971-23.971-13.217 0-23.97 10.753-23.97 23.971s10.753 23.97 23.97 23.97zm0-32.94c4.946 0 8.971 4.024 8.971 8.971s-4.024 8.97-8.971 8.97-8.97-4.023-8.97-8.97 4.024-8.971 8.97-8.971z"/><path d="m383.881 351.698c13.217 0 23.97-10.753 23.97-23.97 0-13.218-10.753-23.971-23.97-23.971-13.218 0-23.971 10.753-23.971 23.971s10.753 23.97 23.971 23.97zm0-32.94c4.946 0 8.97 4.024 8.97 8.971s-4.023 8.97-8.97 8.97-8.971-4.023-8.971-8.97 4.025-8.971 8.971-8.971z"/><circle cx="255.795" cy="299.567" r="10"/></g></g></svg>