<svg id="Capa_1" enable-background="new 0 0 512 512" height="512" viewBox="0 0 512 512" width="512" xmlns="http://www.w3.org/2000/svg"><g><g><path d="m424.889 8h79.111v496h-79.111z" fill="#ecb85e" transform="matrix(-1 0 0 -1 928.89 512)"/><path d="m424.889 486h79.111v18h-79.111z" fill="#eaa949"/><path d="m424.889 504h-310.76c-5.67 0-10.267-4.597-10.267-10.267v-485.733h321.028v496z" fill="#f6e080"/><path d="m114.129 504h310.761v-18h-321.028v7.733c0 5.67 4.596 10.267 10.267 10.267z" fill="#eccd61"/><path d="m103.862 169.621h321.028v185.363h-321.028z" fill="#e2ae84"/><path d="m103.862 336.984h321.028v18h-321.028z" fill="#d7a379"/><g><path d="m103.862 465.517h183.792v28.216c0 5.67-4.597 10.267-10.267 10.267h-163.258c-5.67 0-10.267-4.597-10.267-10.267z" fill="#909ba5"/><path d="m277.387 486h-163.258c-5.67 0-10.267-4.597-10.267-10.267v18c0 5.67 4.597 10.267 10.267 10.267h163.258c5.67 0 10.267-4.597 10.267-10.267v-18c0 5.67-4.597 10.267-10.267 10.267z" fill="#808b95"/><path d="m287.654 465.517c95.862-46.046 95.862-155.845 95.862-155.845h-375.516s0 109.799 95.862 155.845z" fill="#9ec8fc"/><path d="m74.663 447.517c8.584 6.656 18.261 12.746 29.198 18h183.792c10.938-5.254 20.614-11.344 29.198-18z" fill="#80b6fc"/><path d="m360.358 309.672c.742-2.338 1.145-4.826 1.145-7.409 0-13.512-10.954-24.466-24.466-24.466s-24.466 10.954-24.466 24.466c0 2.583.403 5.072 1.145 7.409z" fill="#dc4955"/><path d="m361.504 302.263c0-3.794-.864-7.386-2.405-10.591h-44.121c-1.541 3.205-2.405 6.797-2.405 10.591 0 2.583.403 5.072 1.145 7.409h46.641c.742-2.338 1.145-4.826 1.145-7.409z" fill="#d82f3c"/><path d="m261.45 309.672c1.403-3.084 2.191-6.508 2.191-10.118 0-13.512-10.954-24.466-24.466-24.466s-24.466 10.954-24.466 24.466c0 3.61.788 7.033 2.192 10.118z" fill="#b3e59f"/><path d="m214.71 299.554c0 3.61.788 7.033 2.192 10.118h44.548c1.403-3.084 2.191-6.508 2.191-10.118 0-2.759-.463-5.408-1.305-7.882h-46.321c-.842 2.474-1.305 5.123-1.305 7.882z" fill="#95d6a4"/><g><path d="m141.022 275.101c.161-.003.32-.012.482-.012 12.718 0 23.167 9.705 24.351 22.113-.048-.621-.076-1.247-.076-1.881 0-12.586 9.505-22.947 21.727-24.309.376-1.704.58-3.473.58-5.29 0-13.512-10.954-24.466-24.466-24.466s-24.466 10.954-24.466 24.466c0 3.323.666 6.49 1.866 9.379z" fill="#f6e080"/></g><path d="m187.506 271.012c.376-1.704.58-3.473.58-5.29 0-3.701-.826-7.208-2.297-10.352-16.149 2.893-22.168 11.583-22.168 11.583-5.928-5.546-15.076-8.287-22.981-9.642-.96 2.623-1.484 5.456-1.484 8.411 0 3.323.666 6.49 1.866 9.379h.002c.161-.003.32-.012.482-.012 12.718 0 23.167 9.705 24.351 22.113-.048-.621-.076-1.247-.076-1.881-.002-12.586 9.502-22.947 21.725-24.309z" fill="#eccd61"/><path d="m311.427 309.672c.742-2.338 1.145-4.826 1.145-7.409 0-13.512-10.954-24.466-24.466-24.466s-24.466 10.954-24.466 24.466c0 2.583.403 5.072 1.145 7.409z" fill="#f6e080"/><path d="m263.641 302.263c0 2.583.403 5.072 1.145 7.409h46.641c.742-2.338 1.145-4.826 1.145-7.409 0-3.794-.864-7.386-2.405-10.591h-44.121c-1.541 3.205-2.405 6.797-2.405 10.591z" fill="#eccd61"/><path d="m73.587 309.672h4.208 29.569c5.877-4.469 9.674-11.532 9.674-19.485 0-13.512-10.954-24.466-24.465-24.466-10.969 0-20.252 7.219-23.357 17.165 4.07 4.369 6.563 10.226 6.563 16.668-.001 3.61-.789 7.034-2.192 10.118z" fill="#dc4955"/><path d="m74.475 291.672c.843 2.473 1.303 5.124 1.303 7.882 0 3.61-.788 7.033-2.191 10.118h4.208 29.569c5.509-4.188 9.19-10.657 9.63-18z" fill="#d82f3c"/><path d="m73.587 309.672c1.404-3.084 2.191-6.508 2.191-10.118 0-13.512-10.954-24.466-24.466-24.466s-24.466 10.954-24.466 24.466c0 3.61.788 7.033 2.191 10.118z" fill="#f6e080"/><path d="m26.847 299.554c0 3.61.788 7.033 2.191 10.118h44.548c1.404-3.084 2.191-6.508 2.191-10.118 0-2.759-.463-5.408-1.305-7.882h-46.32c-.842 2.474-1.305 5.123-1.305 7.882z" fill="#eccd61"/><path d="m210.054 309.672c2.926-4.032 4.656-8.988 4.656-14.351 0-13.512-10.954-24.466-24.466-24.466s-24.466 10.954-24.466 24.466c0 5.363 1.73 10.319 4.656 14.351z" fill="#dc4955"/><path d="m165.779 295.321c0 5.363 1.73 10.319 4.656 14.351h39.619c2.926-4.032 4.656-8.988 4.656-14.351 0-1.24-.094-2.458-.272-3.649h-48.387c-.178 1.191-.272 2.409-.272 3.649z" fill="#d82f3c"/><path d="m163.778 309.672c1.403-3.084 2.191-6.508 2.191-10.118 0-13.512-10.954-24.466-24.466-24.466s-24.466 10.954-24.466 24.466c0 3.61.788 7.033 2.191 10.118z" fill="#b3e59f"/><path d="m117.038 299.554c0 3.61.788 7.033 2.191 10.118h44.549c1.403-3.084 2.191-6.508 2.191-10.118 0-2.759-.463-5.408-1.305-7.882h-46.321c-.842 2.474-1.305 5.123-1.305 7.882z" fill="#95d6a4"/><path d="m394.103 140.028c-7.91-7.91-20.787-7.736-28.48.386l-127.59 134.704c.379-.017.759-.029 1.143-.029 11.115 0 20.493 7.415 23.472 17.566l131.069-124.147c8.122-7.693 8.296-20.57.386-28.48z" fill="#e7ecf1"/><g><g><g><path d="m394.103 140.028c-1.851-1.851-3.98-3.242-6.246-4.209 2.138 6.977.358 14.886-5.32 20.265l-129.908 123.048c4.767 3.149 8.372 7.914 10.019 13.523l131.069-124.147c8.122-7.693 8.296-20.57.386-28.48z" fill="#c6d0da"/></g></g></g></g></g><g><path d="m504.485 262.81c4.15 0 7.515-3.365 7.515-7.515v-247.78c0-4.15-3.365-7.515-7.515-7.515h-400.921c-4.15 0-7.515 3.365-7.515 7.515v250.944c-1.246-.148-2.511-.233-3.797-.233-10.571 0-20.127 5.083-26.014 13.298-4.555-2.493-9.778-3.913-15.326-3.913-17.66 0-32.028 14.368-32.028 32.028 0 .881.046 1.754.117 2.623h-11.486c-4.15 0-7.515 3.365-7.515 7.515 0 1.177.141 29.21 12.452 63.325 15.819 43.837 44.672 77.441 83.597 97.474v23.623c0 9.816 7.986 17.802 17.802 17.802h390.634c4.15 0 7.515-3.364 7.515-7.515v-219.132c0-4.15-3.365-7.515-7.515-7.515s-7.515 3.365-7.515 7.515v211.616h-64.236v-481.941h64.236v240.266c.001 4.151 3.365 7.515 7.515 7.515zm-209.255 231.388v-23.623c38.926-20.032 67.778-53.637 83.597-97.474 1.279-3.545 2.42-7.019 3.45-10.409h35.428v134.278h-122.713c.143-.905.238-1.826.238-2.772zm24.972-191.936c.05-9.331 7.652-16.908 16.995-16.908s16.945 7.577 16.994 16.908zm-195.696 0c-.134-.863-.225-1.735-.225-2.623 0-9.373 7.626-16.999 16.999-16.999 8.771 0 16.009 6.677 16.904 15.215.004.055.009.109.013.164.051.534.082 1.073.082 1.62 0 .887-.091 1.76-.225 2.623zm21.934-36.521c0-9.373 7.626-16.999 16.999-16.999 9.084 0 16.504 7.167 16.956 16.141-6.728 2.148-12.491 6.465-16.476 12.123-4.61-4.611-10.617-7.819-17.322-8.945-.104-.764-.157-1.539-.157-2.32zm28.133 36.521c-.768-1.732-1.248-3.578-1.4-5.486-.002-.023-.003-.047-.006-.071-.033-.433-.051-.868-.051-1.307 0-9.373 7.626-16.999 16.999-16.999s16.999 7.626 16.999 16.999c0 2.397-.504 4.718-1.456 6.864zm47.796 0c-.134-.863-.225-1.735-.225-2.623 0-9.373 7.626-16.999 16.999-16.999s16.999 7.626 16.999 16.999c0 .887-.091 1.76-.225 2.623zm148.924-156.907c4.561-5.038 13.064-5.122 17.767-.241 4.905 4.697 4.789 13.204-.241 17.766l-124.082 117.529c-3.148-4.18-7.296-7.562-12.084-9.799zm-100.118 156.907c.05-9.331 7.652-16.908 16.995-16.908 9.342 0 16.944 7.577 16.994 16.908zm98.048 0c-.049-17.618-14.396-31.937-32.026-31.937-9.829 0-18.634 4.454-24.514 11.446-4.228-5.027-9.965-8.744-16.512-10.434l99.632-94.37h21.903v170.696h-31.439c4.93-21.637 5.013-37.022 5.013-37.887 0-4.15-3.364-7.515-7.515-7.515h-14.542zm-258.144-125.295h123.223c4.15 0 7.515-3.365 7.515-7.515s-3.365-7.515-7.515-7.515h-123.223v-146.908h306.627v146.909h-11.187c2.98-9.544.337-20.429-6.831-27.451-10.39-10.836-29.214-10.6-39.305.532l-25.497 26.918h-70.524c-4.15 0-7.515 3.364-7.515 7.515 0 4.15 3.365 7.515 7.515 7.515h56.288l-86.183 90.989c-7.018 1.032-13.302 4.346-18.072 9.164-4.832-6.926-12.326-11.859-20.989-13.306-1-16.767-14.952-30.102-31.965-30.102-17.66 0-32.028 14.368-32.028 32.028 0 1.133.063 2.257.18 3.372-4.102 1.305-7.845 3.418-11.049 6.147-2.294-4.31-5.543-8.034-9.463-10.893v-87.399zm-18.827 96.288c9.373 0 16.999 7.626 16.999 16.998 0 4.573-1.793 8.836-4.976 12.008h-21.452c.07-.869.117-1.742.117-2.623 0-6.597-2.007-12.735-5.439-17.836 2.975-5.221 8.527-8.547 14.751-8.547zm-58.339 26.384c0-9.373 7.626-16.999 16.999-16.999s16.999 7.626 16.999 16.999c0 .886-.067 1.761-.201 2.623h-33.596c-.134-.861-.201-1.737-.201-2.623zm77.166 194.559v-20.757h46.341c4.15 0 7.515-3.365 7.515-7.515s-3.364-7.515-7.515-7.515h-52.125c-37.04-18.259-63.458-48.507-78.53-89.928-7.891-21.685-10.477-41.035-11.324-51.192h360.398c-.847 10.16-3.434 29.509-11.323 51.192-15.072 41.421-41.49 71.669-78.53 89.928h-98.506c-4.15 0-7.515 3.365-7.515 7.515s3.365 7.515 7.515 7.515h92.722v20.757c0 1.529-1.244 2.772-2.772 2.772h-163.579c-1.529.001-2.772-1.243-2.772-2.772z"/><path d="m475.706 50.497h-21.708c-4.15 0-7.515 3.365-7.515 7.515s3.364 7.515 7.515 7.515h21.708c4.15 0 7.515-3.364 7.515-7.515s-3.364-7.515-7.515-7.515z"/><path d="m475.706 79.936h-21.708c-4.15 0-7.515 3.365-7.515 7.515s3.364 7.515 7.515 7.515h21.708c4.15 0 7.515-3.365 7.515-7.515s-3.364-7.515-7.515-7.515z"/><path d="m475.706 109.585h-21.708c-4.15 0-7.515 3.365-7.515 7.515s3.364 7.515 7.515 7.515h21.708c4.15 0 7.515-3.364 7.515-7.515s-3.364-7.515-7.515-7.515z"/><path d="m475.706 419.746h-21.708c-4.15 0-7.515 3.365-7.515 7.515s3.364 7.515 7.515 7.515h21.708c4.15 0 7.515-3.364 7.515-7.515s-3.364-7.515-7.515-7.515z"/><path d="m475.706 449.394h-21.708c-4.15 0-7.515 3.365-7.515 7.515s3.364 7.515 7.515 7.515h21.708c4.15 0 7.515-3.365 7.515-7.515s-3.364-7.515-7.515-7.515z"/><path d="m349.285 74.671c0-4.15-3.364-7.515-7.515-7.515h-154.756c-4.15 0-7.515 3.364-7.515 7.515 0 4.15 3.365 7.515 7.515 7.515h154.756c4.15 0 7.515-3.365 7.515-7.515z"/><path d="m320.76 109.776c0-4.15-3.365-7.515-7.515-7.515h-97.706c-4.15 0-7.515 3.364-7.515 7.515s3.364 7.515 7.515 7.515h97.706c4.15 0 7.515-3.364 7.515-7.515z"/></g></g></svg>