<svg id="Capa_1" enable-background="new 0 0 517.045 517.045" height="512" viewBox="0 0 517.045 517.045" width="512" xmlns="http://www.w3.org/2000/svg"><g><g><path d="m126.047 50.244-29.49-29.49c-14.14-14.14-37.06-14.14-51.19 0l-27.27 27.26c-14.13 14.14-14.13 37.06 0 51.19l29.5 29.5 48.646 12.606 43.417-46.027z" fill="#efedef"/><path d="m505.917 498.974-4.66-35.67c-.045-.343-10.035-8.935-10.035-8.935l-40.062 39.207 9.486 10.338 35.68 4.66c5.571.72 10.321-4.03 9.591-9.6z" fill="#aa9ea9"/><path d="m495.577 419.774-11.66-11.66-32.391-3.29-51.443 51.443 5.384 30.307 11.66 11.66 43.52 5.68 40.61-40.61z" fill="#fae2c0"/><path d="m69.772 399.92-36.625 6.424-11.66 11.66-10.34 79.2c-.73 5.57 4.02 10.32 9.59 9.59l79.2-10.34 11.66-11.66 11.4-32.008z" fill="#efedef"/><path d="m393.744 72.519-28.587 1.815-332.01 332.01 78.45 78.45 332.01-332.01 6.93-23.472z" fill="#a6e7f0"/><path d="m330.677 212.45 52.811-52.811c5.38-5.379 5.38-14.102 0-19.481l-5.702-5.702c-5.38-5.38-14.102-5.38-19.481 0l-52.811 52.811-91.091 88.59 22.425 26.42z" fill="#f9f7f8"/><path d="m150.367 74.564-28.335-9.425-62.333 61.212 12.218 26.663 333.55 333.56 26.72-26.724-3.673-3.423 23.797-24.413 1.342-.973s1.95 1.775 3.866 3.472l26.397-26.4z" fill="#fee45a"/><path d="m260.053 44.709h35.726v471.715h-35.726z" fill="#ee6161" transform="matrix(.707 -.707 .707 .707 -116.991 278.692)"/><g id="XMLID_1115_"><g><path d="m150.367 74.564-78.45 78.45-24.32-24.31v-.01l78.45-78.45z" fill="#e5e1e5"/></g></g><g id="XMLID_1116_"><g><path d="m498.967 46.244-27.27-27.26c-14.13-14.14-37.05-14.14-51.18 0l-31.97 31.96 1.294 35.264 48.655 48.655 28.502-5.469 31.97-31.96c14.129-14.14 14.129-37.05-.001-51.19z" fill="#efedef"/><path d="m399.538 46.391h33.078v110.945h-33.078z" fill="#6bd9e7" transform="matrix(.707 -.707 .707 .707 49.837 324.046)"/></g></g><g id="XMLID_1117_"><g><path d="m104.831 339.471h36.331v110.945h-36.331z" fill="#6bd9e7" transform="matrix(.707 -.707 .707 .707 -243.243 202.648)"/><path d="m130.523 313.781h36.338v110.945h-36.338z" fill="#2ed1e2" transform="matrix(.707 -.707 .707 .707 -217.521 213.222)"/></g></g></g><g><path d="m503.016 418.807c-.214-1.64-.964-3.163-2.133-4.333l-345.207-345.205c-.003-.003-.005-.006-.007-.008l-24.32-24.32c-.003-.003-.006-.005-.009-.008l-29.483-29.483c-17.036-17.035-44.757-17.035-61.793 0l-27.266 27.264c-8.253 8.253-12.798 19.225-12.798 30.897 0 11.671 4.545 22.644 12.798 30.896l29.486 29.485c.002.002.004.005.006.007l24.32 24.32c.003.002.005.005.008.007l44.083 44.083c2.929 2.928 7.678 2.928 10.606 0 2.929-2.93 2.929-7.678 0-10.607l-38.787-38.787 15.988-15.988 322.945 322.946-15.988 15.988-261.557-261.557c-2.929-2.928-7.678-2.928-10.606 0-2.929 2.93-2.929 7.678 0 10.607l278.522 278.522c1.17 1.169 2.693 1.919 4.333 2.133l79.197 10.34c.71.093 1.418.139 2.12.139 4.23 0 8.266-1.658 11.313-4.706 3.554-3.554 5.219-8.45 4.567-13.433zm-488.016-345.196c0-7.665 2.985-14.871 8.405-20.29l27.265-27.265c11.188-11.189 29.392-11.189 40.58 0l24.188 24.188-67.844 67.844-24.189-24.188c-5.42-5.419-8.405-12.625-8.405-20.289zm43.2 55.085 67.844-67.845 13.714 13.714-21.284 21.285c-.002.002-.004.004-.007.006s-.004.004-.006.007l-25.242 25.243c-.004.004-.009.008-.014.012s-.008.009-.012.014l-21.279 21.278zm50.916-2.275 14.655-14.655 222.191 222.192c1.465 1.464 3.385 2.196 5.304 2.196s3.839-.732 5.304-2.196c2.929-2.93 2.929-7.678 0-10.607l-222.193-222.192 15.987-15.987 322.947 322.945-15.988 15.988-78.153-78.154c-2.929-2.927-7.677-2.929-10.607 0-2.929 2.93-2.929 7.678 0 10.607l78.153 78.154-14.654 14.654zm306.958 360.149 67.845-67.845 4.554 4.554 4.763 36.483-36.126 36.126-36.482-4.763zm82.108 14.263c-.244.244-.537.345-.885.301l-21.422-2.797 19.811-19.811 2.797 21.422c.043.343-.057.641-.301.885z"/><path d="m231.13 354.658-30.366 30.366-67.844-67.845 30.365-30.365c2.929-2.93 2.929-7.678 0-10.607-2.929-2.928-7.678-2.928-10.606 0l-124.83 124.829c-.002.001-.003.003-.005.004s-.003.003-.005.005l-11.656 11.656c-1.169 1.17-1.919 2.693-2.134 4.333l-10.34 79.198c-.65 4.982 1.014 9.879 4.567 13.433 3.048 3.048 7.084 4.707 11.316 4.707.702 0 1.409-.046 2.118-.139l79.199-10.34c1.64-.214 3.163-.964 4.333-2.133l75.132-75.132s0 0 0 0l25.686-25.686c.002-.002.005-.004.008-.007s.004-.005.007-.007l35.662-35.663c2.929-2.93 2.929-7.678 0-10.607-2.929-2.928-7.678-2.928-10.607 0zm-40.973 40.973-15.087 15.087-67.844-67.845 15.086-15.086zm-40.78 40.78-67.844-67.845 15.086-15.086 67.844 67.845zm-37.778 37.779-67.845-67.846 27.172-27.171 67.844 67.845zm-15.161 15.161-76.668 10.009c-.345.055-.642-.056-.886-.301-.244-.244-.345-.542-.3-.885l10.01-76.669 4.554-4.554 67.845 67.845z"/><path d="m284.163 165.936 80.997-80.997 67.844 67.844-80.996 80.997c-2.929 2.93-2.929 7.678 0 10.607 1.465 1.464 3.385 2.196 5.304 2.196s3.839-.732 5.304-2.196l82.084-82.085 6.542 6.541c4.521 4.52 5.069 11.611 1.307 16.861-.338.474-.784.984-1.357 1.559l-6.773 6.772c-2.93 2.929-2.93 7.678-.001 10.606 1.465 1.465 3.384 2.197 5.304 2.197 1.919 0 3.839-.732 5.303-2.196l6.777-6.776c1.16-1.161 2.122-2.281 2.941-3.425 8.059-11.245 6.841-26.472-2.894-36.206l-6.541-6.541 10.605-10.605 6.541 6.541c12.053 12.052 15.847 30.104 9.666 45.989-2.174 5.585-5.427 10.566-9.666 14.806l-39.857 39.857c-.369.37-.975.372-1.346 0l-9.261-9.26c-.371-.371-.371-.976 0-1.346l10.434-10.434c2.929-2.93 2.929-7.678 0-10.607-2.93-2.928-7.678-2.928-10.607 0l-10.434 10.435c-6.218 6.22-6.218 16.338.001 22.559l9.261 9.26c3.013 3.014 7.019 4.673 11.279 4.673s8.267-1.659 11.28-4.672l39.857-39.857c5.718-5.719 10.104-12.438 13.037-19.973 8.338-21.429 3.22-45.779-13.037-62.037l-6.541-6.541 27.748-27.748c17.036-17.036 17.036-44.757 0-61.792l-27.265-27.267c-17.036-17.034-44.756-17.036-61.794 0l-31.963 31.963-23.39 23.39-86.301 86.301c-2.929 2.93-2.929 7.678 0 10.607 2.93 2.928 7.678 2.928 10.608 0zm91.604-91.604 12.783-12.783 67.843 67.844-12.783 12.783zm50.049-50.049c5.419-5.42 12.625-8.405 20.289-8.405 7.665 0 14.871 2.985 20.29 8.405l27.265 27.266c5.42 5.419 8.405 12.625 8.405 20.289s-2.985 14.87-8.405 20.289l-26.66 26.66-67.843-67.844z"/><path d="m325.373 207.146c-2.929 2.93-2.929 7.678 0 10.607 1.465 1.464 3.384 2.196 5.304 2.196 1.919 0 3.839-.732 5.304-2.196l52.812-52.812c8.294-8.295 8.294-21.792 0-30.088l-5.702-5.702c-4.019-4.019-9.361-6.231-15.045-6.231-5.683 0-11.025 2.213-15.044 6.231l-52.812 52.811c-2.929 2.93-2.929 7.678 0 10.607 2.929 2.927 7.677 2.929 10.607 0l52.812-52.811c2.446-2.447 6.43-2.447 8.874 0l5.702 5.701c2.446 2.447 2.446 6.429 0 8.875z"/></g></g></svg>