<svg id="Capa_1" enable-background="new 0 0 510.445 510.445" height="512" viewBox="0 0 510.445 510.445" width="512" xmlns="http://www.w3.org/2000/svg"><g><g><g><path d="m477.513 100.329c14.046 0 25.433 11.387 25.433 25.433v333.907c0 14.046-11.387 25.433-25.433 25.433h-444.58c-14.046 0-25.433-11.387-25.433-25.433v-333.907c0-14.046 11.387-25.433 25.433-25.433z" fill="#baafb9"/></g><path d="m101.332 459.669v-333.907c0-14.046 11.387-25.433 25.433-25.433h-93.832c-14.046 0-25.433 11.387-25.433 25.433v333.907c0 14.046 11.387 25.433 25.433 25.433h93.832c-14.047 0-25.433-11.387-25.433-25.433z" fill="#aa9ea9"/><path d="m447.781 133.275v318.883c0 1.626-1.318 2.945-2.945 2.945h-379.227c-1.626 0-2.945-1.318-2.945-2.945v-318.883c0-1.626 1.318-2.945 2.945-2.945h379.226c1.627 0 2.946 1.318 2.946 2.945z" fill="#d4f2f6"/><path d="m65.609 130.33c-1.626 0-2.945 1.318-2.945 2.945v318.883c0 1.626 1.318 2.945 2.945 2.945h35.722v-324.773z" fill="#a6e7f0"/><path d="m356.651 72.512v80.693c0 2.146-1.669 4.068-4.19 4.835-64.825 19.724-129.651 19.724-194.476 0-2.521-.767-4.19-2.689-4.19-4.835v-80.693l48.592-20.4h112.406z" fill="#aa9ea9"/><path d="m183.761 349.216v24.597c0 3.269-2.65 5.918-5.918 5.918h-72.319l15.258-30.515-15.258-30.515h52.312 25.926v30.515z" fill="#fed402"/><path d="m352.61 318.701h52.312l-15.258 30.515 15.258 30.515h-72.319c-3.269 0-5.918-2.65-5.918-5.918v-24.597-30.515z" fill="#fed402"/><path d="m345.087 349.216h-179.729c-4.155 0-7.523-3.368-7.523-7.523v-45.984c0-4.155 3.368-7.523 7.523-7.523h179.729c4.155 0 7.523 3.368 7.523 7.523v45.984c0 4.155-3.368 7.523-7.523 7.523z" fill="#fedf30"/><path d="m314.793 52.113h-112.406l-48.592 20.399v20.596 60.097c0 2.146 1.669 4.068 4.19 4.835 7.429 2.261 14.859 4.249 22.288 5.991v-42.941c0-10.92 10.241-18.947 20.845-16.338l48.248 11.871c1.911.472 3.882.711 5.857.711s3.946-.239 5.842-.707l95.586-23.519v-20.596z" fill="#9b8e99"/><path d="m390.959 58.605-134.673-33.134c-.693-.17-1.434-.17-2.127 0l-134.672 33.134c-3.379.831-3.379 4.634 0 5.466l134.673 33.134c.693.17 1.434.17 2.127 0l134.673-33.134c3.378-.831 3.378-4.634-.001-5.466z" fill="#c9bfc8"/><path d="m205.416 53.488 82.372-20.267-31.502-7.75c-.693-.171-1.434-.171-2.127 0l-134.672 33.134c-3.379.832-3.379 4.634 0 5.466l134.673 33.134c.699.172 1.428.172 2.127 0l35.904-8.834-86.774-21.35c-7.073-1.739-7.073-11.793-.001-13.533z" fill="#baafb9"/><path d="m195.213 195.814h-8.59c-6.969 0-12.618 5.649-12.618 12.618v15.154c0 2.53 2.051 4.581 4.581 4.581h24.663c2.53 0 4.581-2.051 4.581-4.581v-15.154c.001-6.968-5.649-12.618-12.617-12.618z" fill="#efedef"/></g><g><path d="m477.513 92.829h-90.863c-4.143 0-7.5 3.357-7.5 7.5s3.357 7.5 7.5 7.5h90.862c9.888 0 17.933 8.045 17.933 17.934v333.906c0 9.889-8.045 17.934-17.933 17.934h-444.579c-9.888 0-17.933-8.045-17.933-17.934v-333.907c0-9.889 8.045-17.934 17.933-17.934h90.862c4.143 0 7.5-3.357 7.5-7.5s-3.357-7.5-7.5-7.5h-90.862c-18.16.001-32.933 14.775-32.933 32.934v333.906c0 18.159 14.773 32.934 32.933 32.934h444.58c18.159 0 32.933-14.774 32.933-32.934v-333.906c-.001-18.159-14.774-32.933-32.933-32.933z"/><path d="m396.17 462.602h51.611c4.143 0 7.5-3.357 7.5-7.5v-324.772c0-4.143-3.357-7.5-7.5-7.5h-61.52c-4.143 0-7.5 3.357-7.5 7.5s3.357 7.5 7.5 7.5h54.02v309.772h-44.111c-4.143 0-7.5 3.357-7.5 7.5s3.357 7.5 7.5 7.5z"/><path d="m124.184 137.83c4.143 0 7.5-3.357 7.5-7.5s-3.357-7.5-7.5-7.5h-61.52c-4.143 0-7.5 3.357-7.5 7.5v324.772c0 4.143 3.357 7.5 7.5 7.5h301.543c4.143 0 7.5-3.357 7.5-7.5s-3.357-7.5-7.5-7.5h-294.043v-309.772z"/><path d="m485.163 292.716c0-5.523-4.477-10-10-10s-10 4.477-10 10 4.477 10 10 10 10-4.477 10-10z"/><path d="m117.694 71.354 28.601 7.037v74.815c0 5.454 3.82 10.281 9.507 12.01 9.183 2.794 18.392 5.187 27.616 7.206v16.173c-9.572 1.542-16.913 9.838-16.913 19.838v15.154c0 6.662 5.42 12.082 12.081 12.082h24.663c6.662 0 12.082-5.42 12.082-12.082v-15.154c0-10-7.342-18.295-16.913-19.838v-13.227c18.981 3.284 38.008 4.937 56.999 4.937 14.68 0 29.337-.983 43.934-2.953 4.105-.554 6.983-4.331 6.43-8.436s-4.335-6.978-8.436-6.43c-32.794 4.425-65.93 3.624-98.927-2.353v-68.918l53.944 13.272c.937.231 1.899.347 2.861.347s1.922-.115 2.854-.345l91.072-22.407v69.125c-6.71 2.016-13.619 3.861-20.555 5.49-4.032.947-6.533 4.984-5.587 9.017.813 3.456 3.893 5.787 7.295 5.787.568 0 1.146-.065 1.722-.2 7.639-1.795 15.249-3.842 22.618-6.084 5.687-1.729 9.507-6.557 9.507-12.011v-74.815l28.6-7.037c4.93-1.213 8.242-5.237 8.243-10.015s-3.312-8.803-8.241-10.017c0 0-.001 0-.001-.001l-134.667-33.131c-1.873-.463-3.851-.461-5.716-.002l-134.674 33.135c-4.93 1.214-8.242 5.239-8.241 10.017s3.314 8.801 8.242 10.014zm82.637 137.078v12.236h-18.826v-12.236c0-2.822 2.296-5.118 5.117-5.118h8.591c2.822 0 5.118 2.296 5.118 5.118zm-16.913-51.374c-7.387-1.692-14.763-3.64-22.123-5.852v-69.125l22.123 5.443zm71.805-124.125 115.451 28.405-115.451 28.406-115.452-28.406z"/><path d="m411.302 383.674c1.366-2.212 1.491-4.973.328-7.298l-13.58-27.16 13.58-27.16c1.163-2.325 1.038-5.086-.328-7.298-1.366-2.211-3.78-3.557-6.38-3.557h-44.812v-15.492c0-8.284-6.739-15.023-15.022-15.023h-179.73c-8.283 0-15.022 6.739-15.022 15.023v15.492h-44.812c-2.6 0-5.014 1.346-6.38 3.557-1.366 2.212-1.491 4.973-.328 7.298l13.58 27.16-13.58 27.16c-1.163 2.325-1.038 5.086.328 7.298 1.366 2.211 3.78 3.557 6.38 3.557h72.319c7.398 0 13.418-6.02 13.418-13.418v-17.097h11.709c4.143 0 7.5-3.357 7.5-7.5s-3.357-7.5-7.5-7.5l-37.635-.023.022-46.007 179.753.023-.022 46.007h-110.156c-4.143 0-7.5 3.357-7.5 7.5s3.357 7.5 7.5 7.5h84.253v17.097c0 7.398 6.02 13.418 13.418 13.418h72.319c2.599 0 5.014-1.346 6.38-3.557zm-245.945-26.958h10.903v15.515h-58.602l9.83-19.66c1.056-2.111 1.056-4.598 0-6.709l-9.83-19.66h32.676v15.491c.001 8.284 6.74 15.023 15.023 15.023zm217.599-4.145 9.83 19.66h-58.602v-15.515h10.903c8.283 0 15.022-6.739 15.022-15.023v-15.491h32.676l-9.83 19.66c-1.055 2.111-1.055 4.597.001 6.709z"/></g></g></svg>